<?xml version="1.0" encoding="UTF-8"?><!DOCTYPE svg PUBLIC "-//W3C//DTD SVG 1.1//EN" "http://www.w3.org/Graphics/SVG/1.1/DTD/svg11.dtd"><svg xmlns="http://www.w3.org/2000/svg"><symbol id="360-arrows" viewBox="0 0 52.2 22.4"><path class="st0" d="M28 4.5l-3.2-2.2L28 0M24.8 14.6l5.6 3.9-5.6 3.9"/><path class="st0" d="M26.1 16.6c-2.3 0-4.8 0-7.2-.2-3.2-.2-6.4-.6-9.6-1.5-1.6-.4-3.1-1-4.5-1.7s-2.6-1.8-2.6-2.8C2 9.3 3.3 8.1 4.6 7.2c1.4-.8 2.9-1.5 4.5-2 3.2-1.1 6.5-1.7 9.7-2 1.6-.2 3.2-.3 4.7-.3l-.8-.6.7-.5c-1.5 0-3.1.1-4.7.3-3.3.3-6.6.8-10 1.7-1.7.5-3.4 1-5 1.9-.8.4-1.6 1-2.3 1.7-.4.3-.7.8-1 1.3-.2.4-.4 1.2-.4 1.7 0 .6.1 1.2.4 1.7.2.5.5 1 .9 1.4.7.8 1.5 1.4 2.3 1.9 1.6 1 3.3 1.7 4.9 2.3 3.4 1.1 6.8 1.8 10.1 2.3 2.6.3 5.1.5 7.6.5v-3.9zM52.2 9.9c0-.3-.2-.7-.4-1.2-.5-1-1.5-2-3-2.8-1.4-.8-3.2-1.5-5.3-2.1-2.1-.6-4.4-1.1-7.1-1.4-2.6-.3-5.4-.6-8.4-.6h-2.1v1H28c2.9.1 5.7.3 8.3.8 2.5.4 4.8 1 6.8 1.7s3.6 1.5 4.7 2.3c1.2.8 1.8 1.6 1.9 2.1.1.4.1.6.1.7v.3c0 .1 0 .1-.1.2 0 0-.1.2-.1.3-.2.4-.9 1.2-2.1 1.8-1.2.7-2.8 1.3-4.7 1.9-1.9.5-4.2 1-6.7 1.3-1.6.2-3.4.3-5.2.4l3.1 1.7-2.5 2c1.8-.2 3.5-.4 5.1-.7 5.3-.9 9.6-2.4 12.4-4.3 1.4-.9 2.4-2.1 2.8-3.1.1-.3.2-.5.2-.7 0-.2.1-.5.1-.6v-.4c.1-.1.1-.3.1-.6z"/><g><path class="st0" d="M20.2 13.1c-.6 0-1.1-.2-1.6-.6-.4-.4-.7-1.1-.7-1.7H19c0 .4.2.8.4 1 .2.2.5.3.8.3.3 0 .6-.2.7-.3.3-.3.4-.5.4-.8 0-.6-.4-1.1-1.1-1.1h-.7v-.8l.9-1 .6-.6h-2.7v-1h4v.9L21 9c1 .3 1.4 1.1 1.4 2 0 .6-.3 1.1-.7 1.5-.4.3-.9.6-1.5.6zM24.8 8.5l1.5-1.9h1.3c-.5.6-1.1 1.3-1.6 1.9h.1c1.2 0 2.2 1 2.2 2.2 0 1.3-1.1 2.3-2.4 2.3s-2.4-1-2.4-2.3c.1-.7.5-1.3 1.3-2.2zM26 12c.8 0 1.3-.6 1.3-1.3 0-.7-.6-1.3-1.3-1.3-.7 0-1.3.6-1.3 1.3 0 .7.6 1.3 1.3 1.3zM31.8 13.1c-1.5 0-2.4-1.4-2.4-3.3s.9-3.3 2.4-3.3 2.4 1.4 2.4 3.3c.1 1.9-.8 3.3-2.4 3.3zm0-1c.9 0 1.3-1 1.3-2.3 0-1.3-.4-2.3-1.3-2.3s-1.3 1-1.3 2.3c.1 1.3.5 2.3 1.3 2.3z"/></g><g><path class="st1" d="M35.7 7c-.7 0-1.2-.5-1.2-1.2s.5-1.2 1.2-1.2 1.2.5 1.2 1.2S36.4 7 35.7 7zm0-1.7c-.3 0-.5.2-.5.5s.2.5.5.5.5-.2.5-.5-.2-.5-.5-.5z"/></g></symbol><symbol id="acura-mark" viewBox="0 0 202 200"><path d="M201.8 90.6c-1.7-33.2-13.2-57.6-28.6-70.9C156.5 5.4 125.2-.1 101 0 76.8-.1 45.6 5.4 28.8 19.7 13.4 33 2 57.4.2 90.6c-1.6 31.1 5.3 65.2 22.9 84.5C40.2 194 74.5 200 101 200c26.5 0 60.8-6 77.8-24.9 17.8-19.3 24.6-53.3 23-84.5zM95.3 8.4c3.4-.2 4.1-.2 5.7-.2 1.5 0 2.2 0 5.7.2l.1 72.7H95.3V8.4zM13.8 121.2c-1.1-12.5-4.8-58 13.3-84 7.8-11.3 19.1-18.8 30.6-22.8 16-5.5 35-5.9 35-5.9C85.2 26.7 69.9 66 67 74.6c-3.6 10.7-6.8 16.7-9.8 35.9-1.9 15.8-5.4 55.1-6.3 72.2-21.5-10.2-34.4-29.5-37.1-61.5zm135.3 62.6c-14.7 6.3-33 7.7-48.1 8-15.1-.3-33.4-1.7-48.1-8h-.1c4.9-13.1 28.5-69.7 41.5-91.8h13.3c13 22.1 36.6 78.7 41.5 91.8zm39.1-62.6c-2.8 32-15.6 51.3-37 61.6-.9-17.1-4.4-56.5-6.3-72.2-3.1-19.3-6.2-25.3-9.8-35.9-3.1-8.7-18.3-48-25.8-66.2 0 0 19.1.3 35 5.9 11.5 4 22.8 11.6 30.6 22.8 18 26 14.4 71.5 13.3 84z"/></symbol><symbol id="acura-slogan" viewBox="0 0 849.7 200"><path class="st0" d="M124.7 56c-1-20.5-8.1-35.6-17.6-43.8C96.8 3.3 77.5 0 62.5 0c-15 .1-34.2 3.3-44.6 12.2C8.4 20.4 1.4 35.5.2 56c-1 19.2 3.3 40.1 14.2 52.2 10.5 11.7 31.7 15.4 48.1 15.4 16.4 0 37.6-3.7 48.1-15.4 10.9-11.9 15.1-33.1 14.1-52.2zM59 5.2h7V50h-7.1L59 5.2zM8.6 74.7C8 67.1 5.7 39 16.8 22.9c4.6-6.6 11.3-11.6 18.9-14.2 7-2.2 14.3-3.4 21.6-3.6C52.6 16.4 43.1 40.5 41.4 46c-2.9 7.1-4.9 14.6-6.1 22.2-1.2 9.7-3.4 34-3.9 44.6-13.2-6.4-21.2-18.3-22.8-38.1zm83.5 38.7c-9.1 3.9-20.4 4.7-29.7 4.9-9.3.2-20.6-1-29.7-4.9 3-8.1 17.6-43 25.6-56.6h8.2c8.1 13.6 22.6 48.5 25.6 56.6zm24.2-38.7c-1.7 19.7-9.6 31.7-22.9 38-.6-10.6-2.7-34.9-3.9-44.6-1.2-7.6-3.2-15.1-6.1-22.2C81.6 40.5 72.1 16.3 67.5 5c7.3.2 14.6 1.4 21.6 3.6 7.6 2.6 14.2 7.6 18.9 14.2 11.2 16.2 8.9 44.3 8.3 51.9zm84.6-65h28.2l62.7 103.9h-29.6l-47.3-78.5L190 76.4h40.5L242.4 96h-64.2l-10.5 17.6h-29.3L200.9 9.7zm387.5 104H563V9.8h95.3c33 0 41.6 44 18.4 59.2 10.1 3.8 11.8 16.5 12.2 20.6l.8 24.1h-25.1l-.8-21.2c-.7-9.1-6.4-15.3-15.6-15.3h-48.4l-5-21.7h56c8.7 0 13.8-4.1 13.8-11.8 0-7.3-5-11.8-13.8-11.8h-62.4v81.8m-103.4 0h-23.2c-27.2 0-38.2-15.1-38.2-39.6V9.7h25.7v68.8c.1 13.1 9.1 14.8 17.4 15h36.7c8.3-.2 17.4-1.9 17.4-15V9.7h25.7v64.4c0 24.5-11 39.6-38.2 39.6H485M316 61.9v12.9c.2 8.9 2 17.7 14.4 17.7h78.2v21.2H330c-24.5 0-39.6-10.9-39.8-38.2V48.1c.3-27.3 15.3-38.2 39.8-38.2h78.5v21.2h-78.2c-12.4-.1-14.1 8.7-14.4 17.6v13m442.9-52H787l62.6 103.9H820l-47.3-78.5-24.9 41.3h40.5L800.1 96H736l-10.6 17.6h-29.3L758.8 9.7zM0 165.8h13.5c5.4.3 9.5 4.8 9.3 10.2-.2 5-4.3 9-9.3 9.3h-10v14.2H0v-33.7zm3.5 3.3v12.8h10c3.5-.4 6-3.6 5.6-7.2-.4-2.9-2.7-5.3-5.6-5.6h-10zm40.2 11.8c2.9 0 5.3-2.3 5.3-5.2v-.5c.1-3.3-2.5-6-5.8-6.1H33v30.2h-3.5v-33.5h13.7c5.1 0 9.3 4.1 9.3 9.2v.2c.3 4.7-3.4 8.8-8.1 9h-2.7l10.1 15.1h-4.2l-12.3-18.4h8.4zm34.2-15.2v3.4H62.2v11.8h15.7v3.4H62.2v11.8h15.7v3.4H58.6v-33.6h19.3zm6.7 16.8c.1-9.7 7.9-17.5 17.6-17.5 4.5-.2 8.9 1.5 12.2 4.6l-2.1 2.7c-5.6-5.4-14.6-5.2-20 .4-5.4 5.6-5.2 14.6.4 20 5.5 5.3 14.1 5.3 19.6 0l2.1 2.7c-3.3 3.1-7.7 4.7-12.2 4.6-9.7 0-17.5-7.8-17.6-17.5m35.6-16.8h3.5v33.6h-3.5v-33.6zm26 7.8c-.2-3-2.8-5.4-5.8-5.2-2.8.1-5 2.3-5.2 5.1 0 3.7 3.3 5.2 6.8 6.8 5.7 2.6 9.1 4.7 9.1 10.6s-4.8 9.1-10.5 9.1-10.3-3.6-10.3-9.3h3.5c.2 3.5 3.1 6.2 6.6 6h.2c4 0 6.8-2.1 6.8-5.9s-2.6-5.3-7.1-7.4c-4.5-2.1-8.9-4.1-8.9-10.1-.1-4.5 3.5-8.3 8-8.4h.9c5.7 0 9.2 3.2 9.2 8.5l-3.3.2zm10.6-7.8h3.5v33.6h-3.5v-33.6zm27.3-.7c9.7.1 17.4 7.9 17.4 17.6-.1 9.7-7.9 17.4-17.6 17.4-9.6-.1-17.4-7.9-17.4-17.5.1-9.6 7.9-17.4 17.6-17.5m0 31.6c7.8.1 14.3-6.1 14.4-13.9.1-7.8-6.1-14.3-13.9-14.4-7.8-.1-14.3 6.1-14.4 13.9v.3c0 7.7 6.2 14 13.9 14.1m27.4-25.3v27.9h-3.6v-33.6h3.6l21.3 28v-28h3.6v33.6h-3.6l-21.3-27.9zm55.2 11.2c.1-9.7 7.9-17.5 17.6-17.5 4.5-.2 8.9 1.5 12.2 4.6l-2.1 2.7c-5.6-5.4-14.6-5.2-20 .4-5.4 5.6-5.2 14.6.4 20 5.5 5.3 14.1 5.3 19.6 0l2.1 2.7c-3.3 3.1-7.7 4.7-12.2 4.6-9.7 0-17.5-7.8-17.6-17.5m49.6-1.6c2.9 0 5.3-2.3 5.3-5.2v-.5c.1-3.3-2.5-6-5.8-6.1h-10.1v30.2h-3.5v-33.5h13.7c5.1 0 9.3 4.1 9.3 9.2v.2c.3 4.7-3.4 8.8-8.1 9h-2.7l10.1 15.1h-4.2L308 180.9h8.3zm38.4 18.4L343 170.5l-5.7 14.3h8l1.4 3.4H336l-4.4 11.1H328l13.5-33.6h3.3l13.7 33.6h-3.8zm28-33.6v3.4H367v11.8h15.7v3.4H367v15.1h-3.5v-33.6h19.2zm32.2 0v3.4h-11v30.2h-3.6v-30.2h-10.9v-3.4h25.5zm26 0v3.4h-15.7v11.8h15.7v3.4h-15.7v11.8h15.7v3.4h-19.3v-33.6h19.3zm16.2.1c9.3.5 16.4 8.4 15.9 17.7-.5 8.6-7.3 15.4-15.9 15.9h-9.4v-33.6h9.4zm0 30.1c7.2 0 12.2-6.1 12.2-13.4 0-7.3-5-13.4-12.2-13.4h-5.9v26.8h5.9zm43.8-30.1h13.6c5.4.3 9.5 4.8 9.3 10.2-.2 5-4.3 9-9.3 9.3h-10v14.2H501l-.1-33.7zm3.6 3.3v12.8h10.1c3.5-.4 6-3.6 5.6-7.2-.4-2.9-2.7-5.3-5.6-5.6h-10.1zm45.3-3.4v3.4H534v11.8h15.7v3.4H534v11.8h15.7v3.4h-19.3v-33.6h19.4zm20.9 15.2c2.9 0 5.3-2.3 5.3-5.2v-.5c.1-3.3-2.5-6-5.8-6.1h-10.1v30.2h-3.5v-33.5h13.7c5.1 0 9.3 4.1 9.3 9.2v.2c.3 4.7-3.4 8.8-8.1 9h-2.7l10.1 15.1h-4.2l-12.3-18.4h8.3zm34.8-15.2v3.4h-15.7v11.8h15.7v3.4h-15.7v15.1h-3.6v-33.6h19.3zm23.9-.7c9.7.1 17.4 7.9 17.4 17.6-.1 9.7-7.9 17.4-17.6 17.4-9.6-.1-17.4-7.9-17.4-17.5.1-9.6 7.9-17.4 17.6-17.5m0 31.6c7.8.1 14.3-6.1 14.4-13.9.1-7.8-6.1-14.3-13.9-14.4-7.8-.1-14.3 6.1-14.4 13.9v.3c0 7.7 6.2 14 13.9 14.1m38.3-15.7c2.9 0 5.3-2.3 5.3-5.2v-.5c.1-3.3-2.5-6-5.8-6.1h-10.1v30.2h-3.5v-33.5h13.7c5.1 0 9.3 4.1 9.3 9.2v.2c.3 4.7-3.4 8.8-8.1 9h-2.8l10.1 15.1h-4.2l-12.3-18.4h8.4zm33.5 4.2l14.3-19.4h3.5v33.6h-3.5v-27.8l-12.4 17h-3.8l-12.4-17v27.8h-3.5v-33.6h3.5l14.3 19.4zm50 14.2l-11.6-28.8-5.7 14.3h8l1.4 3.4h-10.8l-4.4 11.1h-3.6l13.5-33.6h3.3l13.7 33.6h-3.8zm12.9-28v27.9h-3.5v-33.6h3.5l21.3 28v-28h3.6v33.6h-3.6l-21.3-27.9zm30.7 11.2c.1-9.7 7.9-17.5 17.6-17.5 4.5-.2 8.9 1.5 12.2 4.6l-2.1 2.7c-5.6-5.4-14.6-5.2-20 .4-5.4 5.6-5.2 14.6.4 20 5.5 5.3 14.1 5.3 19.6 0l2.1 2.7c-3.3 3.1-7.7 4.7-12.2 4.6-9.7 0-17.6-7.8-17.6-17.5m54.9-16.8v3.4H834v11.8h15.7v3.4H834v11.8h15.7v3.4h-19.3v-33.6h19.3z"/></symbol><symbol id="acura-stacked" viewBox="0 0 370.4 200"><path d="M32.9 145.9h14.6l32.7 54H64.7l-24.4-41.2-13 21.8h21l6.3 10.2H21.7l-5.9 9.1H.3l32.6-53.9zM290.1 200h15.5l5.9-9.1h32.9l-6.3-10.2h-21l13-21.8 24.4 41.2H370l-32.7-54h-14.6L290.1 200zM79.3 173v7.2c.3 14.2 8.3 20.2 20.7 19.9h40.8V189h-40.7c-6.8.2-7.3-4.5-7.5-9.2V165.9c.2-4.2.7-9 7.5-8.9h40.7v-11.1H100c-12.4-.3-20.3 5.8-20.7 19.9v7.2zm154.9-15.5H267c4.6 0 6.9 2 6.9 5.9 0 4-2.3 5.9-6.9 5.9h-29.4l2.6 11.6h25.1c4.9-.1 7.7 3.3 8.1 8l.4 11.1h13s-.1-10.4-.4-12.5c-.3-2.1-1.2-7.9-6.3-10.7 12-7.9 7.6-30.8-9.6-30.8H221v54h13.2v-42.5zM180.5 200H192c14.2-.3 20.2-8.3 19.9-20.7v-33.4h-13V182c.2 6.8-4.6 7.3-9.2 7.5h-18.9c-4.2-.2-9-.7-8.9-7.5v-36.1h-13.3v33.5c-.3 12.4 5.8 20.3 19.9 20.6h12zm47.7-93.5c-10.4 11.5-31.2 15.2-47.3 15.1-16.1 0-36.9-3.6-47.3-15.1-10.8-11.7-14.9-32.4-13.9-51.4 1.1-20.2 8-35 17.4-43.1C147.3 3.3 166.3-.1 181 0c14.7-.1 33.7 3.3 43.9 12 9.4 8.1 16.3 22.9 17.4 43.1.9 18.9-3.3 39.6-14.1 51.4zm-50.8-57.2h7l-.1-44.2c-2.1-.1-2.5-.1-3.4-.1-.9 0-1.4 0-3.4.1-.1 0-.1 44.2-.1 44.2zm-27.1 61.8c.6-10.4 2.7-34.3 3.9-43.9 1.9-11.7 3.8-15.4 6-21.9 1.8-5.3 11.1-29.1 15.6-40.2 0 0-11.6.2-21.3 3.6-7 2.4-13.9 7-18.6 13.9-11 15.8-8.7 43.5-8.1 51.1 1.7 19.4 9.5 31.2 22.5 37.4zm59.8.6c-3-8-17.4-42.4-25.2-55.8h-8.1c-7.9 13.4-22.2 47.8-25.2 55.8 8.9 3.8 20.1 4.7 29.2 4.8 9.2-.1 20.3-.9 29.3-4.8zm15.7-89.1c-4.7-6.8-11.6-11.5-18.6-13.9-9.7-3.4-21.3-3.6-21.3-3.6 4.5 11.1 13.8 34.9 15.6 40.2 2.2 6.5 4.1 10.1 6 21.9 1.2 9.6 3.3 33.5 3.9 43.9 13-6.3 20.8-18 22.5-37.5.6-7.5 2.9-35.2-8.1-51z"/></symbol><symbol id="alert-icon" viewBox="0 0 200 200"><title>alert-icon</title><path d="M100 14c47.5 0 86 38.5 86 86s-38.5 86-86 86-86-38.5-86-86 38.5-86 86-86m0-14C44.8 0 0 44.8 0 100s44.8 100 100 100 100-44.8 100-100S155.2 0 100 0zM88.1 134c0-1.6.3-3.1.9-4.6.6-1.4 1.4-2.7 2.5-3.8 1.1-1.1 2.4-1.9 3.8-2.5 3-1.2 6.3-1.2 9.3 0 1.4.6 2.7 1.4 3.8 2.5 1.1 1.1 1.9 2.4 2.5 3.8 1.2 3 1.2 6.3 0 9.2-1.2 2.8-3.5 5.1-6.3 6.2-3 1.2-6.3 1.2-9.3 0-2.9-1.1-5.2-3.4-6.3-6.3-.6-1.4-.9-3-.9-4.5zm21.6-18.9H90.3V54.3h19.4v60.8z"/></symbol><symbol id="arrow-45" viewBox="0 0 26 26"><path d="M21.3 18.2H26V0H7.8v4.7H18L.4 22.3l3.3 3.3L21.3 8z"/></symbol><symbol id="arrow-left" viewBox="0 0 88.7 200"><path d="M80.9 200L0 100 80.9.1l7.8 6.3L12.9 100l75.8 93.7z"/></symbol><symbol id="arrow-noOutline" viewBox="-448.9 -0.5 1059.7 791.8"><path d="M112.3 689.9l102.6 101.5 395.9-396L214.9-.5 112.3 101l229 229.1h-790.2v143.5h777.5z"/></symbol><symbol id="arrow-right" viewBox="0 0 88.7 200"><path d="M7.8.1L88.7 100 7.8 200 0 193.7 75.8 100 0 6.4z"/></symbol><symbol id="bap-alertbell" viewBox="0 0 197.9 176"><path d="M197.9 150.5c-35.6 0-58-114.4-58-114.4l-.2.1C137 15.8 119.9 0 98.9 0S60.8 15.8 58.1 36.2l-.2-.1S35.5 150.5 0 150.5c1 0 0 5.1 0 5.1h78.8c0 11.3 9 20.4 20.2 20.4 11.1 0 20.2-9.1 20.2-20.4H198c-.1 0-1.1-5.1-.1-5.1z"/></symbol><symbol id="black-dot" viewBox="0 0 200 200"><circle cx="100" cy="100.3" r="100"/></symbol><symbol id="build-and-price" viewBox="0 0 148.6 200"><path d="M74.3 14.6L0 57.5v85.8l74.3 42.9 74.3-42.9V57.5L74.3 14.6zm0 123.3c-20.7 0-37.5-16.8-37.5-37.5s16.8-37.5 37.5-37.5 37.5 16.8 37.5 37.5-16.8 37.5-37.5 37.5z"/></symbol><symbol id="calculate-payment" viewBox="0 0 142.8 200"><path d="M134.6 14.8H8.2c-4.5 0-8.2 3.4-8.2 7.5v156.6c0 4.1 3.7 7.5 8.2 7.5h126.4c4.6 0 8.3-3.4 8.3-7.5V22.3c-.1-4.1-3.8-7.5-8.3-7.5zM44 164c0 1.4-1.2 2.5-2.8 2.5H24.7c-1.5 0-2.8-1.1-2.8-2.5v-14.9c0-1.4 1.2-2.5 2.8-2.5h16.5c1.5 0 2.8 1.1 2.8 2.5V164zm0-32.3c0 1.3-1.2 2.5-2.8 2.5H24.7c-1.5 0-2.8-1.1-2.8-2.5v-14.9c0-1.4 1.2-2.5 2.8-2.5h16.5c1.5 0 2.8 1.1 2.8 2.5v14.9zm0-32.3c0 1.3-1.2 2.5-2.8 2.5H24.7c-1.5 0-2.8-1.1-2.8-2.5v-15c0-1.3 1.2-2.5 2.8-2.5h16.5c1.5 0 2.8 1.1 2.8 2.5v15zM82.4 164c0 1.4-1.2 2.5-2.8 2.5H63.2c-1.5 0-2.8-1.1-2.8-2.5v-14.9c0-1.4 1.2-2.5 2.8-2.5h16.5c1.5 0 2.8 1.1 2.8 2.5V164zm0-32.3c0 1.3-1.2 2.5-2.8 2.5H63.2c-1.5 0-2.8-1.1-2.8-2.5v-14.9c0-1.4 1.2-2.5 2.8-2.5h16.5c1.5 0 2.8 1.1 2.8 2.5v14.9zm0-32.3c0 1.3-1.2 2.5-2.8 2.5H63.2c-1.5 0-2.8-1.1-2.8-2.5v-15c0-1.3 1.2-2.5 2.8-2.5h16.5c1.5 0 2.8 1.1 2.8 2.5v15zm38.5 64.6c0 1.4-1.2 2.5-2.8 2.5h-16.5c-1.5 0-2.8-1.1-2.8-2.5v-14.9c0-1.4 1.2-2.5 2.8-2.5h16.5c1.5 0 2.8 1.1 2.8 2.5V164zm0-32.3c0 1.3-1.2 2.5-2.8 2.5h-16.5c-1.5 0-2.8-1.1-2.8-2.5v-14.9c0-1.4 1.2-2.5 2.8-2.5h16.5c1.5 0 2.8 1.1 2.8 2.5v14.9zm0-32.3c0 1.3-1.2 2.5-2.8 2.5h-16.5c-1.5 0-2.8-1.1-2.8-2.5v-15c0-1.3 1.2-2.5 2.8-2.5h16.5c1.5 0 2.8 1.1 2.8 2.5v15zm0-34.9c0 1.4-1.2 2.5-2.8 2.5H24.7c-1.5 0-2.8-1.1-2.8-2.5V37.2c0-1.4 1.2-2.5 2.8-2.5h93.4c1.5 0 2.8 1.1 2.8 2.5v27.3z"/></symbol><symbol id="checkmark" viewBox="0 0 200 200"><path d="M82.5 158.9L27 103.4l9.9-9.9 45.6 45.6 93.8-93.8 9.9 9.9z"/></symbol><symbol id="circle-checkmark" viewBox="0 0 200 200"><path d="M100 0C44.8 0 0 44.8 0 100s44.8 100 100 100 100-44.8 100-100S155.2 0 100 0zM85.5 138.5L48.4 99.7l5.8-6.2 31.2 32.6L145.7 63l5.8 6.2-66 69.3z"/></symbol><symbol id="close" viewBox="0 0 211.7 200"><path d="M107 0C51.8 0 7 44.8 7 100s44.8 100 100 100 100-44.8 100-100S162.2 0 107 0zm0 192c-50.7 0-92-41.3-92-92S56.3 8 107 8s92 41.3 92 92-41.3 92-92 92z"/><path d="M139.8 62.5l-33.2 33.2-33.1-33.2-5.7 5.7 33.2 33.2-33.2 33.1 5.7 5.7 33.1-33.2 33.2 33.2 5.7-5.7-33.2-33.1 33.2-33.2z"/></symbol><symbol id="compare-models" viewBox="0 0 484.7 200"><path d="M481.5 110c-7.3-6.5-23.4-15.3-47.5-20.4-14.6-3.1-31.2-4.3-40.4-5-1.1-.1-32.3-18.8-53.6-26.6-7.7-3.3-21.3-4-30.6-4.6-16.3-1-46.7 2.1-65.2 5.7-14 3-25.9 6-37.1 9 5.8 2.4 11.9 5.3 17.9 8.2 1.5-1.2 3.1-2.5 4.1-3.1 0 0 28.4-8.8 55.9-11 21.9-1.8 35.6.3 44.9 2.7 7 1.9 15.8 4.7 24.3 9.9 13.5 8.2 23.8 15 23.8 15s-125-6.1-132-6.5c0 0-4.6-.6-9.9-1.3 5.9 3.1 11.1 6 14.8 8.1 1.5.9 2.9 1.6 3.8 2.1 9.5.7 25.4 2 39.6 5 22.2 4.7 41.9 13.3 52.8 23.1l2.9 2.6.7 3.8c.7 4 1.7 13.1 2.4 20.5l40.7.2c.1.2.2.4.2.6 2.1 5.6 5.8 10.3 10.5 13.7 4.7 3.3 10.5 5.3 16.7 5.3 12.6 0 23.2-8.1 27.2-19.4 8.7-.5 31.9-1.9 31.9-1.9 3-.2 4.5-.6 4.5-5.1-.1-.1-2.1-24-3.3-30.6zm-60.3 48.3c-11 0-20-9-20-20s9-20 20-20 20 9 20 20-9 20-20 20z"/><path d="M292 108.4c-14.6-3.1-31.2-4.3-40.4-5-1.1-.1-32.2-18.8-53.6-26.6-7.7-3.3-21.3-4-30.7-4.6-16.2-1-46.7 2.1-65.2 5.7C75 83.7 55.8 89.4 34.8 95.7c0 0-20.1 3.8-20.2 3.7-5.5 7.6-18.1 40.1-13.8 56 10.3 4.3 24 7.8 36.8 9.9 4.1 11.9 15.3 20.5 28.5 20.5 13.1 0 24.2-8.4 28.4-20.2l157 .5c.1.2.2.4.2.6 4.1 11.2 14.7 19 27.1 19 12.6 0 23.3-8.1 27.3-19.4 8.6-.5 31.8-1.9 31.8-1.9 3-.2 4.5-.6 4.5-5.1 0 0-2-23.9-3.2-30.5-7-6.5-23.1-15.3-47.2-20.4zM66.4 177c-11.7 0-21.1-9.5-21.1-21.1s9.5-21.1 21.1-21.1c11.7 0 21.1 9.5 21.1 21.1 0 11.6-9.5 21.1-21.1 21.1zm37.5-74.9s-20.5-2.5-24.2-4.3c0 0 5.4-4.4 7.4-5.8 0 0 28.4-8.8 55.9-11 21.9-1.7 35.7.3 44.9 2.8 6.9 1.9 15.8 4.7 24.3 9.9 13.4 8.1 23.6 14.9 23.6 14.9s-124.9-6-131.9-6.5zM279.1 177c-11 0-20-9-20-20s8.9-20 20-20c11 0 20 9 20 20s-8.9 20-20 20z"/></symbol><symbol id="cta-arrow-down" viewBox="0 0 204.3 200"><path d="M2.2 62.3L27 37.5l75.2 75.3 75.2-75.2 24.8 24.7-100 100.1z"/></symbol><symbol id="cta-arrow-outline" viewBox="0 0 200 200"><path d="M.2 0v200h200V0H.2zm189 189h-178V11h178v178z"/><path d="M102.3 122.6l7.9 7.8 30.4-30.4-30.4-30.4-7.9 7.8L119.9 95H59.2v11h59.7z"/></symbol><symbol id="cta-arrow-up" viewBox="0 0 204.3 200"><path d="M202.2 137.6l-24.8 24.8-75.2-75.3L27 162.3 2.2 137.6l100-100.1z"/></symbol><symbol id="cta-arrow" viewBox="0 0 204.3 200"><path d="M64.5 200l-24.8-24.8L115 100 39.8 24.8 64.5 0l100.1 100z"/></symbol><symbol id="cta-play-outline" viewBox="0 0 200 200"><path d="M0 0v200h200V0H0zm188.9 188.9H11.1V11.1h177.8v177.8z"/><path class="st1" d="M118.1 97.4L84.8 64.1v66.7l33.3-33.4z"/></symbol><symbol id="down-arrow" viewBox="0 0 400 200"><path d="M200 200L0 0h400L200 200z"/></symbol><symbol id="drivetrain" viewBox="0 0 310.6 200"><path d="M297.7 38.9c5.8 0 10.8-3.9 12.3-9.2.4-1.2.6-2.5.6-3.9V12.9c0-.8-.1-1.6-.3-2.4C309.2 4.5 304 0 297.7 0h-51.6c-3.2 0-6.1 1.2-8.2 3.1-.3.3-.6.5-.9.8-.4.3-.6.6-.8.9-.3.4-.6.8-.9 1.3-.4.6-.8 1.4-1.1 2.1v.1c-.3.7-.5 1.4-.6 2.3-.2.8-.3 1.5-.3 2.4v12.9c0 1.4.2 2.6.6 3.9 1.5 5.3 6.4 9.2 12.3 9.2h22.6v48.6c-1.7.5-3.3 1.2-4.6 2.4-1.8 1.4-3.3 3.2-4.1 5.3-.3.5-.5 1.1-.6 1.7h-118c-1.7-14.5-13.8-25.8-28.7-25.8-4.7 0-9.2 1.2-13.1 3.2-8.4 4.3-14.5 12.7-15.6 22.6h-33c-1.2-4.5-4.7-8.1-9.2-9.2V38.9h22.6c7.1 0 12.9-5.8 12.9-12.9V13.1C77.4 5.9 71.6.2 64.5.2H12.9C5.7.2 0 5.9 0 13.1V26c0 7.1 5.7 12.9 12.9 12.9h22.6v48.8c-5.5 1.4-9.7 6.4-9.7 12.4s4.1 11 9.7 12.4v48.8H12.9C5.7 161.3 0 167 0 174.2v12.9c0 7.1 5.7 12.9 12.9 12.9h51.6c7.1 0 12.9-5.8 12.9-12.9v-12.9c0-7.2-5.8-13-12.9-13H41.9v-48.8c4.5-1.2 8.1-4.6 9.2-9.2h33c1.1 9.9 7.2 18.3 15.6 22.6 3.9 2 8.4 3.2 13.1 3.2 14.9 0 27.1-11.3 28.7-25.8h117.9c0 .1.1.3.2.5s.1.3.1.5c1.4 4.1 4.8 7.2 9 8.3v48.7h-22.6c-3.2 0-6.1 1.2-8.2 3.1-.3.3-.6.5-.9.8-.4.3-.6.6-.8.9-1.1 1.3-1.9 2.8-2.3 4.4-.4 1.2-.6 2.4-.6 3.7V187c0 1.4.2 2.6.6 3.9 1.5 5.3 6.4 9.2 12.3 9.2h51.6c5.8 0 10.8-3.9 12.3-9.2.4-1.2.6-2.5.6-3.9v-13c0-1.3-.2-2.5-.6-3.7-1.5-5.3-6.5-9.2-12.3-9.2h-22.6v-48.6c3.5-1 6.4-3.3 8.1-6.4.3-.5.5-.9.6-1.4.3-.5.5-1.1.6-1.7.3-1.3.5-2.6.3-4.1-.1-1-.3-1.9-.5-2.7 0-.1-.1-.2-.1-.3 0 0 0-.1-.1-.1-.1-.1-.1-.3-.2-.5s-.1-.4-.3-.6c-.2-.5-.4-.9-.6-1.3-.1-.3-.3-.5-.5-.7-.3-.4-.5-.7-.8-1-.4-.5-.8-1-1.4-1.4-1.4-1.4-3.2-2.4-5.2-2.9V38.9h22.6zm-184.9 80.3c-5.4 0-10.4-2.3-13.9-5.9-3.4-3.5-5.4-8.2-5.4-13.4 0-5.2 2.1-9.9 5.4-13.3 3.5-3.7 8.4-6 13.9-6 10.6 0 19.3 8.7 19.3 19.3 0 10.6-8.7 19.3-19.3 19.3zm184.9 48.4c3.5 0 6.4 2.9 6.4 6.4v12.9c0 3.5-2.9 6.4-6.4 6.4h-51.6c-3.5 0-6.4-2.9-6.4-6.4V174c0-3.5 2.9-6.4 6.4-6.4h51.6zM246.1 32.2c-3.5 0-6.4-2.9-6.4-6.4V12.9c0-3.5 2.9-6.4 6.4-6.4h51.6c3.5 0 6.4 2.9 6.4 6.4v12.9c0 3.5-2.9 6.4-6.4 6.4h-51.6z"/></symbol><symbol id="find-dealer" viewBox="0 0 137.1 200"><path d="M111.5 82.9c-2 10.3-8.1 19.4-16.8 25.3-8.3 5.7-18.3 8.5-28.3 8-4.5-.2-8.9-1-13.2-2.5-2.7-1-5.3-2.2-7.8-3.5-7.9-4.5-14.2-11.5-17.7-19.9-4-9.9-3.6-21.1 1.1-30.7 2.4-4.9 5.8-9.2 9.9-12.7 7.1-6.1 15.9-9.8 25.2-10.6 3.4-.2 6.8-.2 10.1.1 6.6.8 12.9 3 18.5 6.4 8.9 5.3 15.4 13.7 18.2 23.7.9 3.2 1.3 6.5 1.2 9.8.2 2.2 0 4.4-.4 6.6zm23.6-21.1C129 39 111.3 21.1 88.6 14.6c-7.8-2.2-15.9-3.2-24-2.8C40.8 13 19.3 26.3 7.7 47.1 1.4 58.6-1.2 71.8.5 84.8c2.6 17.6 14.5 40.7 34.9 67.7 5.3 7 12 15.2 18.2 22.4 4.5 5.2 10.8 12.1 12.7 13.9.4.5.8.8 1.4 1 .8.3 1.7.2 2.4-.3 1.1-.8 9.1-9.6 15-16.5 27.3-31.7 45-60.8 50.3-82.1 1.2-4.5 1.8-9.1 1.7-13.8 0-5.2-.7-10.4-2-15.3z"/></symbol><symbol id="footer-facebook" viewBox="0 0 103.9 200"><path d="M0 73.3h30.8V44.7s-1.3-18.6 12.9-32.8C57.8-2.2 76.8-.9 103.9 1.5v31.8h-20s-8.4-.2-12.4 4.4c-4 4.6-3.5 11-3.5 12.6v22.9h34.8l-4.5 35.5H67.8v91.4H30.9v-91.5H0V73.3z"/></symbol><symbol id="footer-googleplus" viewBox="0 0 249.2 200"><path d="M79.2 84.4v31.4H122c-6.7 20.3-17.1 31.4-42.8 31.4-26 0-46.2-21.1-46.2-47 0-26 20.3-47 46.2-47 13.7 0 22.6 4.8 30.7 11.6 6.5-6.5 6-7.4 22.5-23.1-14.1-12.8-32.8-20.6-53.3-20.6C35.4 20.9 0 56.3 0 100s35.4 79.2 79.2 79.2c65.4 0 81.3-56.9 76-94.8h-76zm142.6 1.5V58.5h-19.6v27.4H174v19.6h28.2v28.2h19.6v-28.2h27.4V85.9h-27.4z"/></symbol><symbol id="footer-instagram" viewBox="0 0 174.2 200"><path d="M155.5 12.9H18.7C8.4 12.9 0 21.3 0 31.6v136.8c0 10.3 8.4 18.7 18.7 18.7h136.8c10.3 0 18.7-8.4 18.7-18.7V31.6c0-10.3-8.4-18.7-18.7-18.7zm-100 70.4c.7-1.4 1.6-2.8 2.5-4.1 0 0 0-.1.1-.1l2.1-2.7c0-.1.1-.1.1-.2.7-.8 1.5-1.6 2.3-2.4.1-.1.2-.1.2-.2.2-.2.5-.4.7-.7.1-.1.2-.2.3-.2.4-.4.9-.7 1.3-1.1.1-.1.2-.2.4-.3.2-.2.5-.4.7-.5.2-.1.3-.2.5-.3l.9-.6c.3-.2.6-.4.9-.5.2-.1.4-.3.6-.4.2-.1.4-.3.7-.4l.6-.3 1.2-.6c.2-.1.3-.2.5-.2.3-.1.6-.3.9-.4.2-.1.4-.2.6-.2.4-.1.7-.3 1.1-.4.2-.1.3-.1.5-.2.4-.1.8-.3 1.2-.4.2-.1.3-.1.5-.2.4-.1.8-.2 1.1-.3.1 0 .3-.1.4-.1l1.5-.3c.1 0 .3-.1.4-.1.4-.1.8-.2 1.2-.2.1 0 .3 0 .4-.1.5-.1 1-.1 1.6-.2h.3c.5 0 .9-.1 1.3-.1H89.2c.5 0 .9.1 1.3.1h.3c.5.1 1 .1 1.6.2.1 0 .3 0 .4.1.4.1.8.1 1.2.2.1 0 .3.1.4.1l1.5.3c.1 0 .2.1.4.1.4.1.8.2 1.1.3.2.1.3.1.5.2.4.1.8.3 1.2.4.1.1.3.1.5.2.4.1.7.3 1.1.4.2.1.4.2.6.2.3.1.6.3.9.4.2.1.3.2.5.2l1.2.6.6.3c.2.1.5.3.7.4.2.1.4.3.6.4.3.2.6.4.8.5l.9.6c.2.1.3.2.5.3.2.2.5.3.7.5.1.1.2.2.4.3.5.4.9.7 1.3 1.1.1.1.2.2.3.2.2.2.5.4.7.7l.2.2c.8.8 1.5 1.5 2.3 2.4l.2.2 2.1 2.7s0 .1.1.1c.9 1.3 1.7 2.6 2.5 4.1 2.6 4.9 4 10.5 4 16.4 0 19.7-16 35.7-35.6 35.7-19.7 0-35.7-16-35.7-35.7 0-5.9 1.4-11.5 4-16.4zm98.6 72.5c0 6.2-5 11.2-11.2 11.2H31.3c-6.2 0-11.2-5-11.2-11.2V83.3h15.3c-1.6 5.2-2.5 10.7-2.5 16.4 0 30 24.3 54.3 54.3 54.3 30 0 54.3-24.3 54.3-54.3 0-5.7-.9-11.3-2.5-16.4h15.3v72.5zm.3-100.5c0 4.8-3.9 8.8-8.8 8.8h-14.1c-4.8 0-8.8-3.9-8.8-8.8V41.2c0-4.8 3.9-8.8 8.8-8.8h14.1c4.8 0 8.8 3.9 8.8 8.8v14.1z"/></symbol><symbol id="footer-mail" viewBox="0 0 189.9 200"><path d="M171.8 71.4c-16.5 11.4-33.2 22.9-49.6 34.4-6.9 4.8-18.5 14.5-27.1 14.5h-.2c-8.6 0-20.2-9.7-27.1-14.5-16.4-11.5-33.1-23-49.5-34.4C10.7 66.3 0 54.4 0 44.7c0-10.4 5.6-19.3 16.9-19.3h156c9.2 0 16.9 7.6 16.9 17 .1 11.9-8.7 22.6-18 29zm18.1 86.3c0 9.3-7.6 17-16.9 17H17c-9.3 0-16.9-7.6-16.9-17V73.5c3.2 3.5 6.8 6.6 10.7 9.2 17.6 12 35.4 23.9 52.7 36.6 8.9 6.6 19.9 14.6 31.5 14.6h.1-.1c11.5 0 22.6-8.1 31.5-14.6 17.3-12.5 35.1-24.6 52.8-36.6 3.8-2.6 7.4-5.7 10.6-9.2v84.2z"/></symbol><symbol id="footer-pinterest" viewBox="0 0 155.1 200"><path d="M28.9 114.2l2.6-9.2s1.2-4.3-1.3-7.3c0 0-7.7-9.9-7.7-23.6s9.4-54.2 57.7-54.2c0 0 46.6-1.7 46.6 45.7 0 0 .2 42.7-24 55.8-24.2 13-34.2-11.1-29.6-23.3 4.7-12.2 9.9-30.4 9.2-37.5-.7-7.1-3.8-16.3-15.8-16-12 .3-23.1 13.9-22.2 29.9 0 0 .9 10.8 4 17.2l-13.9 60.6s-2.6 11.1-2.8 18.1c-.2 6.9 1.2 26.1 1.2 26.1s0 3.3 1.2 3.5c1.2.2 4-2.6 6.1-5.9 2.1-3.3 12.9-16.2 18.1-37.9l6.4-25.2s10.8 14.3 28.3 13.9c17.5-.3 40.2-8.2 52.2-34.9 12-26.8 9.6-43.7 9.6-43.7S152.3-2.6 77.7.2C2.9 3.1.1 70.1.1 70.1s-2.6 32.3 22.7 45.4c-.1 0 5.2 2.1 6.1-1.3z"/></symbol><symbol id="footer-tumblr" viewBox="0 0 104.3 200"><path d="M0 48.1h5.4s15.8-3.7 23.1-16.6C35.8 18.6 35 8.4 35 8.4h26v39.7h41.1V80H61.3v51.9s.3 8.3 1.1 11.5c.8 3.2 7.2 10.8 17.2 10.8s24.7-6.4 24.7-6.4v38.4s-20.4 5.4-32.6 5.4c-12.3 0-47-1.3-52.6-36.6V79.8H0V48.1z"/></symbol><symbol id="footer-twitter" viewBox="0 0 204.3 200"><path d="M14.2 24.6S45.6 66.2 100.1 69c0 0-7.4-24.5 15.2-43.3 22.6-18.8 50.6-2.9 56 4.2 0 0 15.9-2.5 27-10 0 0-3.6 14.4-17.1 23 0 0 15.7-2.1 23-6.3 0 0-7.7 12.3-20.9 21.7 0 0 5.6 51.9-39 94.7C99.8 195.9 26.5 186.9 0 164.5c0 0 35.9 4 61.3-17.5 0 0-29.9-.6-38.5-28.5 0 0 15 1.2 17.5-1.7 0 0-32.2-7.8-32.5-41.4 0 0 9.8 4.9 18.7 5.2 0-.1-31.1-22.5-12.3-56z"/></symbol><symbol id="footer-youtube" viewBox="0 0 211.7 200"><path d="M208 56.3c-3.3-12.4-7.3-20-12-24.4-4.7-4.4-14.6-5.5-90.2-5.5-75.7 0-85.5 1.1-90.2 5.5-4.7 4.4-8.7 12-12 24.4C.4 68.6 0 99.9 0 99.9c0 41.1 7.3 61.5 16.7 68.4 9.5 6.9 89.1 5.1 89.1 5.1s79.7 1.8 89.1-5.1c9.5-6.9 16.7-27.3 16.7-68.4.1 0-.3-31.3-3.6-43.6zM84.4 138.8V61L144 99.9l-59.6 38.9z"/></symbol><symbol id="ilx_logo" viewBox="0 0 1061 200"><path d="M867.3 102.8L997.9 200H840.5l-63.3-50-91.4 47.8H518L710.4 97.1l-121-95.6H731l67 49.8 95.2-49.8H1061L867.3 102.8zM226.8 0l-37.1 140.5s-3.1 26.6 11 39.7c14.1 13.1 29.2 19.8 63.2 19.8h222.5l11-43.3H330.3c-13.2 0-45.9-6.3-37.6-37.1C301.1 88 325.5 0 325.5 0h-98.7zM102.9 200c-.5-.1 49.6-200 49.6-200H53.7L0 200h102.9z"/></symbol><symbol id="mag_glass" viewBox="0 0 200 200"><path d="M199.5 187.7l-41.1-41.1c12.9-15.5 20.7-35.4 20.7-57.1C179.1 40.3 139 .2 89.8.2 40.5.2.5 40.2.5 89.5s40.1 89.3 89.3 89.3c21.4 0 41-7.6 56.4-20.2l41.2 41.2 12.1-12.1zM17.6 89.5c0-39.8 32.4-72.2 72.2-72.2 39.8 0 72.2 32.4 72.2 72.2 0 39.8-32.4 72.2-72.2 72.2-39.8-.1-72.2-32.4-72.2-72.2z"/></symbol><symbol id="mdx_logo" viewBox="0 0 200 29.3"><path d="M119.8.2c-4-.2-4.3-.2-9.5-.2h-38v29.3h38.6c2.4 0 6.1 0 8.8-.2 7.4-.6 11-8.1 11-15-.1-7.5-3.8-13.6-10.9-13.9zM113 24c-1.8.2-4.3.2-4.3.2H84V4.6h24.7c1.4 0 2.9 0 4.3.1 3.9.3 5.8 3.7 5.9 9.3.1 4.9-1.8 9.5-5.9 10zM154.8 0h-18.1l45.6 29.3h18.2z"/><path d="M199.9 0h-5.8c-4.6 0-5.1 0-9.4 2.2l-49.9 27.1h5.7c5.8 0 6.7-.4 12.2-3.3l47.2-26zM48.8 0c-3.8 0-4.4 0-7.6 3.2L30.1 14.7h.1L20.1 3.9C16.6.2 15 0 12.3 0H-.5v29.3h8.4V5.7h-.5l17 18.1h7L48.6 5.9h-.2v23.4H60V0H48.8z"/></symbol><symbol id="minus" viewBox="0 0 200 200"><path d="M100 7.1c24.8 0 48.1 9.7 65.7 27.2 17.5 17.5 27.2 40.9 27.2 65.7 0 24.8-9.7 48.1-27.2 65.7-17.5 17.5-40.9 27.2-65.7 27.2-24.8 0-48.1-9.7-65.7-27.2C16.8 148.1 7.2 124.8 7.2 100c0-24.8 9.7-48.1 27.2-65.7C51.9 16.8 75.2 7.1 100 7.1m0-7.1C74.4 0 48.8 9.8 29.3 29.3c-39 39-39.1 102.4 0 141.4C48.8 190.2 74.4 200 100 200s51.2-9.8 70.7-29.3c39-39.1 39.1-102.4 0-141.4C151.2 9.8 125.6 0 100 0zm50 96.4H50v7.1h100v-7.1z"/></symbol><symbol id="mobile-list-arrow-down" viewBox="0 0 351.41 196.82"><title>mobile-list-arrow-down</title><path d="M175.7 196.82L0 21.22 21.21 0 175.7 154.4 330.2 0l21.21 21.22-175.71 175.6z"/></symbol><symbol id="mobile-list-arrow-up" viewBox="0 0 351.41 196.82"><title>mobile-list-arrow-up</title><path d="M175.7 0L0 175.6l21.21 21.22L175.7 42.41l154.5 154.41 21.21-21.22L175.7 0z"/></symbol><symbol id="play-noOutline" viewBox="0 0 612 792"><path d="M551.3 395.2L157.4.9v789.3l393.9-395z"/></symbol><symbol id="play" viewBox="0 0 200 200"><path d="M100 5.7c52 0 94.3 42.3 94.3 94.3S152 194.3 100 194.3 5.7 152 5.7 100 48 5.7 100 5.7m0-5.7C44.8 0 0 44.8 0 100s44.8 100 100 100 100-44.8 100-100S155.2 0 100 0z"/><path d="M128.6 100.8L88.2 62v77.6l40.4-38.8"/></symbol><symbol id="plus" viewBox="0 0 200 200"><path d="M100 7.1c24.8 0 48.1 9.7 65.7 27.2 17.5 17.5 27.2 40.9 27.2 65.7 0 24.8-9.7 48.1-27.2 65.7-17.5 17.5-40.9 27.2-65.7 27.2-24.8 0-48.1-9.7-65.7-27.2C16.8 148.1 7.2 124.8 7.2 100c0-24.8 9.7-48.1 27.2-65.7C51.9 16.8 75.2 7.1 100 7.1m0-7.1C74.4 0 48.8 9.8 29.3 29.3c-39 39-39.1 102.4 0 141.4C48.8 190.2 74.4 200 100 200s51.2-9.8 70.7-29.3c39-39.1 39.1-102.4 0-141.4C151.2 9.8 125.6 0 100 0zm3.6 50h-7.1v100h7.1V50zM150 96.4H50v7.1h100v-7.1z"/></symbol><symbol id="quote-mark" viewBox="0 0 221.1 200"><path d="M53.3 200C18.5 200 0 165.2 0 121.8 0 67.7 23.5 30 48.4 3c4.3-4.3 7.8-3.6 11.4-.7l13.5 12.1c5 5 2.8 9.2-.7 12.8-19.9 21.3-39.8 47.6-39.8 84.6 0 5 .7 10.7 2.8 16.4 5-3.6 16.4-6.4 23.5-6.4 22.8 0 34.1 19.2 34.1 34.8 0 24.9-14.3 43.4-39.9 43.4zm128 0c-34.8 0-53.3-34.8-53.3-78.2 0-54 23.5-91.7 48.3-118.8 4.3-4.3 7.8-3.6 11.4-.7l13.5 12.1c5 5 2.8 9.2-.7 12.8-19.9 21.3-39.8 47.6-39.8 84.6 0 5 .7 10.7 2.8 16.4 5-3.6 16.4-6.4 23.5-6.4 22.8 0 34.1 19.2 34.1 34.8 0 24.9-14.2 43.4-39.8 43.4z"/></symbol><symbol id="search-inventory" viewBox="0 0 183.7 200"><path d="M179.3 171.7l-30.4-30.4c8.7-12.9 13.7-28.4 13.7-45.2 0-44.9-36.4-81.3-81.3-81.3S0 51.2 0 96.1s36.4 81.3 81.3 81.3c16.4 0 31.7-4.9 44.5-13.3l30.5 30.5c5.9 5.9 15.5 5.9 21.5 0l1.5-1.6c5.9-5.8 5.9-15.4 0-21.3zm-98-15.4c-33.2 0-60.2-27-60.2-60.2 0-33.3 27-60.3 60.2-60.3s60.2 27 60.2 60.3c0 33.2-27 60.2-60.2 60.2z"/><path d="M95.2 57.9c-13.4 0-24.3 10.9-24.3 24.3 0 3.1.6 6 1.7 8.7l-29.5 29.5v13.9H57l6.9-6.9v-7h6.9v-7h6.9l8.6-8.6c2.7 1.1 5.6 1.7 8.7 1.7 13.4 0 24.3-10.9 24.3-24.3s-10.7-24.3-24.1-24.3zm12.3 36.6L82.9 69.9c3.1-3.1 7.5-5.1 12.3-5.1 9.6 0 17.4 7.8 17.4 17.4 0 4.8-2 9.1-5.1 12.3z"/></symbol><symbol id="special-offers" viewBox="0 0 171.2 200"><path d="M0 25.1v-7.8c.5-1.5 1.5-2.5 3-3h8.4c.4 0 .8.1 1.1.1l25.5.3 43.4.6c1.6 0 2.8.5 3.8 1.6l85.8 85.8c.8.8 1.6 1.6 2 2.8v1.7c-.4 1.1-1.1 1.9-1.9 2.7l-75.2 75.2c-.9.9-1.8 1.9-3.1 2.3h-1.6c-1.2-.4-2-1.2-2.9-2C65.2 162.2 42 139 18.9 115.9c-5.5-5.5-10.9-11-16.4-16.4-.8-.8-1.4-1.8-1.4-3C.9 85.2.7 73.9.6 62.6.4 50.5.3 38.4.1 26.3c0-.4-.1-.8-.1-1.2zm42.5 16.1c-8.6 0-15.6 7-15.5 15.6 0 8.6 7 15.5 15.6 15.5s15.5-7 15.5-15.6C58 48.1 51 41.2 42.5 41.2z"/></symbol><symbol id="trade-in-value" viewBox="0 0 229.1 200"><path d="M229.1 91.4c-.1 6.8-2.5 13.3-6.7 18.8-6.7 8.6-17.1 11.8-24.7 13l-.8.1v-.8c-.1-2.2-.2-4.6-.4-7.1l-.1-.8v-.3c-.1-.6-1.1-6.2-2.8-11.6l-.2-.7.7-.2c1.2-.3 2.3-.7 3.4-1.1 1.7-.8 3.2-1.9 4.2-3.2 1-1.3 1.7-2.9 1.8-4.5.2-3-1.2-6-3.8-8.2-1.8-1.5-4-2.8-6.9-4.1-2-.9-4-1.7-6-2.5-4.6-1.9-9.3-3.8-13.6-6.3-10.5-6.3-15.7-14.2-15.9-24.3V45c.9-13.3 8.2-22.5 21.7-27.4 2.4-.9 3.7-1.4 4.2-2.1.5-.7.5-2 .5-4.5V6.8 5 2.7c0-.1 0-.3.1-.6.3-1 1.4-1 1.9-1H200.4c.5 0 1.6 0 1.9.9.1.2.1.4.1.5v6.6c0 2 0 3.5-.1 4.6v1.1c.5.1 1.2.2 2 .2 1 .1 2.3.3 3.6.5 5.3.9 10 2.2 14 3.9h.1c2.5 1 3.6 1.6 3.6 2.5 0 .4 0 .8-.1 1.3s-.3 1.1-.5 1.6l-.3.9c-.4 1.2-.8 2.5-1.2 3.8-.7 2.3-1.5 4.7-2.4 7.3-.2.7-1.5 4.5-2.8 4.2-.8-.1-3-1.2-3.7-1.5-6.7-3.2-13.6-4.5-21.1-4.1-2 0-3.9.4-5.5 1.1-3.5 1.5-5.5 4.5-5.2 7.7.2 2 1.3 4 3.3 5.5 2.4 1.9 5.5 3.6 9 5.1.7.3 1.5.6 2.2.9 4.9 2 10 4.1 14.7 6.8 10.8 5.9 17.4 17 17.1 28.9z"/><path d="M188.9 129.9c0-4.4-.6-14.2-.6-14.2-1.3-7.6-4-16.3-5.4-17.6-.6-.6.2-1.3.2-1.3 1.1-.9 5.7-3.9 5.7-4.5 0-1.3-4.2-4.4-7.4-6-1.8-.5-9.9-1-12.5-1-2.5 0-3 1.4-3.1 2.1v2.9h-4.3c-9.5-12-14.5-20.7-21.7-23.8-5.4-2.3-31.4-3.9-44.8-3.9-6.7 0-16.9.4-26.2 1.1-9.3.7-17.6 1.7-20.3 2.8-7.2 3.1-12.3 11.8-21.6 23.9h-4.3v-2.9c-.1-.8-.5-2.2-3.1-2.1-2.5 0-10.7.5-12.5 1C3.8 88-.4 91-.4 92.4c0 .6 4.6 3.6 5.7 4.5 0 0 .8.7.2 1.3-1.5 1.3-4.2 10-5.5 17.6 0 0-.6 9.7-.6 14.2 0 4.2 0 32.2-.1 33 0 0 2.3 1.5 2.3 3.3v13.8c0 4.2 2.9 6.3 6.6 6.3h15.4c3.8 0 5.2-3 5.2-6.3v-13.2h130.6V180c0 3.3 1.4 6.3 5.2 6.3H180c3.7 0 6.6-2.1 6.6-6.3v-13.8c0-1.7 2.3-3.3 2.3-3.3-.1-.7 0-28.8 0-33zM52.2 73c2.3-1.4 20.5-3.4 41.9-3.4s39.6 2 41.9 3.4c2.5 1.5 13.2 16.9 14.8 21.1-1.1 0-28.9.1-56.7.1s-55.6 0-56.7-.1c1.7-4.3 12.3-19.6 14.8-21.1zm-16 57.3s-26.4-.9-30.5-1.6c0 0 0-5.4 3.3-14.3 0 0 30.8 3.4 36.6 4.3l-9.4 11.6zm57.9 14.8c-18.9-3.4-31-6.9-37.9-9.2-4.9-1.7-7.9-3-9.4-3.7 4.1-7.2 7.3-10.9 8.4-12.1l38.9.5 38.9-.5c1.1 1.1 4.3 4.8 8.4 12.1-3.8 1.8-17.2 7.5-47.3 12.9zm57.9-14.8l-9.3-11.6c5.8-.9 36.6-4.3 36.6-4.3 3.3 8.9 3.3 14.3 3.3 14.3-4.2.6-30.6 1.6-30.6 1.6z"/></symbol></svg>