<?xml version="1.0" encoding="UTF-8"?><!DOCTYPE svg PUBLIC "-//W3C//DTD SVG 1.1//EN" "http://www.w3.org/Graphics/SVG/1.1/DTD/svg11.dtd"><svg xmlns="http://www.w3.org/2000/svg"><symbol id="sample-bike" viewBox="0 0 26 26"><path d="M17.8 11.8h-.4l-.8-3.1h1.3c.1 0 .3 0 .4.1.1.1.1.2.1.2 0 .3-.1.5-.4.5h-.1c-.2 0-.3.1-.3.3s.1.3.3.3c.6 0 1.1-.4 1.1-1V9c0-.2-.1-.5-.3-.6-.2-.2-.5-.3-.9-.2h-1.7c-.1 0-.2 0-.2.1-.1.1-.1.2-.1.3l.4 1.5h-5.1l-.4-1.3H12c.2 0 .3-.1.3-.3s-.1-.3-.3-.3H9.3c-.2 0-.3.1-.3.3s.1.3.3.3h.8l.5 1.5-1.2 1.8c-1.5-.7-3.2 0-3.9 1.4-.2.4-.3.8-.3 1.2 0 1.6 1.3 3 2.9 3.1 1.4 0 2.6-1 2.9-2.4h1.3c.1 0 .2-.1.2-.2l3.9-3.9.2.7c-1.5.6-2.2 2.3-1.6 3.7.6 1.5 2.3 2.2 3.7 1.6 1.5-.6 2.2-2.3 1.6-3.7-.3-1.1-1.3-1.8-2.5-1.8zm-9.6 5.4c-1.3 0-2.3-1.1-2.3-2.4 0-1.3 1-2.3 2.3-2.3.3 0 .6 0 .8.1l-1.4 2.1c-.1.1-.1.3 0 .4 0 .1.1.2.3.3h2.6c-.3 1.1-1.2 1.8-2.3 1.8zm.3-2.4l1.1-1.7c.5.4.8 1 .9 1.7h-2zm2.7 0c0-.9-.5-1.7-1.2-2.3l.9-1.3 1.2 3.6h-.9zm1.4-.4l-1.3-3.7h5l-3.7 3.7zm5.2 2.7c-1.3 0-2.3-1-2.3-2.3 0-.9.6-1.8 1.4-2.1l.5 2.2c0 .1.2.2.3.2h.1c.2 0 .3-.2.2-.4l-.5-2.2c1.3-.1 2.4.8 2.6 2 .1 1.3-.8 2.4-2 2.6h-.3z"/></symbol></svg>