<?xml version="1.0" standalone="no"?>
<!DOCTYPE svg PUBLIC "-//W3C//DTD SVG 1.1//EN" "http://www.w3.org/Graphics/SVG/1.1/DTD/svg11.dtd" >
<svg xmlns="http://www.w3.org/2000/svg" xmlns:xlink="http://www.w3.org/1999/xlink" version="1.1">
<metadata></metadata>
<defs>
<font id="acura_bespokebold" horiz-adv-x="1712" >
<font-face units-per-em="2048" ascent="1536" descent="-512" />
<missing-glyph horiz-adv-x="583" />
<glyph horiz-adv-x="0" />
<glyph horiz-adv-x="682" />
<glyph unicode=" "  horiz-adv-x="583" />
<glyph unicode="&#x09;" horiz-adv-x="583" />
<glyph unicode="&#xa0;" horiz-adv-x="583" />
<glyph unicode="!" horiz-adv-x="722" d="M201 119q0 65 45 109t114 44q67 0 114.5 -44.5t47.5 -108.5q0 -62 -47.5 -105t-114.5 -43q-69 0 -114 42.5t-45 105.5zM227 1434h262l-14 -1016h-233z" />
<glyph unicode="&#x22;" horiz-adv-x="690" d="M70 1434h225l-16 -512h-195zM395 1434h226l-17 -512h-194z" />
<glyph unicode="#" horiz-adv-x="1515" d="M80 422l61 196h256l60 199h-258l63 199h250l129 418h219l-125 -418h203l129 418h215l-125 -418h279l-60 -199h-276l-60 -199h281l-64 -196h-274l-119 -422h-229l129 422h-203l-125 -422h-225l129 422h-260zM614 618h207l58 199h-201z" />
<glyph unicode="$" horiz-adv-x="1331" d="M211 430h242q0 -119 73 -192q21 -24 62 -37v446q-80 40 -134 74.5t-106 86t-78 119.5t-26 154q0 154 90 255t248 120v162h166v-166q134 -24 219 -109q110 -110 110 -311h-235q0 127 -58 182q-21 17 -36 25v-393q106 -55 168.5 -93.5t107.5 -84.5q111 -118 111 -287 q0 -171 -103 -277t-272 -127v-165h-172v165q-155 22 -250 117q-121 121 -127 336zM483 1096q0 -99 99 -164v315q-99 -33 -99 -151zM760 197q59 18 93 63t34 115q0 57 -32.5 100.5t-94.5 83.5v-362z" />
<glyph unicode="%" horiz-adv-x="1482" d="M33 1087q0 161 92 269t235 108q141 0 233.5 -108t92.5 -269q0 -162 -92 -267t-234 -105q-144 0 -235.5 105t-91.5 267zM51 0l1149 1434h234l-1139 -1434h-244zM231 1087q0 -88 32.5 -143t96.5 -55t96.5 55t32.5 143q0 90 -32.5 145.5t-96.5 55.5t-96.5 -55.5 t-32.5 -145.5zM805 342q0 161 92.5 269t235.5 108q141 0 233 -108t92 -269q0 -162 -91.5 -267.5t-233.5 -105.5q-144 0 -236 105.5t-92 267.5zM1004 342q0 -89 32.5 -144t96.5 -55t96.5 55t32.5 144q0 90 -32.5 145.5t-96.5 55.5t-96.5 -55.5t-32.5 -145.5z" />
<glyph unicode="&#x26;" horiz-adv-x="1591" d="M240 446q0 154 90 276.5t235 166.5l-280 350v195h893v-230h-363q-135 0 -201 4v-4q57 -65 129 -157l818 -1047h-293l-140 176q-66 -96 -170.5 -151.5t-228.5 -55.5q-201 0 -345 140.5t-144 336.5zM492 446q0 -103 69 -174t170 -71q87 0 152.5 44.5t93.5 121.5l-262 331 q-95 -10 -159 -82.5t-64 -169.5z" />
<glyph unicode="'" horiz-adv-x="364" d="M70 1434h225l-16 -512h-195z" />
<glyph unicode="(" horiz-adv-x="790" d="M141 717q0 224 84 459t236 409h274q-181 -225 -263.5 -435t-82.5 -431t82.5 -433t263.5 -438h-274q-151 174 -235.5 410t-84.5 459z" />
<glyph unicode=")" horiz-adv-x="790" d="M55 -152q181 225 263.5 435.5t82.5 431.5t-82.5 432.5t-263.5 437.5h275q151 -174 235 -409.5t84 -458.5q0 -225 -84 -460t-235 -409h-275z" />
<glyph unicode="*" horiz-adv-x="872" d="M78 1024v166l219 -6l-115 186l148 92l106 -192l107 192l147 -92l-115 -186l220 6v-166l-220 6l115 -186l-147 -92l-107 192l-106 -192l-148 92l115 186z" />
<glyph unicode="+" horiz-adv-x="1558" d="M229 606v221h424v441h254v-441h422v-221h-422v-448h-254v448h-424z" />
<glyph unicode="," horiz-adv-x="612" d="M88 -285l148 531h290l-270 -531h-168z" />
<glyph unicode="-" horiz-adv-x="1206" d="M117 606v221h973v-221h-973z" />
<glyph unicode="." horiz-adv-x="571" d="M125 119q0 65 45.5 109t114.5 44q66 0 113.5 -44.5t47.5 -108.5q0 -62 -47 -105t-114 -43q-69 0 -114.5 42.5t-45.5 105.5z" />
<glyph unicode="/" horiz-adv-x="1622" d="M-29 -154l1379 1739h301l-1366 -1739h-314z" />
<glyph unicode="0" horiz-adv-x="1245" d="M72 711q0 219 64 388t189.5 266t295.5 97q171 0 297.5 -97t191 -266t64.5 -388q0 -215 -64.5 -383.5t-191 -266.5t-297.5 -98q-128 0 -232 56.5t-173 157t-106.5 237t-37.5 297.5zM332 715q0 -155 30.5 -270t96.5 -182.5t162 -67.5q144 0 218 141.5t74 378.5 q0 154 -31 269t-97.5 183t-163.5 68q-96 0 -162 -68t-96.5 -183t-30.5 -269z" />
<glyph unicode="1" horiz-adv-x="649" d="M-35 1204l180 230h340v-1434h-254v1204h-266z" />
<glyph unicode="2" horiz-adv-x="1193" d="M100 0v201l533 547q95 99 130.5 160t35.5 141q0 85 -59 136.5t-152 51.5q-119 0 -182 -80.5t-58 -212.5h-233q-2 18 -2 57q0 203 131 334t338 131q227 0 356 -129q54 -54 85.5 -132t31.5 -165q0 -123 -75 -242.5t-257 -295.5l-137 -140q-88 -88 -144 -133v-4q61 4 205 4 h402v-229h-949z" />
<glyph unicode="3" horiz-adv-x="1208" d="M82 489h252q5 -68 31 -132t67 -103q67 -64 174 -64q48 0 90.5 19.5t67.5 44.5q80 80 80 190q0 107 -67.5 179.5t-182.5 72.5h-150v158l209 231q6 7 27.5 30t33 34.5t30 29.5t34.5 31v4q-63 -4 -196 -4l-402 -2v226h899v-209l-307 -334q163 -51 242.5 -168t79.5 -279 q0 -99 -40.5 -189.5t-109.5 -156.5q-137 -131 -342 -131q-216 0 -354 135q-71 71 -115.5 174t-50.5 213z" />
<glyph unicode="4" horiz-adv-x="1271" d="M35 338v184l694 912h260v-873h256v-223h-256v-338h-252v338h-702zM340 559h397v397q0 104 6 181h-4q-58 -109 -88 -148z" />
<glyph unicode="5" horiz-adv-x="1220" d="M70 489h252q5 -68 31 -132t67 -103q67 -64 174 -64q108 0 184 76q82 82 82 213q0 56 -19.5 110t-52.5 87q-86 86 -206 86q-141 0 -230 -107h-221l121 779h780v-226h-581l-43 -272h2q96 55 182 55q144 0 263 -68.5t187 -186t68 -257.5q0 -208 -154 -362 q-70 -70 -165.5 -110t-200.5 -40q-216 0 -354 135q-71 71 -115.5 174t-50.5 213z" />
<glyph unicode="6" horiz-adv-x="1200" d="M63 492q0 120 59.5 230t199.5 282l350 430h305q-295 -359 -354 -435h26q136 0 250 -70t178 -186.5t64 -250.5q0 -148 -72 -268t-195 -187.5t-270 -67.5t-271 67.5t-197 188t-73 267.5zM315 492q0 -123 80 -207t207 -84q128 0 208.5 84t80.5 207q0 120 -84.5 206 t-204.5 86q-118 0 -202.5 -86t-84.5 -206z" />
<glyph unicode="7" horiz-adv-x="1112" d="M94 0l582 1036q67 123 100 174v4q-123 -4 -297 -4l-377 -2l-2 226h975v-193l-698 -1241h-283z" />
<glyph unicode="8" horiz-adv-x="1142" d="M72 408q0 122 63.5 220t181.5 156v4q-79 48 -124.5 126.5t-45.5 172.5q0 158 124.5 266.5t299.5 108.5t299.5 -108.5t124.5 -266.5q0 -94 -45.5 -172.5t-124.5 -126.5v-4q119 -59 183 -157t63 -219q-2 -192 -141.5 -316.5t-358.5 -124.5t-359 125t-140 316zM322 412 q0 -105 70 -170.5t179 -65.5q110 0 180 65.5t70 170.5q0 98 -70 167.5t-180 69.5t-179.5 -69.5t-69.5 -167.5zM393 1085q0 -82 51.5 -136t126.5 -54q74 0 126.5 54.5t52.5 135.5q0 75 -51 126t-128 51t-127.5 -50.5t-50.5 -126.5z" />
<glyph unicode="9" horiz-adv-x="1200" d="M59 942q0 147 72 267.5t195 187.5t270 67t271 -67t197 -187.5t73 -267.5q0 -120 -59 -230t-199 -282l-351 -430h-305q29 35 107 128.5t138 167.5t110 138h-27q-136 0 -250 70.5t-178 187t-64 250.5zM309 942q0 -120 84.5 -206.5t204.5 -86.5q118 0 202.5 86.5t84.5 206.5 q0 123 -80 207t-207 84q-128 0 -208.5 -84t-80.5 -207z" />
<glyph unicode=":" horiz-adv-x="704" d="M193 119q0 65 45 109t114 44q67 0 114.5 -44.5t47.5 -108.5q0 -62 -47.5 -105t-114.5 -43q-69 0 -114 42.5t-45 105.5zM193 723q0 65 45.5 109.5t113.5 44.5q66 0 114 -45t48 -109q0 -62 -47.5 -105t-114.5 -43q-69 0 -114 42.5t-45 105.5z" />
<glyph unicode=";" horiz-adv-x="722" d="M119 -285l147 531h291l-270 -531h-168zM242 723q0 65 45.5 109.5t113.5 44.5q66 0 114 -45t48 -109q0 -62 -47.5 -105t-114.5 -43q-69 0 -114 42.5t-45 105.5z" />
<glyph unicode="&#x3c;" horiz-adv-x="1456" d="M240 606v197l977 528v-291l-639 -340l639 -331v-291z" />
<glyph unicode="=" horiz-adv-x="1579" d="M229 397v226h1121v-226h-1121zM229 825v226h1121v-226h-1121z" />
<glyph unicode="&#x3e;" horiz-adv-x="1456" d="M240 78v291l639 340l-639 331v291l977 -528v-197z" />
<glyph unicode="?" horiz-adv-x="1132" d="M115 965q-6 214 124 357.5t343 143.5q134 0 241.5 -61t165.5 -160t58 -215q-3 -239 -199 -354l-146 -86q-38 -21 -38 -72v-131h-244v154q0 149 143 233l121 70q107 60 107 194q0 87 -55 144t-158 57t-164 -77t-58 -197h-241zM385 119q0 65 45.5 109t114.5 44 q67 0 114.5 -44.5t47.5 -108.5q0 -62 -47.5 -105t-114.5 -43q-69 0 -114.5 42.5t-45.5 105.5z" />
<glyph unicode="@" horiz-adv-x="1714" d="M86 715q0 214 98 390t275 278t397 102q228 0 401.5 -84t272 -249.5t98.5 -391.5q0 -81 -21.5 -155.5t-62 -133.5t-105 -94t-143.5 -35q-113 0 -187.5 49.5t-111.5 159.5l-114 344q-12 31 -21 76h-4q-13 -62 -18 -76l-56 -182h95l51 -156h-203l-61 -166h-203l305 803h195 l217 -561q26 -64 53 -91.5t70 -27.5q57 0 88.5 68.5t31.5 177.5q0 243 -152.5 386.5t-404.5 143.5q-161 0 -291.5 -77t-203 -208t-72.5 -288q0 -158 77 -287.5t204.5 -201.5t277.5 -72q171 0 309 88l99 -178q-202 -113 -408 -113q-155 0 -296.5 58t-246.5 158t-167 242.5 t-62 303.5z" />
<glyph unicode="A" horiz-adv-x="1323" d="M-49 0l571 1434h269l581 -1434h-266l-389 997q-38 93 -64 191h-4q-22 -92 -59 -191l-148 -393h252l82 -211h-414l-153 -393h-258z" />
<glyph unicode="B" horiz-adv-x="1142" d="M152 0v1434h378q148 0 234.5 -29.5t148.5 -91.5q113 -113 113 -269q0 -96 -40.5 -174.5t-123.5 -126.5v-4q99 -40 158 -132.5t59 -207.5q0 -156 -123 -276q-65 -64 -155.5 -93.5t-247.5 -29.5h-401zM393 211h213q111 0 170 59q53 53 53 142q0 94 -57 145t-182 51h-197 v-397zM393 825h170q108 0 164 56q51 51 51 145t-51 145q-52 52 -164 52h-170v-398z" />
<glyph unicode="C" horiz-adv-x="1486" d="M84 717q0 155 60.5 294t162 237.5t239 156t285.5 57.5q367 0 580 -233l-147 -170q-103 93 -203.5 131.5t-216.5 38.5q-138 0 -252 -68.5t-179 -186t-65 -257.5q0 -139 66.5 -257t181.5 -186.5t252 -68.5q115 0 215 39t201 131l147 -170q-214 -234 -580 -234 q-199 0 -370 97t-274 269.5t-103 379.5z" />
<glyph unicode="D" horiz-adv-x="1388" d="M152 0v1434h466q289 0 478 -189q97 -97 153 -236.5t56 -291.5t-56 -292t-153 -237q-188 -188 -478 -188h-466zM403 225h181q109 0 187 29.5t140 91.5t95.5 161t33.5 210t-33.5 209.5t-95.5 160.5t-140 91.5t-187 29.5h-181v-983z" />
<glyph unicode="E" horiz-adv-x="1097" d="M152 0v1434h843v-226h-594v-381h594v-221h-594v-381h611v-225h-860z" />
<glyph unicode="F" horiz-adv-x="1069" d="M152 0v1434h852v-226h-603v-381h603v-221h-603v-606h-249z" />
<glyph unicode="G" horiz-adv-x="1644" d="M84 717q0 121 38.5 234.5t108.5 205t163 161t209 107t239 37.5q166 0 316 -57t259 -176l-147 -170q-109 94 -207 132t-213 38q-138 0 -254.5 -68.5t-184 -186.5t-67.5 -257q0 -105 39 -199.5t106 -164t162 -110t203 -40.5q170 0 297 100.5t170 269.5h-520v222h803v-33 q0 -162 -57.5 -308t-156.5 -252t-239.5 -168.5t-300.5 -62.5q-210 0 -386.5 100.5t-278 272t-101.5 373.5z" />
<glyph unicode="H" horiz-adv-x="1460" d="M152 0v1434h254v-603h653v603h252v-1434h-252v602h-653v-602h-254z" />
<glyph unicode="I" horiz-adv-x="561" d="M154 0v1434h254v-1434h-254z" />
<glyph unicode="J" horiz-adv-x="1021" d="M-25 406h254v-9q2 -102 55.5 -161.5t161.5 -59.5q78 0 131.5 53.5t53.5 132.5v1072h250v-1045q0 -187 -123 -308.5t-324 -121.5q-207 0 -333 125t-126 322z" />
<glyph unicode="K" horiz-adv-x="1116" d="M152 0v1434h251v-637h5q103 160 129 192l311 445h289l-512 -705l518 -729h-301l-293 422q-14 17 -41.5 58t-59.5 90.5t-40 60.5h-5v-631h-251z" />
<glyph unicode="L" horiz-adv-x="1032" d="M152 0v1434h254v-1209h620v-225h-874z" />
<glyph unicode="M" horiz-adv-x="1923" d="M152 0v1434h288l525 -717l520 717h287v-1434h-259v827q0 155 9 283h-6q-64 -135 -148 -242l-311 -422h-191l-311 422q-72 92 -147 242h-7q7 -100 7 -283l2 -827h-258z" />
<glyph unicode="N" horiz-adv-x="1552" d="M152 0v1434h274l584 -834q58 -83 143 -235h4q-10 137 -10 231v838h254v-1434h-275l-581 840q-73 104 -146 235h-4q11 -151 11 -231v-844h-254z" />
<glyph unicode="O" d="M84 717q0 152 58 289.5t159 238t245.5 160t309.5 59.5q167 0 312 -59.5t245 -160t157.5 -238t57.5 -289.5t-57.5 -289.5t-157.5 -238.5t-245 -160.5t-312 -59.5q-165 0 -309.5 59.5t-245.5 160.5t-159 238.5t-58 289.5zM348 717q0 -106 36.5 -200t101.5 -163.5t161 -110 t209 -40.5q152 0 269 69.5t178 186t61 258.5t-61 258.5t-178 186t-269 69.5q-113 0 -209 -40.5t-161 -110t-101.5 -163.5t-36.5 -200z" />
<glyph unicode="P" horiz-adv-x="1232" d="M152 0v1434h618q105 0 183 -31t143 -96q59 -59 91 -140t32 -172q0 -90 -32 -171t-91 -140q-65 -65 -143 -96t-183 -31h-367v-557h-251zM401 776h347q102 0 155 53q60 60 60 168t-58 166q-51 51 -157 51h-347v-438z" />
<glyph unicode="Q" d="M84 717q0 152 58 289.5t159 238t245.5 160t309.5 59.5q167 0 312 -59.5t245 -160t157.5 -238t57.5 -289.5q0 -135 -45 -259t-127 -222l211 -236h-293l-84 90q-193 -121 -434 -121q-165 0 -309.5 59.5t-245.5 160.5t-159 238.5t-58 289.5zM348 717q0 -106 36.5 -200 t101.5 -163.5t161 -110t209 -40.5q151 0 266 67l-303 332h299l160 -186q86 134 86 301q0 142 -61 258.5t-178 186t-269 69.5q-113 0 -209 -40.5t-161 -110t-101.5 -163.5t-36.5 -200z" />
<glyph unicode="R" horiz-adv-x="1312" d="M152 0v1434h671q185 0 310 -125q56 -56 87 -133t31 -160q0 -168 -114.5 -277t-284.5 -114l340 -625h-272l-428 809v4h264q77 0 119 11t69 38q57 57 57 152q-4 96 -57 149q-51 51 -158 51h-387v-1214h-247z" />
<glyph unicode="S" horiz-adv-x="1091" d="M84 430h250q0 -118 74 -192q58 -58 153 -58q90 0 145.5 50.5t55.5 142.5q0 71 -62 133q-24 24 -59 47t-63 38t-84 42q-71 34 -117 60t-100.5 67t-85.5 83.5t-52.5 103.5t-21.5 134q0 170 112 274.5t297 104.5q197 0 314 -117q110 -110 110 -311h-241q0 116 -58 174 q-49 49 -125 49q-72 0 -111.5 -44.5t-39.5 -116.5q0 -82 51 -133q40 -40 182 -109q109 -55 174.5 -95.5t112.5 -88.5q113 -120 113 -287q0 -191 -128 -300.5t-331 -109.5q-215 0 -338 123q-118 118 -127 336z" />
<glyph unicode="T" horiz-adv-x="1114" d="M-6 1208v226h1126v-226h-434v-1208h-258v1208h-434z" />
<glyph unicode="U" horiz-adv-x="1333" d="M131 475v959h250v-961q0 -126 82.5 -200t202.5 -74t202 74t82 200v961h252v-959q0 -149 -71 -265t-193 -177.5t-272 -61.5q-148 0 -269.5 61.5t-193.5 177.5t-72 265z" />
<glyph unicode="V" horiz-adv-x="1351" d="M-43 1434h285l366 -977q40 -114 70 -232h4q44 154 72 232l366 977h279l-565 -1434h-312z" />
<glyph unicode="W" horiz-adv-x="2093" d="M-37 1434h277l256 -873q52 -169 71 -297h4q24 142 70 297l256 873h309l260 -873q56 -189 72 -297h4q14 114 70 297l256 873h262l-440 -1434h-308l-276 942q-31 108 -57 221h-5q-15 -100 -51 -219l-274 -944h-316z" />
<glyph unicode="X" horiz-adv-x="1253" d="M-16 0l499 717l-499 717h292l351 -512l354 512h289l-500 -715l500 -719h-287l-356 514l-357 -514h-286z" />
<glyph unicode="Y" horiz-adv-x="1357" d="M-18 1434h290l289 -412q65 -94 119 -182q65 104 121 184l289 410h284l-571 -803v-631h-250v631z" />
<glyph unicode="Z" horiz-adv-x="1067" d="M27 0v182l704 1024v4q-154 -2 -332 -2h-352v226h993v-191l-702 -1016v-4q145 2 301 2h395v-225h-1007z" />
<glyph unicode="[" horiz-adv-x="659" d="M164 -152v1739h442v-217h-200v-1302h200v-220h-442z" />
<glyph unicode="\" horiz-adv-x="1622" d="M-29 1585h301l1379 -1739h-314z" />
<glyph unicode="]" horiz-adv-x="659" d="M53 66h201v1302h-201v219h443v-1739h-443v218z" />
<glyph unicode="^" horiz-adv-x="1892" d="M397 541l451 915h194l451 -915h-250l-295 602l-295 -602h-256z" />
<glyph unicode="_" horiz-adv-x="974" d="M-25 -152h1024v-153h-1024v153z" />
<glyph unicode="`" horiz-adv-x="770" d="M-57 1833h331l207 -287h-200z" />
<glyph unicode="a" horiz-adv-x="1103" d="M82 315q0 148 120.5 244t299.5 96q71 0 141.5 -14t114.5 -35v35q0 111 -43 154q-59 59 -176 59q-90 0 -172 -45q-56 -32 -113 -92l-137 143q45 62 137 119q130 76 295 76q225 0 352 -127q47 -47 73.5 -120.5t26.5 -156.5v-651h-227v100q-47 -55 -131 -93t-176 -38 q-164 0 -274.5 93t-110.5 253zM336 330q0 -72 50 -111t138 -39q80 0 160 53t80 117v62q-93 65 -227 65q-83 0 -142 -36.5t-59 -110.5z" />
<glyph unicode="b" horiz-adv-x="1245" d="M123 0v1434h242v-525q105 146 313 146q145 0 261 -72.5t180.5 -196.5t64.5 -274q0 -149 -63.5 -273.5t-178 -197t-256.5 -72.5q-216 0 -330 137v-106h-233zM360 512q0 -136 77.5 -230t203.5 -94t209.5 90.5t83.5 233.5t-83.5 233.5t-209.5 90.5q-127 0 -204 -94t-77 -230 z" />
<glyph unicode="c" horiz-adv-x="1067" d="M61 512q0 111 41 210t113.5 173t180 117t233.5 43q130 0 242.5 -54.5t175.5 -138.5l-168 -151q-99 123 -263 123q-132 0 -215.5 -90.5t-83.5 -227.5q0 -136 89.5 -229.5t224.5 -93.5q89 0 153.5 34.5t122.5 100.5l158 -158q-173 -201 -436 -201q-126 0 -233.5 43 t-180 117t-113.5 173t-41 210z" />
<glyph unicode="d" horiz-adv-x="1245" d="M61 512q0 149 63.5 273.5t178 197t256.5 72.5q216 0 322 -129v508h241v-1434h-233v125q-99 -156 -322 -156q-145 0 -261 72.5t-180.5 196.5t-64.5 274zM311 512q0 -143 82.5 -233.5t208.5 -90.5q127 0 205 94t78 230t-78.5 230t-204.5 94t-208.5 -90.5t-82.5 -233.5z" />
<glyph unicode="e" horiz-adv-x="1132" d="M61 512q0 112 34 210t98 172.5t162.5 117.5t219.5 43q234 0 365 -149t131 -394q0 -40 -6 -80h-739q11 -97 80 -166q86 -86 229 -86q82 0 147 31.5t131 97.5l136 -159q-186 -181 -439 -181q-170 0 -296.5 74.5t-189.5 196.5t-63 272zM315 635h512q-10 93 -75.5 156 t-173.5 63t-178.5 -61.5t-84.5 -157.5z" />
<glyph unicode="f" horiz-adv-x="761" d="M4 819v205h158v51q0 73 24.5 138.5t71 118t122.5 83.5t171 31q103 0 182 -29v-207q-59 35 -164 35q-83 0 -122 -44t-39 -118v-59h313v-205h-313v-819h-246v819h-158z" />
<glyph unicode="g" horiz-adv-x="1034" d="M-2 -119q0 154 164 246q-51 51 -51 125q0 45 23 86t67 70q-62 59 -92.5 123.5t-30.5 152.5q0 167 113.5 269t289.5 102q100 0 174 -31h375v-193h-63q-80 0 -111 3q29 -79 29 -162q0 -164 -114 -258.5t-290 -94.5q-49 0 -92 9q-43 -23 -43 -64q0 -15 5 -26.5t16.5 -17.5 t20 -10t25.5 -5.5t23.5 -1.5h22.5h22q102 0 190 -18.5t159.5 -55.5t113 -100t41.5 -146q0 -103 -65.5 -176.5t-175.5 -109t-252 -35.5q-99 0 -185.5 19t-157 56.5t-111 100t-40.5 143.5zM246 -115q0 -65 70 -101t171 -36q119 0 183.5 36t64.5 105q0 66 -66.5 98.5 t-181.5 32.5q-241 0 -241 -135zM309 690q0 -83 48.5 -135.5t129.5 -52.5q79 0 128 53t49 135q0 80 -49 131t-128 51q-81 0 -129.5 -51t-48.5 -131z" />
<glyph unicode="h" horiz-adv-x="1167" d="M123 0v1434h242v-527q106 148 319 148q97 0 172 -30t119.5 -81.5t67 -116t22.5 -139.5v-688h-242v637q0 99 -53 153t-143 54q-113 0 -187.5 -81.5t-74.5 -219.5v-543h-242z" />
<glyph unicode="i" horiz-adv-x="499" d="M100 1311q0 60 43 101.5t107 41.5q62 0 106.5 -41.5t44.5 -101.5q0 -59 -44.5 -99.5t-106.5 -40.5q-64 0 -107 40t-43 100zM129 0v1024h242v-1024h-242z" />
<glyph unicode="j" horiz-adv-x="512" d="M-168 -184q90 -23 145 -23q166 0 166 158v1073h242v-1069q0 -103 -28.5 -178.5t-81.5 -119.5t-120.5 -64.5t-152.5 -20.5q-75 0 -170 29v215zM113 1311q0 60 42.5 101.5t106.5 41.5q62 0 107 -41.5t45 -101.5q0 -59 -45 -99.5t-107 -40.5q-64 0 -106.5 40t-42.5 100z" />
<glyph unicode="k" horiz-adv-x="1079" d="M123 0v1434h242v-826l374 416h312l-422 -451l499 -573h-323l-440 520v-520h-242z" />
<glyph unicode="l" horiz-adv-x="487" d="M123 0v1434h242v-1434h-242z" />
<glyph unicode="m" horiz-adv-x="1775" d="M117 0v1024h237v-123q89 154 287 154q119 0 202 -45t126 -123q59 82 147 125t180 43q182 0 279.5 -100t97.5 -253v-702h-241v651q0 93 -51 143t-132 50q-113 0 -174 -79.5t-61 -221.5v-543h-238v659q0 89 -51.5 137t-130.5 48q-116 0 -176 -82.5t-60 -233.5v-528h-241z " />
<glyph unicode="n" horiz-adv-x="1161" d="M117 0v1024h233v-129q104 160 328 160q97 0 172 -30t119.5 -81.5t67 -116t22.5 -139.5v-688h-242v637q0 99 -53 153t-143 54q-116 0 -189.5 -85t-73.5 -231v-528h-241z" />
<glyph unicode="o" horiz-adv-x="1220" d="M61 512q0 148 70 272t196.5 197.5t282.5 73.5t282.5 -73.5t196.5 -197.5t70 -272t-70 -272t-196.5 -197.5t-282.5 -73.5t-282.5 73.5t-196.5 197.5t-70 272zM311 512q0 -134 85 -229t214 -95q130 0 214.5 94.5t84.5 229.5t-84.5 229.5t-214.5 94.5t-214.5 -94.5 t-84.5 -229.5z" />
<glyph unicode="p" horiz-adv-x="1239" d="M117 -410v1434h237v-121q104 152 316 152q145 0 261 -72.5t180.5 -196.5t64.5 -274q0 -149 -63.5 -273.5t-178 -197t-256.5 -72.5q-206 0 -316 123v-502h-245zM356 512q0 -136 77 -230t202 -94q126 0 208.5 90.5t82.5 233.5t-82.5 233.5t-208.5 90.5q-127 0 -203 -93.5 t-76 -230.5z" />
<glyph unicode="q" horiz-adv-x="1239" d="M61 512q0 149 63.5 273.5t178 197t256.5 72.5q211 0 326 -135v104h237v-1434h-245v521q-104 -142 -310 -142q-145 0 -261 72.5t-180.5 196.5t-64.5 274zM311 512q0 -143 82.5 -233.5t208.5 -90.5q127 0 203 93.5t76 230.5q0 136 -77 230t-202 94q-126 0 -208.5 -90.5 t-82.5 -233.5z" />
<glyph unicode="r" horiz-adv-x="714" d="M117 0v1024h241v-145q26 70 91 111.5t141 41.5q69 0 110 -10v-234q-44 9 -90 9q-100 0 -172 -72q-80 -84 -80 -221v-504h-241z" />
<glyph unicode="s" horiz-adv-x="944" d="M76 322h248q7 -68 45 -114t114 -46q67 0 107.5 27t40.5 81q0 50 -40 80.5t-124 57.5q-218 70 -293 145q-78 78 -78 201q0 125 103.5 213t251.5 88q177 0 277.5 -81.5t107.5 -240.5h-234q-15 135 -135 135q-55 0 -87 -26.5t-32 -63.5q0 -42 29 -71q8 -8 18 -14.5 t26.5 -13.5t25 -10.5t32.5 -11.5t29 -10q95 -32 153.5 -58t113.5 -65.5t80.5 -92t25.5 -122.5q0 -81 -35 -147.5t-92.5 -107.5t-127.5 -63t-145 -22q-186 0 -293 96t-112 257z" />
<glyph unicode="t" horiz-adv-x="749" d="M4 819v205h154v254h241v-254h297v-205h-297v-471q0 -145 138 -145q85 0 170 55v-213q-81 -53 -232 -53q-137 0 -227 84t-90 237v506h-154z" />
<glyph unicode="u" horiz-adv-x="1161" d="M102 336v688h242v-637q0 -99 53.5 -153t143.5 -54q116 0 189 85t73 231v528h241v-1024h-233v129q-104 -160 -328 -160q-97 0 -172 30t-119.5 81.5t-67 116t-22.5 139.5z" />
<glyph unicode="v" horiz-adv-x="1089" d="M-2 1024h268l211 -561q39 -106 68 -250h4q51 198 69 250l211 561h263l-412 -1024h-277z" />
<glyph unicode="w" horiz-adv-x="1632" d="M10 1024h266l132 -467q47 -165 67 -324h4q21 163 68 324l137 467h277l141 -467q46 -155 67 -324h5q17 153 69 324l129 467h250l-317 -1024h-279l-143 487q-51 182 -66 258h-2q-22 -125 -61 -258l-142 -487h-286z" />
<glyph unicode="x" horiz-adv-x="1021" d="M8 0l365 524l-350 500h284l205 -311l213 311h276l-350 -498l367 -526h-275l-231 338l-229 -338h-275z" />
<glyph unicode="y" horiz-adv-x="1085" d="M-2 1024h272l211 -547q33 -82 70 -231h4q43 149 72 231l204 547h256l-559 -1434h-266l160 414z" />
<glyph unicode="z" horiz-adv-x="905" d="M66 0v213l489 606h-489v205h774v-215l-498 -604h496v-205h-772z" />
<glyph unicode="{" horiz-adv-x="694" d="M88 641v160q40 0 81.5 33.5t41.5 95.5v432q0 104 71 164.5t162 60.5h197v-219h-172q-20 0 -20 -53v-424q0 -46 -16.5 -82.5t-34.5 -53.5t-44 -34q38 -15 66.5 -59t28.5 -119v-422q0 -53 20 -53h172v-220h-197q-91 0 -162 61t-71 165v428q0 67 -41.5 103t-81.5 36z" />
<glyph unicode="|" horiz-adv-x="1095" d="M428 -152v1739h240v-1739h-240z" />
<glyph unicode="}" horiz-adv-x="694" d="M53 68h172q21 0 21 53v424q0 67 26.5 105t67.5 65q-38 15 -66 59t-28 119v422q0 53 -21 53h-172v219h197q91 0 162 -60.5t71 -164.5v-428q0 -67 41.5 -103t81.5 -36v-160q-40 0 -81.5 -33.5t-41.5 -95.5v-432q0 -104 -71 -165t-162 -61h-197v220z" />
<glyph unicode="~" horiz-adv-x="1200" d="M96 676q27 39 47 65t53 60t64 54t72.5 32.5t85.5 9.5q49 -4 113 -37.5t122.5 -67t94.5 -36.5q31 -3 64 28.5t99 122.5l146 -141q-27 -39 -47 -65t-53 -60t-64 -54t-72.5 -32.5t-85.5 -9.5q-44 4 -113 38t-130 67.5t-86 35.5q-31 3 -64.5 -29t-99.5 -122z" />
<glyph unicode="&#xa1;" horiz-adv-x="722" d="M203 1315q0 62 47.5 104.5t114.5 42.5q69 0 114 -42t45 -105q0 -65 -45.5 -109.5t-113.5 -44.5q-66 0 -114 45t-48 109zM236 0l14 1016h233l15 -1016h-262z" />
<glyph unicode="&#xa2;" horiz-adv-x="1243" d="M135 715q0 187 119.5 325.5t296.5 171.5v222h166v-217q178 -17 311 -156l-149 -172q-76 73 -162 92v-532q86 16 162 92l149 -172q-130 -136 -311 -156v-213h-166v217q-177 31 -296.5 170.5t-119.5 327.5zM399 715q0 -83 41 -152.5t111 -99.5v504q-69 -32 -110.5 -101.5 t-41.5 -150.5z" />
<glyph unicode="&#xa3;" horiz-adv-x="1361" d="M211 606v221h106q-61 132 -61 240q0 76 27 145t78.5 125t136 89.5t190.5 33.5q220 0 335.5 -123.5t96.5 -324.5h-241q3 122 -39.5 182.5t-141.5 60.5q-84 0 -127 -53.5t-43 -134.5q0 -99 78 -240h424v-221h-313q51 -127 51 -246q0 -53 -12 -135h481v-225h-1024v225h281 q16 72 16 131q0 105 -76 250h-223z" />
<glyph unicode="&#xa5;" horiz-adv-x="1699" d="M154 1434h290l289 -412q65 -94 119 -182q65 104 121 184l289 410h284l-323 -455h215v-176h-340l-123 -172v-4h461v-176h-461v-451h-250v451h-465v176h465v4l-123 172h-344l2 176h217z" />
<glyph unicode="&#xa8;" horiz-adv-x="770" d="M18 1673q0 58 39 97.5t101 39.5q61 0 104 -40t43 -97q0 -55 -42.5 -93t-104.5 -38t-101 37.5t-39 93.5zM465 1673q0 58 38.5 97.5t100.5 39.5t105 -40t43 -97q0 -55 -43 -93t-105 -38t-100.5 37.5t-38.5 93.5z" />
<glyph unicode="&#xa9;" horiz-adv-x="1744" d="M78 721q0 216 105 391.5t287 274t404 98.5q164 0 310.5 -58t252.5 -158.5t168 -243t62 -304.5q0 -163 -62 -306.5t-168 -244.5t-252.5 -159t-310.5 -58q-222 0 -404 98.5t-287 275t-105 394.5zM291 721q0 -169 75 -300.5t207.5 -202.5t300.5 -71q259 0 419.5 158.5 t160.5 415.5q0 253 -161 411t-419 158q-167 0 -299.5 -71t-208 -201.5t-75.5 -296.5zM455 725q0 179 123.5 305.5t308.5 126.5q192 0 311 -119l-96 -145q-92 76 -203 76q-100 0 -165.5 -71t-65.5 -175q0 -101 65.5 -171.5t165.5 -70.5q111 0 203 76l96 -145 q-119 -119 -311 -119q-185 0 -308.5 126.5t-123.5 305.5z" />
<glyph unicode="&#xab;" horiz-adv-x="1214" d="M29 698l350 451h283l-351 -451l353 -450h-283zM520 698l350 451h283l-350 -451l352 -450h-283z" />
<glyph unicode="&#xad;" horiz-adv-x="1206" d="M117 606v221h973v-221h-973z" />
<glyph unicode="&#xae;" horiz-adv-x="1744" d="M78 721q0 216 105 391.5t287 274t404 98.5q164 0 310.5 -58t252.5 -158.5t168 -243t62 -304.5q0 -163 -62 -306.5t-168 -244.5t-252.5 -159t-310.5 -58q-222 0 -404 98.5t-287 275t-105 394.5zM291 721q0 -169 75 -300.5t207.5 -202.5t300.5 -71q259 0 419.5 158.5 t160.5 415.5q0 253 -161 411t-419 158q-167 0 -299.5 -71t-208 -201.5t-75.5 -296.5zM573 332v809h416q106 0 183 -74.5t77 -165.5q0 -90 -55.5 -154t-144.5 -88l178 -327h-197l-235 454v5h168q48 0 73 28t25 70q0 40 -28 68t-77 28h-196v-653h-187z" />
<glyph unicode="&#xaf;" horiz-adv-x="819" d="M111 1554v187h598v-187h-598z" />
<glyph unicode="&#xb0;" horiz-adv-x="649" d="M31 1139q0 124 83.5 209.5t211.5 85.5t211.5 -85.5t83.5 -209.5t-83.5 -209.5t-211.5 -85.5t-211.5 85.5t-83.5 209.5zM195 1139q0 -70 36 -113t95 -43t95 43t36 113t-36 112.5t-95 42.5t-95 -42.5t-36 -112.5z" />
<glyph unicode="&#xb4;" horiz-adv-x="770" d="M285 1546l207 287h335l-338 -287h-204z" />
<glyph unicode="&#xb6;" horiz-adv-x="1304" d="M53 1034q3 174 123.5 287t298.5 113h778v-179h-143v-1255h-188v1255h-99v-1255h-188v1255h-174q-102 0 -150.5 -64.5t-48.5 -166.5q0 -94 59 -159.5t162 -65.5h72v-183h-80q-184 0 -304.5 118.5t-117.5 299.5z" />
<glyph unicode="&#xb7;" horiz-adv-x="653" d="M166 713q0 65 45.5 109t114.5 44q66 0 113.5 -44.5t47.5 -108.5q0 -62 -47 -105t-114 -43q-69 0 -114.5 42.5t-45.5 105.5z" />
<glyph unicode="&#xb8;" horiz-adv-x="819" d="M219 -414l53 138q68 -33 146 -33q80 0 80 53q0 22 -27 39.5t-74 17.5q-31 0 -49 -4l-22 56l106 147h166l-51 -109q64 -14 106.5 -59t42.5 -106t-40 -105.5t-96.5 -64t-119.5 -19.5q-123 0 -221 49z" />
<glyph unicode="&#xbb;" horiz-adv-x="1214" d="M59 1149h283l352 -451l-350 -450h-283l351 450zM551 1149h283l352 -451l-350 -450h-283l350 450z" />
<glyph unicode="&#xbf;" horiz-adv-x="1132" d="M86 408q3 239 199 354l145 86q39 22 39 72v131h244v-154q0 -149 -144 -233l-120 -70q-107 -60 -107 -195q0 -87 55 -143.5t158 -56.5t163.5 77t57.5 197h242q6 -214 -124 -358t-343 -144q-101 0 -188.5 36t-147.5 96t-94.5 139.5t-34.5 165.5zM426 1319q0 62 47.5 104.5 t114.5 42.5q69 0 114.5 -42t45.5 -105q0 -65 -45.5 -109.5t-114.5 -44.5q-66 0 -114 45t-48 109z" />
<glyph unicode="&#xc0;" horiz-adv-x="1323" d="M-49 0l571 1434h269l581 -1434h-266l-389 997q-38 93 -64 191h-4q-22 -92 -59 -191l-148 -393h252l82 -211h-414l-153 -393h-258zM211 1833h332l207 -287h-201z" />
<glyph unicode="&#xc1;" horiz-adv-x="1323" d="M-49 0l571 1434h269l581 -1434h-266l-389 997q-38 93 -64 191h-4q-22 -92 -59 -191l-148 -393h252l82 -211h-414l-153 -393h-258zM559 1546l207 287h336l-338 -287h-205z" />
<glyph unicode="&#xc2;" horiz-adv-x="1323" d="M-49 0l571 1434h269l581 -1434h-266l-389 997q-38 93 -64 191h-4q-22 -92 -59 -191l-148 -393h252l82 -211h-414l-153 -393h-258zM299 1548l233 287h261l231 -287h-248l-119 150l-118 -150h-240z" />
<glyph unicode="&#xc3;" horiz-adv-x="1323" d="M-49 0l571 1434h269l581 -1434h-266l-389 997q-38 93 -64 191h-4q-22 -92 -59 -191l-148 -393h252l82 -211h-414l-153 -393h-258zM281 1518q19 256 231 256q61 0 144 -27t116 -27q42 0 58 17t22 59h190q-19 -256 -231 -256q-67 0 -144 26.5t-116 26.5q-42 0 -58 -16.5 t-22 -58.5h-190z" />
<glyph unicode="&#xc4;" horiz-adv-x="1323" d="M-49 0l571 1434h269l581 -1434h-266l-389 997q-38 93 -64 191h-4q-22 -92 -59 -191l-148 -393h252l82 -211h-414l-153 -393h-258zM295 1673q0 58 38.5 97.5t100.5 39.5t105 -40t43 -97q0 -55 -43 -93t-105 -38t-100.5 37.5t-38.5 93.5zM741 1673q0 58 39 97.5t101 39.5 q61 0 104 -40t43 -97q0 -55 -42.5 -93t-104.5 -38t-101 37.5t-39 93.5z" />
<glyph unicode="&#xc5;" horiz-adv-x="1323" d="M-49 0l571 1434h269l581 -1434h-266l-389 997q-38 93 -64 191h-4q-22 -92 -59 -191l-148 -393h252l82 -211h-414l-153 -393h-258zM418 1741q0 94 70 162.5t174 68.5t173.5 -68.5t69.5 -162.5q0 -93 -69.5 -161.5t-173.5 -68.5t-174 68.5t-70 161.5zM555 1743 q0 -45 29 -76t78 -31t77.5 31t28.5 76q0 43 -28.5 73.5t-77.5 30.5t-78 -30.5t-29 -73.5z" />
<glyph unicode="&#xc7;" horiz-adv-x="1486" d="M84 717q0 155 60.5 294t162 237.5t239 156t285.5 57.5q367 0 580 -233l-147 -170q-103 93 -203.5 131.5t-216.5 38.5q-138 0 -252 -68.5t-179 -186t-65 -257.5q0 -139 66.5 -257t181.5 -186.5t252 -68.5q115 0 215 39t201 131l147 -170q-187 -204 -493 -230l-39 -84 q64 -14 106.5 -59t42.5 -106t-40 -105.5t-96.5 -64t-119.5 -19.5q-123 0 -221 49l53 138q68 -33 146 -33q44 0 61.5 13.5t17.5 39.5q0 22 -27 39.5t-73 17.5q-31 0 -49 -4l-23 56l88 124q-135 15 -256 78t-210.5 159.5t-142 227.5t-52.5 275z" />
<glyph unicode="&#xc8;" horiz-adv-x="1097" d="M152 0v1434h843v-226h-594v-381h594v-221h-594v-381h611v-225h-860zM158 1833h331l207 -287h-200z" />
<glyph unicode="&#xc9;" horiz-adv-x="1097" d="M152 0v1434h843v-226h-594v-381h594v-221h-594v-381h611v-225h-860zM418 1546l207 287h336l-338 -287h-205z" />
<glyph unicode="&#xca;" horiz-adv-x="1097" d="M152 0v1434h843v-226h-594v-381h594v-221h-594v-381h611v-225h-860zM207 1548l233 287h260l232 -287h-248l-119 150l-119 -150h-239z" />
<glyph unicode="&#xcb;" horiz-adv-x="1097" d="M152 0v1434h843v-226h-594v-381h594v-221h-594v-381h611v-225h-860zM201 1673q0 58 38.5 97.5t100.5 39.5q61 0 104 -40t43 -97q0 -55 -42.5 -93t-104.5 -38t-100.5 37.5t-38.5 93.5zM647 1673q0 58 38.5 97.5t100.5 39.5t105 -40t43 -97q0 -55 -43 -93t-105 -38 t-100.5 37.5t-38.5 93.5z" />
<glyph unicode="&#xcc;" horiz-adv-x="561" d="M-156 1833h332l207 -287h-201zM154 0v1434h254v-1434h-254z" />
<glyph unicode="&#xcd;" horiz-adv-x="561" d="M154 0v1434h254v-1434h-254zM180 1546l207 287h336l-338 -287h-205z" />
<glyph unicode="&#xce;" horiz-adv-x="561" d="M-82 1548l234 287h260l231 -287h-248l-119 150l-118 -150h-240zM154 0v1434h254v-1434h-254z" />
<glyph unicode="&#xcf;" horiz-adv-x="561" d="M-86 1673q0 58 38.5 97.5t100.5 39.5t105 -40t43 -97q0 -55 -43 -93t-105 -38t-100.5 37.5t-38.5 93.5zM154 0v1434h254v-1434h-254zM360 1673q0 58 39 97.5t101 39.5q61 0 104 -40t43 -97q0 -55 -42.5 -93t-104.5 -38t-101 37.5t-39 93.5z" />
<glyph unicode="&#xd1;" horiz-adv-x="1552" d="M152 0v1434h274l584 -834q58 -83 143 -235h4q-10 137 -10 231v838h254v-1434h-275l-581 840q-73 104 -146 235h-4q11 -151 11 -231v-844h-254zM395 1518q19 256 232 256q61 0 144 -27t116 -27q42 0 58 17t22 59h190q-19 -256 -231 -256q-67 0 -144 26.5t-116 26.5 q-42 0 -58 -16.5t-22 -58.5h-191z" />
<glyph unicode="&#xd2;" d="M84 717q0 152 58 289.5t159 238t245.5 160t309.5 59.5q167 0 312 -59.5t245 -160t157.5 -238t57.5 -289.5t-57.5 -289.5t-157.5 -238.5t-245 -160.5t-312 -59.5q-165 0 -309.5 59.5t-245.5 160.5t-159 238.5t-58 289.5zM348 717q0 -106 36.5 -200t101.5 -163.5t161 -110 t209 -40.5q152 0 269 69.5t178 186t61 258.5t-61 258.5t-178 186t-269 69.5q-113 0 -209 -40.5t-161 -110t-101.5 -163.5t-36.5 -200zM410 1833h331l207 -287h-200z" />
<glyph unicode="&#xd3;" d="M84 717q0 152 58 289.5t159 238t245.5 160t309.5 59.5q167 0 312 -59.5t245 -160t157.5 -238t57.5 -289.5t-57.5 -289.5t-157.5 -238.5t-245 -160.5t-312 -59.5q-165 0 -309.5 59.5t-245.5 160.5t-159 238.5t-58 289.5zM348 717q0 -106 36.5 -200t101.5 -163.5t161 -110 t209 -40.5q152 0 269 69.5t178 186t61 258.5t-61 258.5t-178 186t-269 69.5q-113 0 -209 -40.5t-161 -110t-101.5 -163.5t-36.5 -200zM739 1546l207 287h336l-338 -287h-205z" />
<glyph unicode="&#xd4;" d="M84 717q0 152 58 289.5t159 238t245.5 160t309.5 59.5q167 0 312 -59.5t245 -160t157.5 -238t57.5 -289.5t-57.5 -289.5t-157.5 -238.5t-245 -160.5t-312 -59.5q-165 0 -309.5 59.5t-245.5 160.5t-159 238.5t-58 289.5zM348 717q0 -106 36.5 -200t101.5 -163.5t161 -110 t209 -40.5q152 0 269 69.5t178 186t61 258.5t-61 258.5t-178 186t-269 69.5q-113 0 -209 -40.5t-161 -110t-101.5 -163.5t-36.5 -200zM494 1548l233 287h260l232 -287h-248l-119 150l-119 -150h-239z" />
<glyph unicode="&#xd5;" d="M84 717q0 152 58 289.5t159 238t245.5 160t309.5 59.5q167 0 312 -59.5t245 -160t157.5 -238t57.5 -289.5t-57.5 -289.5t-157.5 -238.5t-245 -160.5t-312 -59.5q-165 0 -309.5 59.5t-245.5 160.5t-159 238.5t-58 289.5zM348 717q0 -106 36.5 -200t101.5 -163.5t161 -110 t209 -40.5q152 0 269 69.5t178 186t61 258.5t-61 258.5t-178 186t-269 69.5q-113 0 -209 -40.5t-161 -110t-101.5 -163.5t-36.5 -200zM475 1518q19 256 232 256q61 0 144 -27t116 -27q42 0 58 17t22 59h190q-19 -256 -231 -256q-67 0 -144.5 26.5t-116.5 26.5 q-42 0 -57.5 -16.5t-21.5 -58.5h-191z" />
<glyph unicode="&#xd6;" d="M84 717q0 152 58 289.5t159 238t245.5 160t309.5 59.5q167 0 312 -59.5t245 -160t157.5 -238t57.5 -289.5t-57.5 -289.5t-157.5 -238.5t-245 -160.5t-312 -59.5q-165 0 -309.5 59.5t-245.5 160.5t-159 238.5t-58 289.5zM348 717q0 -106 36.5 -200t101.5 -163.5t161 -110 t209 -40.5q152 0 269 69.5t178 186t61 258.5t-61 258.5t-178 186t-269 69.5q-113 0 -209 -40.5t-161 -110t-101.5 -163.5t-36.5 -200zM489 1673q0 58 39 97.5t101 39.5q61 0 104 -40t43 -97q0 -55 -42.5 -93t-104.5 -38t-101 37.5t-39 93.5zM936 1673q0 58 38.5 97.5 t100.5 39.5t105 -40t43 -97q0 -55 -43 -93t-105 -38t-100.5 37.5t-38.5 93.5z" />
<glyph unicode="&#xd7;" horiz-adv-x="1204" d="M68 350l362 367l-362 362l165 166l369 -368l369 368l166 -166l-365 -364l365 -365l-166 -166l-369 369l-369 -369z" />
<glyph unicode="&#xd8;" d="M16 -154l279 351q-101 103 -156 236.5t-55 283.5q0 152 58 289.5t159 238t245.5 160t309.5 59.5q205 0 377 -90l170 213h293l-277 -350q100 -102 154.5 -236t54.5 -284q0 -152 -57.5 -289.5t-157.5 -238.5t-245 -160.5t-312 -59.5q-196 0 -364 84l-162 -207h-314z M348 717q0 -188 105 -324l628 791q-107 47 -225 47q-113 0 -209 -40.5t-161 -110t-101.5 -163.5t-36.5 -200zM641 246q93 -43 215 -43q152 0 269 69.5t178 186t61 258.5q0 186 -100 319z" />
<glyph unicode="&#xd9;" horiz-adv-x="1333" d="M131 475v959h250v-961q0 -126 82.5 -200t202.5 -74t202 74t82 200v961h252v-959q0 -149 -71 -265t-193 -177.5t-272 -61.5q-148 0 -269.5 61.5t-193.5 177.5t-72 265zM250 1833h332l206 -287h-200z" />
<glyph unicode="&#xda;" horiz-adv-x="1333" d="M131 475v959h250v-961q0 -126 82.5 -200t202.5 -74t202 74t82 200v961h252v-959q0 -149 -71 -265t-193 -177.5t-272 -61.5q-148 0 -269.5 61.5t-193.5 177.5t-72 265zM543 1546l207 287h335l-337 -287h-205z" />
<glyph unicode="&#xdb;" horiz-adv-x="1333" d="M131 475v959h250v-961q0 -126 82.5 -200t202.5 -74t202 74t82 200v961h252v-959q0 -149 -71 -265t-193 -177.5t-272 -61.5q-148 0 -269.5 61.5t-193.5 177.5t-72 265zM303 1548l234 287h260l231 -287h-248l-118 150l-119 -150h-240z" />
<glyph unicode="&#xdc;" horiz-adv-x="1333" d="M131 475v959h250v-961q0 -126 82.5 -200t202.5 -74t202 74t82 200v961h252v-959q0 -149 -71 -265t-193 -177.5t-272 -61.5q-148 0 -269.5 61.5t-193.5 177.5t-72 265zM299 1673q0 58 38.5 97.5t100.5 39.5t105 -40t43 -97q0 -55 -43 -93t-105 -38t-100.5 37.5t-38.5 93.5 zM745 1673q0 58 39 97.5t101 39.5q61 0 104 -40t43 -97q0 -55 -42.5 -93t-104.5 -38t-101 37.5t-39 93.5z" />
<glyph unicode="&#xdf;" horiz-adv-x="1357" d="M152 0v1434h966v-232l-289 -379h19q179 0 300.5 -116t121.5 -289q0 -175 -122 -296.5t-300 -121.5h-305v225h297q71 0 121.5 58.5t50.5 136.5q0 76 -50.5 131t-121.5 55h-301v205l161 221l142 176v4q-78 -4 -197 -4h-244v-1208h-249z" />
<glyph unicode="&#xe0;" horiz-adv-x="1103" d="M82 315q0 148 120.5 244t299.5 96q71 0 141.5 -14t114.5 -35v35q0 111 -43 154q-59 59 -176 59q-90 0 -172 -45q-56 -32 -113 -92l-137 143q45 62 137 119q130 76 295 76q225 0 352 -127q47 -47 73.5 -120.5t26.5 -156.5v-651h-227v100q-47 -55 -131 -93t-176 -38 q-164 0 -274.5 93t-110.5 253zM96 1423h332l207 -286h-201zM336 330q0 -72 50 -111t138 -39q80 0 160 53t80 117v62q-93 65 -227 65q-83 0 -142 -36.5t-59 -110.5z" />
<glyph unicode="&#xe1;" horiz-adv-x="1103" d="M82 315q0 148 120.5 244t299.5 96q71 0 141.5 -14t114.5 -35v35q0 111 -43 154q-59 59 -176 59q-90 0 -172 -45q-56 -32 -113 -92l-137 143q45 62 137 119q130 76 295 76q225 0 352 -127q47 -47 73.5 -120.5t26.5 -156.5v-651h-227v100q-47 -55 -131 -93t-176 -38 q-164 0 -274.5 93t-110.5 253zM336 330q0 -72 50 -111t138 -39q80 0 160 53t80 117v62q-93 65 -227 65q-83 0 -142 -36.5t-59 -110.5zM442 1137l207 286h336l-338 -286h-205z" />
<glyph unicode="&#xe2;" horiz-adv-x="1103" d="M82 315q0 148 120.5 244t299.5 96q71 0 141.5 -14t114.5 -35v35q0 111 -43 154q-59 59 -176 59q-90 0 -172 -45q-56 -32 -113 -92l-137 143q45 62 137 119q130 76 295 76q225 0 352 -127q47 -47 73.5 -120.5t26.5 -156.5v-651h-227v100q-47 -55 -131 -93t-176 -38 q-164 0 -274.5 93t-110.5 253zM188 1139l234 286h260l231 -286h-247l-119 149l-119 -149h-240zM336 330q0 -72 50 -111t138 -39q80 0 160 53t80 117v62q-93 65 -227 65q-83 0 -142 -36.5t-59 -110.5z" />
<glyph unicode="&#xe3;" horiz-adv-x="1103" d="M82 315q0 148 120.5 244t299.5 96q71 0 141.5 -14t114.5 -35v35q0 111 -43 154q-59 59 -176 59q-90 0 -172 -45q-56 -32 -113 -92l-137 143q45 62 137 119q130 76 295 76q225 0 352 -127q47 -47 73.5 -120.5t26.5 -156.5v-651h-227v100q-47 -55 -131 -93t-176 -38 q-164 0 -274.5 93t-110.5 253zM174 1108q19 256 232 256q61 0 144 -26.5t116 -26.5q42 0 57.5 16.5t21.5 58.5h191q-19 -256 -231 -256q-67 0 -144.5 27t-116.5 27q-42 0 -57.5 -16.5t-21.5 -59.5h-191zM336 330q0 -72 50 -111t138 -39q80 0 160 53t80 117v62 q-93 65 -227 65q-83 0 -142 -36.5t-59 -110.5z" />
<glyph unicode="&#xe4;" horiz-adv-x="1103" d="M82 315q0 148 120.5 244t299.5 96q71 0 141.5 -14t114.5 -35v35q0 111 -43 154q-59 59 -176 59q-90 0 -172 -45q-56 -32 -113 -92l-137 143q45 62 137 119q130 76 295 76q225 0 352 -127q47 -47 73.5 -120.5t26.5 -156.5v-651h-227v100q-47 -55 -131 -93t-176 -38 q-164 0 -274.5 93t-110.5 253zM193 1264q0 58 38.5 97.5t100.5 39.5q61 0 104 -40t43 -97q0 -55 -42.5 -93t-104.5 -38t-100.5 37.5t-38.5 93.5zM336 330q0 -72 50 -111t138 -39q80 0 160 53t80 117v62q-93 65 -227 65q-83 0 -142 -36.5t-59 -110.5zM639 1264 q0 58 38.5 97.5t100.5 39.5t105 -40t43 -97q0 -55 -43 -93t-105 -38t-100.5 37.5t-38.5 93.5z" />
<glyph unicode="&#xe5;" horiz-adv-x="1103" d="M82 315q0 148 120.5 244t299.5 96q71 0 141.5 -14t114.5 -35v35q0 111 -43 154q-59 59 -176 59q-90 0 -172 -45q-56 -32 -113 -92l-137 143q45 62 137 119q130 76 295 76q225 0 352 -127q47 -47 73.5 -120.5t26.5 -156.5v-651h-227v100q-47 -55 -131 -93t-176 -38 q-164 0 -274.5 93t-110.5 253zM307 1331q0 94 70 163t174 69t174 -69t70 -163q0 -93 -70 -161t-174 -68t-174 68t-70 161zM336 330q0 -72 50 -111t138 -39q80 0 160 53t80 117v62q-93 65 -227 65q-83 0 -142 -36.5t-59 -110.5zM444 1333q0 -45 29 -75.5t78 -30.5t77.5 30.5 t28.5 75.5q0 44 -28.5 74.5t-77.5 30.5t-78 -31t-29 -74z" />
<glyph unicode="&#xe7;" horiz-adv-x="1067" d="M61 512q0 111 41 210t113.5 173t180 117t233.5 43q130 0 242.5 -54.5t175.5 -138.5l-168 -151q-99 123 -263 123q-132 0 -215.5 -90.5t-83.5 -227.5q0 -136 89.5 -229.5t224.5 -93.5q89 0 153.5 34.5t122.5 100.5l158 -158q-147 -169 -356 -195l-39 -84q64 -14 106.5 -59 t42.5 -106t-40 -105.5t-96.5 -64t-119.5 -19.5q-123 0 -221 49l53 138q68 -33 146 -33q80 0 80 53q0 22 -27 39.5t-74 17.5q-31 0 -49 -4l-22 56l88 122q-215 29 -345.5 180t-130.5 357z" />
<glyph unicode="&#xe8;" horiz-adv-x="1132" d="M61 512q0 112 34 210t98 172.5t162.5 117.5t219.5 43q234 0 365 -149t131 -394q0 -40 -6 -80h-739q11 -97 80 -166q86 -86 229 -86q82 0 147 31.5t131 97.5l136 -159q-186 -181 -439 -181q-170 0 -296.5 74.5t-189.5 196.5t-63 272zM145 1423h332l207 -286h-201zM315 635 h512q-10 93 -75.5 156t-173.5 63t-178.5 -61.5t-84.5 -157.5z" />
<glyph unicode="&#xe9;" horiz-adv-x="1132" d="M61 512q0 112 34 210t98 172.5t162.5 117.5t219.5 43q234 0 365 -149t131 -394q0 -40 -6 -80h-739q11 -97 80 -166q86 -86 229 -86q82 0 147 31.5t131 97.5l136 -159q-186 -181 -439 -181q-170 0 -296.5 74.5t-189.5 196.5t-63 272zM315 635h512q-10 93 -75.5 156 t-173.5 63t-178.5 -61.5t-84.5 -157.5zM465 1137l207 286h336l-338 -286h-205z" />
<glyph unicode="&#xea;" horiz-adv-x="1132" d="M61 512q0 112 34 210t98 172.5t162.5 117.5t219.5 43q234 0 365 -149t131 -394q0 -40 -6 -80h-739q11 -97 80 -166q86 -86 229 -86q82 0 147 31.5t131 97.5l136 -159q-186 -181 -439 -181q-170 0 -296.5 74.5t-189.5 196.5t-63 272zM215 1139l234 286h260l231 -286h-248 l-119 149l-118 -149h-240zM315 635h512q-10 93 -75.5 156t-173.5 63t-178.5 -61.5t-84.5 -157.5z" />
<glyph unicode="&#xeb;" horiz-adv-x="1132" d="M61 512q0 112 34 210t98 172.5t162.5 117.5t219.5 43q234 0 365 -149t131 -394q0 -40 -6 -80h-739q11 -97 80 -166q86 -86 229 -86q82 0 147 31.5t131 97.5l136 -159q-186 -181 -439 -181q-170 0 -296.5 74.5t-189.5 196.5t-63 272zM205 1264q0 58 38.5 97.5t100.5 39.5 t105 -40t43 -97q0 -55 -43 -93t-105 -38t-100.5 37.5t-38.5 93.5zM315 635h512q-10 93 -75.5 156t-173.5 63t-178.5 -61.5t-84.5 -157.5zM651 1264q0 58 39 97.5t101 39.5q61 0 104 -40t43 -97q0 -55 -42.5 -93t-104.5 -38t-101 37.5t-39 93.5z" />
<glyph unicode="&#xec;" horiz-adv-x="499" d="M-182 1423h332l206 -286h-200zM129 0v1024h242v-1024h-242z" />
<glyph unicode="&#xed;" horiz-adv-x="499" d="M129 0v1024h242v-1024h-242zM139 1137l207 286h336l-338 -286h-205z" />
<glyph unicode="&#xee;" horiz-adv-x="499" d="M-113 1139l234 286h260l231 -286h-247l-119 149l-119 -149h-240zM129 0v1024h242v-1024h-242z" />
<glyph unicode="&#xef;" horiz-adv-x="499" d="M-117 1264q0 58 39 97.5t101 39.5q61 0 104 -40t43 -97q0 -55 -42.5 -93t-104.5 -38t-101 37.5t-39 93.5zM129 0v1024h242v-1024h-242zM330 1264q0 58 38.5 97.5t100.5 39.5q61 0 104 -40t43 -97q0 -55 -42.5 -93t-104.5 -38t-100.5 37.5t-38.5 93.5z" />
<glyph unicode="&#xf1;" horiz-adv-x="1161" d="M117 0v1024h233v-129q104 160 328 160q97 0 172 -30t119.5 -81.5t67 -116t22.5 -139.5v-688h-242v637q0 99 -53 153t-143 54q-116 0 -189.5 -85t-73.5 -231v-528h-241zM217 1108q19 256 232 256q61 0 144 -26.5t116 -26.5q42 0 57.5 16.5t21.5 58.5h191 q-19 -256 -231 -256q-67 0 -144.5 27t-116.5 27q-42 0 -57.5 -16.5t-21.5 -59.5h-191z" />
<glyph unicode="&#xf2;" horiz-adv-x="1220" d="M61 512q0 148 70 272t196.5 197.5t282.5 73.5t282.5 -73.5t196.5 -197.5t70 -272t-70 -272t-196.5 -197.5t-282.5 -73.5t-282.5 73.5t-196.5 197.5t-70 272zM180 1423h332l207 -286h-201zM311 512q0 -134 85 -229t214 -95q130 0 214.5 94.5t84.5 229.5t-84.5 229.5 t-214.5 94.5t-214.5 -94.5t-84.5 -229.5z" />
<glyph unicode="&#xf3;" horiz-adv-x="1220" d="M61 512q0 148 70 272t196.5 197.5t282.5 73.5t282.5 -73.5t196.5 -197.5t70 -272t-70 -272t-196.5 -197.5t-282.5 -73.5t-282.5 73.5t-196.5 197.5t-70 272zM311 512q0 -134 85 -229t214 -95q130 0 214.5 94.5t84.5 229.5t-84.5 229.5t-214.5 94.5t-214.5 -94.5 t-84.5 -229.5zM500 1137l207 286h335l-337 -286h-205z" />
<glyph unicode="&#xf4;" horiz-adv-x="1220" d="M61 512q0 148 70 272t196.5 197.5t282.5 73.5t282.5 -73.5t196.5 -197.5t70 -272t-70 -272t-196.5 -197.5t-282.5 -73.5t-282.5 73.5t-196.5 197.5t-70 272zM248 1139l233 286h260l232 -286h-248l-119 149l-119 -149h-239zM311 512q0 -134 85 -229t214 -95 q130 0 214.5 94.5t84.5 229.5t-84.5 229.5t-214.5 94.5t-214.5 -94.5t-84.5 -229.5z" />
<glyph unicode="&#xf5;" horiz-adv-x="1220" d="M61 512q0 148 70 272t196.5 197.5t282.5 73.5t282.5 -73.5t196.5 -197.5t70 -272t-70 -272t-196.5 -197.5t-282.5 -73.5t-282.5 73.5t-196.5 197.5t-70 272zM229 1108q19 256 232 256q61 0 144 -26.5t116 -26.5q42 0 58 16.5t22 58.5h190q-19 -256 -231 -256 q-67 0 -144 27t-116 27q-42 0 -58 -17t-22 -59h-191zM311 512q0 -134 85 -229t214 -95q130 0 214.5 94.5t84.5 229.5t-84.5 229.5t-214.5 94.5t-214.5 -94.5t-84.5 -229.5z" />
<glyph unicode="&#xf6;" horiz-adv-x="1220" d="M61 512q0 148 70 272t196.5 197.5t282.5 73.5t282.5 -73.5t196.5 -197.5t70 -272t-70 -272t-196.5 -197.5t-282.5 -73.5t-282.5 73.5t-196.5 197.5t-70 272zM244 1264q0 58 38.5 97.5t100.5 39.5q61 0 104 -40t43 -97q0 -55 -42.5 -93t-104.5 -38t-100.5 37.5t-38.5 93.5 zM311 512q0 -134 85 -229t214 -95q130 0 214.5 94.5t84.5 229.5t-84.5 229.5t-214.5 94.5t-214.5 -94.5t-84.5 -229.5zM690 1264q0 58 38.5 97.5t100.5 39.5t105 -40t43 -97q0 -55 -43 -93t-105 -38t-100.5 37.5t-38.5 93.5z" />
<glyph unicode="&#xf7;" horiz-adv-x="1568" d="M229 606v221h1110v-221h-1110zM631 307q0 65 45.5 109.5t114.5 44.5q66 0 113.5 -45t47.5 -109q0 -62 -47 -104.5t-114 -42.5q-69 0 -114.5 42t-45.5 105zM631 1114q0 65 45.5 109.5t114.5 44.5q66 0 113.5 -45t47.5 -109q0 -62 -47 -104.5t-114 -42.5q-69 0 -114.5 42 t-45.5 105z" />
<glyph unicode="&#xf8;" horiz-adv-x="1220" d="M-63 -154l249 316q-125 147 -125 350q0 148 70 272t196.5 197.5t282.5 73.5q133 0 244 -54l137 175h293l-248 -318q123 -148 123 -346q0 -148 -70 -272t-196.5 -197.5t-282.5 -73.5q-129 0 -235 47l-133 -170h-305zM311 512q0 -78 33 -152l365 459q-53 17 -99 17 q-130 0 -214.5 -94.5t-84.5 -229.5zM520 201q44 -13 90 -13q130 0 214.5 94.5t84.5 229.5q0 73 -30 145z" />
<glyph unicode="&#xf9;" horiz-adv-x="1161" d="M102 336v688h242v-637q0 -99 53.5 -153t143.5 -54q116 0 189 85t73 231v528h241v-1024h-233v129q-104 -160 -328 -160q-97 0 -172 30t-119.5 81.5t-67 116t-22.5 139.5zM158 1423h331l207 -286h-200z" />
<glyph unicode="&#xfa;" horiz-adv-x="1161" d="M102 336v688h242v-637q0 -99 53.5 -153t143.5 -54q116 0 189 85t73 231v528h241v-1024h-233v129q-104 -160 -328 -160q-97 0 -172 30t-119.5 81.5t-67 116t-22.5 139.5zM459 1137l207 286h335l-337 -286h-205z" />
<glyph unicode="&#xfb;" horiz-adv-x="1161" d="M102 336v688h242v-637q0 -99 53.5 -153t143.5 -54q116 0 189 85t73 231v528h241v-1024h-233v129q-104 -160 -328 -160q-97 0 -172 30t-119.5 81.5t-67 116t-22.5 139.5zM217 1139l234 286h260l231 -286h-248l-119 149l-118 -149h-240z" />
<glyph unicode="&#xfc;" horiz-adv-x="1161" d="M102 336v688h242v-637q0 -99 53.5 -153t143.5 -54q116 0 189 85t73 231v528h241v-1024h-233v129q-104 -160 -328 -160q-97 0 -172 30t-119.5 81.5t-67 116t-22.5 139.5zM205 1264q0 58 38.5 97.5t100.5 39.5t105 -40t43 -97q0 -55 -43 -93t-105 -38t-100.5 37.5 t-38.5 93.5zM651 1264q0 58 39 97.5t101 39.5q61 0 104 -40t43 -97q0 -55 -42.5 -93t-104.5 -38t-101 37.5t-39 93.5z" />
<glyph unicode="&#xff;" horiz-adv-x="1085" d="M-2 1024h272l211 -547q33 -82 70 -231h4q43 149 72 231l204 547h256l-559 -1434h-266l160 414zM184 1264q0 58 39 97.5t101 39.5q61 0 104 -40t43 -97q0 -55 -42.5 -93t-104.5 -38t-101 37.5t-39 93.5zM631 1264q0 58 38.5 97.5t100.5 39.5t105 -40t43 -97q0 -55 -43 -93 t-105 -38t-100.5 37.5t-38.5 93.5z" />
<glyph unicode="&#x178;" horiz-adv-x="1357" d="M-18 1434h290l289 -412q65 -94 119 -182q65 104 121 184l289 410h284l-571 -803v-631h-250v631zM311 1673q0 58 39 97.5t101 39.5q61 0 104 -40t43 -97q0 -55 -42.5 -93t-104.5 -38t-101 37.5t-39 93.5zM758 1673q0 58 38.5 97.5t100.5 39.5q61 0 104 -40t43 -97 q0 -55 -42.5 -93t-104.5 -38t-100.5 37.5t-38.5 93.5z" />
<glyph unicode="&#x2c6;" horiz-adv-x="819" d="M47 1548l234 287h260l231 -287h-248l-118 150l-119 -150h-240z" />
<glyph unicode="&#x2dc;" horiz-adv-x="819" d="M39 1518q19 256 231 256q61 0 144 -27t116 -27q42 0 58 17t22 59h191q-19 -256 -232 -256q-67 0 -144 26.5t-116 26.5q-42 0 -58 -16.5t-22 -58.5h-190z" />
<glyph unicode="&#x2000;" horiz-adv-x="986" />
<glyph unicode="&#x2001;" horiz-adv-x="1972" />
<glyph unicode="&#x2002;" horiz-adv-x="986" />
<glyph unicode="&#x2003;" horiz-adv-x="1972" />
<glyph unicode="&#x2004;" horiz-adv-x="657" />
<glyph unicode="&#x2005;" horiz-adv-x="493" />
<glyph unicode="&#x2006;" horiz-adv-x="328" />
<glyph unicode="&#x2007;" horiz-adv-x="328" />
<glyph unicode="&#x2008;" horiz-adv-x="246" />
<glyph unicode="&#x2009;" horiz-adv-x="394" />
<glyph unicode="&#x200a;" horiz-adv-x="109" />
<glyph unicode="&#x2010;" horiz-adv-x="1206" d="M117 606v221h973v-221h-973z" />
<glyph unicode="&#x2011;" horiz-adv-x="1206" d="M117 606v221h973v-221h-973z" />
<glyph unicode="&#x2012;" horiz-adv-x="1206" d="M117 606v221h973v-221h-973z" />
<glyph unicode="&#x2013;" horiz-adv-x="1288" d="M57 606v221h1174v-221h-1174z" />
<glyph unicode="&#x2014;" horiz-adv-x="1697" d="M57 606v221h1583v-221h-1583z" />
<glyph unicode="&#x2018;" horiz-adv-x="684" d="M119 903l270 531h168l-147 -531h-291z" />
<glyph unicode="&#x2019;" horiz-adv-x="684" d="M119 903l147 531h291l-270 -531h-168z" />
<glyph unicode="&#x201a;" horiz-adv-x="684" d="M119 -285l147 531h291l-270 -531h-168z" />
<glyph unicode="&#x201c;" horiz-adv-x="1052" d="M121 903l270 531h164l-147 -531h-287zM504 903l270 531h164l-147 -531h-287z" />
<glyph unicode="&#x201d;" horiz-adv-x="1052" d="M115 903l147 531h287l-270 -531h-164zM498 903l147 531h287l-270 -531h-164z" />
<glyph unicode="&#x201e;" horiz-adv-x="1052" d="M113 -285l147 531h291l-270 -531h-168zM494 -285l147 531h291l-270 -531h-168z" />
<glyph unicode="&#x2022;" horiz-adv-x="1429" d="M285 721q0 174 124 294t302 120q184 0 308 -120.5t124 -293.5q0 -172 -123 -293t-307 -121q-182 0 -305 120t-123 294z" />
<glyph unicode="&#x2026;" horiz-adv-x="2054" d="M182 119q0 65 45.5 109t114.5 44q67 0 114.5 -44.5t47.5 -108.5q0 -62 -47.5 -105t-114.5 -43q-69 0 -114.5 42.5t-45.5 105.5zM866 119q0 65 45.5 109t114.5 44q67 0 114.5 -44.5t47.5 -108.5q0 -62 -47.5 -105t-114.5 -43q-69 0 -114.5 42.5t-45.5 105.5zM1550 119 q0 65 45.5 109t114.5 44q67 0 114.5 -44.5t47.5 -108.5q0 -62 -47.5 -105t-114.5 -43q-69 0 -114.5 42.5t-45.5 105.5z" />
<glyph unicode="&#x202f;" horiz-adv-x="394" />
<glyph unicode="&#x2039;" horiz-adv-x="729" d="M43 698l350 451h291l-350 -451l352 -450h-291z" />
<glyph unicode="&#x203a;" horiz-adv-x="729" d="M43 248l352 450l-350 451h291l350 -451l-352 -450h-291z" />
<glyph unicode="&#x205f;" horiz-adv-x="493" />
<glyph unicode="&#x20ac;" horiz-adv-x="1882" d="M16 451l76 176h250q-6 43 -6 90q0 26 4 84h-201l76 178h168q80 216 273 349.5t427 133.5q367 0 580 -233l-147 -170q-103 93 -203.5 131.5t-216.5 38.5q-137 0 -249.5 -67.5t-178.5 -182.5h784l-80 -178h-766q-6 -43 -6 -84q0 -47 6 -90h678l-80 -176h-532 q67 -113 180.5 -179.5t247.5 -66.5q115 0 215 39t201 131l147 -170q-214 -234 -580 -234q-234 0 -426 132t-274 348h-367z" />
<glyph unicode="&#x2122;" horiz-adv-x="2072" d="M229 1282v152h613v-152h-219v-582h-177v582h-217zM963 700v734h178l231 -322l230 322h178v-734h-166v383q0 82 4 125h-4q-40 -76 -74 -123l-117 -165h-104l-117 165q-27 39 -72 123h-4q4 -49 4 -127v-381h-167z" />
<glyph unicode="&#x25fc;" horiz-adv-x="1024" d="M0 0v1024h1024v-1024h-1024z" />
</font>
</defs>
</svg>
