<?xml version="1.0" standalone="no"?>
<!DOCTYPE svg PUBLIC "-//W3C//DTD SVG 1.1//EN" "http://www.w3.org/Graphics/SVG/1.1/DTD/svg11.dtd" >
<svg xmlns="http://www.w3.org/2000/svg" xmlns:xlink="http://www.w3.org/1999/xlink" version="1.1">
<metadata></metadata>
<defs>
<font id="acura_bespoke_regularregular" horiz-adv-x="400" >
<font-face units-per-em="1000" ascent="750" descent="-250" />
<missing-glyph horiz-adv-x="295" />
<glyph unicode=" "  horiz-adv-x="295" />
<glyph unicode="&#x09;" horiz-adv-x="295" />
<glyph unicode="&#xa0;" horiz-adv-x="295" />
<glyph unicode="!" horiz-adv-x="311" d="M196 700l-6 -496h-70l-6 496h82zM155 -12q-24 0 -39 15.5t-15 38.5q0 24 15 39.5t39 15.5t39 -15.5t15 -39.5q0 -23 -15 -38.5t-39 -15.5z" />
<glyph unicode="&#x22;" horiz-adv-x="274" d="M236 700l-6 -219h-66l-6 219h78zM116 700l-6 -219h-66l-6 219h78z" />
<glyph unicode="#" horiz-adv-x="707" d="M122 481h133l66 219h65l-65 -219h133l66 219h65l-65 -219h144l-21 -67h-142l-38 -128h143l-21 -67h-141l-64 -219h-70l65 219h-130l-64 -219h-70l65 219h-133l21 67h132l39 128h-134zM302 414l-38 -128h131l39 128h-132z" />
<glyph unicode="$" horiz-adv-x="641" d="M511 537h-74q0 38 -20 65.5t-56 37.5v-248q94 -45 136 -90t42 -127q0 -80 -50 -128.5t-128 -58.5v-80h-76v79q-80 10 -129 61.5t-49 129.5h74q0 -44 29 -76.5t75 -43.5v286q-75 36 -113.5 78t-38.5 118q0 69 41 115.5t111 56.5v79h76v-80q71 -11 110.5 -56.5t39.5 -117.5 zM207 540q0 -68 78 -111v213q-36 -10 -57 -37.5t-21 -64.5zM465 175q0 45 -25 75t-79 58v-251q47 9 75.5 39.5t28.5 78.5z" />
<glyph unicode="%" horiz-adv-x="712" d="M20 537q0 76 41 127t105 51t105 -51t41 -127t-41 -126t-105 -50t-105 50t-41 126zM39 0l560 700h77l-555 -700h-82zM82 537q0 -48 23.5 -81t60.5 -33q38 0 61.5 33t23.5 81q0 49 -23.5 82.5t-61.5 33.5q-37 0 -60.5 -33.5t-23.5 -82.5zM404 159q0 76 41 127t105 51 t105 -51t41 -127t-41 -126t-105 -50t-105 50t-41 126zM466 159q0 -48 23.5 -81t60.5 -33q38 0 61.5 33t23.5 81q0 49 -23.5 82.5t-61.5 33.5q-37 0 -60.5 -33.5t-23.5 -82.5z" />
<glyph unicode="&#x26;" horiz-adv-x="751" d="M730 0h-87l-91 115q-28 -59 -82 -95t-122 -36q-94 0 -160 66.5t-66 159.5q0 82 52.5 143.5t131.5 71.5l-161 201v74h409v-70h-315zM197 210q0 -63 44.5 -109t107.5 -46q56 0 97.5 32.5t56.5 87.5l-147 187q-68 0 -113.5 -44t-45.5 -108z" />
<glyph unicode="'" horiz-adv-x="154" d="M116 700l-6 -219h-66l-6 219h78z" />
<glyph unicode="(" horiz-adv-x="329" d="M73 349q0 112 39.5 227.5t109.5 197.5h76q-154 -194 -154 -424t154 -424h-76q-70 82 -109.5 197t-39.5 226z" />
<glyph unicode=")" horiz-adv-x="328" d="M255 349q0 -111 -39 -226t-109 -197h-76q154 194 154 424t-154 424h76q70 -82 109 -197.5t39 -227.5z" />
<glyph unicode="*" horiz-adv-x="402" d="M360 528h-107l56 -95l-49 -30l-58 96l-55 -96l-51 30l57 93h-111v57h110l-56 96l50 31l56 -98l58 98l49 -31l-56 -96h107v-55z" />
<glyph unicode="+" horiz-adv-x="762" d="M646 313h-225v-238h-79v238h-226v74h226v234h79v-234h225v-74z" />
<glyph unicode="," horiz-adv-x="286" d="M101 -138h-40l66 237h95z" />
<glyph unicode="-" horiz-adv-x="585" d="M61 387h463v-74h-463v74z" />
<glyph unicode="." horiz-adv-x="286" d="M142 -12q-24 0 -39 15.5t-15 38.5q0 24 15 39.5t39 15.5t39 -15.5t15 -39.5q0 -23 -15 -38.5t-39 -15.5z" />
<glyph unicode="/" horiz-adv-x="742" d="M-10 -75l673 850h89l-668 -850h-94z" />
<glyph unicode="0" horiz-adv-x="592" d="M553 349q0 -162 -68.5 -263.5t-188.5 -101.5t-188.5 101.5t-68.5 263.5q0 163 68.5 264.5t188.5 101.5t188.5 -101.5t68.5 -264.5zM119 350q0 -132 46 -212t131 -80t131 80t46 212q0 131 -46 211t-131 80t-131 -80t-46 -211z" />
<glyph unicode="1" horiz-adv-x="275" d="M191 0h-74v626h-130l59 74h145v-700z" />
<glyph unicode="2" horiz-adv-x="572" d="M424 496q0 65 -40 107.5t-107 42.5q-66 0 -111 -46t-45 -110h-73q0 93 67 159t164 66q98 0 159 -62.5t61 -156.5q0 -59 -33.5 -118.5t-125.5 -140.5l-177 -167h335v-70h-436v74l238 227q124 108 124 195z" />
<glyph unicode="3" horiz-adv-x="572" d="M85 630v70h418v-74l-171 -195q78 -16 129 -78t51 -143q0 -93 -68 -159t-165 -66t-164 65t-68 160h73q0 -64 46 -110t115 -46t112.5 45.5t43.5 110.5q0 63 -44.5 107.5t-107.5 44.5h-53v67l179 201h-326z" />
<glyph unicode="4" horiz-adv-x="587" d="M437 250h133v-70h-133v-180h-74v180h-359v63l359 457h74v-450zM98 248h265v339z" />
<glyph unicode="5" horiz-adv-x="580" d="M38 210h72q6 -65 53.5 -110.5t114.5 -45.5q72 0 120.5 50.5t48.5 122.5q0 71 -49 122t-120 51q-80 0 -134 -58h-72l56 358h354v-70h-292l-30 -192q43 31 117 31q102 0 173.5 -70.5t71.5 -171.5q0 -100 -71.5 -171t-171.5 -71q-96 0 -165 64t-76 161z" />
<glyph unicode="6" horiz-adv-x="572" d="M35 234q0 86 62 164l241 302h94l-176 -220q24 3 31 3q104 0 178 -73t74 -176t-74 -176t-178 -73t-178 73t-74 176zM111 234q0 -75 51.5 -127.5t123.5 -52.5q73 0 124.5 52.5t51.5 127.5q0 74 -51.5 127t-124.5 53q-72 0 -123.5 -53t-51.5 -127z" />
<glyph unicode="7" horiz-adv-x="523" d="M150 0h-88l354 630h-365v70h450v-74z" />
<glyph unicode="8" horiz-adv-x="538" d="M39 199q0 58 31 107t83 78q-77 56 -77 144q0 78 57 132.5t137 54.5t135.5 -54.5t55.5 -132.5q0 -89 -73 -144q51 -29 81 -78t30 -107q0 -89 -67 -151.5t-162 -62.5q-96 0 -163.5 62.5t-67.5 151.5zM153 529q0 -49 33.5 -82t83.5 -33q49 0 82 33t33 82t-33.5 84t-81.5 35 q-49 0 -83 -35t-34 -84zM115 198q0 -58 46 -101t109 -43t107.5 43t44.5 101q0 59 -44.5 101.5t-107.5 42.5q-64 0 -109.5 -42.5t-45.5 -101.5z" />
<glyph unicode="9" horiz-adv-x="572" d="M537 466q0 -86 -62 -164l-241 -302h-94l176 220q-24 -3 -31 -3q-104 0 -178 73t-74 176t74 176t178 73t178 -73t74 -176zM461 466q0 75 -51.5 127.5t-123.5 52.5q-73 0 -124.5 -52.5t-51.5 -127.5q0 -74 51.5 -127t124.5 -53q72 0 123.5 53t51.5 127z" />
<glyph unicode=":" horiz-adv-x="316" d="M158 304q-24 0 -39 15.5t-15 38.5q0 24 15 39.5t39 15.5t39 -15.5t15 -39.5q0 -23 -15 -38.5t-39 -15.5zM158 -12q-24 0 -39 15.5t-15 38.5q0 24 15 39.5t39 15.5t39 -15.5t15 -39.5q0 -23 -15 -38.5t-39 -15.5z" />
<glyph unicode=";" horiz-adv-x="316" d="M178 304q-24 0 -39 15.5t-15 38.5q0 24 15 39.5t39 15.5t39 -15.5t15 -39.5q0 -23 -15 -38.5t-39 -15.5zM101 -138h-40l66 237h95z" />
<glyph unicode="&#x3c;" horiz-adv-x="745" d="M624 38l-503 285v55l503 272v-86l-402 -214l402 -220v-92z" />
<glyph unicode="=" horiz-adv-x="774" d="M116 487h542v-74h-542v74zM116 287h542v-74h-542v74z" />
<glyph unicode="&#x3e;" horiz-adv-x="745" d="M624 323l-503 -285v92l402 220l-402 214v86l503 -272v-55z" />
<glyph unicode="?" horiz-adv-x="569" d="M418 506q0 58 -38 96.5t-107 38.5q-61 0 -103.5 -43.5t-42.5 -103.5h-74q0 91 63.5 156t155.5 65q96 0 159.5 -61t63.5 -149q0 -113 -97 -172l-78 -47q-26 -15 -26 -47v-53h-74v58q0 64 63 102l70 41q35 21 50 47.5t15 71.5zM260 -12q-24 0 -39 15.5t-15 38.5 q0 24 15 39.5t39 15.5t39 -15.5t15 -39.5q0 -23 -15 -38.5t-39 -15.5z" />
<glyph unicode="@" horiz-adv-x="853" d="M523 281l-93 227l-64 -157h79l24 -64h-129l-43 -107h-70l174 418h62l122 -289q26 -63 74 -63q39 0 61.5 34.5t22.5 91.5q0 132 -90.5 210.5t-234.5 78.5q-129 0 -218 -90t-89 -223t93 -220t224 -87q98 0 160 42l31 -56q-89 -50 -191 -50q-157 0 -269 105.5t-112 265.5 q0 162 105 269.5t266 107.5q176 0 282.5 -93t106.5 -260q0 -80 -41.5 -134t-112.5 -54q-90 0 -130 97z" />
<glyph unicode="A" horiz-adv-x="621" d="M629 0h-80l-243 600l-118 -297h167l29 -72h-225l-91 -231h-76l282 700h69z" />
<glyph unicode="B" horiz-adv-x="537" d="M84 0v700h194q81 0 137.5 -56.5t56.5 -137.5q0 -92 -69 -148q92 -58 92 -165q0 -80 -56.5 -136.5t-137.5 -56.5h-217zM278 630h-120v-245h120q49 0 84.5 36t35.5 85q0 50 -35.5 87t-84.5 37zM301 315h-143v-245h143q49 0 84.5 37t35.5 86q0 50 -35.5 86t-84.5 36z" />
<glyph unicode="C" horiz-adv-x="717" d="M416 -15q-151 0 -259 107.5t-108 257.5t108 257.5t259 107.5q75 0 134.5 -21.5t119.5 -73.5l-43 -57q-62 49 -107.5 65t-103.5 16q-120 0 -205 -87t-85 -207t85 -207t205 -87q58 0 103.5 16t107.5 65l43 -57q-60 -52 -119.5 -73.5t-134.5 -21.5z" />
<glyph unicode="D" horiz-adv-x="662" d="M84 700h197q143 0 237 -101.5t94 -248.5t-94 -248.5t-237 -101.5h-197v700zM158 70h123q111 0 183 81.5t72 198.5q0 116 -72 198t-183 82h-123v-560z" />
<glyph unicode="E" horiz-adv-x="542" d="M84 700h402v-70h-328v-245h328v-70h-328v-245h328v-70h-402v700z" />
<glyph unicode="F" horiz-adv-x="528" d="M84 700h402v-70h-328v-245h328v-70h-328v-315h-74v700z" />
<glyph unicode="G" horiz-adv-x="813" d="M419 -15q-155 0 -262.5 107t-107.5 258q0 150 107.5 257.5t258.5 107.5q152 0 257 -100l-46 -50q-62 48 -107.5 63.5t-101.5 15.5q-121 0 -206 -86.5t-85 -207.5q0 -122 84 -208t209 -86q96 0 177.5 61.5t102.5 160.5h-353v70h437q0 -151 -105.5 -257t-258.5 -106z" />
<glyph unicode="H" horiz-adv-x="676" d="M593 700v-700h-74v315h-361v-315h-74v700h74v-315h361v315h74z" />
<glyph unicode="I" horiz-adv-x="244" d="M159 700v-700h-74v700h74z" />
<glyph unicode="J" horiz-adv-x="480" d="M-2 181h74q1 -58 37.5 -95t89.5 -37q55 0 91.5 35.5t36.5 88.5v527h74v-519q0 -85 -57 -143t-145 -58q-84 0 -141.5 56t-59.5 145z" />
<glyph unicode="K" horiz-adv-x="491" d="M158 700v-312l248 312h88l-278 -350l278 -350h-93l-243 305v-305h-74v700h74z" />
<glyph unicode="L" horiz-adv-x="499" d="M158 70h328v-70h-402v700h74v-630z" />
<glyph unicode="M" horiz-adv-x="911" d="M455 296h1l297 404h74v-700h-74v580l-258 -354h-79l-258 354v-580h-74v700h74z" />
<glyph unicode="N" horiz-adv-x="759" d="M602 0l-444 583v-583h-74v700h74l444 -585v585h74v-700h-74z" />
<glyph unicode="O" horiz-adv-x="832" d="M49 350q0 150 108.5 257.5t258.5 107.5t258.5 -107.5t108.5 -257.5t-108.5 -257.5t-258.5 -107.5t-258.5 107.5t-108.5 257.5zM126 350q0 -120 85 -207t205 -87t205 87t85 207t-85 207t-205 87t-205 -87t-85 -207z" />
<glyph unicode="P" horiz-adv-x="577" d="M84 0v700h282q81 0 137.5 -59.5t56.5 -144.5q0 -84 -56.5 -143.5t-137.5 -59.5h-208v-293h-74zM366 630h-208v-267h208q49 0 84.5 40t35.5 93q0 54 -35.5 94t-84.5 40z" />
<glyph unicode="Q" horiz-adv-x="827" d="M49 350q0 150 108.5 257.5t258.5 107.5t258.5 -107.5t108.5 -257.5q0 -134 -89 -236l91 -114h-91l-51 64q-99 -79 -227 -79q-150 0 -258.5 107.5t-108.5 257.5zM583 256l65 -82q58 77 58 176q0 120 -85 207t-205 87t-205 -87t-85 -207t85 -207t205 -87q98 0 181 66 l-106 134h92z" />
<glyph unicode="R" horiz-adv-x="603" d="M205 384h174q49 0 79.5 33.5t30.5 85.5t-35 89.5t-85 37.5h-211v-630h-74v700h285q81 0 137.5 -56.5t56.5 -140.5q0 -85 -53 -136.5t-135 -51.5h-38l211 -315h-87z" />
<glyph unicode="S" horiz-adv-x="532" d="M454 537h-74q0 49 -31.5 80t-85.5 31q-50 0 -81.5 -31.5t-31.5 -76.5q0 -28 10.5 -49.5t35 -39.5t42.5 -27.5t55 -26.5q101 -47 145 -92t44 -130q0 -90 -62.5 -140t-155.5 -50q-94 0 -154 53t-60 140h74q0 -54 41 -89.5t102 -35.5q64 0 102.5 32t38.5 90q0 53 -34 85 t-113 69q-48 23 -71.5 36t-55 38.5t-45 58.5t-13.5 78q0 78 51 126t135 48q89 0 140.5 -47.5t51.5 -129.5z" />
<glyph unicode="T" horiz-adv-x="545" d="M7 700h531v-70h-229v-630h-74v630h-228v70z" />
<glyph unicode="U" horiz-adv-x="650" d="M82 226v474h74v-479q0 -71 47 -119.5t122 -48.5q74 0 121.5 49t47.5 119v479h75v-475q0 -106 -70 -173t-174 -67q-103 0 -173 67.5t-70 173.5z" />
<glyph unicode="V" horiz-adv-x="618" d="M-14 700h79l247 -611l242 611h77l-282 -700h-77z" />
<glyph unicode="W" horiz-adv-x="975" d="M-9 700h79l192 -599l187 599h79l192 -599l187 599h77l-227 -700h-77l-192 587l-189 -587h-77z" />
<glyph unicode="X" horiz-adv-x="582" d="M86 700l205 -285l204 285h85l-243 -351l243 -349h-87l-202 283l-203 -283h-86l243 349l-243 351h84z" />
<glyph unicode="Y" horiz-adv-x="647" d="M360 327v-327h-74v327l-287 373h89l236 -308l237 308h86z" />
<glyph unicode="Z" horiz-adv-x="517" d="M112 70h379v-70h-468v66l383 564h-379v70h467v-70z" />
<glyph unicode="[" horiz-adv-x="285" d="M84 775h171v-74h-98v-702h98v-74h-171v850z" />
<glyph unicode="\" horiz-adv-x="742" d="M79 775l673 -850h-94l-668 850h89z" />
<glyph unicode="]" horiz-adv-x="285" d="M201 -75h-171v74h98v702h-98v74h171v-850z" />
<glyph unicode="^" horiz-adv-x="899" d="M277 269h-79l218 442h66l218 -442h-77l-173 352z" />
<glyph unicode="_" horiz-adv-x="484" d="M492 -125h-500v50h500v-50z" />
<glyph unicode="`" horiz-adv-x="384" d="M293 760h-66l-137 140h102z" />
<glyph unicode="a" horiz-adv-x="540" d="M402 0v57q-54 -72 -164 -72q-83 0 -137.5 44.5t-54.5 119.5q0 74 55.5 120t147.5 46q83 0 151 -33v50q0 55 -38.5 87t-96.5 32q-90 0 -150 -75l-49 45q26 35 67 59q62 35 137 35q93 0 147.5 -48t54.5 -138v-329h-70zM251 49q61 0 105 36.5t44 82.5v42q-64 43 -146 43 q-60 0 -96.5 -25.5t-36.5 -72.5t37.5 -76.5t92.5 -29.5z" />
<glyph unicode="b" horiz-adv-x="631" d="M146 700v-276q29 42 79 66.5t107 24.5q110 0 184 -72t74 -193q0 -120 -74 -192.5t-183 -72.5q-123 0 -187 81v-66h-72v700h72zM515 250q0 87 -53.5 141t-130.5 54q-85 0 -134.5 -55t-49.5 -139q0 -85 49.5 -140.5t134.5 -55.5q80 0 132 52t52 143z" />
<glyph unicode="c" horiz-adv-x="521" d="M115 250q0 -83 56 -139t142 -56t149 70l49 -49q-29 -35 -81 -63.5t-124 -28.5q-113 0 -190 76t-77 189q0 110 77.5 188t189.5 78q124 0 200 -89l-48 -48q-68 66 -148 66q-86 0 -140.5 -55.5t-54.5 -138.5z" />
<glyph unicode="d" horiz-adv-x="630" d="M556 700v-700h-70v77q-31 -42 -81 -67t-106 -25q-110 0 -184 72t-74 193q0 120 74 192.5t183 72.5q61 0 109 -22t77 -59v266h72zM116 250q0 -87 53.5 -141t130.5 -54q85 0 134.5 55t49.5 139q0 85 -49.5 140.5t-134.5 55.5q-80 0 -132 -52t-52 -143z" />
<glyph unicode="e" horiz-adv-x="558" d="M460 115l44 -56q-88 -74 -194 -74q-115 0 -192 74.5t-77 190.5q0 121 75.5 193t176.5 72q94 0 162.5 -65.5t68.5 -184.5q0 -26 -1 -36h-405q7 -76 59 -124.5t127 -48.5q88 0 156 59zM449 296q-4 73 -50.5 113.5t-108.5 40.5q-61 0 -109.5 -40t-61.5 -114h330z" />
<glyph unicode="f" horiz-adv-x="334" d="M332 692v-67q-36 18 -81 18q-98 0 -98 -114v-29h174v-68h-174v-432h-72v432h-73v68h73v29q0 78 44 127.5t128 49.5q41 0 79 -14z" />
<glyph unicode="g" horiz-adv-x="524" d="M258 517q44 0 84 -17h171v-68h-87q22 -44 22 -97q0 -79 -54 -130.5t-136 -51.5q-29 0 -61 8q-38 -16 -38 -45q0 -33 45 -33q7 0 26 1.5t33 1.5q101 0 170 -37t69 -110q0 -72 -69.5 -112.5t-170.5 -40.5t-169.5 39.5t-68.5 112.5q0 82 91 122q-30 28 -30 60q0 46 43 75 q-60 55 -60 140q0 79 54 130.5t136 51.5zM258 453q-53 0 -85.5 -34t-32.5 -83q0 -51 32.5 -85t85.5 -34t85.5 34t32.5 85q0 49 -32.5 83t-85.5 34zM97 -62q0 -42 47 -64t119 -22q71 0 118.5 22.5t47.5 63.5t-48 63.5t-119 22.5q-165 0 -165 -86z" />
<glyph unicode="h" horiz-adv-x="586" d="M145 700v-270q57 85 177 85q90 0 143 -47.5t53 -127.5v-340h-72v338q0 55 -37 83.5t-99 28.5q-65 0 -115 -44t-50 -109v-297h-72v700h72z" />
<glyph unicode="i" horiz-adv-x="222" d="M109 614q-21 0 -34 13.5t-13 34.5t13 34.5t34 13.5t34 -13.5t13 -34.5t-13 -34.5t-34 -13.5zM146 500v-500h-72v500h72z" />
<glyph unicode="j" horiz-adv-x="212" d="M102 614q-21 0 -34 13.5t-13 34.5t13 34.5t34 13.5t34 -13.5t13 -34.5t-13 -34.5t-34 -13.5zM-76 -202v67q31 -11 72 -11q72 0 72 98v548h72v-553q0 -162 -144 -162q-44 0 -72 13z" />
<glyph unicode="k" horiz-adv-x="480" d="M145 700v-407l214 207h97l-229 -218l265 -282h-99l-248 265v-265h-72v700h72z" />
<glyph unicode="l" horiz-adv-x="218" d="M145 700v-700h-72v700h72z" />
<glyph unicode="m" horiz-adv-x="855" d="M299 515q112 0 151 -101q21 42 66 71.5t100 29.5q87 0 129 -46t42 -128v-341h-72v342q0 48 -24.5 78t-75.5 30q-59 0 -104 -49t-45 -120v-281h-72v342q0 48 -26 78t-76 30q-52 0 -99.5 -44.5t-47.5 -104.5v-301h-72v500h72v-74q47 89 154 89z" />
<glyph unicode="n" horiz-adv-x="586" d="M518 340v-340h-72v338q0 55 -37 83.5t-99 28.5q-66 0 -115.5 -45.5t-49.5 -114.5v-290h-72v500h70v-73q57 88 179 88q90 0 143 -47.5t53 -127.5z" />
<glyph unicode="o" horiz-adv-x="610" d="M40 250q0 110 76 187.5t188 77.5q113 0 189.5 -77.5t76.5 -187.5t-76 -187.5t-189 -77.5q-112 0 -188.5 77.5t-76.5 187.5zM115 250q0 -83 53 -138.5t137 -55.5q85 0 137.5 55.5t52.5 138.5q0 84 -52.5 139t-138.5 55q-84 0 -136.5 -55.5t-52.5 -138.5z" />
<glyph unicode="p" horiz-adv-x="630" d="M74 -200v700h70v-77q31 42 81 67t106 25q110 0 184 -72t74 -193q0 -120 -74 -192.5t-183 -72.5q-61 0 -109 22t-77 59v-266h-72zM514 250q0 87 -53.5 141t-130.5 54q-85 0 -134.5 -55t-49.5 -139q0 -85 49.5 -140.5t134.5 -55.5q80 0 132 52t52 143z" />
<glyph unicode="q" horiz-adv-x="631" d="M485 -200v276q-29 -42 -79 -66.5t-107 -24.5q-110 0 -184 72t-74 193q0 120 74 192.5t183 72.5q123 0 187 -81v66h72v-700h-72zM116 250q0 -87 53.5 -141t130.5 -54q85 0 134.5 55t49.5 139q0 85 -49.5 140.5t-134.5 55.5q-80 0 -132 -52t-52 -143z" />
<glyph unicode="r" horiz-adv-x="329" d="M321 499v-69q-14 3 -32 3q-58 0 -101 -45.5t-43 -117.5v-270h-72v500h72v-85q18 40 53.5 64.5t77.5 24.5q28 0 45 -5z" />
<glyph unicode="s" horiz-adv-x="454" d="M395 363h-73q3 36 -22.5 63t-72.5 27q-40 0 -66 -20.5t-26 -52.5q0 -34 26 -52.5t83 -33.5q88 -23 129 -58t41 -100q0 -72 -55 -111.5t-131 -39.5q-83 0 -135.5 45t-51.5 119h75q0 -42 31.5 -71t82.5 -29q46 0 76.5 23t30.5 62q0 34 -24 52.5t-89 37.5q-82 25 -123.5 57 t-41.5 95q0 59 47 99t119 40q82 0 128 -41.5t42 -110.5z" />
<glyph unicode="t" horiz-adv-x="339" d="M8 432v68h73v124h72v-124h160v-68h-160v-285q0 -85 79 -85q50 0 86 21v-69q-38 -19 -88 -19q-63 0 -106 32.5t-43 99.5v305h-73z" />
<glyph unicode="u" horiz-adv-x="586" d="M68 160v340h72v-338q0 -55 37 -83.5t99 -28.5q66 0 115.5 45.5t49.5 114.5v290h72v-500h-70v73q-57 -88 -179 -88q-90 0 -143 47.5t-53 127.5z" />
<glyph unicode="v" horiz-adv-x="484" d="M5 500h77l161 -415l161 415h75l-198 -500h-78z" />
<glyph unicode="w" horiz-adv-x="734" d="M368 398h-2q-10 -46 -26 -97l-95 -301h-77l-157 500h78l90 -297q11 -36 28 -115h2q15 69 29 115l92 297h76l90 -291q19 -59 31 -122h2q18 82 31 123l90 290h73l-158 -500h-77l-94 300q-17 57 -26 98z" />
<glyph unicode="x" horiz-adv-x="452" d="M10 0l174 258l-168 242h82l128 -188l128 188h83l-171 -242l175 -258h-84l-131 200l-131 -200h-85z" />
<glyph unicode="y" horiz-adv-x="476" d="M5 500h79l156 -404l156 404h75l-280 -700h-75l85 207z" />
<glyph unicode="z" horiz-adv-x="433" d="M123 68h271v-68h-356v62l270 370h-270v68h357v-63z" />
<glyph unicode="{" horiz-adv-x="313" d="M112 22v235q0 32 -21.5 48t-43.5 16v61q22 0 43.5 15t21.5 44v237q0 45 29.5 71t67.5 26h74v-74h-59q-39 0 -39 -51v-219q0 -39 -23 -57.5t-47 -20.5v-2q70 -10 70 -84v-217q0 -51 39 -51h59v-74h-74q-38 0 -67.5 26t-29.5 71z" />
<glyph unicode="|" horiz-adv-x="496" d="M285 775v-850h-74v850h74z" />
<glyph unicode="}" horiz-adv-x="313" d="M201 257v-235q0 -45 -29.5 -71t-67.5 -26h-74v74h59q39 0 39 51v217q0 74 70 84v2q-24 2 -47 20.5t-23 57.5v219q0 51 -39 51h-59v74h74q38 0 67.5 -26t29.5 -71v-237q0 -29 21.5 -44t43.5 -15v-61q-22 0 -43.5 -16t-21.5 -48z" />
<glyph unicode="~" horiz-adv-x="594" d="M516 383q-63 -94 -124 -94q-28 0 -73 19l-70 29q-27 11 -43 11q-9 0 -16 -2t-14.5 -7t-12 -8.5t-11.5 -13.5t-9.5 -13.5t-10.5 -16.5t-10 -16l-43 39q18 31 31.5 49.5t39.5 37t56 18.5q23 0 58 -15l88 -36q17 -8 37 -8q18 0 34 11.5t25 23t23 35.5z" />
<glyph unicode="&#xa1;" horiz-adv-x="311" d="M155 712q24 0 39 -15.5t15 -38.5q0 -24 -15 -39.5t-39 -15.5t-39 15.5t-15 39.5q0 23 15 38.5t39 15.5zM190 496l6 -496h-82l6 496h70z" />
<glyph unicode="&#xa2;" horiz-adv-x="597" d="M259 0v109q-82 20 -135.5 87t-53.5 153q0 85 53.5 152t135.5 87v112h76v-106q86 -5 153 -62l-45 -56q-55 44 -108 47v-348q55 3 108 47l45 -55q-67 -59 -153 -64v-103h-76zM144 349q0 -55 32 -100.5t83 -63.5v329q-51 -19 -83 -64.5t-32 -100.5z" />
<glyph unicode="&#xa3;" horiz-adv-x="649" d="M107 313v74h41q-36 60 -36 115q0 87 59.5 150t156.5 63q89 0 147 -54t65 -141h-79q-16 124 -136 124q-58 0 -94.5 -42t-36.5 -102q0 -52 40 -113h239v-74h-189q50 -78 50 -143q0 -49 -17 -96h267v-74h-477v74h123q23 57 23 104q0 53 -55 135h-91z" />
<glyph unicode="&#xa5;" horiz-adv-x="806" d="M671 236h-231v-236h-74v236h-232v60h232v41l-52 65h-180v60h133l-188 238h93l231 -299l231 299h93l-188 -238h132v-60h-180l-51 -65v-41h231v-60z" />
<glyph unicode="&#xa8;" horiz-adv-x="384" d="M278 774q-21 0 -34 13.5t-13 34.5t13 34.5t34 13.5t34 -13.5t13 -34.5t-13 -34.5t-34 -13.5zM106 774q-21 0 -34 13.5t-13 34.5t13 34.5t34 13.5t34 -13.5t13 -34.5t-13 -34.5t-34 -13.5z" />
<glyph unicode="&#xa9;" horiz-adv-x="860" d="M431 -23q-157 0 -269 107.5t-112 267.5q0 159 112 266t269 107q156 0 267.5 -107t111.5 -266q0 -160 -111.5 -267.5t-267.5 -107.5zM431 41q130 0 222.5 89t92.5 222q0 132 -92.5 220.5t-222.5 88.5t-223.5 -88.5t-93.5 -220.5q0 -133 93.5 -222t223.5 -89zM434 126 q-93 0 -160 66.5t-67 159.5t67 160t160 67q90 0 164 -66l-36 -50q-41 32 -67.5 41.5t-60.5 9.5q-67 0 -114.5 -47.5t-47.5 -114.5t47.5 -114.5t114.5 -47.5q34 0 60.5 9.5t67.5 42.5l36 -52q-73 -64 -164 -64z" />
<glyph unicode="&#xab;" horiz-adv-x="480" d="M359 121l-172 220l171 220h87l-171 -220l172 -220h-87zM189 121l-172 220l171 220h87l-171 -220l172 -220h-87z" />
<glyph unicode="&#xae;" horiz-adv-x="860" d="M431 -23q-157 0 -269 107.5t-112 267.5q0 159 112 266t269 107q156 0 267.5 -107t111.5 -266q0 -160 -111.5 -267.5t-267.5 -107.5zM431 41q130 0 222.5 89t92.5 222q0 132 -92.5 220.5t-222.5 88.5t-223.5 -88.5t-93.5 -220.5q0 -133 93.5 -222t223.5 -89zM361 383h126 q25 0 43 18.5t18 44.5t-18 46.5t-43 20.5h-136v-383h-63v445h199q53 0 90 -38t37 -91q0 -54 -38 -89t-92 -35h-7l130 -192h-76z" />
<glyph unicode="&#xaf;" d="M53 778v66h294v-66h-294z" />
<glyph unicode="&#xb0;" horiz-adv-x="323" d="M305 557q0 -60 -41.5 -101.5t-101.5 -41.5t-101.5 41.5t-41.5 101.5t41.5 101.5t101.5 41.5t101.5 -41.5t41.5 -101.5zM251 557q0 38 -26 65.5t-63 27.5q-38 0 -63.5 -26.5t-25.5 -66.5q0 -38 26 -65.5t63 -27.5q38 0 63.5 26.5t25.5 66.5z" />
<glyph unicode="&#xb4;" horiz-adv-x="384" d="M156 760h-66l101 140h102z" />
<glyph unicode="&#xb6;" horiz-adv-x="611" d="M447 0v636h-54v-636h-64v636h-116q-49 0 -84.5 -40t-35.5 -90t35.5 -89.5t84.5 -39.5h57v-64h-47q-81 0 -137.5 56.5t-56.5 136.5q0 81 56.5 137.5t137.5 56.5h359v-64h-71v-636h-64z" />
<glyph unicode="&#xb7;" horiz-adv-x="286" d="M142 294q-24 0 -39 15.5t-15 38.5q0 24 15 39.5t39 15.5t39 -15.5t15 -39.5q0 -23 -15 -38.5t-39 -15.5z" />
<glyph unicode="&#xb8;" d="M96 -192l18 49q31 -18 71 -18q50 0 50 33q0 15 -12.5 24.5t-31.5 9.5q-23 0 -41 -6l-16 15l60 85h59l-29 -51q33 -1 56 -23.5t23 -50.5q0 -45 -35 -67t-81 -22q-47 0 -91 22z" />
<glyph unicode="&#xbb;" horiz-adv-x="480" d="M462 341l-172 -220h-87l172 220l-171 220h87zM292 341l-172 -220h-87l172 220l-171 220h87z" />
<glyph unicode="&#xbf;" horiz-adv-x="569" d="M325 712q24 0 39 -15.5t15 -38.5q0 -24 -15 -39.5t-39 -15.5t-39 15.5t-15 39.5q0 23 15 38.5t39 15.5zM167 194q0 -58 38 -96.5t107 -38.5q61 0 103.5 43.5t42.5 103.5h74q0 -91 -63.5 -156t-155.5 -65q-96 0 -159.5 61t-63.5 149q0 113 97 172l78 47q26 15 26 47v53h74 v-58q0 -64 -63 -102l-70 -41q-35 -21 -50 -47.5t-15 -71.5z" />
<glyph unicode="&#xc0;" horiz-adv-x="597" d="M323 760h-66l-137 140h102zM617 0h-80l-243 600l-118 -297h167l29 -72h-225l-91 -231h-76l282 700h69z" />
<glyph unicode="&#xc1;" horiz-adv-x="597" d="M331 760h-66l101 140h102zM617 0h-80l-243 600l-118 -297h167l29 -72h-225l-91 -231h-76l282 700h69z" />
<glyph unicode="&#xc2;" horiz-adv-x="597" d="M147 750l114 140h67l113 -140h-75l-72 90l-73 -90h-74zM617 0h-80l-243 600l-118 -297h167l29 -72h-225l-91 -231h-76l282 700h69z" />
<glyph unicode="&#xc3;" horiz-adv-x="597" d="M198 761h-61q5 43 28 70.5t66 27.5q31 0 67 -15t56 -15q32 0 36 34h61q-17 -96 -86 -96q-24 0 -65.5 14.5t-57.5 14.5q-21 0 -30.5 -7.5t-13.5 -27.5zM617 0h-80l-243 600l-118 -297h167l29 -72h-225l-91 -231h-76l282 700h69z" />
<glyph unicode="&#xc4;" horiz-adv-x="621" d="M393 763q-21 0 -34 13.5t-13 34.5t13 34.5t34 13.5t34 -13.5t13 -34.5t-13 -34.5t-34 -13.5zM221 763q-21 0 -34 13.5t-13 34.5t13 34.5t34 13.5t34 -13.5t13 -34.5t-13 -34.5t-34 -13.5zM629 0h-80l-243 600l-118 -297h167l29 -72h-225l-91 -231h-76l282 700h69z" />
<glyph unicode="&#xc5;" horiz-adv-x="597" d="M294 750q-41 0 -70.5 29t-29.5 71q0 41 29.5 70t70.5 29t70.5 -29t29.5 -70q0 -42 -29.5 -71t-70.5 -29zM294 905q-24 0 -39 -16t-15 -39q0 -24 15 -39.5t39 -15.5q23 0 38.5 16t15.5 39t-15.5 39t-38.5 16zM617 0h-80l-243 600l-118 -297h167l29 -72h-225l-91 -231h-76 l282 700h69z" />
<glyph unicode="&#xc7;" horiz-adv-x="705" d="M285 -192l18 49q31 -18 71 -18q50 0 50 33q0 15 -12.5 24.5t-31.5 9.5q-23 0 -41 -6l-16 15l50 72q-139 14 -234.5 118t-95.5 245q0 150 108 257.5t259 107.5q75 0 134.5 -21.5t119.5 -73.5l-43 -57q-62 49 -107.5 65t-103.5 16q-120 0 -205 -87t-85 -207t85 -207 t205 -87q58 0 103.5 16t107.5 65l43 -57q-103 -89 -231 -94l-20 -37q33 -1 56 -23.5t23 -50.5q0 -45 -35 -67t-81 -22q-47 0 -91 22z" />
<glyph unicode="&#xc8;" horiz-adv-x="542" d="M319 760h-66l-137 140h102zM84 700h402v-70h-328v-245h328v-70h-328v-245h328v-70h-402v700z" />
<glyph unicode="&#xc9;" horiz-adv-x="542" d="M315 760h-66l101 140h102zM84 700h402v-70h-328v-245h328v-70h-328v-245h328v-70h-402v700z" />
<glyph unicode="&#xca;" horiz-adv-x="542" d="M137 750l114 140h67l113 -140h-75l-72 90l-73 -90h-74zM84 700h402v-70h-328v-245h328v-70h-328v-245h328v-70h-402v700z" />
<glyph unicode="&#xcb;" horiz-adv-x="542" d="M371 763q-21 0 -34 13.5t-13 34.5t13 34.5t34 13.5t34 -13.5t13 -34.5t-13 -34.5t-34 -13.5zM199 763q-21 0 -34 13.5t-13 34.5t13 34.5t34 13.5t34 -13.5t13 -34.5t-13 -34.5t-34 -13.5zM84 700h402v-70h-328v-245h328v-70h-328v-245h328v-70h-402v700z" />
<glyph unicode="&#xcc;" horiz-adv-x="244" d="M154 760h-66l-137 140h102zM159 700v-700h-74v700h74z" />
<glyph unicode="&#xcd;" horiz-adv-x="244" d="M159 760h-66l101 140h102zM159 700v-700h-74v700h74z" />
<glyph unicode="&#xce;" horiz-adv-x="244" d="M-26 750l114 140h67l113 -140h-75l-72 90l-73 -90h-74zM159 700v-700h-74v700h74z" />
<glyph unicode="&#xcf;" horiz-adv-x="244" d="M208 763q-21 0 -34 13.5t-13 34.5t13 34.5t34 13.5t34 -13.5t13 -34.5t-13 -34.5t-34 -13.5zM36 763q-21 0 -34 13.5t-13 34.5t13 34.5t34 13.5t34 -13.5t13 -34.5t-13 -34.5t-34 -13.5zM159 700v-700h-74v700h74z" />
<glyph unicode="&#xd1;" horiz-adv-x="747" d="M273 762h-61q5 43 28 70.5t66 27.5q31 0 67 -15t56 -15q32 0 36 34h61q-17 -96 -86 -96q-24 0 -65.5 14.5t-57.5 14.5q-21 0 -30.5 -7.5t-13.5 -27.5zM596 0l-444 583v-583h-74v700h74l444 -585v585h74v-700h-74z" />
<glyph unicode="&#xd2;" horiz-adv-x="820" d="M445 760h-66l-137 140h102zM43 350q0 150 108.5 257.5t258.5 107.5t258.5 -107.5t108.5 -257.5t-108.5 -257.5t-258.5 -107.5t-258.5 107.5t-108.5 257.5zM120 350q0 -120 85 -207t205 -87t205 87t85 207t-85 207t-205 87t-205 -87t-85 -207z" />
<glyph unicode="&#xd3;" horiz-adv-x="820" d="M441 760h-66l101 140h102zM43 350q0 150 108.5 257.5t258.5 107.5t258.5 -107.5t108.5 -257.5t-108.5 -257.5t-258.5 -107.5t-258.5 107.5t-108.5 257.5zM120 350q0 -120 85 -207t205 -87t205 87t85 207t-85 207t-205 87t-205 -87t-85 -207z" />
<glyph unicode="&#xd4;" horiz-adv-x="820" d="M263 750l114 140h67l113 -140h-75l-72 90l-73 -90h-74zM43 350q0 150 108.5 257.5t258.5 107.5t258.5 -107.5t108.5 -257.5t-108.5 -257.5t-258.5 -107.5t-258.5 107.5t-108.5 257.5zM120 350q0 -120 85 -207t205 -87t205 87t85 207t-85 207t-205 87t-205 -87t-85 -207z " />
<glyph unicode="&#xd5;" horiz-adv-x="820" d="M312 749h-61q5 43 28 70.5t66 27.5q31 0 67 -15t56 -15q32 0 36 34h61q-17 -96 -86 -96q-24 0 -65.5 14.5t-57.5 14.5q-21 0 -30.5 -7.5t-13.5 -27.5zM43 350q0 150 108.5 257.5t258.5 107.5t258.5 -107.5t108.5 -257.5t-108.5 -257.5t-258.5 -107.5t-258.5 107.5 t-108.5 257.5zM120 350q0 -120 85 -207t205 -87t205 87t85 207t-85 207t-205 87t-205 -87t-85 -207z" />
<glyph unicode="&#xd6;" horiz-adv-x="832" d="M503 763q-21 0 -34 13.5t-13 34.5t13 34.5t34 13.5t34 -13.5t13 -34.5t-13 -34.5t-34 -13.5zM331 763q-21 0 -34 13.5t-13 34.5t13 34.5t34 13.5t34 -13.5t13 -34.5t-13 -34.5t-34 -13.5zM49 350q0 150 108.5 257.5t258.5 107.5t258.5 -107.5t108.5 -257.5t-108.5 -257.5 t-258.5 -107.5t-258.5 107.5t-108.5 257.5zM126 350q0 -120 85 -207t205 -87t205 87t85 207t-85 207t-205 87t-205 -87t-85 -207z" />
<glyph unicode="&#xd7;" horiz-adv-x="584" d="M548 552l-203 -202l202 -203l-53 -52l-202 202l-202 -202l-53 52l202 203l-202 203l53 52l202 -202l202 202z" />
<glyph unicode="&#xd8;" horiz-adv-x="820" d="M29 -75l128 162q-112 109 -112 263q0 150 107.5 257.5t257.5 107.5q106 0 197 -59l95 119h89l-129 -163q113 -110 113 -262q0 -150 -107.5 -257.5t-257.5 -107.5q-106 0 -195 57l-92 -117h-94zM119 350q0 -119 84 -205l358 453q-70 43 -151 43q-120 0 -205.5 -85.5 t-85.5 -205.5zM701 350q0 118 -84 204l-356 -454q68 -41 149 -41q120 0 205.5 85.5t85.5 205.5z" />
<glyph unicode="&#xd9;" horiz-adv-x="638" d="M354 760h-66l-137 140h102zM76 226v474h74v-479q0 -71 47 -119.5t122 -48.5q74 0 121.5 49t47.5 119v479h75v-475q0 -106 -70 -173t-174 -67q-103 0 -173 67.5t-70 173.5z" />
<glyph unicode="&#xda;" horiz-adv-x="638" d="M350 760h-66l101 140h102zM76 226v474h74v-479q0 -71 47 -119.5t122 -48.5q74 0 121.5 49t47.5 119v479h75v-475q0 -106 -70 -173t-174 -67q-103 0 -173 67.5t-70 173.5z" />
<glyph unicode="&#xdb;" horiz-adv-x="638" d="M172 750l114 140h67l113 -140h-75l-72 90l-73 -90h-74zM76 226v474h74v-479q0 -71 47 -119.5t122 -48.5q74 0 121.5 49t47.5 119v479h75v-475q0 -106 -70 -173t-174 -67q-103 0 -173 67.5t-70 173.5z" />
<glyph unicode="&#xdc;" horiz-adv-x="650" d="M412 763q-21 0 -34 13.5t-13 34.5t13 34.5t34 13.5t34 -13.5t13 -34.5t-13 -34.5t-34 -13.5zM240 763q-21 0 -34 13.5t-13 34.5t13 34.5t34 13.5t34 -13.5t13 -34.5t-13 -34.5t-34 -13.5zM82 226v474h74v-479q0 -71 47 -119.5t122 -48.5q74 0 121.5 49t47.5 119v479h75 v-475q0 -106 -70 -173t-174 -67q-103 0 -173 67.5t-70 173.5z" />
<glyph unicode="&#xdf;" horiz-adv-x="658" d="M417 315h-160v70l192 245h-297v-630h-74v700h459v-74l-190 -241h70q81 0 138 -55.5t57 -135.5q0 -81 -57 -137.5t-138 -56.5h-160v70h160q49 0 84.5 37t35.5 87q0 49 -35.5 85t-84.5 36z" />
<glyph unicode="&#xe0;" horiz-adv-x="540" d="M321 560h-66l-137 140h102zM402 0v57q-54 -72 -164 -72q-83 0 -137.5 44.5t-54.5 119.5q0 74 55.5 120t147.5 46q83 0 151 -33v50q0 55 -38.5 87t-96.5 32q-90 0 -150 -75l-49 45q26 35 67 59q62 35 137 35q93 0 147.5 -48t54.5 -138v-329h-70zM251 49q61 0 105 36.5 t44 82.5v42q-64 43 -146 43q-60 0 -96.5 -25.5t-36.5 -72.5t37.5 -76.5t92.5 -29.5z" />
<glyph unicode="&#xe1;" horiz-adv-x="540" d="M295 560h-66l101 140h102zM402 0v57q-54 -72 -164 -72q-83 0 -137.5 44.5t-54.5 119.5q0 74 55.5 120t147.5 46q83 0 151 -33v50q0 55 -38.5 87t-96.5 32q-90 0 -150 -75l-49 45q26 35 67 59q62 35 137 35q93 0 147.5 -48t54.5 -138v-329h-70zM251 49q61 0 105 36.5 t44 82.5v42q-64 43 -146 43q-60 0 -96.5 -25.5t-36.5 -72.5t37.5 -76.5t92.5 -29.5z" />
<glyph unicode="&#xe2;" horiz-adv-x="540" d="M123 550l114 140h67l113 -140h-75l-72 90l-73 -90h-74zM402 0v57q-54 -72 -164 -72q-83 0 -137.5 44.5t-54.5 119.5q0 74 55.5 120t147.5 46q83 0 151 -33v50q0 55 -38.5 87t-96.5 32q-90 0 -150 -75l-49 45q26 35 67 59q62 35 137 35q93 0 147.5 -48t54.5 -138v-329h-70 zM251 49q61 0 105 36.5t44 82.5v42q-64 43 -146 43q-60 0 -96.5 -25.5t-36.5 -72.5t37.5 -76.5t92.5 -29.5z" />
<glyph unicode="&#xe3;" horiz-adv-x="540" d="M174 562h-61q5 43 28 70.5t66 27.5q31 0 67 -15t56 -15q32 0 36 34h61q-17 -96 -86 -96q-24 0 -65.5 14.5t-57.5 14.5q-21 0 -30.5 -7.5t-13.5 -27.5zM402 0v57q-54 -72 -164 -72q-83 0 -137.5 44.5t-54.5 119.5q0 74 55.5 120t147.5 46q83 0 151 -33v50q0 55 -38.5 87 t-96.5 32q-90 0 -150 -75l-49 45q26 35 67 59q62 35 137 35q93 0 147.5 -48t54.5 -138v-329h-70zM251 49q61 0 105 36.5t44 82.5v42q-64 43 -146 43q-60 0 -96.5 -25.5t-36.5 -72.5t37.5 -76.5t92.5 -29.5z" />
<glyph unicode="&#xe4;" horiz-adv-x="540" d="M356 574q-21 0 -34 13.5t-13 34.5t13 34.5t34 13.5t34 -13.5t13 -34.5t-13 -34.5t-34 -13.5zM184 574q-21 0 -34 13.5t-13 34.5t13 34.5t34 13.5t34 -13.5t13 -34.5t-13 -34.5t-34 -13.5zM402 0v57q-54 -72 -164 -72q-83 0 -137.5 44.5t-54.5 119.5q0 74 55.5 120 t147.5 46q83 0 151 -33v50q0 55 -38.5 87t-96.5 32q-90 0 -150 -75l-49 45q26 35 67 59q62 35 137 35q93 0 147.5 -48t54.5 -138v-329h-70zM251 49q61 0 105 36.5t44 82.5v42q-64 43 -146 43q-60 0 -96.5 -25.5t-36.5 -72.5t37.5 -76.5t92.5 -29.5z" />
<glyph unicode="&#xe5;" horiz-adv-x="540" d="M270 550q-41 0 -70.5 29t-29.5 71q0 41 29.5 70t70.5 29t70.5 -29t29.5 -70q0 -42 -29.5 -71t-70.5 -29zM270 705q-24 0 -39 -16t-15 -39q0 -24 15 -39.5t39 -15.5q23 0 38.5 16t15.5 39t-15.5 39t-38.5 16zM402 0v57q-54 -72 -164 -72q-83 0 -137.5 44.5t-54.5 119.5 q0 74 55.5 120t147.5 46q83 0 151 -33v50q0 55 -38.5 87t-96.5 32q-90 0 -150 -75l-49 45q26 35 67 59q62 35 137 35q93 0 147.5 -48t54.5 -138v-329h-70zM251 49q61 0 105 36.5t44 82.5v42q-64 43 -146 43q-60 0 -96.5 -25.5t-36.5 -72.5t37.5 -76.5t92.5 -29.5z" />
<glyph unicode="&#xe7;" horiz-adv-x="521" d="M182 -192l18 49q31 -18 71 -18q50 0 50 33q0 15 -12.5 24.5t-31.5 9.5q-23 0 -41 -6l-16 15l50 72q-100 12 -165.5 85t-65.5 177q0 110 77.5 188t189.5 78q124 0 200 -89l-48 -48q-68 66 -148 66q-86 0 -140.5 -55.5t-54.5 -138.5t56 -139t142 -56t149 70l49 -49 q-66 -81 -181 -91l-20 -36q33 -1 56 -23.5t23 -50.5q0 -45 -35 -67t-81 -22q-47 0 -91 22z" />
<glyph unicode="&#xe8;" horiz-adv-x="558" d="M328 560h-66l-137 140h102zM460 115l44 -56q-88 -74 -194 -74q-115 0 -192 74.5t-77 190.5q0 121 75.5 193t176.5 72q94 0 162.5 -65.5t68.5 -184.5q0 -26 -1 -36h-405q7 -76 59 -124.5t127 -48.5q88 0 156 59zM449 296q-4 73 -50.5 113.5t-108.5 40.5q-61 0 -109.5 -40 t-61.5 -114h330z" />
<glyph unicode="&#xe9;" horiz-adv-x="558" d="M323 560h-66l101 140h102zM460 115l44 -56q-88 -74 -194 -74q-115 0 -192 74.5t-77 190.5q0 121 75.5 193t176.5 72q94 0 162.5 -65.5t68.5 -184.5q0 -26 -1 -36h-405q7 -76 59 -124.5t127 -48.5q88 0 156 59zM449 296q-4 73 -50.5 113.5t-108.5 40.5q-61 0 -109.5 -40 t-61.5 -114h330z" />
<glyph unicode="&#xea;" horiz-adv-x="558" d="M146 550l114 140h67l113 -140h-75l-72 90l-73 -90h-74zM460 115l44 -56q-88 -74 -194 -74q-115 0 -192 74.5t-77 190.5q0 121 75.5 193t176.5 72q94 0 162.5 -65.5t68.5 -184.5q0 -26 -1 -36h-405q7 -76 59 -124.5t127 -48.5q88 0 156 59zM449 296q-4 73 -50.5 113.5 t-108.5 40.5q-61 0 -109.5 -40t-61.5 -114h330z" />
<glyph unicode="&#xeb;" horiz-adv-x="558" d="M379 574q-21 0 -34 13.5t-13 34.5t13 34.5t34 13.5t34 -13.5t13 -34.5t-13 -34.5t-34 -13.5zM207 574q-21 0 -34 13.5t-13 34.5t13 34.5t34 13.5t34 -13.5t13 -34.5t-13 -34.5t-34 -13.5zM460 115l44 -56q-88 -74 -194 -74q-115 0 -192 74.5t-77 190.5q0 121 75.5 193 t176.5 72q94 0 162.5 -65.5t68.5 -184.5q0 -26 -1 -36h-405q7 -76 59 -124.5t127 -48.5q88 0 156 59zM449 296q-4 73 -50.5 113.5t-108.5 40.5q-61 0 -109.5 -40t-61.5 -114h330z" />
<glyph unicode="&#xec;" horiz-adv-x="222" d="M147 560h-66l-137 140h102zM146 500v-500h-72v500h72z" />
<glyph unicode="&#xed;" horiz-adv-x="222" d="M141 560h-66l101 140h102zM146 500v-500h-72v500h72z" />
<glyph unicode="&#xee;" horiz-adv-x="222" d="M-36 550l114 140h67l113 -140h-75l-72 90l-73 -90h-74zM146 500v-500h-72v500h72z" />
<glyph unicode="&#xef;" horiz-adv-x="222" d="M197 574q-21 0 -34 13.5t-13 34.5t13 34.5t34 13.5t34 -13.5t13 -34.5t-13 -34.5t-34 -13.5zM25 574q-21 0 -34 13.5t-13 34.5t13 34.5t34 13.5t34 -13.5t13 -34.5t-13 -34.5t-34 -13.5zM146 500v-500h-72v500h72z" />
<glyph unicode="&#xf1;" horiz-adv-x="586" d="M202 562h-61q5 43 28 70.5t66 27.5q31 0 67 -15t56 -15q32 0 36 34h61q-17 -96 -86 -96q-24 0 -65.5 14.5t-57.5 14.5q-21 0 -30.5 -7.5t-13.5 -27.5zM518 340v-340h-72v338q0 55 -37 83.5t-99 28.5q-66 0 -115.5 -45.5t-49.5 -114.5v-290h-72v500h70v-73q57 88 179 88 q90 0 143 -47.5t53 -127.5z" />
<glyph unicode="&#xf2;" horiz-adv-x="610" d="M340 560h-66l-137 140h102zM40 250q0 110 76 187.5t188 77.5q113 0 189.5 -77.5t76.5 -187.5t-76 -187.5t-189 -77.5q-112 0 -188.5 77.5t-76.5 187.5zM115 250q0 -83 53 -138.5t137 -55.5q85 0 137.5 55.5t52.5 138.5q0 84 -52.5 139t-138.5 55q-84 0 -136.5 -55.5 t-52.5 -138.5z" />
<glyph unicode="&#xf3;" horiz-adv-x="610" d="M335 560h-66l101 140h102zM40 250q0 110 76 187.5t188 77.5q113 0 189.5 -77.5t76.5 -187.5t-76 -187.5t-189 -77.5q-112 0 -188.5 77.5t-76.5 187.5zM115 250q0 -83 53 -138.5t137 -55.5q85 0 137.5 55.5t52.5 138.5q0 84 -52.5 139t-138.5 55q-84 0 -136.5 -55.5 t-52.5 -138.5z" />
<glyph unicode="&#xf4;" horiz-adv-x="610" d="M158 550l114 140h67l113 -140h-75l-72 90l-73 -90h-74zM40 250q0 110 76 187.5t188 77.5q113 0 189.5 -77.5t76.5 -187.5t-76 -187.5t-189 -77.5q-112 0 -188.5 77.5t-76.5 187.5zM115 250q0 -83 53 -138.5t137 -55.5q85 0 137.5 55.5t52.5 138.5q0 84 -52.5 139 t-138.5 55q-84 0 -136.5 -55.5t-52.5 -138.5z" />
<glyph unicode="&#xf5;" horiz-adv-x="610" d="M209 562h-61q5 43 28 70.5t66 27.5q31 0 67 -15t56 -15q32 0 36 34h61q-17 -96 -86 -96q-24 0 -65.5 14.5t-57.5 14.5q-21 0 -30.5 -7.5t-13.5 -27.5zM40 250q0 110 76 187.5t188 77.5q113 0 189.5 -77.5t76.5 -187.5t-76 -187.5t-189 -77.5q-112 0 -188.5 77.5 t-76.5 187.5zM115 250q0 -83 53 -138.5t137 -55.5q85 0 137.5 55.5t52.5 138.5q0 84 -52.5 139t-138.5 55q-84 0 -136.5 -55.5t-52.5 -138.5z" />
<glyph unicode="&#xf6;" horiz-adv-x="610" d="M391 574q-21 0 -34 13.5t-13 34.5t13 34.5t34 13.5t34 -13.5t13 -34.5t-13 -34.5t-34 -13.5zM219 574q-21 0 -34 13.5t-13 34.5t13 34.5t34 13.5t34 -13.5t13 -34.5t-13 -34.5t-34 -13.5zM40 250q0 110 76 187.5t188 77.5q113 0 189.5 -77.5t76.5 -187.5t-76 -187.5 t-189 -77.5q-112 0 -188.5 77.5t-76.5 187.5zM115 250q0 -83 53 -138.5t137 -55.5q85 0 137.5 55.5t52.5 138.5q0 84 -52.5 139t-138.5 55q-84 0 -136.5 -55.5t-52.5 -138.5z" />
<glyph unicode="&#xf7;" horiz-adv-x="762" d="M384 502q-24 0 -39 15.5t-15 38.5q0 24 15 39.5t39 15.5t39 -15.5t15 -39.5q0 -23 -15 -38.5t-39 -15.5zM646 314h-530v72h530v-72zM384 89q-24 0 -39 15.5t-15 38.5q0 24 15 39.5t39 15.5t39 -15.5t15 -39.5q0 -23 -15 -38.5t-39 -15.5z" />
<glyph unicode="&#xf8;" horiz-adv-x="610" d="M40 250q0 110 76 187.5t188 77.5q73 0 137 -37l77 97h89l-111 -141q74 -77 74 -184q0 -110 -76 -187.5t-189 -77.5q-72 0 -134 35l-74 -95h-94l111 140q-74 77 -74 185zM115 250q0 -75 44 -128l238 300q-42 22 -93 22q-84 0 -136.5 -55.5t-52.5 -138.5zM495 250 q0 76 -43 128l-236 -302q40 -20 89 -20q85 0 137.5 55.5t52.5 138.5z" />
<glyph unicode="&#xf9;" horiz-adv-x="586" d="M331 560h-66l-137 140h102zM68 160v340h72v-338q0 -55 37 -83.5t99 -28.5q66 0 115.5 45.5t49.5 114.5v290h72v-500h-70v73q-57 -88 -179 -88q-90 0 -143 47.5t-53 127.5z" />
<glyph unicode="&#xfa;" horiz-adv-x="586" d="M305 560h-66l101 140h102zM68 160v340h72v-338q0 -55 37 -83.5t99 -28.5q66 0 115.5 45.5t49.5 114.5v290h72v-500h-70v73q-57 -88 -179 -88q-90 0 -143 47.5t-53 127.5z" />
<glyph unicode="&#xfb;" horiz-adv-x="586" d="M146 550l114 140h67l113 -140h-75l-72 90l-73 -90h-74zM68 160v340h72v-338q0 -55 37 -83.5t99 -28.5q66 0 115.5 45.5t49.5 114.5v290h72v-500h-70v73q-57 -88 -179 -88q-90 0 -143 47.5t-53 127.5z" />
<glyph unicode="&#xfc;" horiz-adv-x="586" d="M374 574q-21 0 -34 13.5t-13 34.5t13 34.5t34 13.5t34 -13.5t13 -34.5t-13 -34.5t-34 -13.5zM202 574q-21 0 -34 13.5t-13 34.5t13 34.5t34 13.5t34 -13.5t13 -34.5t-13 -34.5t-34 -13.5zM68 160v340h72v-338q0 -55 37 -83.5t99 -28.5q66 0 115.5 45.5t49.5 114.5v290h72 v-500h-70v73q-57 -88 -179 -88q-90 0 -143 47.5t-53 127.5z" />
<glyph unicode="&#xff;" horiz-adv-x="476" d="M326 574q-21 0 -34 13.5t-13 34.5t13 34.5t34 13.5t34 -13.5t13 -34.5t-13 -34.5t-34 -13.5zM154 574q-21 0 -34 13.5t-13 34.5t13 34.5t34 13.5t34 -13.5t13 -34.5t-13 -34.5t-34 -13.5zM5 500h79l156 -404l156 404h75l-280 -700h-75l85 207z" />
<glyph unicode="&#x131;" horiz-adv-x="222" d="M146 500v-500h-72v500h72z" />
<glyph unicode="&#x178;" horiz-adv-x="647" d="M410 763q-21 0 -34 13.5t-13 34.5t13 34.5t34 13.5t34 -13.5t13 -34.5t-13 -34.5t-34 -13.5zM238 763q-21 0 -34 13.5t-13 34.5t13 34.5t34 13.5t34 -13.5t13 -34.5t-13 -34.5t-34 -13.5zM360 327v-327h-74v327l-287 373h89l236 -308l237 308h86z" />
<glyph unicode="&#x2c6;" d="M53 750l114 140h67l113 -140h-75l-72 90l-73 -90h-74z" />
<glyph unicode="&#x2c7;" d="M347 890l-114 -140h-67l-113 140h75l72 -91l73 91h74z" />
<glyph unicode="&#x2d8;" d="M199 756q-59 0 -98 30.5t-44 96.5h64q7 -39 25 -55t54 -16t54.5 16t25.5 55h63q-4 -65 -44.5 -96t-99.5 -31z" />
<glyph unicode="&#x2d9;" d="M149 820q0 22 14 37t36 15t37 -15t15 -37q0 -21 -15 -35.5t-37 -14.5t-36 14.5t-14 35.5z" />
<glyph unicode="&#x2da;" d="M200 750q-41 0 -70.5 29t-29.5 71q0 41 29.5 70t70.5 29t70.5 -29t29.5 -70q0 -42 -29.5 -71t-70.5 -29zM200 905q-24 0 -39 -16t-15 -39q0 -24 15 -39.5t39 -15.5q23 0 38.5 16t15.5 39t-15.5 39t-38.5 16z" />
<glyph unicode="&#x2db;" d="M284 -143l18 -49q-44 -22 -91 -22q-54 0 -83 27t-29 68q0 66 58 119h81q-78 -45 -78 -106q0 -55 57 -55q36 0 67 18z" />
<glyph unicode="&#x2dc;" d="M102 762h-61q5 43 28 70.5t66 27.5q31 0 67 -15t56 -15q32 0 36 34h61q-17 -96 -86 -96q-24 0 -65.5 14.5t-57.5 14.5q-21 0 -30.5 -7.5t-13.5 -27.5z" />
<glyph unicode="&#x2dd;" d="M219 760h-56l101 140h92zM99 760h-56l101 140h92z" />
<glyph unicode="&#x2013;" horiz-adv-x="627" d="M32 387h563v-74h-563v74z" />
<glyph unicode="&#x2014;" horiz-adv-x="827" d="M32 387h763v-74h-763v74z" />
<glyph unicode="&#x2018;" horiz-adv-x="286" d="M185 700h40l-66 -237h-95z" />
<glyph unicode="&#x2019;" horiz-adv-x="287" d="M102 463h-40l66 237h95z" />
<glyph unicode="&#x201a;" horiz-adv-x="286" d="M101 -138h-40l66 237h95z" />
<glyph unicode="&#x201c;" horiz-adv-x="431" d="M330 700h40l-66 -237h-95zM185 700h40l-66 -237h-95z" />
<glyph unicode="&#x201d;" horiz-adv-x="431" d="M246 463h-40l66 237h95zM101 463h-40l66 237h95z" />
<glyph unicode="&#x201e;" horiz-adv-x="431" d="M246 -138h-40l66 237h95zM101 -138h-40l66 237h95z" />
<glyph unicode="&#x2020;" horiz-adv-x="420" d="M194 -75l-22 392l24 174l-160 -23v74l160 -26l-24 208h76l-24 -208l160 27v-79l-160 27l24 -174l-22 -392h-32z" />
<glyph unicode="&#x2022;" horiz-adv-x="649" d="M143 351q-1 75 52 128t129 53t129 -53t52 -128q1 -75 -52 -128t-129 -53t-129 53t-52 128z" />
<glyph unicode="&#x2026;" horiz-adv-x="1038" d="M816 -12q-24 0 -39 15.5t-15 38.5q0 24 15 39.5t39 15.5t39 -15.5t15 -39.5q0 -23 -15 -38.5t-39 -15.5zM483 -12q-24 0 -39 15.5t-15 38.5q0 24 15 39.5t39 15.5t39 -15.5t15 -39.5q0 -23 -15 -38.5t-39 -15.5zM150 -12q-24 0 -39 15.5t-15 38.5q0 24 15 39.5t39 15.5 t39 -15.5t15 -39.5q0 -23 -15 -38.5t-39 -15.5z" />
<glyph unicode="&#x2030;" horiz-adv-x="1096" d="M20 537q0 76 41 127t105 51t105 -51t41 -127t-41 -126t-105 -50t-105 50t-41 126zM39 0l560 700h77l-555 -700h-82zM82 537q0 -48 23.5 -81t60.5 -33q38 0 61.5 33t23.5 81q0 49 -23.5 82.5t-61.5 33.5q-37 0 -60.5 -33.5t-23.5 -82.5zM788 159q0 76 41 127t105 51 t105 -51t41 -127t-41 -126t-105 -50t-105 50t-41 126zM404 159q0 76 41 127t105 51t105 -51t41 -127t-41 -126t-105 -50t-105 50t-41 126zM850 159q0 -48 23.5 -81t60.5 -33q38 0 61.5 33t23.5 81q0 49 -23.5 82.5t-61.5 33.5q-37 0 -60.5 -33.5t-23.5 -82.5zM466 159 q0 -48 23.5 -81t60.5 -33q38 0 61.5 33t23.5 81q0 49 -23.5 82.5t-61.5 33.5q-37 0 -60.5 -33.5t-23.5 -82.5z" />
<glyph unicode="&#x2039;" horiz-adv-x="309" d="M197 121l-172 220l171 220h87l-171 -220l172 -220h-87z" />
<glyph unicode="&#x203a;" horiz-adv-x="309" d="M284 341l-172 -220h-87l172 220l-171 220h87z" />
<glyph unicode="&#x2044;" horiz-adv-x="742" d="M-10 -75l673 850h89l-668 -850h-94z" />
<glyph unicode="&#x20ac;" horiz-adv-x="885" d="M520 -15q-119 0 -214.5 70.5t-132.5 180.5h-161l25 60h122q-4 23 -4 54q0 29 4 52h-84l25 60h73q36 111 132 182t215 71q75 0 134.5 -21.5t119.5 -73.5l-43 -57q-61 49 -106 63.5t-105 14.5q-89 0 -162 -49.5t-107 -129.5h446l-26 -60h-437q-5 -28 -5 -52q0 -33 5 -54 h389l-26 -60h-345q34 -79 106.5 -128t161.5 -49q60 0 105 14.5t106 63.5l43 -57q-60 -52 -119.5 -73.5t-134.5 -21.5z" />
<glyph unicode="&#x2122;" horiz-adv-x="1000" d="M664 517l134 183h55v-358h-61v248l-103 -141h-51l-102 141v-248h-62v358h55zM116 700h279v-62h-109v-296h-62v296h-108v62z" />
<glyph unicode="&#x2212;" horiz-adv-x="626" d="M42 387h542v-74h-542v74z" />
<glyph unicode="&#x2248;" horiz-adv-x="774" d="M660 482q-92 -94 -181 -94q-31 0 -97 29.5t-95 29.5q-24 0 -42.5 -5t-37 -20.5t-24.5 -21.5t-27 -30l-43 49q25 31 44 49.5t56.5 37t79.5 18.5q30 0 94 -29.5t95 -29.5t57 11t38.5 22.5t37.5 36.5zM660 280q-92 -94 -181 -94q-31 0 -97 29.5t-95 29.5q-24 0 -42.5 -5 t-37 -20.5t-24.5 -21.5t-27 -30l-43 49q25 31 44 49.5t56.5 37t79.5 18.5q30 0 94 -29.5t95 -29.5t57 11t38.5 22.5t37.5 36.5z" />
<glyph unicode="&#x25fc;" horiz-adv-x="500" d="M0 500h500v-500h-500v500z" />
<glyph horiz-adv-x="840" d="M789 384q5 -90 -16 -174t-68 -135q-43 -48 -122 -69.5t-163 -21.5t-163 21.5t-122 69.5q-47 51 -68 135t-16 174q10 179 105 260q43 36 116.5 54t147.5 18q75 0 148.5 -18t116.5 -54q95 -83 104 -260zM399 685v-266h42v266q-13 1 -21 1t-21 -1zM739 273q18 211 -49 307 q-40 59 -111 84q-26 9 -58.5 14t-51.5 6l-19 1q67 -159 95 -242q2 -5 9 -26t9.5 -29.5t7.5 -30t9 -46.5q13 -92 24 -264q121 59 135 226zM101 273q14 -167 135 -226q11 172 24 264q9 56 36 132q21 68 94 242q-70 -1 -128 -21q-71 -25 -113 -84q-66 -97 -48 -307zM596 44 q-22 59 -71.5 171t-80.5 164h-48q-31 -52 -80.5 -164t-71.5 -171q61 -26 176 -30q110 4 176 30z" />
<glyph horiz-adv-x="1590" d="M1012 540q7 -138 -56 -207q-56 -61 -190 -61q-135 0 -191 61q-63 69 -56 207q6 119 70 173q56 49 177 49q120 0 176 -49q64 -54 70 -173zM979 465q14 140 -33 206q-28 39 -74 56q-18 6 -39.5 9.5t-34.5 3.5l-12 1l63 -162q2 -6 7.5 -22t9.5 -30.5t7 -35.5 q11 -108 16 -177q80 38 90 151zM752 741l-1 -178h29l-1 178h-27zM552 465q10 -113 90 -151q8 118 16 177q5 33 24 88q9 27 63 162q-46 -1 -86 -14q-48 -17 -75 -56q-46 -66 -32 -206zM883 312q-13 34 -46.5 111.5t-54.5 113.5h-33q-22 -37 -56.5 -116t-44.5 -109 q40 -18 117 -20q75 2 118 20zM1348 156h59l133 -217h-63l-99 165l-52 -88h84l26 -40h-133l-23 -37h-63zM993 -61h-54v217h199q33 0 51.5 -24t15 -54t-27.5 -45q19 -11 26 -44l1 -50h-52l-2 44q-1 15 -9.5 24t-22.5 9h-102l-10 46h118q28 0 28 24t-28 24h-132zM823 -61h-96 q-41 1 -61 22.5t-18 59.5v135h53v-145q0 -13 6 -20t12 -8t18 -2h76q13 1 19 2t12 8t6 20v145h53v-134q2 -82 -80 -83zM368 19v57q3 82 84 80h164v-44h-164q-18 0 -23.5 -9.5t-6.5 -26.5v-56q1 -12 2.5 -18.5t8 -12.5t19.5 -6h164v-44h-164q-81 -3 -84 80zM181 156h59 l132 -217h-63l-98 165l-52 -88h84l26 -40h-133l-24 -37h-62z" />
<glyph horiz-adv-x="2234" d="M364 352q5 -87 -36 -131q-34 -38 -120 -38h-1q-86 0 -120 38q-40 43 -36 131q4 74 44 110q37 31 113 31t111 -31q41 -34 45 -110zM343 305q9 87 -21 130q-18 25 -47 35q-11 4 -25 6.5t-22 3.5h-8q32 -78 40 -103q13 -36 16 -56q7 -55 9 -112q52 25 58 96zM199 480v-113 h17v113h-17zM72 305q6 -71 57 -96q6 79 10 112q3 20 16 56q0 1 39 103q-29 -1 -54 -10q-29 -10 -47 -35q-30 -43 -21 -130zM1957 468h70l157 -261h-74l-119 197l-62 -103h101l30 -50h-161l-27 -44h-73zM1529 412v-205h-65v261h240q39 0 61 -29t17.5 -65t-32.5 -55 q27 -10 31 -51l2 -61h-63l-2 54q-2 17 -12 27.5t-27 10.5h-122l-12 54h140q35 0 35 30q0 29 -35 29h-156zM1327 207h-117q-95 0 -95 100v161h64v-173q0 -37 44 -37h92q43 0 44 37v173h64v-161q0 -100 -96 -100zM844 370v-65q2 -44 36 -44h197v-54h-198q-99 0 -100 96v69 q1 96 100 96h198v-53h-197q-36 0 -36 -45zM555 468h71l157 -261h-74l-119 197l-62 -103h101l30 -50h-161l-27 -44h-73zM282 208q-41 104 -64 142h-21q-22 -38 -64 -142q25 -11 74 -13q42 2 75 13z" />
<glyph horiz-adv-x="686" d="M535 583l-464 -583h-91l555 700h74v-700h-74v583z" />
<glyph horiz-adv-x="473" d="M52 700h350v-569q0 -61 -42.5 -103.5t-103.5 -42.5t-103.5 42.5t-42.5 103.5v73h74v-73q0 -30 21 -51t51 -21t51 21t21 51v495h-276v74z" />
<glyph horiz-adv-x="686" d="M153 120l460 580h91l-555 -700h-72v700h76v-580z" />
<glyph horiz-adv-x="977" d="M151 117l215 270h74v-272l466 585h91l-555 -700h-76v272l-215 -272h-74v700h74v-583z" />
<glyph horiz-adv-x="570" d="M590 700l-475 -700h-86l225 335l-248 365h89l204 -298l202 298h89z" />
</font>
</defs>
</svg>
