<svg xmlns="http://www.w3.org/2000/svg">
<defs>
<font id="AvenirLTPro-HeavyOblique" horiz-adv-x="260" >
  <font-face 
    font-family="Avenir LT Pro 55 Roman"
    font-weight="700"
    font-style="oblique"
    font-stretch="normal"
    units-per-em="1000"
    panose-1="2 11 7 3 2 2 3 9 2 4"
    ascent="756"
    descent="-244"
    x-height="480"
    cap-height="708"
    bbox="-165 -276 1184.81 940"
    underline-thickness="50"
    underline-position="-100"
    slope="-8"
    stemh="90"
    stemv="123"
    unicode-range="U+000D-FB02"
  />
<missing-glyph horiz-adv-x="512" 
d="M278 117h-56v67h56v-67zM271 234h-46l-2 17c0 37 4 64 13 81s23 36 46 59c43 40 50 59 50 83c0 48 -35 85 -76 85s-74 -27 -82 -95l-50 8c9 96 63 137 135 137s124 -51 124 -131c0 -43 -12 -73 -63 -120c-25 -22 -39 -39 -43 -52s-6 -37 -6 -72zM50 50h412v617h-412v-617
zM0 718h512v-718h-512v718z" />
    <glyph glyph-name="napostrophe" unicode="&#x22;n" horiz-adv-x="574" 
d="M68 0l67 480h114l-10 -77h2c28 48 79 89 159 89c129 0 162 -91 149 -189l-43 -303h-120l34 243c8 53 16 141 -68 141c-79 0 -118 -58 -127 -122l-37 -262h-120zM7 510l88 198h122l-113 -198h-97z" />
    <glyph glyph-name="IJ" unicode="IJ" horiz-adv-x="767" 
d="M76 0l100 708h126l-100 -708h-126zM793 708l-72 -512c-16 -113 -102 -214 -244 -214c-111 0 -178 51 -185 163l122 28c2 -46 29 -77 73 -77c72 0 101 52 113 137l67 475h126z" />
    <glyph glyph-name="fi" unicode="fi" horiz-adv-x="593" 
d="M111 0l53 378h-99l14 102h99l10 68c19 133 61 220 210 220c26 0 51 -2 75 -7l-22 -102c-17 4 -32 7 -49 7c-67 0 -84 -46 -91 -99l-13 -87h111l-14 -102h-111l-53 -378h-120zM420 0l67 480h120l-67 -480h-120zM494 643c6 38 42 72 86 72s74 -31 68 -72
c-5 -41 -44 -72 -88 -72s-71 34 -66 72z" />
    <glyph glyph-name="fl" unicode="fl" horiz-adv-x="593" 
d="M111 0l53 378h-99l14 102h99l10 68c19 133 61 220 210 220c26 0 51 -2 75 -7l-22 -102c-17 4 -32 7 -49 7c-67 0 -84 -46 -91 -99l-13 -87h111l-14 -102h-111l-53 -378h-120zM420 0l106 756h120l-106 -756h-120z" />
    <glyph glyph-name="ij" unicode="ij" horiz-adv-x="484" 
d="M70 0l67 480h120l-67 -480h-120zM143 643c6 38 42 72 86 72s74 -31 68 -72c-5 -41 -44 -72 -88 -72s-71 34 -66 72zM361 480h120l-71 -509c-17 -120 -55 -211 -192 -211c-22 0 -43 2 -63 9l23 104c13 -3 24 -5 37 -5c60 0 69 58 75 102zM367 643c6 38 42 72 86 72
s74 -31 68 -72c-5 -41 -44 -72 -88 -72s-71 34 -66 72z" />
    <glyph glyph-name=".notdef" horiz-adv-x="512" 
d="M278 117h-56v67h56v-67zM271 234h-46l-2 17c0 37 4 64 13 81s23 36 46 59c43 40 50 59 50 83c0 48 -35 85 -76 85s-74 -27 -82 -95l-50 8c9 96 63 137 135 137s124 -51 124 -131c0 -43 -12 -73 -63 -120c-25 -22 -39 -39 -43 -52s-6 -37 -6 -72zM50 50h412v617h-412v-617
zM0 718h512v-718h-512v718z" />
    <glyph glyph-name=".null" horiz-adv-x="200" 
 />
    <glyph glyph-name="CR" unicode="&#xd;" horiz-adv-x="0" 
 />
    <glyph glyph-name="space" unicode=" " horiz-adv-x="296" 
 />
    <glyph glyph-name="exclam" unicode="!" horiz-adv-x="296" 
d="M308 708l-69 -486h-120l69 486h120zM78 70c6 43 47 78 91 78c43 0 75 -33 69 -76s-47 -78 -91 -78c-42 0 -75 33 -69 76z" />
    <glyph glyph-name="quotedbl" unicode="&#x22;" horiz-adv-x="519" 
d="M182 444l38 264h102l-38 -264h-102zM359 444l38 264h102l-38 -264h-102z" />
    <glyph glyph-name="numbersign" unicode="#" horiz-adv-x="592" 
d="M107 0l59 209h-90l12 84h101l35 122h-90l12 84h101l60 209h88l-60 -209h103l60 209h87l-60 -209h90l-12 -84h-102l-34 -122h90l-12 -84h-100l-60 -209h-87l59 209h-104l-59 -209h-87zM414 415h-103l-34 -122h103z" />
    <glyph glyph-name="dollar" unicode="$" horiz-adv-x="592" 
d="M428 786l-9 -66h9c68 0 142 -24 186 -69l-96 -93c-26 33 -68 54 -114 54l-28 -200l4 -1c108 -30 215 -66 196 -203c-18 -132 -131 -206 -260 -219l-10 -72h-54l10 71c-87 -1 -168 25 -220 89l104 93c26 -45 77 -69 131 -74l30 211l-5 1c-107 31 -200 73 -182 205
c17 119 132 195 245 206l9 67h54zM324 427l26 183c-48 -8 -96 -40 -103 -91c-9 -61 32 -71 77 -92zM359 291l-28 -195c57 11 110 44 118 103s-45 76 -90 92z" />
    <glyph glyph-name="percent" unicode="%" horiz-adv-x="907" 
d="M529 174c15 103 110 186 213 186s174 -83 159 -186c-14 -103 -109 -186 -212 -186s-174 83 -160 186zM805 174c7 50 -27 90 -77 90s-96 -40 -103 -90s28 -90 78 -90s95 40 102 90zM105 534c15 103 109 186 212 186s175 -83 160 -186c-14 -103 -109 -186 -212 -186
s-174 83 -160 186zM381 534c7 50 -27 90 -77 90s-96 -40 -103 -90s27 -90 77 -90s96 40 103 90zM206 6l519 734l78 -38l-519 -734z" />
    <glyph glyph-name="ampersand" unicode="&#x26;" horiz-adv-x="741" 
d="M768 372l-171 -205l130 -167h-155l-64 81c-66 -67 -133 -99 -223 -99c-125 0 -229 73 -210 208c13 95 91 166 181 199c-38 50 -68 93 -58 163c16 116 120 174 227 174c106 0 193 -52 176 -168c-12 -87 -91 -147 -166 -183l96 -123l96 120h141zM412 618
c-46 0 -89 -29 -95 -71c-5 -37 25 -74 52 -103c44 22 104 56 112 108c5 38 -26 66 -69 66zM444 160l-122 158c-51 -28 -106 -60 -114 -121c-9 -62 37 -107 97 -107c55 0 99 35 139 70z" />
    <glyph glyph-name="quotesingle" unicode="'" horiz-adv-x="296" 
d="M159 444l38 264h102l-38 -264h-102z" />
    <glyph glyph-name="parenleft" unicode="(" horiz-adv-x="296" 
d="M297 732l78 -52l-2 -4c-96 -111 -163 -251 -183 -388c-19 -138 9 -278 74 -389l-92 -55c-73 126 -106 281 -84 444c23 162 100 318 209 444z" />
    <glyph glyph-name="parenright" unicode=")" horiz-adv-x="296" 
d="M80 -156l-78 52l2 4c96 111 163 251 182 388c20 138 -9 277 -73 388l92 56c73 -126 106 -281 83 -444c-22 -162 -99 -318 -208 -444z" />
    <glyph glyph-name="asterisk" unicode="*" horiz-adv-x="463" 
d="M374 708l-20 -142l141 44l14 -80l-142 -44l70 -117l-76 -50l-70 118l-100 -115l-60 51l102 113l-130 47l37 80l130 -47l20 142h84z" />
    <glyph glyph-name="plus" unicode="+" horiz-adv-x="666" 
d="M112 354h220l31 220h102l-31 -220h220l-15 -102h-220l-31 -220h-102l31 220h-220z" />
    <glyph glyph-name="comma" unicode="," horiz-adv-x="296" 
d="M20 -126l107 264h122l-122 -264h-107z" />
    <glyph glyph-name="hyphen" unicode="-" horiz-adv-x="315" 
d="M323 297l-15 -102h-247l15 102h247z" />
    <glyph glyph-name="period" unicode="." horiz-adv-x="296" 
d="M78 70c6 43 47 78 91 78c43 0 75 -33 69 -76s-47 -78 -91 -78c-42 0 -75 33 -69 76z" />
    <glyph glyph-name="slash" unicode="/" horiz-adv-x="389" 
d="M488 726l-421 -774l-79 30l422 776z" />
    <glyph glyph-name="zero" unicode="0" horiz-adv-x="592" 
d="M90 354c47 335 228 366 307 366s252 -31 205 -366s-229 -366 -308 -366s-251 31 -204 366zM210 354c-13 -88 -20 -252 100 -252s159 164 172 252c12 88 19 252 -101 252s-159 -164 -171 -252z" />
    <glyph glyph-name="one" unicode="1" horiz-adv-x="592" 
d="M268 0l80 570l-150 -123l-59 83l240 178h109l-100 -708h-120z" />
    <glyph glyph-name="two" unicode="2" horiz-adv-x="592" 
d="M59 0l18 127l312 266c38 32 83 71 90 120c8 58 -35 93 -90 93c-59 0 -106 -38 -122 -96l-125 10c30 131 135 200 263 200c127 0 220 -65 201 -201c-13 -89 -67 -150 -138 -208l-248 -203h328l-15 -108h-474z" />
    <glyph glyph-name="three" unicode="3" horiz-adv-x="592" 
d="M266 315l15 108h31c69 0 140 10 152 96c8 54 -29 93 -88 93c-48 0 -93 -29 -117 -78l-122 34c46 105 144 152 248 152c122 0 218 -64 201 -189c-11 -76 -66 -141 -144 -160v-2c88 -13 126 -85 114 -172c-19 -135 -143 -209 -269 -209c-116 0 -205 48 -219 166l132 34
c7 -58 38 -92 102 -92s126 45 135 111c13 92 -69 108 -142 108h-29z" />
    <glyph glyph-name="four" unicode="4" horiz-adv-x="592" 
d="M335 0l20 144h-301l17 119l348 445h136l-65 -456h103l-15 -108h-103l-20 -144h-120zM370 252l41 286h-2l-218 -286h179z" />
    <glyph glyph-name="five" unicode="5" horiz-adv-x="592" 
d="M605 708l-16 -108h-285l-22 -141c19 6 52 9 77 9c139 0 223 -92 203 -235c-22 -152 -146 -245 -291 -245c-112 0 -188 53 -206 162l131 34c9 -51 43 -82 104 -82c72 0 131 52 140 121c14 99 -58 137 -146 137c-52 0 -108 -13 -153 -34l61 382h403z" />
    <glyph glyph-name="six" unicode="6" horiz-adv-x="592" 
d="M391 708h146l-207 -262l1 -2c16 8 44 12 68 12c125 0 199 -103 181 -226c-20 -147 -141 -242 -286 -242c-148 0 -239 91 -218 241c11 74 46 132 93 194zM202 231c-10 -71 40 -129 111 -129s137 58 147 129s-39 129 -110 129s-138 -58 -148 -129z" />
    <glyph glyph-name="seven" unicode="7" horiz-adv-x="592" 
d="M125 594l17 114h481l-16 -110l-367 -598h-141l372 594h-346z" />
    <glyph glyph-name="eight" unicode="8" horiz-adv-x="592" 
d="M397 720c120 0 208 -67 191 -186c-10 -75 -55 -138 -129 -159l-1 -2c66 -14 117 -85 105 -172c-19 -140 -137 -213 -269 -213s-228 73 -209 213c12 87 84 158 153 172l1 2c-68 21 -95 84 -85 159c17 119 123 186 243 186zM383 618c-61 0 -103 -43 -111 -96
c-8 -56 24 -99 83 -99c53 0 103 43 111 99c8 53 -28 96 -83 96zM342 327c-65 0 -126 -46 -135 -111c-9 -67 34 -114 103 -114s126 47 135 114c9 65 -38 111 -103 111z" />
    <glyph glyph-name="nine" unicode="9" horiz-adv-x="592" 
d="M301 0h-146l207 262l-2 2c-15 -8 -44 -12 -68 -12c-125 0 -198 103 -181 226c21 147 141 242 286 242c148 0 239 -91 218 -241c-10 -74 -45 -132 -93 -194zM489 477c10 71 -40 129 -111 129s-137 -58 -147 -129s40 -129 111 -129s137 58 147 129z" />
    <glyph glyph-name="colon" unicode=":" horiz-adv-x="296" 
d="M78 70c6 43 47 78 91 78c43 0 75 -33 69 -76s-47 -78 -91 -78c-42 0 -75 33 -69 76zM125 409c7 43 47 78 91 78c43 0 76 -33 70 -76s-47 -78 -91 -78c-42 0 -76 33 -70 76z" />
    <glyph glyph-name="semicolon" unicode=";" horiz-adv-x="296" 
d="M20 -126l107 264h122l-122 -264h-107zM125 409c7 43 47 78 91 78c43 0 76 -33 70 -76s-47 -78 -91 -78c-42 0 -76 33 -70 76z" />
    <glyph glyph-name="less" unicode="&#x3c;" horiz-adv-x="666" 
d="M592 42l-474 225l10 72l537 225l-15 -110l-359 -151l316 -151z" />
    <glyph glyph-name="equal" unicode="=" horiz-adv-x="666" 
d="M124 444h542l-14 -102h-542zM99 264h542l-14 -102h-542z" />
    <glyph glyph-name="greater" unicode="&#x3e;" horiz-adv-x="666" 
d="M159 564l475 -225l-10 -72l-538 -225l15 110l360 151l-317 151z" />
    <glyph glyph-name="question" unicode="?" horiz-adv-x="519" 
d="M359 209h-120l8 55c9 60 24 75 71 117l88 78c19 17 30 40 34 65c7 52 -26 88 -78 88c-56 0 -101 -44 -114 -98l-126 10c32 127 134 202 261 202c119 0 201 -69 184 -195c-13 -87 -69 -129 -135 -184c-42 -35 -60 -48 -67 -100zM200 70c6 43 47 78 91 78
c43 0 75 -33 69 -76s-47 -78 -91 -78c-42 0 -75 33 -69 76z" />
    <glyph glyph-name="at" unicode="@" horiz-adv-x="800" 
d="M465 456c-67 0 -114 -55 -123 -121c-3 -21 -13 -92 70 -92c76 0 106 66 114 121c8 53 -11 92 -61 92zM636 133h110c-85 -98 -207 -151 -329 -151c-213 0 -366 154 -335 371c30 213 223 373 434 373c176 0 338 -117 308 -329c-30 -213 -196 -244 -256 -244
c-56 0 -75 28 -72 54h-2c-30 -27 -72 -54 -135 -54c-86 0 -135 69 -121 168c17 117 108 225 232 225c53 0 85 -16 100 -57h2l14 45h94l-65 -197c-6 -19 -14 -37 -17 -57c-3 -24 1 -37 22 -37c42 0 92 45 107 149c23 160 -75 244 -227 244c-166 0 -293 -119 -316 -283
c-25 -175 85 -281 254 -281c75 0 143 22 198 61z" />
    <glyph glyph-name="A" unicode="A" horiz-adv-x="722" 
d="M0 0l408 708h109l205 -708h-144l-43 162h-307l-87 -162h-141zM286 270h220l-69 288z" />
    <glyph glyph-name="B" unicode="B" horiz-adv-x="648" 
d="M79 0l100 708h276c107 0 210 -49 191 -178c-11 -80 -68 -133 -144 -155l-1 -2c88 -10 142 -80 129 -171c-21 -154 -162 -202 -296 -202h-255zM289 600l-25 -180h115c84 0 131 36 139 89c8 61 -30 91 -125 91h-104zM249 312l-29 -204h116c65 0 157 11 170 104
c10 74 -34 100 -136 100h-121z" />
    <glyph glyph-name="C" unicode="C" horiz-adv-x="685" 
d="M749 614l-108 -72c-44 55 -90 70 -139 70c-146 0 -259 -112 -279 -253c-21 -151 60 -263 206 -263c57 0 116 26 172 86l93 -74c-76 -88 -178 -126 -282 -126c-218 0 -353 148 -322 369c32 227 209 375 427 375c96 0 174 -31 232 -112z" />
    <glyph glyph-name="D" unicode="D" horiz-adv-x="759" 
d="M79 0l100 708h279c186 0 343 -114 310 -354c-34 -242 -255 -354 -425 -354h-264zM221 114h94c158 0 297 68 321 240s-79 240 -233 240h-115z" />
    <glyph glyph-name="E" unicode="E" horiz-adv-x="611" 
d="M79 0l100 708h469l-17 -114h-343l-24 -174h325l-16 -114h-325l-27 -192h361l-16 -114h-487z" />
    <glyph glyph-name="F" unicode="F" horiz-adv-x="574" 
d="M79 0l100 708h457l-17 -114h-331l-26 -186h312l-16 -114h-312l-41 -294h-126z" />
    <glyph glyph-name="G" unicode="G" horiz-adv-x="778" 
d="M766 414l-51 -362c-92 -46 -194 -70 -303 -70c-218 0 -353 148 -322 369c32 227 209 375 427 375c108 0 202 -23 267 -89l-107 -94c-38 44 -104 69 -175 69c-146 0 -259 -112 -279 -253c-21 -151 60 -263 206 -263c64 0 124 12 172 37l23 167h-145l16 114h271z" />
    <glyph glyph-name="H" unicode="H" horiz-adv-x="741" 
d="M79 0l100 708h126l-40 -282h331l40 282h126l-100 -708h-126l44 312h-331l-44 -312h-126z" />
    <glyph glyph-name="I" unicode="I" horiz-adv-x="278" 
d="M76 0l100 708h126l-100 -708h-126z" />
    <glyph glyph-name="J" unicode="J" horiz-adv-x="500" 
d="M526 708l-72 -512c-16 -113 -102 -214 -244 -214c-111 0 -178 51 -185 163l122 28c2 -46 29 -77 73 -77c72 0 101 52 113 137l67 475h126z" />
    <glyph glyph-name="K" unicode="K" horiz-adv-x="685" 
d="M79 0l100 708h126l-43 -300h6l336 300h170l-377 -327l299 -381h-177l-258 348h-7l-49 -348h-126z" />
    <glyph glyph-name="L" unicode="L" horiz-adv-x="519" 
d="M79 0l100 708h126l-84 -594h301l-16 -114h-427z" />
    <glyph glyph-name="M" unicode="M" horiz-adv-x="926" 
d="M82 0l100 708h192l119 -496l261 496h190l-100 -708h-120l83 588h-2l-298 -588h-88l-132 588h-2l-83 -588h-120z" />
    <glyph glyph-name="N" unicode="N" horiz-adv-x="796" 
d="M79 0l100 708h167l269 -526h2l74 526h126l-100 -708h-160l-274 543h-2l-76 -543h-126z" />
    <glyph glyph-name="O" unicode="O" horiz-adv-x="833" 
d="M90 351c32 227 209 375 427 375c222 4 357 -144 325 -371c-31 -221 -208 -369 -430 -373c-218 0 -353 148 -322 369zM223 359c-21 -151 60 -263 206 -263c147 0 260 112 281 263c20 141 -61 253 -208 253c-146 0 -259 -112 -279 -253z" />
    <glyph glyph-name="P" unicode="P" horiz-adv-x="611" 
d="M79 0l100 708h238c137 0 254 -48 232 -205c-25 -178 -163 -210 -313 -210h-90l-41 -293h-126zM261 401h76c72 0 166 4 179 100c13 87 -69 99 -137 99h-90z" />
    <glyph glyph-name="Q" unicode="Q" horiz-adv-x="852" 
d="M853 102l-14 -102h-412c-220 0 -366 139 -334 369c29 208 220 357 422 357s351 -149 322 -357c-21 -148 -113 -226 -186 -265l-1 -2h203zM496 612c-137 0 -252 -105 -272 -246c-20 -145 66 -252 204 -252c140 0 256 107 276 252c20 141 -65 246 -208 246z" />
    <glyph glyph-name="R" unicode="R" horiz-adv-x="630" 
d="M79 0l100 708h246c136 0 257 -44 235 -203c-14 -102 -84 -177 -191 -192l144 -313h-152l-122 300h-92l-42 -300h-126zM262 408h98c71 0 155 6 168 98c12 84 -65 94 -130 94h-109z" />
    <glyph glyph-name="S" unicode="S" horiz-adv-x="574" 
d="M610 653l-106 -97c-22 38 -67 56 -116 56c-58 0 -120 -26 -129 -91c-20 -142 328 -61 292 -313c-21 -152 -152 -226 -291 -226c-88 0 -170 27 -218 96l108 92c24 -47 73 -74 129 -74c58 0 129 32 138 97c22 155 -327 66 -291 319c20 146 160 214 291 214
c74 0 145 -21 193 -73z" />
    <glyph glyph-name="T" unicode="T" horiz-adv-x="574" 
d="M224 0l83 594h-217l17 114h560l-17 -114h-217l-83 -594h-126z" />
    <glyph glyph-name="U" unicode="U" horiz-adv-x="722" 
d="M746 708l-63 -448c-24 -171 -163 -278 -325 -278s-269 107 -245 278l63 448h126l-63 -444c-10 -70 15 -162 136 -162s172 92 182 162l63 444h126z" />
    <glyph glyph-name="V" unicode="V" horiz-adv-x="667" 
d="M275 0l-178 708h145l117 -535l275 535h136l-386 -708h-109z" />
    <glyph glyph-name="W" unicode="W" horiz-adv-x="981" 
d="M209 0l-109 708h138l61 -510h2l231 510h124l84 -510h2l211 510h128l-306 -708h-120l-88 539h-2l-240 -539h-116z" />
    <glyph glyph-name="X" unicode="X" horiz-adv-x="685" 
d="M0 0l304 370l-188 338h159l130 -262l202 262h153l-280 -338l205 -370h-160l-145 299l-228 -299h-152z" />
    <glyph glyph-name="Y" unicode="Y" horiz-adv-x="630" 
d="M252 0l43 303l-209 405h158l134 -282l216 282h150l-323 -405l-43 -303h-126z" />
    <glyph glyph-name="Z" unicode="Z" horiz-adv-x="611" 
d="M35 0l16 114l445 480h-372l17 114h529l-17 -114l-448 -480h387l-16 -114h-541z" />
    <glyph glyph-name="bracketleft" unicode="[" horiz-adv-x="278" 
d="M361 732l-11 -78h-90l-103 -732h90l-11 -78h-192l125 888h192z" />
    <glyph glyph-name="backslash" unicode="\" horiz-adv-x="389" 
d="M105 726l88 32l202 -776l-87 -30z" />
    <glyph glyph-name="bracketright" unicode="]" horiz-adv-x="278" 
d="M-2 -156l11 78h90l103 732h-90l11 78h192l-125 -888h-192z" />
    <glyph glyph-name="asciicircum" unicode="^" horiz-adv-x="666" 
d="M235 343h-118l275 365h82l171 -365h-118l-113 239z" />
    <glyph glyph-name="underscore" unicode="_" horiz-adv-x="500" 
d="M482 -125h-500l7 50h500z" />
    <glyph glyph-name="grave" unicode="`" 
d="M178 708l78 -144h-94l-120 144h136z" />
    <glyph glyph-name="a" unicode="a" horiz-adv-x="537" 
d="M368 0l9 66h-3c-41 -54 -101 -78 -165 -78c-89 0 -168 49 -154 144c21 156 205 167 325 167h30l2 13c8 59 -33 90 -97 90c-50 0 -99 -20 -136 -50l-54 63c61 54 139 77 215 77c205 0 184 -148 175 -216l-39 -276h-108zM387 188l4 27h-25c-66 0 -180 -5 -190 -74
c-6 -44 36 -63 75 -63c82 0 127 43 136 110z" />
    <glyph glyph-name="b" unicode="b" horiz-adv-x="630" 
d="M68 0l106 756h120l-47 -337h3c29 31 83 73 173 73c137 0 217 -110 197 -252s-125 -252 -273 -252c-67 0 -126 26 -153 84h-2l-10 -72h-114zM500 240c10 75 -33 144 -121 144s-151 -69 -161 -144c-11 -75 32 -144 120 -144s151 69 162 144z" />
    <glyph glyph-name="c" unicode="c" horiz-adv-x="482" 
d="M538 419l-95 -83c-24 29 -52 48 -84 48c-88 0 -151 -69 -161 -144c-11 -75 32 -144 120 -144c37 0 74 16 100 45l68 -86c-56 -49 -141 -67 -183 -67c-145 0 -246 101 -225 252s151 252 296 252c61 0 125 -22 164 -73z" />
    <glyph glyph-name="d" unicode="d" horiz-adv-x="630" 
d="M448 0l10 72h-2c-43 -58 -110 -84 -177 -84c-148 0 -221 110 -201 252s130 252 267 252c90 0 132 -42 153 -73h3l47 337h120l-106 -756h-114zM198 240c-11 -75 32 -144 120 -144s151 69 162 144c10 75 -33 144 -121 144s-151 -69 -161 -144z" />
    <glyph glyph-name="e" unicode="e" horiz-adv-x="574" 
d="M558 198h-366c-2 -71 46 -114 113 -114c60 0 103 28 138 65l77 -65c-66 -69 -141 -96 -217 -96c-145 0 -246 101 -225 252s151 252 296 252c134 0 212 -94 188 -261zM204 288h246c9 70 -30 114 -105 114c-71 0 -122 -45 -141 -114z" />
    <glyph glyph-name="f" unicode="f" horiz-adv-x="352" 
d="M111 0l53 378h-99l14 102h99l10 68c19 133 61 220 210 220c26 0 51 -2 75 -7l-22 -102c-17 4 -32 7 -49 7c-67 0 -84 -46 -91 -99l-13 -87h111l-14 -102h-111l-53 -378h-120z" />
    <glyph glyph-name="g" unicode="g" horiz-adv-x="630" 
d="M515 480h114l-61 -437c-24 -173 -124 -283 -311 -283c-89 0 -167 19 -227 79l86 98c42 -44 88 -69 155 -69c116 0 162 66 175 161l5 35h-2c-42 -47 -107 -70 -167 -70c-144 0 -223 110 -204 246c20 142 124 252 272 252c67 0 126 -26 153 -84h2zM360 384
c-84 0 -150 -58 -162 -143c-11 -76 40 -139 121 -139c89 0 152 61 163 141c12 83 -35 141 -122 141z" />
    <glyph glyph-name="h" unicode="h" horiz-adv-x="574" 
d="M294 756l-48 -343h2c25 40 78 79 152 79c129 0 162 -91 149 -189l-43 -303h-120l34 243c8 53 16 141 -68 141c-79 0 -118 -58 -127 -122l-37 -262h-120l106 756h120z" />
    <glyph glyph-name="i" unicode="i" 
d="M70 0l67 480h120l-67 -480h-120zM143 643c6 38 42 72 86 72s74 -31 68 -72c-5 -41 -44 -72 -88 -72s-71 34 -66 72z" />
    <glyph glyph-name="j" unicode="j" 
d="M137 480h120l-71 -509c-17 -120 -55 -211 -192 -211c-22 0 -43 2 -63 9l23 104c13 -3 24 -5 37 -5c60 0 69 58 75 102zM143 643c6 38 42 72 86 72s74 -31 68 -72c-5 -41 -44 -72 -88 -72s-71 34 -66 72z" />
    <glyph glyph-name="k" unicode="k" horiz-adv-x="537" 
d="M68 0l106 756h120l-67 -475l213 199h154l-236 -218l182 -262h-159l-157 245h-2l-34 -245h-120z" />
    <glyph glyph-name="l" unicode="l" 
d="M70 0l106 756h120l-106 -756h-120z" />
    <glyph glyph-name="m" unicode="m" horiz-adv-x="870" 
d="M63 0l67 480h114l-10 -75h2c27 45 79 87 159 87c74 0 121 -29 138 -89c43 61 98 89 170 89c128 0 160 -91 144 -206l-40 -286h-120l38 272c9 60 -2 112 -73 112c-75 0 -112 -62 -120 -124l-37 -260h-120l40 286c8 59 -10 98 -68 98c-79 0 -118 -58 -127 -122l-37 -262
h-120z" />
    <glyph glyph-name="n" unicode="n" horiz-adv-x="574" 
d="M68 0l67 480h114l-10 -77h2c28 48 79 89 159 89c129 0 162 -91 149 -189l-43 -303h-120l34 243c8 53 16 141 -68 141c-79 0 -118 -58 -127 -122l-37 -262h-120z" />
    <glyph glyph-name="o" unicode="o" horiz-adv-x="610" 
d="M78 240c21 151 151 252 296 252s247 -101 226 -252s-152 -252 -297 -252s-246 101 -225 252zM198 240c-11 -75 32 -144 120 -144s151 69 162 144c10 75 -33 144 -121 144s-151 -69 -161 -144z" />
    <glyph glyph-name="p" unicode="p" horiz-adv-x="630" 
d="M36 -228l99 708h114l-10 -72h2c43 58 110 84 177 84c148 0 222 -110 202 -252s-131 -252 -268 -252c-90 0 -132 42 -152 73h-3l-41 -289h-120zM500 240c10 75 -33 144 -121 144s-151 -69 -161 -144c-11 -75 32 -144 120 -144s151 69 162 144z" />
    <glyph glyph-name="q" unicode="q" horiz-adv-x="630" 
d="M629 480l-99 -708h-120l41 289h-3c-30 -31 -84 -73 -174 -73c-137 0 -216 110 -196 252s124 252 272 252c67 0 126 -26 153 -84h2l10 72h114zM198 240c-11 -75 32 -144 120 -144s151 69 162 144c10 75 -33 144 -121 144s-151 -69 -161 -144z" />
    <glyph glyph-name="r" unicode="r" horiz-adv-x="389" 
d="M68 0l67 480h120l-10 -76h2c34 55 91 88 154 88c15 0 29 -3 42 -7l-16 -116c-19 5 -38 9 -57 9c-113 0 -142 -95 -146 -121l-36 -257h-120z" />
    <glyph glyph-name="s" unicode="s" horiz-adv-x="444" 
d="M463 419l-90 -72c-19 32 -46 49 -87 49c-32 0 -72 -15 -78 -51c-12 -86 257 -16 231 -203c-16 -114 -131 -154 -229 -154c-74 0 -135 19 -176 74l90 75c26 -34 55 -59 106 -59c35 0 82 17 88 55c14 99 -256 21 -231 204c15 107 118 155 215 155c64 0 129 -20 161 -73z
" />
    <glyph glyph-name="t" unicode="t" horiz-adv-x="389" 
d="M164 378h-99l14 102h99l20 139h120l-20 -139h132l-14 -102h-132l-29 -210c-7 -48 3 -78 56 -78c21 0 50 4 67 15l-14 -101c-27 -12 -70 -16 -98 -16c-127 0 -149 57 -133 170z" />
    <glyph glyph-name="u" unicode="u" horiz-adv-x="574" 
d="M573 480l-67 -480h-114l11 77h-2c-29 -48 -80 -89 -160 -89c-129 0 -162 91 -148 189l42 303h120l-34 -243c-7 -53 -16 -141 68 -141c79 0 119 58 128 122l36 262h120z" />
    <glyph glyph-name="v" unicode="v" horiz-adv-x="519" 
d="M199 0l-129 480h131l81 -336h2l176 336h123l-256 -480h-128z" />
    <glyph glyph-name="w" unicode="w" horiz-adv-x="796" 
d="M170 0l-100 480h130l57 -336h2l144 336h130l57 -336h2l147 336h121l-230 -480h-119l-68 328h-2l-147 -328h-124z" />
    <glyph glyph-name="x" unicode="x" horiz-adv-x="537" 
d="M-1 0l229 258l-135 222h146l76 -144l124 144h137l-195 -222l157 -258h-146l-101 172l-150 -172h-142z" />
    <glyph glyph-name="y" unicode="y" horiz-adv-x="519" 
d="M207 -4l-137 484h132l88 -333h2l166 333h125l-308 -583c-48 -90 -97 -137 -203 -137c-31 0 -61 4 -90 12l30 108c18 -7 38 -12 59 -12c59 0 78 21 105 71z" />
    <glyph glyph-name="z" unicode="z" horiz-adv-x="482" 
d="M34 0l16 111l295 271v2h-245l13 96h390l-15 -109l-299 -275h272l-13 -96h-414z" />
    <glyph glyph-name="braceleft" unicode="{" horiz-adv-x="278" 
d="M34 244l13 88c28 0 95 13 104 70l27 198c13 90 104 132 147 132h91l-12 -84h-55c-57 0 -68 -41 -72 -70l-26 -188c-12 -78 -80 -97 -112 -101l-1 -2c32 -3 95 -14 83 -107l-25 -182c-4 -29 -5 -70 52 -70h55l-12 -84h-91c-43 0 -122 42 -109 132l26 191
c9 63 -55 77 -83 77z" />
    <glyph glyph-name="bar" unicode="|" horiz-adv-x="401" 
d="M206 829h91v-1105h-91v1105z" />
    <glyph glyph-name="braceright" unicode="}" horiz-adv-x="278" 
d="M325 332l-13 -88c-28 0 -96 -13 -104 -70l-27 -198c-13 -90 -104 -132 -147 -132h-91l12 84h55c57 0 68 41 72 70l26 188c12 78 80 97 112 101l1 2c-32 3 -95 14 -83 107l25 182c4 29 5 70 -52 70h-55l12 84h91c43 0 122 -42 109 -132l-27 -191c-8 -63 56 -77 84 -77z
" />
    <glyph glyph-name="asciitilde" unicode="~" horiz-adv-x="666" 
d="M583 385l24 -84c-36 -42 -75 -86 -137 -86c-37 0 -67 15 -97 33s-64 35 -110 35s-75 -37 -96 -68l-24 84c28 42 70 86 134 86c39 0 76 -15 112 -32c34 -16 70 -36 96 -36c41 0 71 37 98 68z" />
    <glyph glyph-name="uni00A0" unicode="&#xa0;" horiz-adv-x="296" 
 />
    <glyph glyph-name="Agrave" unicode="&#xc0;" horiz-adv-x="722" 
d="M0 0l408 708h109l205 -708h-144l-43 162h-307l-87 -162h-141zM286 270h220l-69 288zM435 900l79 -144h-94l-121 144h136z" />
    <glyph glyph-name="Aacute" unicode="&#xc1;" horiz-adv-x="722" 
d="M0 0l408 708h109l205 -708h-144l-43 162h-307l-87 -162h-141zM286 270h220l-69 288zM420 756l119 144h136l-161 -144h-94z" />
    <glyph glyph-name="Acircumflex" unicode="&#xc2;" horiz-adv-x="722" 
d="M0 0l408 708h109l205 -708h-144l-43 162h-307l-87 -162h-141zM286 270h220l-69 288zM649 756h-114l-57 90l-81 -90h-112l135 144h135z" />
    <glyph glyph-name="Atilde" unicode="&#xc3;" horiz-adv-x="722" 
d="M0 0l408 708h109l205 -708h-144l-43 162h-307l-87 -162h-141zM286 270h220l-69 288zM349 760h-66c19 64 56 127 130 127c53 0 106 -37 139 -37c27 0 41 19 52 42h66c-21 -64 -54 -127 -130 -127c-53 0 -106 38 -139 38c-27 0 -41 -20 -52 -43z" />
    <glyph glyph-name="Adieresis" unicode="&#xc4;" horiz-adv-x="722" 
d="M0 0l408 708h109l205 -708h-144l-43 162h-307l-87 -162h-141zM286 270h220l-69 288zM297 828c5 39 42 72 86 72s75 -31 68 -72s-44 -72 -88 -72s-73 33 -66 72zM503 828c5 39 42 72 86 72s75 -31 68 -72s-44 -72 -88 -72s-73 33 -66 72z" />
    <glyph glyph-name="Amacron" unicode="&#x100;" horiz-adv-x="722" 
d="M0 0l408 708h109l205 -708h-144l-43 162h-307l-87 -162h-141zM286 270h220l-69 288zM639 865l-11 -78h-320l11 78h320z" />
    <glyph glyph-name="Abreve" unicode="&#x102;" horiz-adv-x="722" 
d="M0 0l408 708h109l205 -708h-144l-43 162h-307l-87 -162h-141zM286 270h220l-69 288zM314 900h67c1 -51 43 -66 94 -66c57 0 90 10 113 66h66c-25 -100 -95 -144 -191 -144s-156 44 -149 144z" />
    <glyph glyph-name="Aring" unicode="&#xc5;" horiz-adv-x="722" 
d="M0 0l408 708h109l205 -708h-144l-43 162h-307l-87 -162h-141zM286 270h220l-69 288zM583 837c-8 -60 -59 -102 -119 -102s-99 41 -91 101c8 59 59 103 119 103s100 -42 91 -102zM535 837c4 31 -18 54 -49 54s-61 -23 -65 -54s19 -54 50 -54s60 22 64 54z" />
    <glyph glyph-name="Aogonek" unicode="&#x104;" horiz-adv-x="722" 
d="M643 -147l18 -49c-31 -23 -68 -38 -105 -38c-53 0 -99 30 -91 89c8 54 66 111 113 145l-44 162h-307l-86 -162h-141l407 708h109l206 -708h-82c-34 -29 -89 -81 -94 -122c-3 -25 15 -46 40 -46c19 0 40 9 57 21zM285 270h220l-68 288z" />
    <glyph glyph-name="AE" unicode="&#xc6;" horiz-adv-x="1000" 
d="M529 0l26 186h-268l-140 -186h-153l553 708h496l-17 -114h-288l-24 -174h270l-16 -114h-270l-27 -192h300l-16 -114h-426zM368 294h202l42 300h-15z" />
    <glyph glyph-name="Cacute" unicode="&#x106;" horiz-adv-x="685" 
d="M749 614l-108 -72c-44 55 -90 70 -139 70c-146 0 -259 -112 -279 -253c-21 -151 60 -263 206 -263c57 0 116 26 172 86l93 -74c-76 -88 -178 -126 -282 -126c-218 0 -353 148 -322 369c32 227 209 375 427 375c96 0 174 -31 232 -112zM447 756l119 144h136l-161 -144h-94
z" />
    <glyph glyph-name="Ccircumflex" unicode="&#x108;" horiz-adv-x="685" 
d="M749 614l-108 -72c-44 55 -90 70 -139 70c-146 0 -259 -112 -279 -253c-21 -151 60 -263 206 -263c57 0 116 26 172 86l93 -74c-76 -88 -178 -126 -282 -126c-218 0 -353 148 -322 369c32 227 209 375 427 375c96 0 174 -31 232 -112zM700 756h-114l-57 90l-81 -90h-112
l135 144h135z" />
    <glyph glyph-name="Ccaron" unicode="&#x10c;" horiz-adv-x="685" 
d="M749 614l-108 -72c-44 55 -90 70 -139 70c-146 0 -259 -112 -279 -253c-21 -151 60 -263 206 -263c57 0 116 26 172 86l93 -74c-76 -88 -178 -126 -282 -126c-218 0 -353 148 -322 369c32 227 209 375 427 375c96 0 174 -31 232 -112zM357 900h114l56 -90l82 90h110
l-135 -144h-133z" />
    <glyph glyph-name="Cdotaccent" unicode="&#x10a;" horiz-adv-x="685" 
d="M749 614l-108 -72c-44 55 -90 70 -139 70c-146 0 -259 -112 -279 -253c-21 -151 60 -263 206 -263c57 0 116 26 172 86l93 -74c-76 -88 -178 -126 -282 -126c-218 0 -353 148 -322 369c32 227 209 375 427 375c96 0 174 -31 232 -112zM451 828c5 39 42 72 86 72
s75 -31 68 -72s-44 -72 -88 -72s-73 33 -66 72z" />
    <glyph glyph-name="Ccedilla" unicode="&#xc7;" horiz-adv-x="685" 
d="M749 614l-108 -72c-44 55 -90 70 -139 70c-146 0 -259 -112 -279 -253c-21 -151 60 -263 206 -263c57 0 116 26 172 86l93 -74c-75 -87 -174 -125 -278 -126l-34 -42c59 0 120 -6 109 -83c-10 -73 -93 -97 -153 -97c-37 0 -72 10 -102 28l29 46c23 -13 50 -20 79 -20
c22 0 58 9 63 42c3 26 -25 36 -46 36c-13 0 -26 -3 -38 -7l-24 25l62 75c-188 22 -299 163 -271 366c32 227 209 375 427 375c96 0 174 -31 232 -112z" />
    <glyph glyph-name="Dcaron" unicode="&#x10e;" horiz-adv-x="759" 
d="M79 0l100 708h279c186 0 343 -114 310 -354c-34 -242 -255 -354 -425 -354h-264zM221 114h94c158 0 297 68 321 240s-79 240 -233 240h-115zM278 900h114l56 -90l82 90h110l-135 -144h-133z" />
    <glyph glyph-name="Dcroat" unicode="&#x110;" horiz-adv-x="759" 
d="M79 0l45 324h-66l12 84h66l42 300h279c186 0 345 -114 310 -354c-35 -242 -253 -354 -424 -354h-264zM221 114h94c157 0 296 68 320 240s-79 240 -232 240h-115l-26 -186h216l-12 -84h-216z" />
    <glyph glyph-name="Eth" unicode="&#xd0;" horiz-adv-x="759" 
d="M79 0l46 324h-66l11 84h66l43 300h279c186 0 343 -114 310 -354c-34 -242 -255 -354 -425 -354h-264zM221 114h94c158 0 297 68 321 240s-79 240 -233 240h-115l-26 -186h216l-11 -84h-216z" />
    <glyph glyph-name="Egrave" unicode="&#xc8;" horiz-adv-x="611" 
d="M79 0l100 708h469l-17 -114h-343l-24 -174h325l-16 -114h-325l-27 -192h361l-16 -114h-487zM380 900l79 -144h-94l-121 144h136z" />
    <glyph glyph-name="Eacute" unicode="&#xc9;" horiz-adv-x="611" 
d="M79 0l100 708h469l-17 -114h-343l-24 -174h325l-16 -114h-325l-27 -192h361l-16 -114h-487zM365 756l119 144h136l-161 -144h-94z" />
    <glyph glyph-name="Ecircumflex" unicode="&#xca;" horiz-adv-x="611" 
d="M79 0l100 708h469l-17 -114h-343l-24 -174h325l-16 -114h-325l-27 -192h361l-16 -114h-487zM594 756h-114l-57 90l-81 -90h-112l135 144h135z" />
    <glyph glyph-name="Ecaron" unicode="&#x11a;" horiz-adv-x="611" 
d="M79 0l100 708h469l-17 -114h-343l-24 -174h325l-16 -114h-325l-27 -192h361l-16 -114h-487zM270 900h114l56 -90l82 90h110l-135 -144h-133z" />
    <glyph glyph-name="Edieresis" unicode="&#xcb;" horiz-adv-x="611" 
d="M79 0l100 708h469l-17 -114h-343l-24 -174h325l-16 -114h-325l-27 -192h361l-16 -114h-487zM242 828c5 39 42 72 86 72s75 -31 68 -72s-44 -72 -88 -72s-73 33 -66 72zM448 828c5 39 42 72 86 72s75 -31 68 -72s-44 -72 -88 -72s-73 33 -66 72z" />
    <glyph glyph-name="Emacron" unicode="&#x112;" horiz-adv-x="611" 
d="M79 0l100 708h469l-17 -114h-343l-24 -174h325l-16 -114h-325l-27 -192h361l-16 -114h-487zM601 865l-11 -78h-320l11 78h320z" />
    <glyph glyph-name="Ebreve" unicode="&#x114;" horiz-adv-x="611" 
d="M79 0l100 708h469l-17 -114h-343l-24 -174h325l-16 -114h-325l-27 -192h361l-16 -114h-487zM279 900h67c1 -51 43 -66 94 -66c57 0 90 10 113 66h66c-25 -100 -95 -144 -191 -144s-156 44 -149 144z" />
    <glyph glyph-name="Edotaccent" unicode="&#x116;" horiz-adv-x="611" 
d="M79 0l100 708h469l-17 -114h-343l-24 -174h325l-16 -114h-325l-27 -192h361l-16 -114h-487zM374 828c5 39 42 72 86 72s75 -31 68 -72s-44 -72 -88 -72s-73 33 -66 72z" />
    <glyph glyph-name="Eogonek" unicode="&#x118;" horiz-adv-x="611" 
d="M79 0l99 708h469l-16 -114h-343l-24 -174h325l-16 -114h-325l-27 -192h361l-16 -114h-59c-34 -29 -89 -81 -94 -122c-3 -25 15 -46 40 -46c19 0 40 9 57 21l18 -49c-31 -23 -68 -38 -105 -38c-53 0 -99 30 -91 89c8 54 66 111 113 145h-366z" />
    <glyph glyph-name="Gcircumflex" unicode="&#x11c;" horiz-adv-x="778" 
d="M766 414l-51 -362c-92 -46 -194 -70 -303 -70c-218 0 -353 148 -322 369c32 227 209 375 427 375c108 0 202 -23 267 -89l-107 -94c-38 44 -104 69 -175 69c-146 0 -259 -112 -279 -253c-21 -151 60 -263 206 -263c64 0 124 12 172 37l23 167h-145l16 114h271zM699 756
h-114l-57 90l-81 -90h-112l135 144h135z" />
    <glyph glyph-name="Gbreve" unicode="&#x11e;" horiz-adv-x="778" 
d="M766 414l-51 -362c-92 -46 -194 -70 -303 -70c-218 0 -353 148 -322 369c32 227 209 375 427 375c108 0 202 -23 267 -89l-107 -94c-38 44 -104 69 -175 69c-146 0 -259 -112 -279 -253c-21 -151 60 -263 206 -263c64 0 124 12 172 37l23 167h-145l16 114h271zM369 900
h67c1 -51 43 -66 94 -66c57 0 90 10 113 66h66c-25 -100 -95 -144 -191 -144s-156 44 -149 144z" />
    <glyph glyph-name="Gdotaccent" unicode="&#x120;" horiz-adv-x="778" 
d="M766 414l-51 -362c-92 -46 -194 -70 -303 -70c-218 0 -353 148 -322 369c32 227 209 375 427 375c108 0 202 -23 267 -89l-107 -94c-38 44 -104 69 -175 69c-146 0 -259 -112 -279 -253c-21 -151 60 -263 206 -263c64 0 124 12 172 37l23 167h-145l16 114h271zM453 828
c5 39 42 72 86 72s75 -31 68 -72s-44 -72 -88 -72s-73 33 -66 72z" />
    <glyph glyph-name="Gcommaaccent" unicode="&#x122;" horiz-adv-x="778" 
d="M766 414l-51 -362c-92 -46 -194 -70 -303 -70c-218 0 -353 148 -322 369c32 227 209 375 427 375c108 0 202 -23 267 -89l-107 -94c-38 44 -104 69 -175 69c-146 0 -259 -112 -279 -253c-21 -151 60 -263 206 -263c64 0 124 12 172 37l23 167h-145l16 114h271zM272 -258
l101 198h122l-116 -198h-107z" />
    <glyph glyph-name="Hcircumflex" unicode="&#x124;" horiz-adv-x="741" 
d="M79 0l100 708h126l-40 -282h331l40 282h126l-100 -708h-126l44 312h-331l-44 -312h-126zM658 756h-114l-57 90l-81 -90h-112l135 144h135z" />
    <glyph glyph-name="Hbar" unicode="&#x126;" horiz-adv-x="741" 
d="M79 0l99 708h126l-13 -89h331l13 89h126l-99 -708h-126l43 312h-331l-43 -312h-126zM264 426h331l17 115h-331z" />
    <glyph glyph-name="Igrave" unicode="&#xcc;" horiz-adv-x="278" 
d="M76 0l100 708h126l-100 -708h-126zM213 900l79 -144h-94l-121 144h136z" />
    <glyph glyph-name="Iacute" unicode="&#xcd;" horiz-adv-x="278" 
d="M76 0l100 708h126l-100 -708h-126zM198 756l119 144h136l-161 -144h-94z" />
    <glyph glyph-name="Icircumflex" unicode="&#xce;" horiz-adv-x="278" 
d="M76 0l100 708h126l-100 -708h-126zM427 756h-114l-57 90l-81 -90h-112l135 144h135z" />
    <glyph glyph-name="Itilde" unicode="&#x128;" horiz-adv-x="278" 
d="M76 0l100 708h126l-100 -708h-126zM128 760h-66c19 64 56 127 130 127c53 0 106 -37 139 -37c27 0 41 19 52 42h66c-21 -64 -54 -127 -130 -127c-53 0 -106 38 -139 38c-27 0 -41 -20 -52 -43z" />
    <glyph glyph-name="Idieresis" unicode="&#xcf;" horiz-adv-x="278" 
d="M76 0l100 708h126l-100 -708h-126zM75 828c5 39 42 72 86 72s75 -31 68 -72s-44 -72 -88 -72s-73 33 -66 72zM281 828c5 39 42 72 86 72s75 -31 68 -72s-44 -72 -88 -72s-73 33 -66 72z" />
    <glyph glyph-name="Imacron" unicode="&#x12a;" horiz-adv-x="278" 
d="M76 0l100 708h126l-100 -708h-126zM419 865l-11 -78h-320l11 78h320z" />
    <glyph glyph-name="Idotaccent" unicode="&#x130;" horiz-adv-x="278" 
d="M76 0l100 708h126l-100 -708h-126zM179 828c5 39 42 72 86 72s75 -31 68 -72s-44 -72 -88 -72s-73 33 -66 72z" />
    <glyph glyph-name="Iogonek" unicode="&#x12e;" horiz-adv-x="278" 
d="M76 0l99 708h126l-99 -708h-36c-35 -28 -89 -82 -94 -122c-3 -25 15 -46 40 -46c19 0 41 9 57 21l18 -49c-31 -23 -68 -38 -105 -38c-55 0 -98 30 -90 89c8 54 64 110 112 145h-28z" />
    <glyph glyph-name="Jcircumflex" unicode="&#x134;" horiz-adv-x="500" 
d="M526 708l-72 -512c-16 -113 -102 -214 -244 -214c-111 0 -178 51 -185 163l122 28c2 -46 29 -77 73 -77c72 0 101 52 113 137l67 475h126zM652 756h-114l-57 90l-81 -90h-112l135 144h135z" />
    <glyph glyph-name="Kcommaaccent" unicode="&#x136;" horiz-adv-x="685" 
d="M79 0l100 708h126l-43 -300h6l336 300h170l-377 -327l299 -381h-177l-258 348h-7l-49 -348h-126zM175 -258l101 198h122l-116 -198h-107z" />
    <glyph glyph-name="Lacute" unicode="&#x139;" horiz-adv-x="519" 
d="M79 0l100 708h126l-84 -594h301l-16 -114h-427zM169 756l119 144h136l-161 -144h-94z" />
    <glyph glyph-name="Lcaron" unicode="&#x13d;" horiz-adv-x="519" 
d="M79 0l100 708h126l-84 -594h301l-16 -114h-427zM329 510l88 198h122l-113 -198h-97z" />
    <glyph glyph-name="Lcommaaccent" unicode="&#x13b;" horiz-adv-x="519" 
d="M79 0l100 708h126l-84 -594h301l-16 -114h-427zM120 -258l101 198h122l-116 -198h-107z" />
    <glyph glyph-name="Lslash" unicode="&#x141;" horiz-adv-x="519" 
d="M79 0l26 187l-78 -62l15 110l79 62l58 411h126l-43 -300l232 181l-16 -109l-231 -182l-26 -184h301l-16 -114h-427z" />
    <glyph glyph-name="Ldot" unicode="&#x13f;" horiz-adv-x="519" 
d="M79 0l100 708h126l-84 -594h301l-16 -114h-427zM375 384c5 39 42 72 86 72s75 -31 68 -72s-44 -72 -88 -72s-71 33 -66 72z" />
    <glyph glyph-name="Nacute" unicode="&#x143;" horiz-adv-x="796" 
d="M79 0l100 708h167l269 -526h2l74 526h126l-100 -708h-160l-274 543h-2l-76 -543h-126zM450 756l119 144h136l-161 -144h-94z" />
    <glyph glyph-name="Ncaron" unicode="&#x147;" horiz-adv-x="796" 
d="M79 0l100 708h167l269 -526h2l74 526h126l-100 -708h-160l-274 543h-2l-76 -543h-126zM342 900h114l56 -90l82 90h110l-135 -144h-133z" />
    <glyph glyph-name="Ntilde" unicode="&#xd1;" horiz-adv-x="796" 
d="M79 0l100 708h167l269 -526h2l74 526h126l-100 -708h-160l-274 543h-2l-76 -543h-126zM386 760h-66c19 64 56 127 130 127c53 0 106 -37 139 -37c27 0 41 19 52 42h66c-21 -64 -54 -127 -130 -127c-53 0 -106 38 -139 38c-27 0 -41 -20 -52 -43z" />
    <glyph glyph-name="Ncommaaccent" unicode="&#x145;" horiz-adv-x="796" 
d="M79 0l100 708h167l269 -526h2l74 526h126l-100 -708h-160l-274 543h-2l-76 -543h-126zM224 -258l101 198h122l-116 -198h-107z" />
    <glyph glyph-name="Ograve" unicode="&#xd2;" horiz-adv-x="833" 
d="M90 351c32 227 209 375 427 375c222 4 357 -144 325 -371c-31 -221 -208 -369 -430 -373c-218 0 -353 148 -322 369zM223 359c-21 -151 60 -263 206 -263c147 0 260 112 281 263c20 141 -61 253 -208 253c-146 0 -259 -112 -279 -253zM491 900l79 -144h-94l-121 144h136z
" />
    <glyph glyph-name="Oacute" unicode="&#xd3;" horiz-adv-x="833" 
d="M90 351c32 227 209 375 427 375c222 4 357 -144 325 -371c-31 -221 -208 -369 -430 -373c-218 0 -353 148 -322 369zM223 359c-21 -151 60 -263 206 -263c147 0 260 112 281 263c20 141 -61 253 -208 253c-146 0 -259 -112 -279 -253zM476 756l119 144h136l-161 -144h-94
z" />
    <glyph glyph-name="Ocircumflex" unicode="&#xd4;" horiz-adv-x="833" 
d="M90 351c32 227 209 375 427 375c222 4 357 -144 325 -371c-31 -221 -208 -369 -430 -373c-218 0 -353 148 -322 369zM223 359c-21 -151 60 -263 206 -263c147 0 260 112 281 263c20 141 -61 253 -208 253c-146 0 -259 -112 -279 -253zM705 756h-114l-57 90l-81 -90h-112
l135 144h135z" />
    <glyph glyph-name="Otilde" unicode="&#xd5;" horiz-adv-x="833" 
d="M90 351c32 227 209 375 427 375c222 4 357 -144 325 -371c-31 -221 -208 -369 -430 -373c-218 0 -353 148 -322 369zM223 359c-21 -151 60 -263 206 -263c147 0 260 112 281 263c20 141 -61 253 -208 253c-146 0 -259 -112 -279 -253zM405 760h-66c19 64 56 127 130 127
c53 0 106 -37 139 -37c27 0 41 19 52 42h66c-21 -64 -54 -127 -130 -127c-53 0 -106 38 -139 38c-27 0 -41 -20 -52 -43z" />
    <glyph glyph-name="Odieresis" unicode="&#xd6;" horiz-adv-x="833" 
d="M90 351c32 227 209 375 427 375c222 4 357 -144 325 -371c-31 -221 -208 -369 -430 -373c-218 0 -353 148 -322 369zM223 359c-21 -151 60 -263 206 -263c147 0 260 112 281 263c20 141 -61 253 -208 253c-146 0 -259 -112 -279 -253zM353 828c5 39 42 72 86 72
s75 -31 68 -72s-44 -72 -88 -72s-73 33 -66 72zM559 828c5 39 42 72 86 72s75 -31 68 -72s-44 -72 -88 -72s-73 33 -66 72z" />
    <glyph glyph-name="Omacron" unicode="&#x14c;" horiz-adv-x="833" 
d="M90 351c32 227 209 375 427 375c222 4 357 -144 325 -371c-31 -221 -208 -369 -430 -373c-218 0 -353 148 -322 369zM223 359c-21 -151 60 -263 206 -263c147 0 260 112 281 263c20 141 -61 253 -208 253c-146 0 -259 -112 -279 -253zM696 865l-11 -78h-320l11 78h320z
" />
    <glyph glyph-name="Obreve" unicode="&#x14e;" horiz-adv-x="833" 
d="M90 351c32 227 209 375 427 375c222 4 357 -144 325 -371c-31 -221 -208 -369 -430 -373c-218 0 -353 148 -322 369zM223 359c-21 -151 60 -263 206 -263c147 0 260 112 281 263c20 141 -61 253 -208 253c-146 0 -259 -112 -279 -253zM371 900h67c1 -51 43 -66 94 -66
c57 0 90 10 113 66h66c-25 -100 -95 -144 -191 -144s-156 44 -149 144z" />
    <glyph glyph-name="Ohungarumlaut" unicode="&#x150;" horiz-adv-x="833" 
d="M90 351c32 227 209 375 427 375c222 4 357 -144 325 -371c-31 -221 -208 -369 -430 -373c-218 0 -353 148 -322 369zM223 359c-21 -151 60 -263 206 -263c147 0 260 112 281 263c20 141 -61 253 -208 253c-146 0 -259 -112 -279 -253zM370 756l119 144h136l-161 -144h-94
zM575 756l119 144h136l-161 -144h-94z" />
    <glyph glyph-name="Oslash" unicode="&#xd8;" horiz-adv-x="833" 
d="M247 197l392 370c-36 29 -82 45 -137 45c-146 0 -259 -112 -279 -253c-8 -62 1 -118 24 -162zM679 521l-394 -373c36 -33 84 -52 144 -52c147 0 260 112 281 263c9 63 -2 120 -31 162zM838 755l43 -43l-99 -94c53 -65 75 -155 60 -263c-31 -221 -208 -369 -430 -373
c-92 0 -170 27 -225 74l-98 -92l-44 43l100 94c-48 64 -69 149 -55 250c32 227 209 375 427 375c89 2 164 -22 221 -65z" />
    <glyph glyph-name="OE" unicode="&#x152;" horiz-adv-x="1000" 
d="M728 594l-24 -174h270l-16 -114h-270l-27 -192h305l-16 -114h-497c-255 0 -381 154 -353 354c28 202 198 354 453 354h480l-17 -114h-288zM535 114l67 480h-63c-92 0 -274 -46 -301 -240c-28 -194 142 -240 234 -240h63z" />
    <glyph glyph-name="Racute" unicode="&#x154;" horiz-adv-x="630" 
d="M79 0l100 708h246c136 0 257 -44 235 -203c-14 -102 -84 -177 -191 -192l144 -313h-152l-122 300h-92l-42 -300h-126zM262 408h98c71 0 155 6 168 98c12 84 -65 94 -130 94h-109zM316 756l119 144h136l-161 -144h-94z" />
    <glyph glyph-name="Rcaron" unicode="&#x158;" horiz-adv-x="630" 
d="M79 0l100 708h246c136 0 257 -44 235 -203c-14 -102 -84 -177 -191 -192l144 -313h-152l-122 300h-92l-42 -300h-126zM262 408h98c71 0 155 6 168 98c12 84 -65 94 -130 94h-109zM261 900h114l56 -90l82 90h110l-135 -144h-133z" />
    <glyph glyph-name="Rcommaaccent" unicode="&#x156;" horiz-adv-x="630" 
d="M79 0l100 708h246c136 0 257 -44 235 -203c-14 -102 -84 -177 -191 -192l144 -313h-152l-122 300h-92l-42 -300h-126zM262 408h98c71 0 155 6 168 98c12 84 -65 94 -130 94h-109zM134 -258l101 198h122l-116 -198h-107z" />
    <glyph glyph-name="Sacute" unicode="&#x15a;" horiz-adv-x="574" 
d="M610 653l-106 -97c-22 38 -67 56 -116 56c-58 0 -120 -26 -129 -91c-20 -142 328 -61 292 -313c-21 -152 -152 -226 -291 -226c-88 0 -170 27 -218 96l108 92c24 -47 73 -74 129 -74c58 0 129 32 138 97c22 155 -327 66 -291 319c20 146 160 214 291 214
c74 0 145 -21 193 -73zM339 756l119 144h136l-161 -144h-94z" />
    <glyph glyph-name="Scircumflex" unicode="&#x15c;" horiz-adv-x="574" 
d="M610 653l-106 -97c-22 38 -67 56 -116 56c-58 0 -120 -26 -129 -91c-20 -142 328 -61 292 -313c-21 -152 -152 -226 -291 -226c-88 0 -170 27 -218 96l108 92c24 -47 73 -74 129 -74c58 0 129 32 138 97c22 155 -327 66 -291 319c20 146 160 214 291 214
c74 0 145 -21 193 -73zM590 756h-114l-57 90l-81 -90h-112l135 144h135z" />
    <glyph glyph-name="Scaron" unicode="&#x160;" horiz-adv-x="574" 
d="M610 653l-106 -97c-22 38 -67 56 -116 56c-58 0 -120 -26 -129 -91c-20 -142 328 -61 292 -313c-21 -152 -152 -226 -291 -226c-88 0 -170 27 -218 96l108 92c24 -47 73 -74 129 -74c58 0 129 32 138 97c22 155 -327 66 -291 319c20 146 160 214 291 214
c74 0 145 -21 193 -73zM232 900h114l57 -90l81 90h110l-135 -144h-133z" />
    <glyph glyph-name="Scedilla" unicode="&#x15e;" horiz-adv-x="574" 
d="M609 653l-105 -97c-23 39 -67 56 -116 56c-58 0 -121 -26 -129 -91c-20 -142 328 -60 292 -313c-19 -136 -126 -210 -248 -223l-37 -45c60 0 120 -6 109 -83c-11 -73 -91 -97 -152 -97c-39 0 -73 9 -102 28l28 46c23 -13 50 -20 79 -20c21 0 57 9 63 42
c4 27 -25 36 -46 36c-13 0 -25 -3 -38 -7l-23 25l60 72c-84 3 -156 31 -203 96l108 92c25 -47 74 -74 130 -74c60 0 127 32 138 97c20 155 -328 67 -292 319c21 146 160 214 292 214c76 0 144 -21 192 -73z" />
    <glyph glyph-name="Scommaaccent" unicode="&#x218;" horiz-adv-x="574" 
d="M610 653l-106 -97c-22 38 -67 56 -116 56c-58 0 -120 -26 -129 -91c-20 -142 328 -61 292 -313c-21 -152 -152 -226 -291 -226c-88 0 -170 27 -218 96l108 92c24 -47 73 -74 129 -74c58 0 129 32 138 97c22 155 -327 66 -291 319c20 146 160 214 291 214
c74 0 145 -21 193 -73zM113 -258l101 198h122l-116 -198h-107z" />
    <glyph glyph-name="Tcaron" unicode="&#x164;" horiz-adv-x="574" 
d="M224 0l83 594h-217l17 114h560l-17 -114h-217l-83 -594h-126zM232 900h114l56 -90l82 90h110l-135 -144h-133z" />
    <glyph glyph-name="Tcommaaccent" unicode="&#x162;" horiz-adv-x="574" 
d="M224 0l83 594h-217l17 114h560l-17 -114h-217l-83 -594h-126zM142 -258l101 198h122l-116 -198h-107z" />
    <glyph glyph-name="uni021A" unicode="&#x21a;" horiz-adv-x="574" 
d="M224 0l83 594h-217l17 114h560l-17 -114h-217l-83 -594h-126zM142 -258l101 198h122l-116 -198h-107z" />
    <glyph glyph-name="Tbar" unicode="&#x166;" horiz-adv-x="574" 
d="M567 482l-11 -78h-150l-56 -404h-126l56 404h-144l11 78h144l16 112h-217l16 114h560l-16 -114h-217l-16 -112h150z" />
    <glyph glyph-name="Thorn" unicode="&#xde;" horiz-adv-x="611" 
d="M79 0l100 708h126l-20 -137h112c137 0 255 -48 232 -205c-25 -178 -162 -210 -312 -210h-90l-22 -156h-126zM242 264h76c72 0 166 4 179 100c12 87 -69 99 -137 99h-90z" />
    <glyph glyph-name="Ugrave" unicode="&#xd9;" horiz-adv-x="722" 
d="M746 708l-63 -448c-24 -171 -163 -278 -325 -278s-269 107 -245 278l63 448h126l-63 -444c-10 -70 15 -162 136 -162s172 92 182 162l63 444h126zM435 900l79 -144h-94l-121 144h136z" />
    <glyph glyph-name="Uacute" unicode="&#xda;" horiz-adv-x="722" 
d="M746 708l-63 -448c-24 -171 -163 -278 -325 -278s-269 107 -245 278l63 448h126l-63 -444c-10 -70 15 -162 136 -162s172 92 182 162l63 444h126zM420 756l119 144h136l-161 -144h-94z" />
    <glyph glyph-name="Ucircumflex" unicode="&#xdb;" horiz-adv-x="722" 
d="M746 708l-63 -448c-24 -171 -163 -278 -325 -278s-269 107 -245 278l63 448h126l-63 -444c-10 -70 15 -162 136 -162s172 92 182 162l63 444h126zM649 756h-114l-57 90l-81 -90h-112l135 144h135z" />
    <glyph glyph-name="Utilde" unicode="&#x168;" horiz-adv-x="722" 
d="M746 708l-63 -448c-24 -171 -163 -278 -325 -278s-269 107 -245 278l63 448h126l-63 -444c-10 -70 15 -162 136 -162s172 92 182 162l63 444h126zM354 760h-66c19 64 56 127 130 127c53 0 106 -37 139 -37c27 0 41 19 52 42h66c-21 -64 -54 -127 -130 -127
c-53 0 -106 38 -139 38c-27 0 -41 -20 -52 -43z" />
    <glyph glyph-name="Udieresis" unicode="&#xdc;" horiz-adv-x="722" 
d="M746 708l-63 -448c-24 -171 -163 -278 -325 -278s-269 107 -245 278l63 448h126l-63 -444c-10 -70 15 -162 136 -162s172 92 182 162l63 444h126zM297 828c5 39 42 72 86 72s75 -31 68 -72s-44 -72 -88 -72s-73 33 -66 72zM503 828c5 39 42 72 86 72s75 -31 68 -72
s-44 -72 -88 -72s-73 33 -66 72z" />
    <glyph glyph-name="Umacron" unicode="&#x16a;" horiz-adv-x="722" 
d="M746 708l-63 -448c-24 -171 -163 -278 -325 -278s-269 107 -245 278l63 448h126l-63 -444c-10 -70 15 -162 136 -162s172 92 182 162l63 444h126zM638 865l-11 -78h-320l11 78h320z" />
    <glyph glyph-name="Ubreve" unicode="&#x16c;" horiz-adv-x="722" 
d="M746 708l-63 -448c-24 -171 -163 -278 -325 -278s-269 107 -245 278l63 448h126l-63 -444c-10 -70 15 -162 136 -162s172 92 182 162l63 444h126zM313 900h67c1 -51 43 -66 94 -66c57 0 90 10 113 66h66c-25 -100 -95 -144 -191 -144s-156 44 -149 144z" />
    <glyph glyph-name="Uring" unicode="&#x16e;" horiz-adv-x="722" 
d="M746 708l-63 -448c-24 -171 -163 -278 -325 -278s-269 107 -245 278l63 448h126l-63 -444c-10 -70 15 -162 136 -162s172 92 182 162l63 444h126zM584 837c-8 -60 -59 -102 -119 -102s-99 41 -91 101c8 59 59 103 119 103s100 -42 91 -102zM536 837c4 31 -18 54 -49 54
s-61 -23 -65 -54s19 -54 50 -54s60 22 64 54z" />
    <glyph glyph-name="Uhungarumlaut" unicode="&#x170;" horiz-adv-x="722" 
d="M746 708l-63 -448c-24 -171 -163 -278 -325 -278s-269 107 -245 278l63 448h126l-63 -444c-10 -70 15 -162 136 -162s172 92 182 162l63 444h126zM311 756l119 144h136l-161 -144h-94zM516 756l119 144h136l-161 -144h-94z" />
    <glyph glyph-name="Uogonek" unicode="&#x172;" horiz-adv-x="722" 
d="M430 -147l18 -49c-31 -23 -68 -38 -105 -38c-53 0 -99 30 -91 89c7 45 47 93 90 128c-152 8 -254 112 -230 277l63 448h126l-62 -444c-11 -69 16 -162 136 -162s171 93 182 162l62 444h126l-63 -448c-21 -152 -133 -255 -272 -274c-35 -31 -72 -73 -77 -108
c-3 -25 15 -46 40 -46c19 0 40 9 57 21z" />
    <glyph glyph-name="Wcircumflex" unicode="&#x174;" horiz-adv-x="981" 
d="M209 0l-109 708h138l61 -510h2l231 510h124l84 -510h2l211 510h128l-306 -708h-120l-88 539h-2l-240 -539h-116zM779 756h-114l-57 90l-81 -90h-112l135 144h135z" />
    <glyph glyph-name="Yacute" unicode="&#xdd;" horiz-adv-x="630" 
d="M252 0l43 303l-209 405h158l134 -282l216 282h150l-323 -405l-43 -303h-126zM374 756l119 144h136l-161 -144h-94z" />
    <glyph glyph-name="Ycircumflex" unicode="&#x176;" horiz-adv-x="630" 
d="M252 0l43 303l-209 405h158l134 -282l216 282h150l-323 -405l-43 -303h-126zM606 756h-114l-57 90l-81 -90h-112l135 144h135z" />
    <glyph glyph-name="Ydieresis" unicode="&#x178;" horiz-adv-x="630" 
d="M252 0l43 303l-209 405h158l134 -282l216 282h150l-323 -405l-43 -303h-126zM251 828c5 39 42 72 86 72s75 -31 68 -72s-44 -72 -88 -72s-73 33 -66 72zM457 828c5 39 42 72 86 72s75 -31 68 -72s-44 -72 -88 -72s-73 33 -66 72z" />
    <glyph glyph-name="Zacute" unicode="&#x179;" horiz-adv-x="611" 
d="M35 0l16 114l445 480h-372l17 114h529l-17 -114l-448 -480h387l-16 -114h-541zM347 756l119 144h136l-161 -144h-94z" />
    <glyph glyph-name="Zcaron" unicode="&#x17d;" horiz-adv-x="611" 
d="M35 0l16 114l445 480h-372l17 114h529l-17 -114l-448 -480h387l-16 -114h-541zM251 900h114l56 -90l82 90h110l-135 -144h-133z" />
    <glyph glyph-name="Zdotaccent" unicode="&#x17b;" horiz-adv-x="611" 
d="M35 0l16 114l445 480h-372l17 114h529l-17 -114l-448 -480h387l-16 -114h-541zM368 828c5 39 42 72 86 72s75 -31 68 -72s-44 -72 -88 -72s-73 33 -66 72z" />
    <glyph glyph-name="agrave" unicode="&#xe0;" horiz-adv-x="537" 
d="M368 0l9 66h-3c-41 -54 -101 -78 -165 -78c-89 0 -168 49 -154 144c21 156 205 167 325 167h30l2 13c8 59 -33 90 -97 90c-50 0 -99 -20 -136 -50l-54 63c61 54 139 77 215 77c205 0 184 -148 175 -216l-39 -276h-108zM387 188l4 27h-25c-66 0 -180 -5 -190 -74
c-6 -44 36 -63 75 -63c82 0 127 43 136 110zM347 708l78 -144h-94l-120 144h136z" />
    <glyph glyph-name="aacute" unicode="&#xe1;" horiz-adv-x="537" 
d="M368 0l9 66h-3c-41 -54 -101 -78 -165 -78c-89 0 -168 49 -154 144c21 156 205 167 325 167h30l2 13c8 59 -33 90 -97 90c-50 0 -99 -20 -136 -50l-54 63c61 54 139 77 215 77c205 0 184 -148 175 -216l-39 -276h-108zM387 188l4 27h-25c-66 0 -180 -5 -190 -74
c-6 -44 36 -63 75 -63c82 0 127 43 136 110zM301 564l120 144h136l-162 -144h-94z" />
    <glyph glyph-name="acircumflex" unicode="&#xe2;" horiz-adv-x="537" 
d="M368 0l9 66h-3c-41 -54 -101 -78 -165 -78c-89 0 -168 49 -154 144c21 156 205 167 325 167h30l2 13c8 59 -33 90 -97 90c-50 0 -99 -20 -136 -50l-54 63c61 54 139 77 215 77c205 0 184 -148 175 -216l-39 -276h-108zM387 188l4 27h-25c-66 0 -180 -5 -190 -74
c-6 -44 36 -63 75 -63c82 0 127 43 136 110zM530 564h-114l-56 90l-82 -90h-112l136 144h135z" />
    <glyph glyph-name="atilde" unicode="&#xe3;" horiz-adv-x="537" 
d="M368 0l9 66h-3c-41 -54 -101 -78 -165 -78c-89 0 -168 49 -154 144c21 156 205 167 325 167h30l2 13c8 59 -33 90 -97 90c-50 0 -99 -20 -136 -50l-54 63c61 54 139 77 215 77c205 0 184 -148 175 -216l-39 -276h-108zM387 188l4 27h-25c-66 0 -180 -5 -190 -74
c-6 -44 36 -63 75 -63c82 0 127 43 136 110zM231 568h-66c20 64 55 127 130 127c54 0 106 -37 138 -37c27 0 42 20 52 42h66c-20 -64 -54 -127 -129 -127c-54 0 -107 38 -139 38c-27 0 -42 -21 -52 -43z" />
    <glyph glyph-name="adieresis" unicode="&#xe4;" horiz-adv-x="537" 
d="M368 0l9 66h-3c-41 -54 -101 -78 -165 -78c-89 0 -168 49 -154 144c21 156 205 167 325 167h30l2 13c8 59 -33 90 -97 90c-50 0 -99 -20 -136 -50l-54 63c61 54 139 77 215 77c205 0 184 -148 175 -216l-39 -276h-108zM387 188l4 27h-25c-66 0 -180 -5 -190 -74
c-6 -44 36 -63 75 -63c82 0 127 43 136 110zM198 636c6 38 43 72 87 72s73 -31 67 -72c-5 -41 -44 -72 -88 -72s-71 34 -66 72zM404 636c6 38 43 72 87 72s73 -31 67 -72c-5 -41 -44 -72 -88 -72s-71 34 -66 72z" />
    <glyph glyph-name="amacron" unicode="&#x101;" horiz-adv-x="537" 
d="M368 0l9 66h-3c-41 -54 -101 -78 -165 -78c-89 0 -168 49 -154 144c21 156 205 167 325 167h30l2 13c8 59 -33 90 -97 90c-50 0 -99 -20 -136 -50l-54 63c61 54 139 77 215 77c205 0 184 -148 175 -216l-39 -276h-108zM387 188l4 27h-25c-66 0 -180 -5 -190 -74
c-6 -44 36 -63 75 -63c82 0 127 43 136 110zM539 673l-11 -78h-320l11 78h320z" />
    <glyph glyph-name="abreve" unicode="&#x103;" horiz-adv-x="537" 
d="M368 0l9 66h-3c-41 -54 -101 -78 -165 -78c-89 0 -168 49 -154 144c21 156 205 167 325 167h30l2 13c8 59 -33 90 -97 90c-50 0 -99 -20 -136 -50l-54 63c61 54 139 77 215 77c205 0 184 -148 175 -216l-39 -276h-108zM387 188l4 27h-25c-66 0 -180 -5 -190 -74
c-6 -44 36 -63 75 -63c82 0 127 43 136 110zM213 708h67c3 -51 43 -66 94 -66c57 0 90 10 113 66h66c-24 -99 -95 -144 -191 -144s-157 44 -149 144z" />
    <glyph glyph-name="aring" unicode="&#xe5;" horiz-adv-x="537" 
d="M368 0l9 66h-3c-41 -54 -101 -78 -165 -78c-89 0 -168 49 -154 144c21 156 205 167 325 167h30l2 13c8 59 -33 90 -97 90c-50 0 -99 -20 -136 -50l-54 63c61 54 139 77 215 77c205 0 184 -148 175 -216l-39 -276h-108zM387 188l4 27h-25c-66 0 -180 -5 -190 -74
c-6 -44 36 -63 75 -63c82 0 127 43 136 110zM466 655c-9 -60 -60 -102 -120 -102s-99 42 -91 101c9 59 60 103 120 103s99 -42 91 -102zM418 655c4 31 -19 54 -50 54s-60 -23 -64 -54c-5 -31 18 -54 49 -54s60 22 65 54z" />
    <glyph glyph-name="aogonek" unicode="&#x105;" horiz-adv-x="537" 
d="M368 0l9 66h-3c-43 -56 -101 -78 -165 -78c-87 0 -168 48 -155 144c21 156 206 167 326 167h30l1 13c9 60 -33 90 -97 90c-51 0 -99 -19 -135 -50l-54 63c61 56 139 77 215 77c207 0 182 -148 174 -216l-38 -276h-46c-34 -29 -89 -81 -94 -122c-3 -25 15 -46 40 -46
c19 0 40 9 57 21l18 -49c-31 -23 -68 -38 -105 -38c-53 0 -99 30 -91 89c8 54 66 111 113 145zM387 188l4 27h-25c-67 0 -180 -6 -191 -74c-5 -44 34 -63 75 -63c84 0 126 42 137 110z" />
    <glyph glyph-name="ae" unicode="&#xe6;" horiz-adv-x="852" 
d="M849 237l-4 -33h-350c-14 -78 48 -126 99 -126c59 0 102 28 137 65l75 -59c-63 -68 -138 -96 -225 -96c-81 0 -139 38 -167 86c-51 -65 -125 -85 -205 -85c-85 0 -168 44 -154 144c16 114 105 155 253 155h98c10 70 -20 115 -91 115c-50 0 -99 -20 -135 -50l-55 63
c61 54 139 77 215 77c57 2 117 -21 149 -71c44 42 96 71 165 70c156 0 215 -114 195 -255zM250 79c81 0 135 57 143 113l2 12h-60c-66 0 -152 -10 -159 -63c-7 -46 42 -62 74 -62zM508 288h232c6 68 -29 114 -99 114c-66 0 -119 -48 -133 -114z" />
    <glyph glyph-name="cacute" unicode="&#x107;" horiz-adv-x="482" 
d="M538 419l-95 -83c-24 29 -52 48 -84 48c-88 0 -151 -69 -161 -144c-11 -75 32 -144 120 -144c37 0 74 16 100 45l68 -86c-56 -49 -141 -67 -183 -67c-145 0 -246 101 -225 252s151 252 296 252c61 0 125 -22 164 -73zM321 564l120 144h136l-162 -144h-94z" />
    <glyph glyph-name="ccircumflex" unicode="&#x109;" horiz-adv-x="482" 
d="M538 419l-95 -83c-24 29 -52 48 -84 48c-88 0 -151 -69 -161 -144c-11 -75 32 -144 120 -144c37 0 74 16 100 45l68 -86c-56 -49 -141 -67 -183 -67c-145 0 -246 101 -225 252s151 252 296 252c61 0 125 -22 164 -73zM555 564h-114l-56 90l-82 -90h-112l136 144h135z" />
    <glyph glyph-name="ccaron" unicode="&#x10d;" horiz-adv-x="482" 
d="M538 419l-95 -83c-24 29 -52 48 -84 48c-88 0 -151 -69 -161 -144c-11 -75 32 -144 120 -144c37 0 74 16 100 45l68 -86c-56 -49 -141 -67 -183 -67c-145 0 -246 101 -225 252s151 252 296 252c61 0 125 -22 164 -73zM211 708h114l56 -90l82 90h110l-135 -144h-133z" />
    <glyph glyph-name="cdotaccent" unicode="&#x10b;" horiz-adv-x="482" 
d="M538 419l-95 -83c-24 29 -52 48 -84 48c-88 0 -151 -69 -161 -144c-11 -75 32 -144 120 -144c37 0 74 16 100 45l68 -86c-56 -49 -141 -67 -183 -67c-145 0 -246 101 -225 252s151 252 296 252c61 0 125 -22 164 -73zM306 636c5 39 42 72 86 72s75 -31 68 -72
s-44 -72 -88 -72s-71 33 -66 72z" />
    <glyph glyph-name="ccedilla" unicode="&#xe7;" horiz-adv-x="482" 
d="M538 419l-95 -83c-24 29 -52 48 -84 48c-88 0 -151 -69 -161 -144c-11 -75 32 -144 120 -144c37 0 74 16 100 45l68 -86c-55 -48 -139 -67 -181 -67l-40 -48c59 0 120 -6 109 -83c-10 -73 -93 -97 -153 -97c-37 0 -72 10 -102 28l29 46c23 -13 50 -20 79 -20
c22 0 58 9 63 42c3 26 -25 36 -46 36c-13 0 -26 -3 -38 -7l-24 25l69 83c-116 21 -192 115 -173 247c21 151 151 252 296 252c61 0 125 -22 164 -73z" />
    <glyph glyph-name="dcaron" unicode="&#x10f;" horiz-adv-x="630" 
d="M448 0l10 72h-2c-43 -58 -110 -84 -177 -84c-148 0 -221 110 -201 252s130 252 267 252c90 0 132 -42 153 -73h3l47 337h120l-106 -756h-114zM198 240c-11 -75 32 -144 120 -144s151 69 162 144c10 75 -33 144 -121 144s-151 -69 -161 -144zM681 510l88 198h122
l-113 -198h-97z" />
    <glyph glyph-name="dcroat" unicode="&#x111;" horiz-adv-x="630" 
d="M723 643l-11 -78h-71l-79 -565h-114l10 72h-2c-44 -60 -109 -84 -177 -84c-147 0 -223 111 -202 252c19 141 133 252 268 252c88 0 134 -42 152 -73h3l21 146h-129l11 78h129l16 113h120l-16 -113h71zM197 240c-11 -75 33 -144 121 -144c89 0 150 69 161 144
s-33 144 -121 144c-87 0 -150 -69 -161 -144z" />
    <glyph glyph-name="eth" unicode="&#xf0;" horiz-adv-x="610" 
d="M550 768l56 -56l-125 -54c82 -105 145 -231 124 -381c-24 -167 -130 -289 -302 -289c-145 0 -246 101 -225 252s151 252 286 252c44 0 84 -10 109 -38l2 2c-26 55 -64 104 -105 152l-2 3l-113 -49l-52 57l114 50c-15 19 -50 48 -68 65l108 58c32 -28 62 -61 75 -75z
M318 96c88 0 151 69 162 144c10 75 -33 144 -121 144s-151 -69 -161 -144c-11 -75 32 -144 120 -144z" />
    <glyph glyph-name="egrave" unicode="&#xe8;" horiz-adv-x="574" 
d="M558 198h-366c-2 -71 46 -114 113 -114c60 0 103 28 138 65l77 -65c-66 -69 -141 -96 -217 -96c-145 0 -246 101 -225 252s151 252 296 252c134 0 212 -94 188 -261zM204 288h246c9 70 -30 114 -105 114c-71 0 -122 -45 -141 -114zM335 708l78 -144h-94l-120 144h136z
" />
    <glyph glyph-name="eacute" unicode="&#xe9;" horiz-adv-x="574" 
d="M558 198h-366c-2 -71 46 -114 113 -114c60 0 103 28 138 65l77 -65c-66 -69 -141 -96 -217 -96c-145 0 -246 101 -225 252s151 252 296 252c134 0 212 -94 188 -261zM204 288h246c9 70 -30 114 -105 114c-71 0 -122 -45 -141 -114zM319 564l120 144h136l-162 -144h-94z
" />
    <glyph glyph-name="ecircumflex" unicode="&#xea;" horiz-adv-x="574" 
d="M558 198h-366c-2 -71 46 -114 113 -114c60 0 103 28 138 65l77 -65c-66 -69 -141 -96 -217 -96c-145 0 -246 101 -225 252s151 252 296 252c134 0 212 -94 188 -261zM204 288h246c9 70 -30 114 -105 114c-71 0 -122 -45 -141 -114zM548 564h-114l-56 90l-82 -90h-112
l136 144h135z" />
    <glyph glyph-name="ecaron" unicode="&#x11b;" horiz-adv-x="574" 
d="M558 198h-366c-2 -71 46 -114 113 -114c60 0 103 28 138 65l77 -65c-66 -69 -141 -96 -217 -96c-145 0 -246 101 -225 252s151 252 296 252c134 0 212 -94 188 -261zM204 288h246c9 70 -30 114 -105 114c-71 0 -122 -45 -141 -114zM218 708h114l56 -90l82 90h110
l-135 -144h-133z" />
    <glyph glyph-name="edieresis" unicode="&#xeb;" horiz-adv-x="574" 
d="M558 198h-366c-2 -71 46 -114 113 -114c60 0 103 28 138 65l77 -65c-66 -69 -141 -96 -217 -96c-145 0 -246 101 -225 252s151 252 296 252c134 0 212 -94 188 -261zM204 288h246c9 70 -30 114 -105 114c-71 0 -122 -45 -141 -114zM196 636c6 38 43 72 87 72
s73 -31 67 -72c-5 -41 -44 -72 -88 -72s-71 34 -66 72zM402 636c6 38 43 72 87 72s73 -31 67 -72c-5 -41 -44 -72 -88 -72s-71 34 -66 72z" />
    <glyph glyph-name="emacron" unicode="&#x113;" horiz-adv-x="574" 
d="M558 198h-366c-2 -71 46 -114 113 -114c60 0 103 28 138 65l77 -65c-66 -69 -141 -96 -217 -96c-145 0 -246 101 -225 252s151 252 296 252c134 0 212 -94 188 -261zM204 288h246c9 70 -30 114 -105 114c-71 0 -122 -45 -141 -114zM555 673l-11 -78h-320l11 78h320z" />
    <glyph glyph-name="ebreve" unicode="&#x115;" horiz-adv-x="574" 
d="M558 198h-366c-2 -71 46 -114 113 -114c60 0 103 28 138 65l77 -65c-66 -69 -141 -96 -217 -96c-145 0 -246 101 -225 252s151 252 296 252c134 0 212 -94 188 -261zM204 288h246c9 70 -30 114 -105 114c-71 0 -122 -45 -141 -114zM229 708h67c3 -51 43 -66 94 -66
c57 0 90 10 113 66h66c-24 -99 -95 -144 -191 -144s-157 44 -149 144z" />
    <glyph glyph-name="edotaccent" unicode="&#x117;" horiz-adv-x="574" 
d="M558 198h-366c-2 -71 46 -114 113 -114c60 0 103 28 138 65l77 -65c-66 -69 -141 -96 -217 -96c-145 0 -246 101 -225 252s151 252 296 252c134 0 212 -94 188 -261zM204 288h246c9 70 -30 114 -105 114c-71 0 -122 -45 -141 -114zM312 636c5 39 42 72 86 72
s75 -31 68 -72s-44 -72 -88 -72s-71 33 -66 72z" />
    <glyph glyph-name="eogonek" unicode="&#x119;" horiz-adv-x="574" 
d="M368 -147l18 -49c-31 -23 -68 -38 -105 -38c-53 0 -99 30 -91 89c8 49 53 98 97 134c-135 8 -231 104 -210 251c21 152 152 252 297 252c133 0 212 -94 188 -261l-5 -33h-366c-3 -72 45 -114 113 -114c60 0 102 28 138 65l77 -65c-51 -53 -106 -80 -163 -91
c-34 -29 -80 -77 -85 -115c-3 -25 15 -46 40 -46c19 0 40 9 57 21zM204 288h246c9 72 -30 114 -106 114c-72 0 -121 -45 -140 -114z" />
    <glyph glyph-name="gcircumflex" unicode="&#x11d;" horiz-adv-x="630" 
d="M515 480h114l-61 -437c-24 -173 -124 -283 -311 -283c-89 0 -167 19 -227 79l86 98c42 -44 88 -69 155 -69c116 0 162 66 175 161l5 35h-2c-42 -47 -107 -70 -167 -70c-144 0 -223 110 -204 246c20 142 124 252 272 252c67 0 126 -26 153 -84h2zM360 384
c-84 0 -150 -58 -162 -143c-11 -76 40 -139 121 -139c89 0 152 61 163 141c12 83 -35 141 -122 141zM588 564h-114l-56 90l-82 -90h-112l136 144h135z" />
    <glyph glyph-name="gbreve" unicode="&#x11f;" horiz-adv-x="630" 
d="M515 480h114l-61 -437c-24 -173 -124 -283 -311 -283c-89 0 -167 19 -227 79l86 98c42 -44 88 -69 155 -69c116 0 162 66 175 161l5 35h-2c-42 -47 -107 -70 -167 -70c-144 0 -223 110 -204 246c20 142 124 252 272 252c67 0 126 -26 153 -84h2zM360 384
c-84 0 -150 -58 -162 -143c-11 -76 40 -139 121 -139c89 0 152 61 163 141c12 83 -35 141 -122 141zM256 708h67c3 -51 43 -66 94 -66c57 0 90 10 113 66h66c-24 -99 -95 -144 -191 -144s-157 44 -149 144z" />
    <glyph glyph-name="gdotaccent" unicode="&#x121;" horiz-adv-x="630" 
d="M515 480h114l-61 -437c-24 -173 -124 -283 -311 -283c-89 0 -167 19 -227 79l86 98c42 -44 88 -69 155 -69c116 0 162 66 175 161l5 35h-2c-42 -47 -107 -70 -167 -70c-144 0 -223 110 -204 246c20 142 124 252 272 252c67 0 126 -26 153 -84h2zM360 384
c-84 0 -150 -58 -162 -143c-11 -76 40 -139 121 -139c89 0 152 61 163 141c12 83 -35 141 -122 141zM329 636c5 39 42 72 86 72s75 -31 68 -72s-44 -72 -88 -72s-71 33 -66 72z" />
    <glyph glyph-name="gcommaaccent" unicode="&#x123;" horiz-adv-x="630" 
d="M515 480h114l-61 -437c-24 -173 -124 -283 -311 -283c-89 0 -167 19 -227 79l86 98c42 -44 88 -69 155 -69c116 0 162 66 175 161l5 35h-2c-42 -47 -107 -70 -167 -70c-144 0 -223 110 -204 246c20 142 124 252 272 252c67 0 126 -26 153 -84h2zM360 384
c-84 0 -150 -58 -162 -143c-11 -76 40 -139 121 -139c89 0 152 61 163 141c12 83 -35 141 -122 141zM536 782l-100 -198h-122l115 198h107z" />
    <glyph glyph-name="hcircumflex" unicode="&#x125;" horiz-adv-x="574" 
d="M294 756l-48 -343h2c25 40 78 79 152 79c129 0 162 -91 149 -189l-43 -303h-120l34 243c8 53 16 141 -68 141c-79 0 -118 -58 -127 -122l-37 -262h-120l106 756h120zM578 796h-114l-57 90l-81 -90h-112l135 144h135z" />
    <glyph glyph-name="hbar" unicode="&#x127;" horiz-adv-x="574" 
d="M407 643l-11 -78h-129l-21 -152h2c24 40 76 79 152 79c130 0 161 -91 148 -189l-42 -303h-120l34 243c8 53 14 141 -69 141c-78 0 -119 -58 -127 -122l-36 -262h-120l79 565h-71l11 78h71l16 113h120l-16 -113h129z" />
    <glyph glyph-name="dotlessi" unicode="&#x131;" 
d="M70 0l67 480h120l-67 -480h-120z" />
    <glyph glyph-name="igrave" unicode="&#xec;" 
d="M70 0l67 480h120l-67 -480h-120zM190 708l78 -144h-94l-120 144h136z" />
    <glyph glyph-name="iacute" unicode="&#xed;" 
d="M70 0l67 480h120l-67 -480h-120zM151 564l120 144h136l-162 -144h-94z" />
    <glyph glyph-name="icircumflex" unicode="&#xee;" 
d="M70 0l67 480h120l-67 -480h-120zM391 564h-114l-56 90l-82 -90h-112l136 144h135z" />
    <glyph glyph-name="itilde" unicode="&#x129;" 
d="M70 0l67 480h120l-67 -480h-120zM94 568h-66c20 64 55 127 130 127c54 0 106 -37 138 -37c27 0 42 20 52 42h66c-20 -64 -54 -127 -129 -127c-54 0 -107 38 -139 38c-27 0 -42 -21 -52 -43z" />
    <glyph glyph-name="idieresis" unicode="&#xef;" 
d="M70 0l67 480h120l-67 -480h-120zM39 636c6 38 43 72 87 72s73 -31 67 -72c-5 -41 -44 -72 -88 -72s-71 34 -66 72zM245 636c6 38 43 72 87 72s73 -31 67 -72c-5 -41 -44 -72 -88 -72s-71 34 -66 72z" />
    <glyph glyph-name="imacron" unicode="&#x12b;" 
d="M70 0l67 480h120l-67 -480h-120zM387 673l-11 -78h-320l11 78h320z" />
    <glyph glyph-name="iogonek" unicode="&#x12f;" 
d="M70 0l67 480h120l-67 -480h-58c-34 -29 -89 -81 -94 -122c-3 -25 15 -46 40 -46c19 0 40 9 57 21l18 -49c-31 -23 -68 -38 -105 -38c-52 0 -98 31 -90 89c8 54 65 111 112 145zM143 643c5 39 42 72 86 72s75 -31 68 -72s-44 -72 -88 -72s-73 33 -66 72z" />
    <glyph glyph-name="dotlessj" unicode="&#x237;" 
d="M137 480h120l-72 -509c-16 -120 -54 -211 -190 -211c-23 0 -44 2 -64 9l24 104c13 -3 26 -5 37 -5c59 0 68 57 73 102z" />
    <glyph glyph-name="jcircumflex" unicode="&#x135;" 
d="M137 480h120l-72 -509c-16 -120 -54 -211 -190 -211c-23 0 -44 2 -64 9l24 104c13 -3 26 -5 37 -5c59 0 68 57 73 102zM391 564h-114l-56 90l-82 -90h-112l136 144h135z" />
    <glyph glyph-name="kcommaaccent" unicode="&#x137;" horiz-adv-x="537" 
d="M68 0l106 756h120l-67 -475l213 199h154l-236 -218l182 -262h-159l-157 245h-2l-34 -245h-120zM105 -258l101 198h122l-116 -198h-107z" />
    <glyph glyph-name="lacute" unicode="&#x13a;" 
d="M70 0l106 756h120l-106 -756h-120zM168 796l119 144h136l-161 -144h-94z" />
    <glyph glyph-name="lcaron" unicode="&#x13e;" 
d="M70 0l106 756h120l-106 -756h-120zM318 510l88 198h122l-113 -198h-97z" />
    <glyph glyph-name="lcommaaccent" unicode="&#x13c;" 
d="M70 0l106 756h120l-106 -756h-120zM-21 -258l101 198h122l-116 -198h-107z" />
    <glyph glyph-name="lslash" unicode="&#x142;" 
d="M70 0l38 273l-78 -69l15 109l79 69l52 374h120l-36 -255l79 69l-15 -107l-78 -68l-56 -395h-120z" />
    <glyph glyph-name="ldot" unicode="&#x140;" horiz-adv-x="384" 
d="M70 0l106 756h120l-106 -756h-120zM301 378c5 39 42 72 86 72s75 -31 68 -72s-44 -72 -88 -72s-71 33 -66 72z" />
    <glyph glyph-name="nacute" unicode="&#x144;" horiz-adv-x="574" 
d="M68 0l67 480h114l-10 -77h2c28 48 79 89 159 89c129 0 162 -91 149 -189l-43 -303h-120l34 243c8 53 16 141 -68 141c-79 0 -118 -58 -127 -122l-37 -262h-120zM289 564l120 144h136l-162 -144h-94z" />
    <glyph glyph-name="ncaron" unicode="&#x148;" horiz-adv-x="574" 
d="M68 0l67 480h114l-10 -77h2c28 48 79 89 159 89c129 0 162 -91 149 -189l-43 -303h-120l34 243c8 53 16 141 -68 141c-79 0 -118 -58 -127 -122l-37 -262h-120zM210 708h114l56 -90l82 90h110l-135 -144h-133z" />
    <glyph glyph-name="ntilde" unicode="&#xf1;" horiz-adv-x="574" 
d="M68 0l67 480h114l-10 -77h2c28 48 79 89 159 89c129 0 162 -91 149 -189l-43 -303h-120l34 243c8 53 16 141 -68 141c-79 0 -118 -58 -127 -122l-37 -262h-120zM249 568h-66c20 64 55 127 130 127c54 0 106 -37 138 -37c27 0 42 20 52 42h66c-20 -64 -54 -127 -129 -127
c-54 0 -107 38 -139 38c-27 0 -42 -21 -52 -43z" />
    <glyph glyph-name="ncommaaccent" unicode="&#x146;" horiz-adv-x="574" 
d="M68 0l67 480h114l-10 -77h2c28 48 79 89 159 89c129 0 162 -91 149 -189l-43 -303h-120l34 243c8 53 16 141 -68 141c-79 0 -118 -58 -127 -122l-37 -262h-120zM123 -258l101 198h122l-116 -198h-107z" />
    <glyph glyph-name="ograve" unicode="&#xf2;" horiz-adv-x="610" 
d="M78 240c21 151 151 252 296 252s247 -101 226 -252s-152 -252 -297 -252s-246 101 -225 252zM198 240c-11 -75 32 -144 120 -144s151 69 162 144c10 75 -33 144 -121 144s-151 -69 -161 -144zM353 708l78 -144h-94l-120 144h136z" />
    <glyph glyph-name="oacute" unicode="&#xf3;" horiz-adv-x="610" 
d="M78 240c21 151 151 252 296 252s247 -101 226 -252s-152 -252 -297 -252s-246 101 -225 252zM198 240c-11 -75 32 -144 120 -144s151 69 162 144c10 75 -33 144 -121 144s-151 -69 -161 -144zM337 564l120 144h136l-162 -144h-94z" />
    <glyph glyph-name="ocircumflex" unicode="&#xf4;" horiz-adv-x="610" 
d="M78 240c21 151 151 252 296 252s247 -101 226 -252s-152 -252 -297 -252s-246 101 -225 252zM198 240c-11 -75 32 -144 120 -144s151 69 162 144c10 75 -33 144 -121 144s-151 -69 -161 -144zM566 564h-114l-56 90l-82 -90h-112l136 144h135z" />
    <glyph glyph-name="otilde" unicode="&#xf5;" horiz-adv-x="610" 
d="M78 240c21 151 151 252 296 252s247 -101 226 -252s-152 -252 -297 -252s-246 101 -225 252zM198 240c-11 -75 32 -144 120 -144s151 69 162 144c10 75 -33 144 -121 144s-151 -69 -161 -144zM267 568h-66c20 64 55 127 130 127c54 0 106 -37 138 -37c27 0 42 20 52 42
h66c-20 -64 -54 -127 -129 -127c-54 0 -107 38 -139 38c-27 0 -42 -21 -52 -43z" />
    <glyph glyph-name="odieresis" unicode="&#xf6;" horiz-adv-x="610" 
d="M78 240c21 151 151 252 296 252s247 -101 226 -252s-152 -252 -297 -252s-246 101 -225 252zM198 240c-11 -75 32 -144 120 -144s151 69 162 144c10 75 -33 144 -121 144s-151 -69 -161 -144zM214 636c6 38 43 72 87 72s73 -31 67 -72c-5 -41 -44 -72 -88 -72
s-71 34 -66 72zM420 636c6 38 43 72 87 72s73 -31 67 -72c-5 -41 -44 -72 -88 -72s-71 34 -66 72z" />
    <glyph glyph-name="omacron" unicode="&#x14d;" horiz-adv-x="610" 
d="M78 240c21 151 151 252 296 252s247 -101 226 -252s-152 -252 -297 -252s-246 101 -225 252zM198 240c-11 -75 32 -144 120 -144s151 69 162 144c10 75 -33 144 -121 144s-151 -69 -161 -144zM560 673l-11 -78h-320l11 78h320z" />
    <glyph glyph-name="obreve" unicode="&#x14f;" horiz-adv-x="610" 
d="M78 240c21 151 151 252 296 252s247 -101 226 -252s-152 -252 -297 -252s-246 101 -225 252zM198 240c-11 -75 32 -144 120 -144s151 69 162 144c10 75 -33 144 -121 144s-151 -69 -161 -144zM236 708h67c3 -51 43 -66 94 -66c57 0 90 10 113 66h66
c-24 -99 -95 -144 -191 -144s-157 44 -149 144z" />
    <glyph glyph-name="ohungarumlaut" unicode="&#x151;" horiz-adv-x="610" 
d="M78 240c21 151 151 252 296 252s247 -101 226 -252s-152 -252 -297 -252s-246 101 -225 252zM198 240c-11 -75 32 -144 120 -144s151 69 162 144c10 75 -33 144 -121 144s-151 -69 -161 -144zM223 564l119 144h136l-161 -144h-94zM428 564l119 144h136l-161 -144h-94z
" />
    <glyph glyph-name="oslash" unicode="&#xf8;" horiz-adv-x="610" 
d="M209 160l226 200c-19 15 -45 24 -76 24c-88 0 -151 -69 -161 -144c-4 -29 0 -57 11 -80zM470 318l-226 -199c19 -15 43 -23 74 -23c88 0 151 69 162 144c4 28 0 55 -10 78zM609 514l37 -40l-80 -71c29 -42 43 -98 34 -163c-21 -151 -152 -252 -297 -252
c-61 0 -113 18 -152 49l-80 -71l-34 41l77 68c-32 42 -46 99 -36 165c21 151 151 252 296 252c61 0 115 -18 154 -50z" />
    <glyph glyph-name="oe" unicode="&#x153;" horiz-adv-x="926" 
d="M919 204h-350c-13 -72 49 -120 100 -120c59 0 102 28 137 65l75 -59c-64 -74 -139 -102 -226 -102c-79 0 -137 28 -167 77c-55 -53 -123 -77 -193 -77c-145 0 -246 101 -225 252s151 252 296 252c71 0 133 -25 173 -78c51 53 117 78 189 78c156 0 215 -114 195 -255z
M576 288h234c9 70 -30 114 -94 114c-57 0 -127 -39 -140 -114zM190 240c-12 -81 32 -150 120 -150c90 0 152 69 164 150c11 81 -32 150 -122 150c-88 0 -151 -69 -162 -150z" />
    <glyph glyph-name="racute" unicode="&#x155;" horiz-adv-x="389" 
d="M68 0l67 480h120l-10 -76h2c34 55 91 88 154 88c15 0 29 -3 42 -7l-16 -116c-19 5 -38 9 -57 9c-113 0 -142 -95 -146 -121l-36 -257h-120zM212 564l120 144h136l-162 -144h-94z" />
    <glyph glyph-name="rcaron" unicode="&#x159;" horiz-adv-x="389" 
d="M68 0l67 480h120l-10 -76h2c34 55 91 88 154 88c15 0 29 -3 42 -7l-16 -116c-19 5 -38 9 -57 9c-113 0 -142 -95 -146 -121l-36 -257h-120zM126 708h114l56 -90l82 90h110l-135 -144h-133z" />
    <glyph glyph-name="rcommaaccent" unicode="&#x157;" horiz-adv-x="389" 
d="M68 0l67 480h120l-10 -76h2c34 55 91 88 154 88c15 0 29 -3 42 -7l-16 -116c-19 5 -38 9 -57 9c-113 0 -142 -95 -146 -121l-36 -257h-120zM6 -258l101 198h122l-116 -198h-107z" />
    <glyph glyph-name="sacute" unicode="&#x15b;" horiz-adv-x="444" 
d="M463 419l-90 -72c-19 32 -46 49 -87 49c-32 0 -72 -15 -78 -51c-12 -86 257 -16 231 -203c-16 -114 -131 -154 -229 -154c-74 0 -135 19 -176 74l90 75c26 -34 55 -59 106 -59c35 0 82 17 88 55c14 99 -256 21 -231 204c15 107 118 155 215 155c64 0 129 -20 161 -73z
M236 564l120 144h136l-162 -144h-94z" />
    <glyph glyph-name="scircumflex" unicode="&#x15d;" horiz-adv-x="444" 
d="M463 419l-90 -72c-19 32 -46 49 -87 49c-32 0 -72 -15 -78 -51c-12 -86 257 -16 231 -203c-16 -114 -131 -154 -229 -154c-74 0 -135 19 -176 74l90 75c26 -34 55 -59 106 -59c35 0 82 17 88 55c14 99 -256 21 -231 204c15 107 118 155 215 155c64 0 129 -20 161 -73z
M497 564h-114l-56 90l-82 -90h-112l136 144h135z" />
    <glyph glyph-name="scaron" unicode="&#x161;" horiz-adv-x="444" 
d="M463 419l-90 -72c-19 32 -46 49 -87 49c-32 0 -72 -15 -78 -51c-12 -86 257 -16 231 -203c-16 -114 -131 -154 -229 -154c-74 0 -135 19 -176 74l90 75c26 -34 55 -59 106 -59c35 0 82 17 88 55c14 99 -256 21 -231 204c15 107 118 155 215 155c64 0 129 -20 161 -73z
M140 708h114l56 -90l82 90h110l-135 -144h-133z" />
    <glyph glyph-name="scedilla" unicode="&#x15f;" horiz-adv-x="444" 
d="M462 419l-90 -72c-18 33 -47 49 -87 49c-33 0 -72 -15 -77 -51c-12 -86 258 -16 230 -203c-13 -95 -94 -139 -179 -150l-43 -52c60 0 120 -6 109 -83c-11 -73 -91 -97 -152 -97c-39 0 -73 9 -102 28l28 46c23 -13 50 -20 79 -20c21 0 57 9 63 42c4 27 -25 36 -46 36
c-13 0 -25 -3 -38 -7l-23 25l64 78c-69 3 -125 22 -165 74l91 75c27 -35 54 -59 105 -59c35 0 83 17 88 55c16 100 -258 20 -230 204c16 108 118 155 215 155c64 0 129 -20 160 -73z" />
    <glyph glyph-name="scommaaccent" unicode="&#x219;" horiz-adv-x="444" 
d="M463 419l-90 -72c-19 32 -46 49 -87 49c-32 0 -72 -15 -78 -51c-12 -86 257 -16 231 -203c-16 -114 -131 -154 -229 -154c-74 0 -135 19 -176 74l90 75c26 -34 55 -59 106 -59c35 0 82 17 88 55c14 99 -256 21 -231 204c15 107 118 155 215 155c64 0 129 -20 161 -73z
M56 -258l101 198h122l-116 -198h-107z" />
    <glyph glyph-name="germandbls" unicode="&#xdf;" horiz-adv-x="611" 
d="M56 0l72 511c25 181 115 257 276 257c116 0 208 -62 191 -185c-10 -73 -56 -130 -128 -158l-1 -2c105 -14 146 -101 132 -205c-20 -137 -131 -230 -268 -230c-28 0 -55 3 -82 11l14 101c17 -8 34 -10 54 -10c84 0 151 53 163 138c13 94 -43 143 -132 143h-14l14 102h8
c59 0 109 35 118 94c7 55 -33 93 -88 93c-80 0 -124 -52 -133 -121l-76 -539h-120z" />
    <glyph glyph-name="tcaron" unicode="&#x165;" horiz-adv-x="389" 
d="M164 378h-99l14 102h99l20 139h120l-20 -139h132l-14 -102h-132l-29 -210c-7 -48 3 -78 56 -78c21 0 50 4 67 15l-14 -101c-27 -12 -70 -16 -98 -16c-127 0 -149 57 -133 170zM355 550l88 198h122l-113 -198h-97z" />
    <glyph glyph-name="tcommaaccent" unicode="&#x163;" horiz-adv-x="389" 
d="M164 378h-99l14 102h99l20 139h120l-20 -139h132l-14 -102h-132l-29 -210c-7 -48 3 -78 56 -78c21 0 50 4 67 15l-14 -101c-27 -12 -70 -16 -98 -16c-127 0 -149 57 -133 170zM50 -258l101 198h122l-116 -198h-107z" />
    <glyph glyph-name="uni021B" unicode="&#x21b;" horiz-adv-x="389" 
d="M164 378h-99l14 102h99l20 139h120l-20 -139h132l-14 -102h-132l-29 -210c-7 -48 3 -78 56 -78c21 0 50 4 67 15l-14 -101c-27 -12 -70 -16 -98 -16c-127 0 -149 57 -133 170zM50 -258l101 198h122l-116 -198h-107z" />
    <glyph glyph-name="tbar" unicode="&#x167;" horiz-adv-x="389" 
d="M380 317l-11 -78h-105l-10 -71c-7 -48 3 -78 56 -78c21 0 51 4 67 15l-14 -101c-27 -12 -69 -16 -97 -16c-128 0 -149 57 -133 170l11 81h-75l11 78h75l9 61h-99l14 102h99l19 139h120l-19 -139h132l-14 -102h-132l-9 -61h105z" />
    <glyph glyph-name="thorn" unicode="&#xfe;" horiz-adv-x="630" 
d="M36 -228l138 984h120l-47 -338h2c35 48 102 74 169 74c148 0 222 -110 202 -252s-131 -252 -268 -252c-90 0 -132 42 -152 73h-3l-41 -289h-120zM500 240c10 75 -33 144 -121 144s-151 -69 -161 -144c-11 -75 32 -144 120 -144s151 69 162 144z" />
    <glyph glyph-name="ugrave" unicode="&#xf9;" horiz-adv-x="574" 
d="M573 480l-67 -480h-114l11 77h-2c-29 -48 -80 -89 -160 -89c-129 0 -162 91 -148 189l42 303h120l-34 -243c-7 -53 -16 -141 68 -141c79 0 119 58 128 122l36 262h120zM335 708l78 -144h-94l-120 144h136z" />
    <glyph glyph-name="uacute" unicode="&#xfa;" horiz-adv-x="574" 
d="M573 480l-67 -480h-114l11 77h-2c-29 -48 -80 -89 -160 -89c-129 0 -162 91 -148 189l42 303h120l-34 -243c-7 -53 -16 -141 68 -141c79 0 119 58 128 122l36 262h120zM319 564l120 144h136l-162 -144h-94z" />
    <glyph glyph-name="ucircumflex" unicode="&#xfb;" horiz-adv-x="574" 
d="M573 480l-67 -480h-114l11 77h-2c-29 -48 -80 -89 -160 -89c-129 0 -162 91 -148 189l42 303h120l-34 -243c-7 -53 -16 -141 68 -141c79 0 119 58 128 122l36 262h120zM548 564h-114l-56 90l-82 -90h-112l136 144h135z" />
    <glyph glyph-name="utilde" unicode="&#x169;" horiz-adv-x="574" 
d="M573 480l-67 -480h-114l11 77h-2c-29 -48 -80 -89 -160 -89c-129 0 -162 91 -148 189l42 303h120l-34 -243c-7 -53 -16 -141 68 -141c79 0 119 58 128 122l36 262h120zM252 568h-66c20 64 55 127 130 127c54 0 106 -37 138 -37c27 0 42 20 52 42h66
c-20 -64 -54 -127 -129 -127c-54 0 -107 38 -139 38c-27 0 -42 -21 -52 -43z" />
    <glyph glyph-name="udieresis" unicode="&#xfc;" horiz-adv-x="574" 
d="M573 480l-67 -480h-114l11 77h-2c-29 -48 -80 -89 -160 -89c-129 0 -162 91 -148 189l42 303h120l-34 -243c-7 -53 -16 -141 68 -141c79 0 119 58 128 122l36 262h120zM196 636c6 38 43 72 87 72s73 -31 67 -72c-5 -41 -44 -72 -88 -72s-71 34 -66 72zM402 636
c6 38 43 72 87 72s73 -31 67 -72c-5 -41 -44 -72 -88 -72s-71 34 -66 72z" />
    <glyph glyph-name="umacron" unicode="&#x16b;" horiz-adv-x="574" 
d="M573 480l-67 -480h-114l11 77h-2c-29 -48 -80 -89 -160 -89c-129 0 -162 91 -148 189l42 303h120l-34 -243c-7 -53 -16 -141 68 -141c79 0 119 58 128 122l36 262h120zM541 673l-11 -78h-320l11 78h320z" />
    <glyph glyph-name="ubreve" unicode="&#x16d;" horiz-adv-x="574" 
d="M573 480l-67 -480h-114l11 77h-2c-29 -48 -80 -89 -160 -89c-129 0 -162 91 -148 189l42 303h120l-34 -243c-7 -53 -16 -141 68 -141c79 0 119 58 128 122l36 262h120zM218 708h67c3 -51 43 -66 94 -66c57 0 90 10 113 66h66c-24 -99 -95 -144 -191 -144
s-157 44 -149 144z" />
    <glyph glyph-name="uring" unicode="&#x16f;" horiz-adv-x="574" 
d="M573 480l-67 -480h-114l11 77h-2c-29 -48 -80 -89 -160 -89c-129 0 -162 91 -148 189l42 303h120l-34 -243c-7 -53 -16 -141 68 -141c79 0 119 58 128 122l36 262h120zM481 655c-9 -60 -60 -102 -120 -102s-99 42 -91 101c9 59 60 103 120 103s99 -42 91 -102zM433 655
c4 31 -19 54 -50 54s-60 -23 -64 -54c-5 -31 18 -54 49 -54s60 22 65 54z" />
    <glyph glyph-name="uhungarumlaut" unicode="&#x171;" horiz-adv-x="574" 
d="M573 480l-67 -480h-114l11 77h-2c-29 -48 -80 -89 -160 -89c-129 0 -162 91 -148 189l42 303h120l-34 -243c-7 -53 -16 -141 68 -141c79 0 119 58 128 122l36 262h120zM204 564l119 144h136l-161 -144h-94zM409 564l119 144h136l-161 -144h-94z" />
    <glyph glyph-name="uogonek" unicode="&#x173;" horiz-adv-x="574" 
d="M457 -147l18 -49c-31 -23 -68 -38 -105 -38c-53 0 -99 30 -91 89c8 54 66 111 113 145l10 77h-2c-29 -48 -79 -89 -159 -89c-129 0 -162 90 -149 189l43 303h120l-34 -243c-8 -53 -16 -141 68 -141c78 0 119 58 127 122l37 262h120l-67 -480h-52
c-34 -29 -89 -81 -94 -122c-3 -25 15 -46 40 -46c19 0 40 9 57 21z" />
    <glyph glyph-name="wcircumflex" unicode="&#x175;" horiz-adv-x="796" 
d="M170 0l-100 480h130l57 -336h2l144 336h130l57 -336h2l147 336h121l-230 -480h-119l-68 328h-2l-147 -328h-124zM657 564h-114l-56 90l-82 -90h-112l136 144h135z" />
    <glyph glyph-name="yacute" unicode="&#xfd;" horiz-adv-x="519" 
d="M207 -4l-137 484h132l88 -333h2l166 333h125l-308 -583c-48 -90 -97 -137 -203 -137c-31 0 -61 4 -90 12l30 108c18 -7 38 -12 59 -12c59 0 78 21 105 71zM292 564l120 144h136l-162 -144h-94z" />
    <glyph glyph-name="ycircumflex" unicode="&#x177;" horiz-adv-x="519" 
d="M207 -4l-137 484h132l88 -333h2l166 333h125l-308 -583c-48 -90 -97 -137 -203 -137c-31 0 -61 4 -90 12l30 108c18 -7 38 -12 59 -12c59 0 78 21 105 71zM530 564h-114l-56 90l-82 -90h-112l136 144h135z" />
    <glyph glyph-name="ydieresis" unicode="&#xff;" horiz-adv-x="519" 
d="M207 -4l-137 484h132l88 -333h2l166 333h125l-308 -583c-48 -90 -97 -137 -203 -137c-31 0 -61 4 -90 12l30 108c18 -7 38 -12 59 -12c59 0 78 21 105 71zM169 636c6 38 43 72 87 72s73 -31 67 -72c-5 -41 -44 -72 -88 -72s-71 34 -66 72zM375 636c6 38 43 72 87 72
s73 -31 67 -72c-5 -41 -44 -72 -88 -72s-71 34 -66 72z" />
    <glyph glyph-name="zacute" unicode="&#x17a;" horiz-adv-x="482" 
d="M34 0l16 111l295 271v2h-245l13 96h390l-15 -109l-299 -275h272l-13 -96h-414zM254 564l120 144h136l-162 -144h-94z" />
    <glyph glyph-name="zcaron" unicode="&#x17e;" horiz-adv-x="482" 
d="M34 0l16 111l295 271v2h-245l13 96h390l-15 -109l-299 -275h272l-13 -96h-414zM159 708h114l56 -90l82 90h110l-135 -144h-133z" />
    <glyph glyph-name="zdotaccent" unicode="&#x17c;" horiz-adv-x="482" 
d="M34 0l16 111l295 271v2h-245l13 96h390l-15 -109l-299 -275h272l-13 -96h-414zM274 636c5 39 42 72 86 72s75 -31 68 -72s-44 -72 -88 -72s-71 33 -66 72z" />
    <glyph glyph-name="grave.cap" unicode="&#xe300;" 
d="M204 900l79 -144h-94l-121 144h136z" />
    <glyph glyph-name="acute" unicode="&#xb4;" 
d="M162 564l120 144h136l-162 -144h-94z" />
    <glyph glyph-name="acute.cap" unicode="&#xe301;" 
d="M189 756l119 144h136l-161 -144h-94z" />
    <glyph glyph-name="circumflex" unicode="&#x2c6;" 
d="M391 564h-114l-56 90l-82 -90h-112l136 144h135z" />
    <glyph glyph-name="circumflex.cap" unicode="&#xe302;" 
d="M418 756h-114l-57 90l-81 -90h-112l135 144h135z" />
    <glyph glyph-name="caron" unicode="&#x2c7;" 
d="M48 708h114l56 -90l82 90h110l-135 -144h-133z" />
    <glyph glyph-name="caron.cap" unicode="&#xe303;" 
d="M75 900h114l56 -90l82 90h110l-135 -144h-133z" />
    <glyph glyph-name="caron.alt" unicode="&#xe30b;" 
d="M119 510l88 198h122l-113 -198h-97z" />
    <glyph glyph-name="tilde" unicode="&#x2dc;" 
d="M92 568h-66c20 64 55 127 130 127c54 0 106 -37 138 -37c27 0 42 20 52 42h66c-20 -64 -54 -127 -129 -127c-54 0 -107 38 -139 38c-27 0 -42 -21 -52 -43z" />
    <glyph glyph-name="tilde.cap" unicode="&#xe304;" 
d="M118 760h-66c19 64 56 127 130 127c53 0 106 -37 139 -37c27 0 41 19 52 42h66c-21 -64 -54 -127 -130 -127c-53 0 -106 38 -139 38c-27 0 -41 -20 -52 -43z" />
    <glyph glyph-name="dieresis" unicode="&#xa8;" 
d="M39 636c6 38 43 72 87 72s73 -31 67 -72c-5 -41 -44 -72 -88 -72s-71 34 -66 72zM245 636c6 38 43 72 87 72s73 -31 67 -72c-5 -41 -44 -72 -88 -72s-71 34 -66 72z" />
    <glyph glyph-name="dieresis.cap" unicode="&#xe305;" 
d="M66 828c5 39 42 72 86 72s75 -31 68 -72s-44 -72 -88 -72s-73 33 -66 72zM272 828c5 39 42 72 86 72s75 -31 68 -72s-44 -72 -88 -72s-73 33 -66 72z" />
    <glyph glyph-name="macron" unicode="&#xaf;" 
d="M385 673l-11 -78h-320l11 78h320z" />
    <glyph glyph-name="macron.cap" unicode="&#xe306;" 
d="M411 865l-11 -78h-320l11 78h320z" />
    <glyph glyph-name="uni02C9" unicode="&#x2c9;" 
d="M384 673l-11 -78h-320l11 78h320z" />
    <glyph glyph-name="breve" unicode="&#x2d8;" 
d="M59 708h67c3 -51 43 -66 94 -66c57 0 90 10 113 66h66c-24 -99 -95 -144 -191 -144s-157 44 -149 144z" />
    <glyph glyph-name="breve.cap" unicode="&#xe307;" 
d="M86 900h67c1 -51 43 -66 94 -66c57 0 90 10 113 66h66c-25 -100 -95 -144 -191 -144s-156 44 -149 144z" />
    <glyph glyph-name="ring" unicode="&#x2da;" 
d="M327 655c-9 -60 -60 -102 -120 -102s-99 42 -91 101c9 59 60 103 120 103s99 -42 91 -102zM279 655c4 31 -19 54 -50 54s-60 -23 -64 -54c-5 -31 18 -54 49 -54s60 22 65 54z" />
    <glyph glyph-name="ring.cap" unicode="&#xe308;" 
d="M352 837c-8 -60 -59 -102 -119 -102s-99 41 -91 101c8 59 59 103 119 103s100 -42 91 -102zM304 837c4 31 -18 54 -49 54s-61 -23 -65 -54s19 -54 50 -54s60 22 64 54z" />
    <glyph glyph-name="hungarumlaut" unicode="&#x2dd;" 
d="M59 564l119 144h136l-161 -144h-94zM264 564l119 144h136l-161 -144h-94z" />
    <glyph glyph-name="hungarumlaut.cap" unicode="&#xe309;" 
d="M86 756l119 144h136l-161 -144h-94zM291 756l119 144h136l-161 -144h-94z" />
    <glyph glyph-name="dotaccent" unicode="&#x2d9;" 
d="M142 636c5 39 42 72 86 72s75 -31 68 -72s-44 -72 -88 -72s-71 33 -66 72z" />
    <glyph glyph-name="dotaccent.cap" unicode="&#xe30a;" 
d="M169 828c5 39 42 72 86 72s75 -31 68 -72s-44 -72 -88 -72s-73 33 -66 72z" />
    <glyph glyph-name="cedilla" unicode="&#xb8;" 
d="M219 0l-50 -60c59 0 120 -6 109 -83c-10 -73 -93 -97 -153 -97c-37 0 -72 10 -102 28l29 46c23 -13 50 -20 79 -20c22 0 58 9 63 42c3 26 -25 36 -46 36c-13 0 -26 -3 -38 -7l-24 25l75 90h58z" />
    <glyph glyph-name="ogonek" unicode="&#x2db;" 
d="M156 -147l18 -49c-31 -23 -68 -38 -105 -38c-53 0 -98 30 -90 89c8 56 73 119 120 151h61c-35 -27 -93 -84 -101 -128c-3 -25 15 -46 40 -46c19 0 41 9 57 21z" />
    <glyph glyph-name="commaaccent" unicode="&#xe30c;" 
d="M-9 -258l101 198h122l-116 -198h-107z" />
    <glyph glyph-name="commaaccent.alt" unicode="&#xe30d;" 
d="M339 782l-100 -198h-122l115 198h107z" />
    <glyph glyph-name="ellipsis" unicode="&#x2026;" horiz-adv-x="1000" 
d="M97 70c6 43 47 78 91 78c43 0 75 -33 69 -76s-47 -78 -91 -78c-42 0 -75 33 -69 76zM430 70c6 43 47 78 91 78c43 0 75 -33 69 -76s-47 -78 -91 -78c-42 0 -75 33 -69 76zM763 70c6 43 47 78 91 78c43 0 75 -33 69 -76s-47 -78 -91 -78c-42 0 -75 33 -69 76z" />
    <glyph glyph-name="uni00AD" unicode="&#xad;" horiz-adv-x="315" 
d="M323 297l-15 -102h-247l15 102h247z" />
    <glyph glyph-name="exclamdown" unicode="&#xa1;" horiz-adv-x="296" 
d="M57 -222l68 487h120l-68 -487h-120zM286 416c-6 -43 -46 -78 -90 -78c-43 0 -76 33 -70 76s47 78 91 78c42 0 76 -33 69 -76z" />
    <glyph glyph-name="questiondown" unicode="&#xbf;" horiz-adv-x="519" 
d="M228 277h120l-8 -55c-8 -60 -23 -75 -70 -117l-88 -78c-20 -17 -31 -40 -34 -65c-8 -52 25 -88 77 -88c56 0 101 44 114 98l127 -10c-33 -127 -135 -202 -262 -202c-119 0 -201 69 -183 195c12 87 69 129 135 184c41 35 59 48 67 100zM387 416c-6 -43 -46 -78 -90 -78
c-43 0 -76 33 -70 76s47 78 91 78c42 0 76 -33 69 -76z" />
    <glyph glyph-name="quoteleft" unicode="&#x2018;" horiz-adv-x="296" 
d="M344 708l-108 -264h-122l123 264h107z" />
    <glyph glyph-name="quoteright" unicode="&#x2019;" horiz-adv-x="296" 
d="M114 444l108 264h122l-123 -264h-107z" />
    <glyph glyph-name="quotedblleft" unicode="&#x201c;" horiz-adv-x="519" 
d="M350 708l-108 -264h-122l123 264h107zM561 708l-108 -264h-122l123 264h107z" />
    <glyph glyph-name="quotedblright" unicode="&#x201d;" horiz-adv-x="519" 
d="M331 444l108 264h122l-123 -264h-107zM120 444l108 264h122l-123 -264h-107z" />
    <glyph glyph-name="quotesinglbase" unicode="&#x201a;" horiz-adv-x="296" 
d="M34 -126l107 264h122l-122 -264h-107z" />
    <glyph glyph-name="quotedblbase" unicode="&#x201e;" horiz-adv-x="519" 
d="M250 -126l107 264h122l-122 -264h-107zM41 -126l107 264h122l-122 -264h-107z" />
    <glyph glyph-name="guilsinglleft" unicode="&#x2039;" horiz-adv-x="296" 
d="M316 421l-139 -173l91 -175l-83 -51l-120 226l183 224z" />
    <glyph glyph-name="guilsinglright" unicode="&#x203a;" horiz-adv-x="296" 
d="M49 73l140 173l-92 175l83 51l121 -226l-184 -224z" />
    <glyph glyph-name="guillemotleft" unicode="&#xab;" horiz-adv-x="519" 
d="M316 421l-139 -173l91 -175l-83 -51l-120 226l183 224zM539 421l-139 -173l91 -175l-83 -51l-120 226l183 224z" />
    <glyph glyph-name="guillemotright" unicode="&#xbb;" horiz-adv-x="519" 
d="M272 73l140 173l-92 175l83 51l121 -226l-184 -224zM49 73l140 173l-92 175l83 51l121 -226l-184 -224z" />
    <glyph glyph-name="endash" unicode="&#x2013;" horiz-adv-x="500" 
d="M541 294l-13 -96h-500l13 96h500z" />
    <glyph glyph-name="emdash" unicode="&#x2014;" horiz-adv-x="1000" 
d="M1041 294l-13 -96h-1000l13 96h1000z" />
    <glyph glyph-name="bullet" unicode="&#x2022;" horiz-adv-x="500" 
d="M123 354c14 98 104 177 202 177s166 -79 152 -177s-104 -177 -202 -177s-166 79 -152 177z" />
    <glyph glyph-name="periodcentered" unicode="&#xb7;" horiz-adv-x="296" 
d="M109 291c6 43 47 78 91 78c43 0 75 -33 69 -76s-47 -78 -91 -78c-42 0 -75 33 -69 76z" />
    <glyph glyph-name="uni2219" unicode="&#x2219;" horiz-adv-x="296" 
d="M108 291c7 43 47 78 91 78c43 0 75 -33 70 -76c-7 -43 -47 -78 -91 -78c-42 0 -75 33 -70 76z" />
    <glyph glyph-name="dagger" unicode="&#x2020;" horiz-adv-x="593" 
d="M453 708l-29 -203h199l-14 -96h-199l-75 -535h-114l75 535h-198l14 96h198l29 203h114z" />
    <glyph glyph-name="daggerdbl" unicode="&#x2021;" horiz-adv-x="593" 
d="M453 708l-26 -185h193l-14 -96h-193l-38 -271h193l-14 -96h-193l-26 -186h-114l26 186h-192l14 96h192l38 271h-192l14 96h192l26 185h114z" />
    <glyph glyph-name="section" unicode="&#xa7;" horiz-adv-x="593" 
d="M591 625l-113 -59c-9 40 -44 64 -86 64c-40 0 -84 -20 -91 -66c-15 -111 287 -94 260 -284c-7 -55 -50 -105 -103 -128c35 -29 51 -71 45 -119c-17 -121 -143 -177 -248 -177c-95 0 -177 31 -205 123l114 52c7 -50 55 -73 104 -73c41 0 94 16 101 65
c16 110 -287 90 -261 276c10 73 55 117 117 148c-38 26 -57 64 -50 114c15 111 128 165 227 165c78 0 161 -26 189 -101zM299 239l90 -45c26 13 52 43 56 70c7 50 -34 67 -69 88l-83 42c-34 -15 -62 -31 -67 -70c-7 -49 37 -68 73 -85z" />
    <glyph glyph-name="paragraph" unicode="&#xb6;" horiz-adv-x="600" 
d="M228 -126l66 464c-130 0 -205 77 -190 182c19 134 121 188 260 188h269l-118 -834h-90l107 762h-107l-107 -762h-90z" />
    <glyph glyph-name="brokenbar" unicode="&#xa6;" horiz-adv-x="400" 
d="M206 746h90v-387h-90v387zM206 193h90v-385h-90v385z" />
    <glyph glyph-name="copyright" unicode="&#xa9;" horiz-adv-x="800" 
d="M536 297h94c-28 -100 -113 -154 -200 -154c-126 0 -186 94 -169 214c17 123 99 210 227 210c90 0 158 -48 159 -145h-94c-2 46 -33 61 -69 61c-77 0 -116 -52 -127 -124c-10 -74 19 -132 89 -132c42 0 79 18 90 70zM78 354c29 205 219 372 424 372s349 -167 320 -372
s-220 -372 -425 -372s-348 167 -319 372zM174 354c-23 -161 80 -288 235 -288s294 127 317 288c22 161 -81 288 -236 288s-294 -127 -316 -288z" />
    <glyph glyph-name="registered" unicode="&#xae;" horiz-adv-x="800" 
d="M280 163l55 390h125c90 0 173 -21 160 -115c-10 -70 -62 -114 -105 -120l78 -155h-105l-68 150h-23l-21 -150h-96zM419 475l-12 -84h47c24 0 63 1 69 42c5 40 -33 42 -57 42h-47zM78 354c29 205 219 372 424 372s349 -167 320 -372s-220 -372 -425 -372
s-348 167 -319 372zM174 354c-23 -161 80 -288 235 -288s294 127 317 288c22 161 -81 288 -236 288s-294 -127 -316 -288z" />
    <glyph glyph-name="trademark" unicode="&#x2122;" horiz-adv-x="1000" 
d="M204 296l45 322h-122l13 90h346l-13 -90h-122l-45 -322h-102zM522 296l58 412h142l60 -268l136 268h142l-58 -412h-102l37 268h-2l-138 -268h-70l-64 268h-2l-37 -268h-102z" />
    <glyph glyph-name="currency" unicode="&#xa4;" horiz-adv-x="592" 
d="M109 95l-51 60l56 49c-25 42 -36 94 -28 151c8 56 33 108 70 151l-42 49l68 59l43 -48c46 30 100 48 157 48s107 -18 145 -48l55 48l52 -59l-56 -49c26 -44 36 -95 28 -151s-33 -108 -70 -151l42 -49l-69 -60l-42 49c-46 -31 -101 -49 -158 -49c-56 0 -104 17 -144 49z
M200 355c-13 -92 36 -152 125 -152s154 60 167 152s-36 151 -125 151s-154 -59 -167 -151z" />
    <glyph glyph-name="Euro" unicode="&#x20ac;" horiz-adv-x="610" 
d="M560 121l27 -96c-43 -25 -110 -43 -182 -43c-182 0 -262 109 -275 240h-84l40 86h45c0 7 1 15 2 22l3 22c3 16 5 33 10 48h-72l42 86h55c58 146 192 240 351 240c64 0 122 -14 155 -33l-52 -100c-28 19 -75 28 -124 28c-81 0 -172 -48 -209 -135h288l-40 -86h-279
c-4 -15 -7 -30 -10 -49l-3 -21c-1 -8 -1 -15 -1 -22h256l-39 -86h-214c8 -75 74 -134 174 -134c49 0 95 11 136 33z" />
    <glyph glyph-name="cent" unicode="&#xa2;" horiz-adv-x="592" 
d="M433 559l-10 -67c63 -2 126 -20 160 -69l-88 -78c-21 26 -50 43 -86 45l-42 -300c37 0 75 19 103 46l62 -79c-50 -47 -117 -67 -180 -69l-10 -72h-54l10 72c-135 12 -205 118 -186 253c19 139 118 233 257 251l10 67h54zM313 90l42 299c-76 -15 -119 -76 -129 -149
c-10 -70 18 -132 87 -150z" />
    <glyph glyph-name="sterling" unicode="&#xa3;" horiz-adv-x="592" 
d="M66 0l13 96h102l31 219h-102l12 84h102l14 100c14 99 98 221 263 221c71 0 139 -20 182 -64l-93 -87c-25 27 -58 43 -100 43c-74 0 -124 -60 -133 -123l-13 -90h162l-12 -84h-162l-31 -219h253l-13 -96h-475z" />
    <glyph glyph-name="florin" unicode="&#x192;" horiz-adv-x="592" 
d="M540 426l-13 -90h-138l-97 -288c-43 -127 -110 -187 -214 -187c-35 0 -69 8 -98 24l58 92c12 -9 29 -14 45 -14c52 0 74 44 94 104l91 269h-113l13 90h131l37 111c35 100 89 183 206 183c43 0 79 -11 113 -31l-59 -93c-16 10 -34 16 -53 16c-59 0 -79 -55 -95 -102
l-30 -84h122z" />
    <glyph glyph-name="yen" unicode="&#xa5;" horiz-adv-x="592" 
d="M236 0l25 177h-170l11 78h170l7 48l-15 34h-151l11 78h108l-120 293h135l113 -294l191 294h129l-204 -293h108l-11 -78h-151l-23 -34l-7 -48h170l-11 -78h-170l-25 -177h-120z" />
    <glyph glyph-name="ordfeminine" unicode="&#xaa;" horiz-adv-x="349" 
d="M304 431l5 39h-2c-25 -33 -71 -45 -109 -45c-34 0 -108 15 -98 88c13 94 133 100 212 100h17l1 8c4 23 -25 33 -64 33c-33 0 -61 -12 -88 -32l-35 53c39 31 91 45 144 45c96 0 130 -39 118 -120l-23 -169h-78zM317 553h-28c-33 0 -100 -3 -104 -37c-3 -20 20 -31 45 -31
c57 0 81 26 86 62z" />
    <glyph glyph-name="ordmasculine" unicode="&#xba;" horiz-adv-x="397" 
d="M257 425c-93 0 -160 60 -146 147c13 88 94 148 187 148c94 0 161 -60 148 -148c-12 -87 -95 -147 -189 -147zM267 497c56 0 91 41 95 75c5 35 -18 76 -74 76s-90 -41 -95 -76c-4 -34 18 -75 74 -75z" />
    <glyph glyph-name="onesuperior" unicode="&#xb9;" horiz-adv-x="385" 
d="M220 289l44 317l-94 -75l-46 66l166 117h91l-59 -425h-102z" />
    <glyph glyph-name="twosuperior" unicode="&#xb2;" horiz-adv-x="385" 
d="M72 289l13 95l201 152c21 16 46 35 49 55c4 28 -20 39 -50 39c-36 0 -64 -24 -70 -54l-95 6c19 95 91 138 182 138c88 0 147 -43 135 -128c-6 -44 -31 -80 -73 -109l-155 -108l-1 -2h198l-11 -84h-323z" />
    <glyph glyph-name="threesuperior" unicode="&#xb3;" horiz-adv-x="385" 
d="M212 468l12 84h32c36 0 71 7 76 45c3 21 -16 33 -48 33c-30 0 -57 -16 -68 -44l-100 20c32 85 102 114 180 114c81 0 150 -37 139 -114c-6 -47 -40 -84 -92 -93v-2c54 -7 80 -51 73 -100c-12 -86 -94 -128 -184 -128c-82 0 -142 33 -149 118l106 22c2 -31 19 -50 55 -50
s66 13 71 48c7 46 -36 47 -80 47h-23z" />
    <glyph glyph-name="fraction" unicode="&#x2044;" horiz-adv-x="167" 
d="M-165 6l519 734l77 -38l-518 -734z" />
    <glyph glyph-name="uni2215" unicode="&#x2215;" horiz-adv-x="167" 
d="M-165 6l519 734l77 -38l-518 -734z" />
    <glyph glyph-name="onequarter" unicode="&#xbc;" horiz-adv-x="889" 
d="M705 0l12 85h-198l11 78l225 262h112l-36 -256h53l-12 -84h-53l-12 -85h-102zM729 169l19 134l-1 2l-114 -136h96zM209 289l44 317l-94 -75l-46 66l166 117h91l-59 -425h-102zM185 6l519 734l78 -38l-519 -734z" />
    <glyph glyph-name="onehalf" unicode="&#xbd;" horiz-adv-x="889" 
d="M212 289l44 317l-94 -75l-46 66l166 117h91l-59 -425h-102zM535 0l13 95l201 152c20 16 46 35 48 55c4 28 -20 39 -50 39c-36 0 -63 -24 -70 -54l-95 6c20 95 92 138 183 138c88 0 147 -43 135 -128c-7 -44 -32 -80 -74 -109l-155 -108v-2h198l-12 -84h-322zM187 6
l519 734l78 -38l-519 -734z" />
    <glyph glyph-name="threequarters" unicode="&#xbe;" horiz-adv-x="889" 
d="M737 157l25 178h-2l-143 -176v-2h120zM712 0l12 85h-198l11 78l225 262h112l-36 -256h52l-12 -84h-52l-12 -85h-102zM208 468l12 84h32c36 0 71 7 76 45c3 21 -16 33 -48 33c-30 0 -57 -16 -68 -44l-100 20c32 85 102 114 180 114c81 0 150 -37 139 -114
c-6 -47 -40 -84 -92 -93v-2c54 -7 80 -51 73 -100c-12 -86 -94 -128 -184 -128c-82 0 -142 33 -149 118l106 22c2 -31 19 -50 55 -50s66 13 71 48c7 46 -36 47 -80 47h-23zM212 6l519 734l78 -38l-519 -734z" />
    <glyph glyph-name="perthousand" unicode="&#x2030;" horiz-adv-x="1167" 
d="M434 165c14 97 104 176 201 176s166 -79 152 -176c-13 -97 -105 -177 -202 -177s-164 80 -151 177zM524 165c-7 -50 24 -87 74 -87s92 37 99 87s-25 86 -75 86s-91 -36 -98 -86zM830 165c14 97 104 176 201 176s166 -79 152 -176c-13 -97 -105 -177 -202 -177
s-164 80 -151 177zM920 165c-7 -50 24 -87 74 -87s92 37 99 87s-25 86 -75 86s-91 -36 -98 -86zM83 544c14 97 104 176 201 176s166 -79 152 -176c-13 -97 -104 -177 -201 -177s-165 80 -152 177zM173 544c-7 -50 24 -87 74 -87s92 37 99 87s-24 86 -74 86s-92 -36 -99 -86z
M135 6l519 734l78 -38l-519 -734z" />
    <glyph glyph-name="minus" unicode="&#x2212;" horiz-adv-x="666" 
d="M111 354h542l-14 -102h-542z" />
    <glyph glyph-name="plusminus" unicode="&#xb1;" horiz-adv-x="666" 
d="M344 431l20 143h102l-20 -143h219l-15 -102h-219l-20 -143h-102l20 143h-221l15 102h221zM66 32l15 102h542l-15 -102h-542z" />
    <glyph glyph-name="multiply" unicode="&#xd7;" horiz-adv-x="666" 
d="M228 557l158 -183l207 182l60 -70l-206 -181l159 -186l-85 -74l-157 181l-207 -181l-63 73l210 182l-158 186z" />
    <glyph glyph-name="divide" unicode="&#xf7;" horiz-adv-x="666" 
d="M112 354h542l-15 -102h-542zM326 483c6 41 44 75 85 75s71 -34 65 -75s-45 -75 -86 -75s-70 34 -64 75zM275 123c6 41 45 75 86 75s70 -34 64 -75c-5 -41 -44 -75 -85 -75s-70 34 -65 75z" />
    <glyph glyph-name="notequal" unicode="&#x2260;" horiz-adv-x="666" 
d="M608 162h-264l-94 -144l-82 45l64 99h-130l15 102h181l49 78h-219l14 102h270l92 143l84 -44l-65 -99h125l-14 -102h-176l-49 -78h214z" />
    <glyph glyph-name="approxequal" unicode="&#x2248;" horiz-adv-x="666" 
d="M594 451h71c-21 -88 -73 -172 -173 -172c-79 0 -191 69 -244 69c-37 0 -62 -37 -73 -69h-71c19 83 74 173 170 173c83 0 169 -66 249 -66c37 0 59 32 71 65zM563 243h71c-21 -88 -73 -172 -173 -172c-80 0 -188 69 -244 69c-37 0 -62 -36 -73 -68h-71
c19 84 74 172 170 172c83 0 169 -66 249 -66c37 0 59 32 71 65z" />
    <glyph glyph-name="lessequal" unicode="&#x2264;" horiz-adv-x="666" 
d="M605 144l-482 170l15 108l531 177l-16 -113l-376 -118l343 -112zM585 4h-506l15 107h506z" />
    <glyph glyph-name="greaterequal" unicode="&#x2265;" horiz-adv-x="666" 
d="M99 144l15 112l375 112l-342 118l16 113l481 -177l-15 -108zM79 4l15 107h506l-15 -107h-506z" />
    <glyph glyph-name="logicalnot" unicode="&#xac;" horiz-adv-x="666" 
d="M523 147l27 195h-440l14 102h542l-41 -297h-102z" />
    <glyph glyph-name="Delta" unicode="&#x2206;" horiz-adv-x="685" 
d="M677 0h-669l370 712h115zM533 104l-118 477l-240 -477h358z" />
    <glyph glyph-name="uni0394" unicode="&#x394;" horiz-adv-x="685" 
d="M677 0h-669l370 712h115zM533 104l-118 477l-240 -477h358z" />
    <glyph glyph-name="Omega" unicode="&#x2126;" horiz-adv-x="759" 
d="M701 0h-276l26 189c104 19 173 109 186 208c16 119 -52 219 -176 219s-224 -100 -240 -220c-15 -104 25 -180 125 -207l-26 -189h-274l14 106h172l5 32c-116 38 -151 143 -135 266c27 185 190 317 372 317c181 0 311 -127 284 -314c-19 -125 -82 -231 -211 -269l-5 -32
h173z" />
    <glyph glyph-name="uni03A9" unicode="&#x3a9;" horiz-adv-x="759" 
d="M701 0h-276l26 189c104 19 173 109 186 208c16 119 -52 219 -176 219s-224 -100 -240 -220c-15 -104 25 -180 125 -207l-26 -189h-274l14 106h172l5 32c-116 38 -151 143 -135 266c27 185 190 317 372 317c181 0 311 -127 284 -314c-19 -125 -82 -231 -211 -269l-5 -32
h173z" />
    <glyph glyph-name="mu" unicode="&#xb5;" horiz-adv-x="574" 
d="M135 480h120l-34 -243c-7 -53 -16 -141 68 -141c79 0 119 58 128 122l36 262h120l-67 -480h-114l11 77h-2c-29 -48 -80 -89 -160 -89c-21 0 -38 2 -54 7l-31 -223h-120z" />
    <glyph glyph-name="uni03BC" unicode="&#x3bc;" horiz-adv-x="574" 
d="M135 480h120l-34 -243c-8 -53 -16 -141 68 -141c78 0 119 58 127 122l37 262h120l-67 -480h-114l10 77h-2c-28 -48 -79 -89 -159 -89c-22 0 -40 2 -54 7l-32 -223h-120z" />
    <glyph glyph-name="pi" unicode="&#x3c0;" horiz-adv-x="593" 
d="M593 93l-12 -80c-29 -13 -66 -20 -97 -20c-89 0 -97 56 -86 131l36 254h-183l-53 -378h-117l53 378h-70l14 102h566l-14 -102h-79l-34 -237c-5 -28 -7 -58 30 -58c15 0 31 3 46 10z" />
    <glyph glyph-name="degree" unicode="&#xb0;" horiz-adv-x="400" 
d="M119 560c12 88 94 160 182 160s150 -72 138 -160c-13 -88 -95 -160 -183 -160s-150 72 -137 160zM197 560c-7 -45 25 -82 70 -82s87 37 94 82c6 45 -26 82 -71 82s-87 -37 -93 -82z" />
    <glyph glyph-name="afii61289" unicode="&#x2113;" horiz-adv-x="500" 
d="M418 110l31 -61c-54 -42 -109 -63 -166 -63c-96 0 -146 56 -134 141l9 64l-63 -52h-2l-33 63l111 85l34 244c16 111 97 190 192 190c84 0 129 -55 117 -143c-15 -101 -88 -198 -229 -310l-17 -122c-8 -57 24 -74 55 -74c27 0 58 13 93 38h2zM418 570c5 41 -8 73 -33 73
s-52 -33 -60 -90l-26 -185c72 68 110 138 119 202z" />
    <glyph glyph-name="estimated" unicode="&#x212e;" horiz-adv-x="500" 
d="M561 259h-404v-181c39 -39 88 -59 145 -59c84 0 142 36 193 120l35 -21c-61 -96 -123 -135 -228 -135c-157 0 -258 122 -258 276c0 155 101 276 258 276c154 0 259 -114 259 -276zM157 295h291v145c-42 40 -91 60 -147 60s-104 -20 -144 -60v-145z" />
    <glyph glyph-name="infinity" unicode="&#x221e;" horiz-adv-x="815" 
d="M770 263c0 -101 -63 -182 -169 -182c-82 0 -143 54 -193 112c-56 -59 -106 -111 -192 -111c-105 0 -171 79 -171 180c0 100 63 179 167 179c89 0 143 -58 196 -119c51 61 108 120 194 120c104 0 168 -79 168 -179zM680 260c0 48 -29 86 -80 86c-52 0 -102 -51 -135 -87
c34 -39 82 -82 138 -82c49 0 77 36 77 83zM350 259c-32 35 -87 86 -138 86c-47 0 -77 -40 -77 -85c0 -49 31 -82 80 -82c51 0 103 44 135 81z" />
    <glyph glyph-name="partialdiff" unicode="&#x2202;" horiz-adv-x="556" 
d="M564 358c-24 -171 -96 -371 -307 -371c-133 0 -206 98 -187 228c19 128 117 221 247 221c56 0 96 -20 135 -55l4 28c16 95 -1 225 -119 225c-47 0 -89 -20 -129 -49l-49 70c61 43 112 66 184 66c207 0 245 -188 221 -363zM435 264l2 25c-29 39 -61 64 -117 64
c-83 0 -131 -68 -142 -144c-11 -72 14 -138 94 -138c92 0 155 113 163 193z" />
    <glyph glyph-name="integral" unicode="&#x222b;" horiz-adv-x="611" 
d="M486 709c0 -31 -21 -52 -52 -52c-63 0 -46 73 -76 73c-15 0 -16 -15 -16 -26c0 -41 4 -81 4 -122v-589c0 -100 -19 -208 -144 -208c-48 0 -111 20 -111 76c0 31 22 53 53 53c63 0 47 -73 74 -73c21 0 17 34 17 46c0 35 -4 67 -4 102v506c0 113 -20 291 145 291
c46 0 110 -22 110 -77z" />
    <glyph glyph-name="radical" unicode="&#x221a;" horiz-adv-x="537" 
d="M549 786l-211 -1000h-106l-152 317l-51 -25l-41 90l148 68l129 -273l168 823h116z" />
    <glyph glyph-name="summation" unicode="&#x2211;" horiz-adv-x="648" 
d="M624 -214h-599v89l303 417l-290 405v89h573v-103h-422l275 -390l-293 -404h453v-103z" />
    <glyph glyph-name="product" unicode="&#x220f;" horiz-adv-x="741" 
d="M679 -214h-114v897h-389v-897h-114v1000h617v-1000z" />
    <glyph glyph-name="lozenge" unicode="&#x25ca;" horiz-adv-x="593" 
d="M524 356l-178 -391h-100l-177 391l177 391h100zM415 356l-119 285l-118 -285l118 -286z" />
    <glyph glyph-name="uniF8FF" unicode="&#xf8ff;" horiz-adv-x="512" 
d="M278 117h-56v67h56v-67zM271 234h-46l-2 17c0 37 4 64 13 81s23 36 46 59c43 40 50 59 50 83c0 48 -35 85 -76 85s-74 -27 -82 -95l-50 8c9 96 63 137 135 137s124 -51 124 -131c0 -43 -12 -73 -63 -120c-25 -22 -39 -39 -43 -52s-6 -37 -6 -72zM50 50h412v617h-412v-617
zM0 718h512v-718h-512v718z" />
    </font>
</defs>
</svg>
