<svg id="Layer_1" data-name="Layer 1" xmlns="http://www.w3.org/2000/svg" viewBox="0 0 25.76 25.5"><defs><style>.cls-1{fill:#fff;}</style></defs><title>footer-logo</title><path class="cls-1" d="M55.47,38c-0.22-4.23-1.68-7.35-3.65-9-2.13-1.83-6.12-2.53-9.2-2.51s-7.07.68-9.2,2.51c-2,1.69-3.43,4.81-3.65,9-0.21,4,.67,8.31,2.93,10.77S39.24,52,42.62,52h0c3.38,0,7.75-.76,9.93-3.17S55.68,42,55.47,38ZM41.9,27.56c0.44,0,.53,0,0.72,0s0.29,0,.72,0v9.26H41.89V27.56ZM31.5,41.94c-0.14-1.6-.61-7.4,1.69-10.71a7.88,7.88,0,0,1,3.9-2.91,16.78,16.78,0,0,1,4.46-.75c-1,2.33-2.9,7.33-3.28,8.44A20.48,20.48,0,0,0,37,40.59c-0.25,2-.69,7-0.81,9.21C33.49,48.48,31.85,46,31.5,41.94Zm17.25,8a17,17,0,0,1-6.13,1,17,17,0,0,1-6.13-1h0a120.13,120.13,0,0,1,5.29-11.7h1.7a120.53,120.53,0,0,1,5.29,11.7h0Zm5-8c-0.35,4.07-2,6.54-4.72,7.85-0.12-2.18-.56-7.2-0.81-9.21A20.48,20.48,0,0,0,47,36c-0.38-1.11-2.33-6.11-3.28-8.44a16.79,16.79,0,0,1,4.46.75A7.88,7.88,0,0,1,52,31.23C54.34,34.54,53.87,40.34,53.73,41.94Z" transform="translate(-29.74 -26.49)"/></svg>