<?xml version="1.0" encoding="utf-8"?>
<!-- Generator: Adobe Illustrator 16.0.0, SVG Export Plug-In . SVG Version: 6.00 Build 0)  -->
<!DOCTYPE svg PUBLIC "-//W3C//DTD SVG 1.0//EN" "http://www.w3.org/TR/2001/REC-SVG-20010904/DTD/svg10.dtd">
<svg version="1.0" id="Layer_1" xmlns="http://www.w3.org/2000/svg" xmlns:xlink="http://www.w3.org/1999/xlink" x="0px" y="0px"
	 width="372.042px" height="70.129px" viewBox="0 0 372.042 70.129" enable-background="new 0 0 372.042 70.129"
	 xml:space="preserve">
<g>
	<g>
		<polygon fill="#FFFFFF" points="372.042,0.527 313.174,0.527 279.802,17.983 256.333,0.527 206.663,0.527 249.079,34.054 
			181.617,69.339 240.485,69.339 272.521,52.583 294.721,70.129 349.909,70.129 304.107,36.062 		"/>
	</g>
	<path fill="#FFFFFF" d="M79.525,0l-13,49.256c0,0-1.099,9.338,3.843,13.915c4.944,4.579,10.255,6.958,22.156,6.958
		c11.902,0,78.003,0,78.003,0l3.846-15.197c0,0-56.945,0-58.594,0c-4.63,0-16.112-2.198-13.184-13
		C105.593,30.871,114.132,0,114.132,0H79.525z"/>
	<path fill="#FFFFFF" d="M36.071,70.129C35.907,70.095,53.452,0.001,53.452,0.001H18.844L0,70.129H36.071z"/>
</g>
</svg>
