<?xml version="1.0" encoding="utf-8"?>
<!-- Generator: Adobe Illustrator 16.0.0, SVG Export Plug-In . SVG Version: 6.00 Build 0)  -->
<!DOCTYPE svg PUBLIC "-//W3C//DTD SVG 1.0//EN" "http://www.w3.org/TR/2001/REC-SVG-20010904/DTD/svg10.dtd">
<svg version="1.0" id="Layer_1" xmlns="http://www.w3.org/2000/svg" xmlns:xlink="http://www.w3.org/1999/xlink" x="0px" y="0px"
	 width="526.4px" height="72.049px" viewBox="0 0 526.4 72.049" enable-background="new 0 0 526.4 72.049" xml:space="preserve">
<g>
	<polygon fill="#FFFEFE" points="167.335,70.129 193.57,0 144.446,0 103.414,44.799 103.414,0 59.034,0 0,70.129 42.287,70.129 
		78.292,21.981 78.292,70.129 105.507,70.129 149.468,23.237 131.047,70.129 	"/>
	<path fill="#FFFEFE" d="M330.175,2.184H209.952l-26.1,69.075c0,0,64.331,0,109.414,0s50.883-35.593,50.883-51.94
		C344.148,2.973,330.175,2.184,330.175,2.184z M279.555,55.966c-19.246,0-46.136,0-46.136,0l15.554-39.018h51.146
		c0,0,6.855,0.526,6.855,8.172C306.975,32.767,298.801,55.966,279.555,55.966z"/>
	<polygon fill="#FFFEFE" points="526.4,2.447 467.532,2.447 434.16,19.903 410.691,2.447 361.021,2.447 403.438,35.974 
		335.976,71.259 394.844,71.259 426.88,54.503 449.079,72.049 504.268,72.049 458.466,37.981 	"/>
</g>
</svg>
