<?xml version="1.0" encoding="utf-8"?>
<!-- Generator: Adobe Illustrator 16.0.0, SVG Export Plug-In . SVG Version: 6.00 Build 0)  -->
<!DOCTYPE svg PUBLIC "-//W3C//DTD SVG 1.0//EN" "http://www.w3.org/TR/2001/REC-SVG-20010904/DTD/svg10.dtd">
<svg version="1.0" id="Layer_1" xmlns="http://www.w3.org/2000/svg" xmlns:xlink="http://www.w3.org/1999/xlink" x="0px" y="0px"
	 width="526.4px" height="72.049px" viewBox="0 0 526.4 72.049" enable-background="new 0 0 526.4 72.049" xml:space="preserve">
<polyline fill="#FFFFFF" points="125.496,45.207 124.056,44.376 122.321,43.191 121.367,42.462 120.367,41.643 114.206,36.374 
	97.903,22.347 87.594,13.482 83.578,10.047 80.752,7.653 79.887,6.936 78.992,6.229 78.104,5.576 77.214,4.975 76.316,4.423 
	75.095,3.765 73.831,3.192 72.507,2.705 71.108,2.297 69.619,1.968 68.021,1.717 66.802,1.584 65.513,1.487 64.015,1.424 
	62.418,1.402 21.263,1.376 0,68.579 30.95,68.604 45.294,23.132 45.602,23.139 47.002,23.255 47.913,23.394 48.923,23.605 
	49.919,23.889 50.939,24.276 51.914,24.767 52.375,25.06 52.813,25.382 53.354,25.842 56.199,28.312 73.457,43.378 86.252,54.518 
	91.243,58.83 94.499,61.599 95.29,62.24 97.038,63.54 97.9,64.147 99.196,64.998 100.659,65.852 102.185,66.605 103.708,67.216 
	105.341,67.72 107.112,68.116 109.045,68.395 111.169,68.549 112.949,68.601 115.841,68.616 119.852,68.628 135.525,68.621 
	155.9,68.579 177.163,1.376 146.373,1.376 131.605,46.482 130.748,46.42 129.319,46.251 128.505,46.118 127.694,45.95 
	126.94,45.757 126.205,45.515 125.496,45.207 "/>
<g>
	<g id="LINE_20_">
		<polygon fill="#FFFFFF" points="434.458,21.409 480.306,1 526.4,1 454.756,33.796 509.479,68.617 457.758,68.586 425.261,47.24 
			378.595,68.617 328.537,68.604 405.148,34.468 355.582,1.402 403.715,1.402 		"/>
	</g>
</g>
<polygon fill="#FFFFFF" points="173.571,68.604 178.749,52.464 179.831,52.467 181.994,52.47 231.654,52.573 283.029,52.679 
	283.793,52.679 286.234,52.558 287.574,52.425 288.899,52.21 289.694,52.021 290.47,51.768 291.213,51.432 291.739,51.119 
	292.227,50.751 292.806,50.171 293.297,49.519 293.71,48.812 293.973,48.257 294.198,47.687 294.478,46.801 294.668,45.893 
	294.72,45.432 294.734,44.966 294.672,44.317 294.483,43.693 294.335,43.405 294.15,43.135 293.834,42.798 293.472,42.51 
	293.041,42.25 292.587,42.039 291.992,41.827 291.383,41.663 290.674,41.522 289.242,41.34 287.146,41.202 284.936,41.133 
	251.283,41.065 233.909,41.029 220.876,40.97 216.533,40.929 209.449,40.821 206.425,40.729 204.9,40.658 202.589,40.491 
	200.872,40.317 199.165,40.085 197.638,39.812 196.129,39.466 195.127,39.183 194.14,38.858 193.207,38.503 192.295,38.097 
	191.69,37.787 191.103,37.446 190.538,37.068 189.999,36.656 189.491,36.203 189.021,35.711 188.484,35.035 188.021,34.304 
	187.637,33.527 187.4,32.921 187.207,32.298 186.945,31.078 186.814,29.836 186.802,28.588 186.857,27.697 186.962,26.812 
	187.126,25.843 187.338,24.882 187.714,23.506 188.155,22.148 188.671,20.746 189.23,19.358 189.83,17.986 190.483,16.636 
	191.195,15.323 191.977,14.05 192.541,13.22 193.142,12.416 193.993,11.381 194.904,10.396 195.874,9.464 197.264,8.293 
	198.738,7.231 200.287,6.282 201.9,5.454 202.946,4.994 204.009,4.581 205.217,4.173 206.44,3.815 208.387,3.333 210.35,2.935 
	212.235,2.622 214.124,2.361 216.188,2.128 218.256,1.94 222.222,1.689 224.867,1.583 230.16,1.472 237.652,1.425 250.135,1.406 
	275.675,1.402 327.196,1.402 342.223,1.402 344.37,1.402 339.989,15.204 334.662,15.214 268.953,15.354 254.745,15.385 
	245.495,15.425 240.87,15.475 238.267,15.527 236.966,15.569 235.235,15.677 234.373,15.778 233.732,15.894 233.103,16.059 
	232.458,16.315 231.862,16.669 231.318,17.099 230.904,17.503 230.524,17.942 229.854,18.888 229.477,19.519 229.132,20.166 
	228.884,20.712 228.681,21.276 228.55,21.773 228.469,22.281 228.449,22.742 228.494,23.202 228.648,23.733 228.915,24.219 
	229.269,24.646 229.69,25.005 230.092,25.25 230.521,25.443 231.083,25.619 231.465,25.704 232.241,25.821 233.138,25.912 
	234.939,26.033 237.105,26.134 241.443,26.237 245.78,26.262 254.458,26.23 273.979,26.15 283.802,26.141 293.622,26.163 
	303.443,26.237 308.858,26.323 311.565,26.389 315.626,26.537 319.179,26.744 320.953,26.894 322.628,27.082 324.294,27.333 
	325.943,27.679 326.802,27.911 327.645,28.188 328.745,28.624 329.811,29.143 330.834,29.741 331.915,30.526 332.906,31.425 
	333.79,32.427 334.185,32.967 334.546,33.53 335.141,34.689 335.588,35.913 335.897,37.18 336.088,38.471 336.154,39.324 
	336.179,40.179 336.11,41.89 335.896,43.586 335.491,45.595 334.971,47.575 334.352,49.527 333.638,51.447 333.152,52.595 
	332.622,53.724 332.135,54.667 331.605,55.592 330.666,57.045 329.614,58.421 328.461,59.711 327.205,60.9 326.136,61.779 
	325.017,62.585 323.85,63.322 322.957,63.824 322.043,64.286 321.09,64.717 320.119,65.108 318.393,65.698 316.635,66.186 
	314.853,66.582 313.522,66.825 312.185,67.031 309.501,67.353 307.663,67.515 303.976,67.753 301.323,67.874 296.016,68.04 
	290.705,68.149 280.086,68.289 262.334,68.401 250.5,68.441 226.83,68.502 "/>
</svg>
