<?xml version="1.0" encoding="utf-8"?>
<!-- Generator: Adobe Illustrator 16.0.0, SVG Export Plug-In . SVG Version: 6.00 Build 0)  -->
<!DOCTYPE svg PUBLIC "-//W3C//DTD SVG 1.0//EN" "http://www.w3.org/TR/2001/REC-SVG-20010904/DTD/svg10.dtd">
<svg version="1.0" id="Layer_1" xmlns="http://www.w3.org/2000/svg" xmlns:xlink="http://www.w3.org/1999/xlink" x="0px" y="0px"
	 width="523.144px" height="70.129px" viewBox="0 0 523.144 70.129" enable-background="new 0 0 523.144 70.129"
	 xml:space="preserve">
<g>
	<path fill="#FFFFFF" d="M162.933,0H31.9c0,0-31.11,69.604-31.9,69.604h46.138l24.781-54.839c0,0,53.784,0,56.949,0
		c3.162,0,4.481,2.373,4.481,2.373c-5.009,13.445-13.171,12.391-13.171,12.391H72.502l-6.064,12.919h19.247l31.11,27.156h47.984
		l-34.005-27.421c0,0,2.894,0,18.187,0c15.29,0,20.827-12.391,23.728-26.892C175.587,0.79,162.933,0,162.933,0z"/>
	<path fill="#FFFFFF" d="M326.918,0.265H206.695l-26.1,69.074c0,0,64.331,0,109.414,0s50.883-35.593,50.883-51.938
		C340.892,1.053,326.918,0.265,326.918,0.265z M276.298,54.048c-19.246,0-46.136,0-46.136,0l15.554-39.02h51.146
		c0,0,6.855,0.526,6.855,8.173C303.718,30.847,295.544,54.048,276.298,54.048z"/>
	<polygon fill="#FFFFFF" points="523.144,0.527 464.276,0.527 430.904,17.983 407.435,0.527 357.765,0.527 400.181,34.055 
		332.719,69.339 391.587,69.339 423.624,52.583 445.823,70.129 501.011,70.129 455.209,36.062 	"/>
</g>
</svg>
