<?xml version="1.0" encoding="utf-8"?>
<!-- Generator: Adobe Illustrator 16.0.0, SVG Export Plug-In . SVG Version: 6.00 Build 0)  -->
<!DOCTYPE svg PUBLIC "-//W3C//DTD SVG 1.0//EN" "http://www.w3.org/TR/2001/REC-SVG-20010904/DTD/svg10.dtd">
<svg version="1.0" id="Layer_1" xmlns="http://www.w3.org/2000/svg" xmlns:xlink="http://www.w3.org/1999/xlink" x="0px" y="0px"
	 width="492.755px" height="70.128px" viewBox="0 0 492.755 70.128" enable-background="new 0 0 492.755 70.128"
	 xml:space="preserve">
<g>
	<path fill="#FFFFFF" d="M162.933,0H31.9c0,0-31.11,69.603-31.9,69.603h46.138l24.782-54.839c0,0,53.783,0,56.949,0
		c3.162,0,4.481,2.373,4.481,2.373c-5.009,13.445-13.171,12.391-13.171,12.391H72.502l-6.064,12.918h19.247l31.11,27.157h47.983
		l-34.004-27.421c0,0,2.894,0,18.187,0c15.29,0,20.827-12.39,23.728-26.892C175.587,0.79,162.933,0,162.933,0z"/>
	<polygon fill="#FFFFFF" points="492.755,0.527 433.887,0.527 400.515,17.983 377.046,0.527 327.376,0.527 369.792,34.054 
		302.33,69.338 361.198,69.338 393.234,52.583 415.434,70.128 470.622,70.128 424.82,36.062 	"/>
</g>
<path fill="#FFFFFF" d="M199.945,0l-13,49.255c0,0-1.099,9.338,3.843,13.915c4.945,4.579,10.256,6.958,22.157,6.958
	c11.901,0,78.002,0,78.002,0l3.846-15.196c0,0-56.945,0-58.594,0c-4.629,0-16.111-2.197-13.184-13
	C226.014,30.87,234.553,0,234.553,0H199.945z"/>
</svg>
