<?xml version="1.0" encoding="utf-8"?>
<!-- Generator: Adobe Illustrator 19.2.0, SVG Export Plug-In . SVG Version: 6.00 Build 0)  -->
<svg version="1.1" id="Layer_1" xmlns="http://www.w3.org/2000/svg" xmlns:xlink="http://www.w3.org/1999/xlink" x="0px" y="0px"
	 viewBox="0 0 255.1 46.2" style="enable-background:new 0 0 255.1 46.2;fill:#293859;" xml:space="preserve" height="34">
<polygon points="230.8,0 236.6,17.7 255.1,17.7 240.1,28.6 245.8,46.2 230.8,35.3 215.8,46.2 221.5,28.6 206.5,17.7 225.1,17.7 "/>
<polygon points="179.2,0 184.9,17.7 203.5,17.7 188.5,28.6 194.2,46.2 179.2,35.3 164.2,46.2 169.9,28.6 154.9,17.7 173.5,17.7 "/>
<polygon points="127.6,0 133.3,17.7 151.9,17.7 136.8,28.6 142.6,46.2 127.6,35.3 112.5,46.2 118.3,28.6 103.3,17.7 121.8,17.7 "/>
<polygon points="75.9,0 81.7,17.7 100.2,17.7 85.2,28.6 91,46.2 75.9,35.3 60.9,46.2 66.6,28.6 51.6,17.7 70.2,17.7 "/>
<polygon points="24.3,0 30,17.7 48.6,17.7 33.6,28.6 39.3,46.2 24.3,35.3 9.3,46.2 15,28.6 0,17.7 18.6,17.7 "/>
</svg>
