<?xml version="1.0" encoding="utf-8"?>
<!-- Generator: Adobe Illustrator 19.2.0, SVG Export Plug-In . SVG Version: 6.00 Build 0)  -->
<svg version="1.1" id="Layer_1" xmlns="http://www.w3.org/2000/svg" xmlns:xlink="http://www.w3.org/1999/xlink" x="0px" y="0px"
	 viewBox="0 0 320 106.9" style="enable-background:new 0 0 320 106.9;" xml:space="preserve">
<style type="text/css">
	.st0{fill:#FFFFFF;}
</style>
<g>
	<polygon class="st0" points="19.6,36.1 16.8,40.8 17.5,38.8 19.1,36.1 	"/>
	<polygon class="st0" points="22.2,36.1 19.2,41.1 18.6,41.1 21.6,36.1 	"/>
	<polygon class="st0" points="24.8,36.1 21.8,41.1 21.2,41.1 24.2,36.1 	"/>
	<polygon class="st0" points="27.3,36.1 24.3,41.1 23.7,41.1 26.7,36.1 	"/>
	<polygon class="st0" points="29.9,36.1 26.9,41.1 26.3,41.1 29.3,36.1 	"/>
	<polygon class="st0" points="32.4,36.1 29.4,41.1 28.9,41.1 31.9,36.1 	"/>
	<polygon class="st0" points="35,36.1 32,41.1 31.4,41.1 34.4,36.1 	"/>
	<polygon class="st0" points="37.6,36.1 34.6,41.1 34,41.1 37,36.1 	"/>
	<polygon class="st0" points="40.1,36.1 37.1,41.1 36.6,41.1 39.6,36.1 	"/>
	<polygon class="st0" points="42.7,36.1 39.7,41.1 39.1,41.1 42.1,36.1 	"/>
	<polygon class="st0" points="41.3,42.7 41.8,41.1 41.7,41.1 44.7,36.1 45.3,36.1 	"/>
	<polygon class="st0" points="47.8,36.1 38.4,51.9 39,49.8 47.2,36.1 	"/>
	<polygon class="st0" points="50.4,36.1 35.4,61 36.1,58.9 49.8,36.1 	"/>
	<polygon class="st0" points="53,36.1 37.7,61.5 37.1,61.5 52.4,36.1 	"/>
	<polygon class="st0" points="55.5,36.1 40.2,61.5 39.7,61.5 54.9,36.1 	"/>
	<polygon class="st0" points="58.1,36.1 42.8,61.5 42.2,61.5 57.5,36.1 	"/>
	<polygon class="st0" points="53.2,47.5 52.6,49.6 45.4,61.5 44.8,61.5 	"/>
	<polygon class="st0" points="60.6,36.1 57.6,41.1 57.1,41.1 60.1,36.1 	"/>
	<polygon class="st0" points="50.3,56.7 49.6,58.7 47.9,61.5 47.4,61.5 	"/>
	<polygon class="st0" points="63.2,36.1 60.2,41.1 59.6,41.1 62.6,36.1 	"/>
	<polygon class="st0" points="65.8,36.1 62.8,41.1 62.2,41.1 65.2,36.1 	"/>
	<polygon class="st0" points="68.3,36.1 65.3,41.1 64.8,41.1 67.8,36.1 	"/>
	<polygon class="st0" points="70.9,36.1 67.9,41.1 67.3,41.1 70.3,36.1 	"/>
	<polygon class="st0" points="73.5,36.1 70.5,41.1 69.9,41.1 72.9,36.1 	"/>
	<polygon class="st0" points="76,36.1 73,41.1 72.4,41.1 75.4,36.1 	"/>
	<polygon class="st0" points="78.6,36.1 75.6,41.1 75,41.1 78,36.1 	"/>
	<polygon class="st0" points="81.2,36.1 78.1,41.1 77.6,41.1 80.6,36.1 	"/>
	<polygon class="st0" points="82,38 81.4,40 80.7,41.1 80.1,41.1 	"/>
	<polygon class="st0" points="80,59.4 78.7,61.5 78.1,61.5 79,60.1 	"/>
	<polygon class="st0" points="84.5,56.1 81.3,61.5 80.7,61.5 83.5,56.8 	"/>
	<polygon class="st0" points="89.1,52.8 83.8,61.5 83.2,61.5 88.1,53.5 	"/>
	<polygon class="st0" points="93.6,49.5 86.4,61.5 85.8,61.5 92.6,50.2 	"/>
	<polygon class="st0" points="98.2,46.2 88.9,61.5 88.4,61.5 97.2,46.9 	"/>
	<polygon class="st0" points="102.7,42.9 92.3,60.2 91.3,60.9 101.7,43.6 	"/>
	<polygon class="st0" points="107.3,39.6 96.9,56.9 95.8,57.6 106.2,40.3 	"/>
	<polygon class="st0" points="111.8,36.3 101.4,53.6 100.4,54.3 110.8,37 	"/>
	<polygon class="st0" points="114.5,36.1 106,50.3 104.9,51 113.9,36.1 	"/>
	<polygon class="st0" points="117.1,36.1 110.5,47 109.5,47.7 116.5,36.1 	"/>
	<polygon class="st0" points="119.6,36.1 115,43.7 114,44.5 119.1,36.1 	"/>
	<polygon class="st0" points="122.2,36.1 117.7,43.6 117.4,43.2 121.6,36.1 	"/>
	<polygon class="st0" points="124.8,36.1 119.1,45.5 118.8,45.1 124.2,36.1 	"/>
	<polygon class="st0" points="126.5,37.4 120.5,47.4 120.2,47 126.2,36.9 	"/>
	<polygon class="st0" points="128,39.3 121.9,49.3 121.6,48.9 127.6,38.8 	"/>
	<polygon class="st0" points="129.4,41.2 123.3,51.3 123,50.8 129,40.8 	"/>
	<polygon class="st0" points="130.8,43.1 124.7,53.2 124.4,52.7 130.5,42.7 	"/>
	<polygon class="st0" points="132.2,45 126.1,55.1 125.8,54.7 131.9,44.6 	"/>
	<polygon class="st0" points="133.6,47 127.6,57 127.2,56.6 133.3,46.5 	"/>
	<polygon class="st0" points="135,48.9 129,58.9 128.6,58.5 134.7,48.4 	"/>
	<polygon class="st0" points="136.4,50.8 130.4,60.8 130.1,60.4 136.1,50.3 	"/>
	<polygon class="st0" points="137.8,52.7 132.5,61.5 131.9,61.5 137.5,52.3 	"/>
	<polygon class="st0" points="139.3,54.6 135.1,61.5 134.5,61.5 138.9,54.2 	"/>
	<polygon class="st0" points="140.7,56.5 137.7,61.5 137.1,61.5 140.3,56.1 	"/>
	<polygon class="st0" points="142.1,58.4 140.2,61.5 139.6,61.5 141.8,58 	"/>
	<polygon class="st0" points="143.5,60.4 142.8,61.5 142.2,61.5 143.2,59.9 	"/>
	<polygon class="st0" points="163.2,36.1 162.1,37.8 162.7,36.1 	"/>
	<polygon class="st0" points="165.8,36.1 159.2,47 159.4,46.3 159.9,44.9 165.2,36.1 	"/>
	<polygon class="st0" points="168.3,36.1 156.3,56.2 156.9,54.1 167.8,36.1 	"/>
	<polygon class="st0" points="170.9,36.1 155.6,61.5 155,61.5 170.3,36.1 	"/>
	<polygon class="st0" points="173.5,36.1 158.2,61.5 157.6,61.5 172.9,36.1 	"/>
	<polygon class="st0" points="176,36.1 160.7,61.5 160.1,61.5 175.5,36.1 	"/>
	<polygon class="st0" points="174.1,42.7 173.4,44.7 163.3,61.5 162.7,61.5 	"/>
	<polygon class="st0" points="165.3,61.5 171.1,51.8 170.4,53.9 165.9,61.5 	"/>
	<polygon class="st0" points="175,46.3 172,51.3 171.4,51.3 174.4,46.3 	"/>
	<line class="st0" x1="168.2" y1="61" x2="168" y2="61.5"/>
	<polygon class="st0" points="177.6,46.3 174.6,51.3 174,51.3 177,46.3 	"/>
	<polygon class="st0" points="180.1,46.3 177.1,51.3 176.5,51.3 179.6,46.3 	"/>
	<polygon class="st0" points="182.7,46.3 179.7,51.3 179.1,51.3 182.1,46.3 	"/>
	<polygon class="st0" points="185.3,46.3 182.3,51.3 181.7,51.3 184.7,46.3 	"/>
	<polygon class="st0" points="187.8,46.3 184.8,51.3 184.2,51.3 187.2,46.3 	"/>
	<polygon class="st0" points="190.4,46.3 187.4,51.3 186.8,51.3 189.8,46.3 	"/>
	<polygon class="st0" points="193,46.3 189.9,51.3 189.4,51.3 192.4,46.3 	"/>
	<polygon class="st0" points="195.5,46.3 192.5,51.3 191.9,51.3 194.9,46.3 	"/>
	<polygon class="st0" points="198.1,46.3 195.1,51.3 194.5,51.3 197.5,46.3 	"/>
	<polygon class="st0" points="201.6,44.7 197.6,51.3 197.1,51.3 200.5,45.6 	"/>
	<polygon class="st0" points="206.5,40.8 199.1,53.1 198.8,52.6 205.4,41.7 	"/>
	<polygon class="st0" points="211.4,36.9 200.4,55.2 200.1,54.7 210.3,37.8 	"/>
	<polygon class="st0" points="214.5,36.1 201.7,57.3 201.4,56.8 213.9,36.1 	"/>
	<polygon class="st0" points="217,36.1 203,59.4 202.7,59 216.5,36.1 	"/>
	<polygon class="st0" points="212.2,48.3 211.6,48.8 211.8,49.1 204.3,61.5 204,61.1 219,36.1 219.6,36.1 	"/>
	<polygon class="st0" points="213.1,51.2 206.9,61.5 206.3,61.5 212.8,50.7 	"/>
	<polygon class="st0" points="222.2,36.1 217.1,44.4 216,45.3 221.6,36.1 	"/>
	<polygon class="st0" points="214.4,53.3 209.4,61.5 208.8,61.5 214.1,52.8 	"/>
	<polygon class="st0" points="224.7,36.1 222,40.5 220.9,41.4 224.2,36.1 	"/>
	<polygon class="st0" points="215.7,55.4 212,61.5 211.4,61.5 215.4,54.9 	"/>
	<polygon class="st0" points="227.3,36.1 226.9,36.7 225.8,37.5 226.7,36.1 	"/>
	<polygon class="st0" points="217,57.5 214.6,61.5 214,61.5 216.7,57 	"/>
	<polygon class="st0" points="218.3,59.6 217.1,61.5 216.5,61.5 218,59.1 	"/>
	<polygon class="st0" points="219.5,61.5 219.1,61.5 219.3,61.2 	"/>
	<path class="st0" d="M241,38.9l-4.1,6.9l0.3-1.1c0-0.2,0.1-0.4,0.2-0.6c0-0.1,0.1-0.3,0.1-0.4l2.1-3.5
		C240,39.7,240.5,39.3,241,38.9z"/>
	<path class="st0" d="M244.9,36.6L234,54.7c0.1-0.4,0.2-0.8,0.3-1.1c0.1-0.2,0.1-0.4,0.2-0.6v-0.2l9.5-15.9
		C244.4,36.8,244.6,36.7,244.9,36.6z"/>
	<path class="st0" d="M247.8,36.1l-13.4,22.3c-0.1-0.2-0.2-0.4-0.2-0.6l13-21.6C247.4,36.1,247.6,36.1,247.8,36.1z"/>
	<path class="st0" d="M250.3,36.1l-14.5,24.2c-0.1-0.1-0.3-0.2-0.4-0.3l14.3-23.8L250.3,36.1L250.3,36.1z"/>
	<path class="st0" d="M252.9,36.1l-15.1,25.2c-0.2,0-0.3-0.1-0.5-0.2l15-25H252.9z"/>
	<polygon class="st0" points="255.5,36.1 240.2,61.5 239.6,61.5 254.9,36.1 	"/>
	<path class="st0" d="M248.8,50.6l-0.3,0.8c0,0.1-0.1,0.2-0.1,0.3c-0.1,0.3-0.1,0.5-0.2,0.8l-5.4,9.1h-0.6L248.8,50.6z"/>
	<path class="st0" d="M258,36.1l-3.2,5.3c-0.3,0.1-0.5,0.2-0.8,0.3l3.4-5.6H258L258,36.1z"/>
	<path class="st0" d="M249,55.5l-3.7,6.1h-0.6l3.9-6.5C248.7,55.2,248.8,55.3,249,55.5z"/>
	<polygon class="st0" points="260.6,36.1 257.6,41.1 257,41.1 260,36.1 	"/>
	<path class="st0" d="M250.9,56.5l-3,5.1h-0.6l3.1-5.2C250.6,56.4,250.8,56.4,250.9,56.5z"/>
	<polygon class="st0" points="257,46.3 254,51.3 253.4,51.3 256.4,46.3 	"/>
	<polygon class="st0" points="263.2,36.1 260.2,41.1 259.6,41.1 262.6,36.1 	"/>
	<polygon class="st0" points="253.5,56.5 250.4,61.5 249.9,61.5 252.9,56.5 	"/>
	<polygon class="st0" points="259.6,46.3 256.6,51.3 256,51.3 259,46.3 	"/>
	<polygon class="st0" points="265.7,36.1 262.7,41.1 262.1,41.1 265.1,36.1 	"/>
	<polygon class="st0" points="256,56.5 253,61.5 252.4,61.5 255.4,56.5 	"/>
	<polygon class="st0" points="262.1,46.3 259.1,51.3 258.6,51.3 261.6,46.3 	"/>
	<polygon class="st0" points="268.3,36.1 265.3,41.1 264.7,41.1 267.7,36.1 	"/>
	<polygon class="st0" points="258.6,56.5 255.6,61.5 255,61.5 258,56.5 	"/>
	<polygon class="st0" points="264.7,46.3 261.7,51.3 261.1,51.3 264.1,46.3 	"/>
	<polygon class="st0" points="270.8,36.1 267.8,41.1 267.3,41.1 270.3,36.1 	"/>
	<polygon class="st0" points="261.1,56.5 258.1,61.5 257.6,61.5 260.6,56.5 	"/>
	<polygon class="st0" points="267.3,46.3 264.3,51.3 263.7,51.3 266.7,46.3 	"/>
	<polygon class="st0" points="273.4,36.1 270.4,41.1 269.8,41.1 272.8,36.1 	"/>
	<polygon class="st0" points="263.7,56.5 260.7,61.5 260.1,61.5 263.1,56.5 	"/>
	<polygon class="st0" points="269.8,46.3 266.8,51.3 266.2,51.3 269.2,46.3 	"/>
	<polygon class="st0" points="276,36.1 273,41.1 272.4,41.1 275.4,36.1 	"/>
	<polygon class="st0" points="266.3,56.5 263.3,61.5 262.7,61.5 265.7,56.5 	"/>
	<polygon class="st0" points="272.4,46.3 269.4,51.3 268.8,51.3 271.8,46.3 	"/>
	<polygon class="st0" points="278.5,36.1 275.5,41.1 275,41.1 278,36.1 	"/>
	<polygon class="st0" points="268.8,56.5 265.8,61.5 265.2,61.5 268.2,56.5 	"/>
	<polygon class="st0" points="275,46.3 272,51.3 271.4,51.3 274.4,46.3 	"/>
	<polygon class="st0" points="281.1,36.1 278.1,41.1 277.5,41.1 280.5,36.1 	"/>
	<polygon class="st0" points="271.4,56.5 268.4,61.5 267.8,61.5 270.8,56.5 	"/>
	<polygon class="st0" points="277.5,46.3 274.5,51.3 273.9,51.3 276.9,46.3 	"/>
	<polygon class="st0" points="283.7,36.1 280.7,41.1 280.1,41.1 283.1,36.1 	"/>
	<polygon class="st0" points="274,56.5 271,61.5 270.4,61.5 273.4,56.5 	"/>
	<polygon class="st0" points="280.1,46.3 277.1,51.3 276.5,51.3 279.5,46.3 	"/>
	<polygon class="st0" points="286.2,36.1 283.2,41.1 282.6,41.1 285.6,36.1 	"/>
	<polygon class="st0" points="276.5,56.5 273.5,61.5 272.9,61.5 275.9,56.5 	"/>
	<polygon class="st0" points="282.6,46.3 279.6,51.3 279.1,51.3 282.1,46.3 	"/>
	<polygon class="st0" points="288.8,36.1 285.8,41.1 285.2,41.1 288.2,36.1 	"/>
	<polygon class="st0" points="279.1,56.5 276.1,61.5 275.5,61.5 278.5,56.5 	"/>
	<polygon class="st0" points="285.2,46.3 282.2,51.3 281.6,51.3 284.6,46.3 	"/>
	<polygon class="st0" points="291.4,36.1 288.4,41.1 287.8,41.1 290.8,36.1 	"/>
	<polygon class="st0" points="281.6,56.5 278.6,61.5 278.1,61.5 281.1,56.5 	"/>
	<polygon class="st0" points="287.8,46.3 284.8,51.3 284.2,51.3 287.2,46.3 	"/>
	<polygon class="st0" points="293.9,36.1 290.9,41.1 290.3,41.1 293.3,36.1 	"/>
	<polygon class="st0" points="284.2,56.5 281.2,61.5 280.6,61.5 283.6,56.5 	"/>
	<polygon class="st0" points="290.3,46.3 287.3,51.3 286.7,51.3 289.8,46.3 	"/>
	<polygon class="st0" points="296.5,36.1 293.5,41.1 292.9,41.1 295.9,36.1 	"/>
	<polygon class="st0" points="286.8,56.5 283.8,61.5 283.2,61.5 286.2,56.5 	"/>
	<polygon class="st0" points="292.9,46.3 289.9,51.3 289.3,51.3 292.3,46.3 	"/>
	<polygon class="st0" points="299,36.1 296,41.1 295.5,41.1 298.5,36.1 	"/>
	<polygon class="st0" points="289.3,56.5 286.3,61.5 285.8,61.5 288.8,56.5 	"/>
	<polygon class="st0" points="295.5,46.3 292.5,51.3 291.9,51.3 294.9,46.3 	"/>
	<polygon class="st0" points="301.6,36.1 298.6,41.1 298,41.1 301,36.1 	"/>
	<polygon class="st0" points="291.9,56.5 288.9,61.5 288.3,61.5 291.3,56.5 	"/>
	<polygon class="st0" points="304.2,36.1 301.2,41.1 300.6,41.1 303.6,36.1 	"/>
	<polygon class="st0" points="294.5,56.5 291.5,61.5 290.9,61.5 293.9,56.5 	"/>
	<polygon class="st0" points="297,56.5 294,61.5 293.4,61.5 296.4,56.5 	"/>
	<polygon class="st0" points="119.9,81.5 119.3,82.6 119.6,81.5 	"/>
	<polygon class="st0" points="122.5,81.5 116.3,91.8 117,89.7 121.9,81.5 	"/>
	<polygon class="st0" points="125.1,81.5 113.4,100.9 114.1,98.8 124.5,81.5 	"/>
	<polygon class="st0" points="127.6,81.5 112.4,106.9 111.8,106.9 127,81.5 	"/>
	<polygon class="st0" points="130.2,81.5 114.9,106.9 114.3,106.9 129.6,81.5 	"/>
	<polygon class="st0" points="132.8,81.5 117.5,106.9 116.9,106.9 132.2,81.5 	"/>
	<polygon class="st0" points="131.2,87.4 130.5,89.5 120,106.9 119.5,106.9 	"/>
	<polygon class="st0" points="128.2,96.6 127.6,98.6 127.6,98.6 122.6,106.9 122,106.9 	"/>
	<polygon class="st0" points="125.3,105.7 124.9,106.9 124.6,106.9 	"/>
	<polygon class="st0" points="148.1,81.5 145.1,86.5 144.6,86.5 147.6,81.5 	"/>
	<polygon class="st0" points="150.7,81.5 147.7,86.5 147.1,86.5 150.1,81.5 	"/>
	<polygon class="st0" points="153.3,81.5 150.3,86.5 149.7,86.5 152.7,81.5 	"/>
	<polygon class="st0" points="155.8,81.5 152.8,86.5 152.2,86.5 155.2,81.5 	"/>
	<polygon class="st0" points="158.4,81.5 155.4,86.5 154.8,86.5 157.8,81.5 	"/>
	<polygon class="st0" points="161,81.5 158,86.5 157.4,86.5 160.4,81.5 	"/>
	<polygon class="st0" points="163.5,81.5 160.5,86.5 159.9,86.5 162.9,81.5 	"/>
	<polygon class="st0" points="166.1,81.5 163.1,86.5 162.5,86.5 165.5,81.5 	"/>
	<polygon class="st0" points="168.6,81.5 165.6,86.5 165.1,86.5 168.1,81.5 	"/>
	<polygon class="st0" points="171.2,81.5 168.2,86.5 167.6,86.5 170.6,81.5 	"/>
	<polygon class="st0" points="173.8,81.5 166.1,94.2 166.8,92.1 173.2,81.5 	"/>
	<polygon class="st0" points="176.3,81.5 163.2,103.4 163.9,101.3 175.8,81.5 	"/>
	<polygon class="st0" points="178.9,81.5 163.6,106.9 163,106.9 178.3,81.5 	"/>
	<polygon class="st0" points="181.5,81.5 166.2,106.9 165.6,106.9 180.9,81.5 	"/>
	<polygon class="st0" points="184,81.5 168.8,106.9 168.2,106.9 183.4,81.5 	"/>
	<polygon class="st0" points="170.7,106.9 181,89.8 180.3,91.9 180.3,91.9 171.3,106.9 	"/>
	<polygon class="st0" points="186.6,81.5 183.6,86.5 183,86.5 186,81.5 	"/>
	<polygon class="st0" points="173.3,106.9 178.1,99 177.4,101.1 177.4,101.1 173.9,106.9 	"/>
	<polygon class="st0" points="189.2,81.5 186.1,86.5 185.6,86.5 188.6,81.5 	"/>
	<polygon class="st0" points="191.7,81.5 188.7,86.5 188.1,86.5 191.1,81.5 	"/>
	<polygon class="st0" points="194.3,81.5 191.3,86.5 190.7,86.5 193.7,81.5 	"/>
	<polygon class="st0" points="196.8,81.5 193.8,86.5 193.3,86.5 196.3,81.5 	"/>
	<polygon class="st0" points="199.4,81.5 196.4,86.5 195.8,86.5 198.8,81.5 	"/>
	<polygon class="st0" points="202,81.5 199,86.5 198.4,86.5 201.4,81.5 	"/>
	<polygon class="st0" points="204.5,81.5 201.5,86.5 201,86.5 204,81.5 	"/>
	<polygon class="st0" points="207.1,81.5 204.1,86.5 203.5,86.5 206.5,81.5 	"/>
	<polygon class="st0" points="209.4,81.5 209.1,82.3 209.1,82.4 209.1,82.4 206.7,86.5 206.1,86.5 209.1,81.5 	"/>
	<rect x="61.8" y="1.6" class="st0" width="0.8" height="11.2"/>
	<polygon class="st0" points="72.2,1.6 72.2,2.4 66.8,2.4 66.8,6.8 72.2,6.8 72.2,7.6 66.8,7.6 66.8,12.8 66,12.8 66,1.6 	"/>
	<polygon class="st0" points="87.5,1.6 87.5,2.4 83.7,2.4 83.7,12.8 82.9,12.8 82.9,2.4 79.1,2.4 79.1,1.6 	"/>
	<polygon class="st0" points="97.7,12.8 96.9,12.8 96.9,7.6 90.5,7.6 90.5,12.8 89.7,12.8 89.7,1.6 90.5,1.6 90.5,6.8 96.9,6.8 
		96.9,1.6 97.7,1.6 	"/>
	<polygon class="st0" points="107.3,1.6 107.3,2.4 101.9,2.4 101.9,6.8 107.3,6.8 107.3,7.6 101.9,7.6 101.9,12 107.3,12 
		107.3,12.8 101.1,12.8 101.1,1.6 	"/>
	<path class="st0" d="M113.6,7.6l3.6,5.2h-0.9l-4.1-6h2.8c1.2,0,2.1-1,2.1-2.2s-1-2.2-2.2-2.2h-3.8v10.4h-0.8V1.6h4.6
		c1.7,0,3,1.3,3,3s-1.3,2.9-3,2.9L113.6,7.6L113.6,7.6z"/>
	<polygon class="st0" points="126.8,1.6 126.8,2.4 121.4,2.4 121.4,6.8 126.8,6.8 126.8,7.6 121.4,7.6 121.4,12 126.8,12 
		126.8,12.8 120.6,12.8 120.6,1.6 	"/>
	<polygon class="st0" points="129.4,4.8 130.3,1.6 131.4,1.6 129.9,4.8 	"/>
	<path class="st0" d="M139.3,4.2c0-1.2-0.8-2-2.1-2c-1.2,0-2.1,0.8-2.1,1.9c0,1.4,1.2,2,2.5,2.6c1.9,0.8,3,1.6,3,3.4
		c0,2-1.6,3-3.4,3c-1.9,0-3.3-1.2-3.3-3h0.8c0,1.3,1.1,2.2,2.5,2.2s2.5-0.8,2.5-2.2s-0.9-2-2.5-2.7c-1.5-0.7-2.9-1.4-2.9-3.3
		c0-1.6,1.2-2.7,2.9-2.7c1.8,0,3,1,3,2.7L139.3,4.2L139.3,4.2z"/>
	<polygon class="st0" points="149.7,8.9 148.2,12.8 147.3,12.8 151.9,1.6 152.7,1.6 157.2,12.8 156.4,12.8 152.2,2.7 150,8.2 
		153,8.2 153.3,8.9 	"/>
	<path class="st0" d="M169.1,7.1c1,0.5,1.8,1.5,1.8,2.7c0,1.6-1.3,3-3,3h-3.4V1.6h3c1.7,0,3,1.3,3,3C170.5,5.7,170,6.6,169.1,7.1z
		 M165.3,2.4v4.4h2.3c1.1,0,2.1-1,2.1-2.2s-1-2.2-2.2-2.2C167.5,2.4,165.3,2.4,165.3,2.4z M165.3,7.6V12h2.6c1.2,0,2.2-1,2.2-2.2
		s-1-2.2-2.2-2.2C167.9,7.6,165.3,7.6,165.3,7.6z"/>
	<polygon class="st0" points="179.9,1.6 179.9,2.4 174.4,2.4 174.4,6.8 179.9,6.8 179.9,7.6 174.4,7.6 174.4,12 179.9,12 
		179.9,12.8 173.6,12.8 173.6,1.6 	"/>
	<polygon class="st0" points="190,1.6 190,2.4 186.2,2.4 186.2,12.8 185.4,12.8 185.4,2.4 181.6,2.4 181.6,1.6 	"/>
	<polygon class="st0" points="200.6,1.6 200.6,2.4 196.8,2.4 196.8,12.8 196,12.8 196,2.4 192.2,2.4 192.2,1.6 	"/>
	<polygon class="st0" points="209,1.6 209,2.4 203.5,2.4 203.5,6.8 209,6.8 209,7.6 203.5,7.6 203.5,12 209,12 209,12.8 202.7,12.8 
		202.7,1.6 	"/>
	<path class="st0" d="M215.3,7.6l3.6,5.2H218l-4.1-6h2.8c1.2,0,2.1-1,2.1-2.2s-1-2.2-2.2-2.2h-3.8v10.4H212V1.6h4.6c1.7,0,3,1.3,3,3
		s-1.3,2.9-3,2.9L215.3,7.6L215.3,7.6z"/>
	<polygon class="st0" points="240.9,1.6 241.7,1.6 238,12.8 237.2,12.8 233.9,2.9 230.7,12.8 229.8,12.8 226.1,1.6 227,1.6 
		230.3,11.7 233.5,1.6 234.3,1.6 237.6,11.7 	"/>
	<polygon class="st0" points="243.6,8.9 242,12.8 241.2,12.8 245.8,1.6 246.5,1.6 251.1,12.8 250.3,12.8 246.1,2.7 243.9,8.2 
		246.9,8.2 247.2,8.9 	"/>
	<polygon class="st0" points="255.4,7.4 255.4,12.8 254.6,12.8 254.6,7.4 250,1.6 251,1.6 255,6.6 258.9,1.6 259.9,1.6 	"/>
</g>
</svg>
