<?xml version="1.0" encoding="utf-8"?>
<!-- Generator: Adobe Illustrator 19.2.0, SVG Export Plug-In . SVG Version: 6.00 Build 0)  -->
<svg version="1.1" id="Layer_1" xmlns="http://www.w3.org/2000/svg" xmlns:xlink="http://www.w3.org/1999/xlink" x="0px" y="0px"
	 viewBox="0 0 1400 138.7" style="enable-background:new 0 0 1400 138.7;" xml:space="preserve">
<style type="text/css">
	.st0{fill:#FFFFFF;}
</style>
<g>
	<polygon class="st0" points="134.7,68.2 126.4,82.1 128,82.1 136.3,68.2 	"/>
	<polygon class="st0" points="143.4,68.2 135.1,82.1 133.5,82.1 141.8,68.2 	"/>
	<polygon class="st0" points="150.5,68.2 142.2,82.1 140.6,82.1 148.9,68.2 	"/>
	<polygon class="st0" points="157.6,68.2 149.3,82.1 147.7,82.1 156,68.2 	"/>
	<polygon class="st0" points="164.8,68.2 156.4,82.1 154.8,82.1 163.1,68.2 	"/>
	<polygon class="st0" points="171.9,68.2 163.5,82.1 161.9,82.1 170.2,68.2 	"/>
	<polygon class="st0" points="179,68.2 170.6,82.1 169,82.1 177.3,68.2 	"/>
	<polygon class="st0" points="186.1,68.2 177.7,82.1 176.1,82.1 184.4,68.2 	"/>
	<polygon class="st0" points="193.2,68.2 184.8,82.1 183.2,82.1 191.6,68.2 	"/>
	<polygon class="st0" points="200.3,68.2 191.9,82.1 190.3,82.1 198.7,68.2 	"/>
	<polygon class="st0" points="207.4,68.2 191.7,94.2 193.6,88.5 193.6,88.5 205.8,68.2 	"/>
	<polygon class="st0" points="214.5,68.2 183.6,119.7 185.4,113.9 212.9,68.2 	"/>
	<polygon class="st0" points="221.6,68.2 179.2,138.7 177.6,138.7 220,68.2 	"/>
	<polygon class="st0" points="228.7,68.2 186.4,138.7 184.7,138.7 227.1,68.2 	"/>
	<polygon class="st0" points="235.8,68.2 193.5,138.7 191.8,138.7 234.2,68.2 	"/>
	<polygon class="st0" points="232.9,82.2 231,88 231,88 200.6,138.7 198.9,138.7 	"/>
	<polygon class="st0" points="242.9,68.2 234.6,82.1 232.9,82.1 241.3,68.2 	"/>
	<polygon class="st0" points="224.7,107.6 222.9,113.3 222.9,113.3 207.7,138.7 206.1,138.7 	"/>
	<polygon class="st0" points="250,68.2 241.7,82.1 240.1,82.1 248.4,68.2 	"/>
	<polygon class="st0" points="213.2,138.7 216.6,133 214.7,138.7 	"/>
	<polygon class="st0" points="257.1,68.2 248.8,82.1 247.2,82.1 255.5,68.2 	"/>
	<polygon class="st0" points="264.2,68.2 255.9,82.1 254.3,82.1 262.6,68.2 	"/>
	<polygon class="st0" points="271.3,68.2 263,82.1 261.4,82.1 269.7,68.2 	"/>
	<polygon class="st0" points="278.4,68.2 270.1,82.1 268.5,82.1 276.8,68.2 	"/>
	<polygon class="st0" points="285.5,68.2 277.2,82.1 275.6,82.1 283.9,68.2 	"/>
	<polygon class="st0" points="292.6,68.2 284.3,82.1 282.7,82.1 291,68.2 	"/>
	<polygon class="st0" points="299.7,68.2 291.4,82.1 289.8,82.1 298.1,68.2 	"/>
	<polygon class="st0" points="306.8,68.2 298.5,82.1 296.9,82.1 305.2,68.2 	"/>
	<polygon class="st0" points="305.3,129.8 300,138.7 298.4,138.7 302.4,131.9 	"/>
	<polygon class="st0" points="317.9,120.7 307.1,138.7 305.5,138.7 315,122.8 	"/>
	<polygon class="st0" points="330.5,111.6 314.2,138.7 312.6,138.7 327.6,113.6 	"/>
	<polygon class="st0" points="343.1,102.4 321.3,138.7 319.7,138.7 340.2,104.5 	"/>
	<polygon class="st0" points="355.7,93.3 328.4,138.7 326.8,138.7 352.8,95.4 	"/>
	<polygon class="st0" points="368.2,84.2 339.5,132.1 336.6,134.2 365.4,86.3 	"/>
	<polygon class="st0" points="380.8,75.1 352,123 349.2,125 378,77.1 	"/>
	<polygon class="st0" points="392.1,68.1 364.6,113.8 361.8,115.9 390.5,68.1 	"/>
	<polygon class="st0" points="399.2,68.1 377.2,104.7 374.4,106.8 397.6,68.1 	"/>
	<polygon class="st0" points="406.3,68.1 389.8,95.6 387,97.6 404.7,68.1 	"/>
	<polygon class="st0" points="413.4,68.1 402.4,86.5 399.5,88.5 411.8,68.1 	"/>
	<polygon class="st0" points="420.5,68.1 407,90.6 406.1,89.4 418.9,68.1 	"/>
	<polygon class="st0" points="427.6,68.1 410.9,95.9 410,94.7 426,68.1 	"/>
	<polygon class="st0" points="431.6,73.3 414.8,101.2 413.9,100 430.7,72.1 	"/>
	<polygon class="st0" points="435.5,78.6 418.8,106.5 417.9,105.3 434.6,77.4 	"/>
	<polygon class="st0" points="439.4,84 422.7,111.8 421.8,110.6 438.5,82.8 	"/>
	<polygon class="st0" points="443.3,89.3 426.6,117.1 425.7,115.9 442.4,88.1 	"/>
	<polygon class="st0" points="447.2,94.6 430.5,122.5 429.6,121.3 446.4,93.4 	"/>
	<polygon class="st0" points="451.1,99.9 434.4,127.8 433.5,126.6 450.3,98.7 	"/>
	<polygon class="st0" points="455.1,105.2 438.3,133.1 437.4,131.9 454.2,104 	"/>
	<polygon class="st0" points="459,110.5 442.2,138.4 441.3,137.2 458.1,109.3 	"/>
	<polygon class="st0" points="462.9,115.8 449.1,138.7 447.5,138.7 462,114.6 	"/>
	<polygon class="st0" points="466.8,121.1 456.3,138.7 454.6,138.7 465.9,119.9 	"/>
	<polygon class="st0" points="470.7,126.5 463.4,138.7 461.7,138.7 469.8,125.2 	"/>
	<polygon class="st0" points="474.6,131.8 470.5,138.7 468.9,138.7 473.7,130.6 	"/>
	<polygon class="st0" points="478.5,137.1 477.6,138.7 476,138.7 477.6,135.9 	"/>
	<polygon class="st0" points="534.2,68.1 526.5,80.8 528.4,75.1 532.6,68.1 	"/>
	<polygon class="st0" points="541.3,68.1 518.4,106.2 520.2,100.4 539.7,68.1 	"/>
	<polygon class="st0" points="548.4,68.1 510.2,131.6 512.1,125.9 546.8,68.1 	"/>
	<polygon class="st0" points="555.5,68.1 513.1,138.7 511.5,138.7 553.9,68.1 	"/>
	<polygon class="st0" points="562.6,68.1 520.2,138.7 518.6,138.7 561,68.1 	"/>
	<polygon class="st0" points="567.7,68.7 565.8,74.5 527.3,138.7 525.7,138.7 	"/>
	<polygon class="st0" points="559.8,96.5 534.4,138.7 532.8,138.7 559.5,94.2 558.8,96.5 	"/>
	<polygon class="st0" points="539.9,138.7 551.4,119.5 549.5,125.3 541.5,138.7 	"/>
	<polygon class="st0" points="566.9,96.5 558.5,110.3 556.9,110.3 565.2,96.5 	"/>
	<polygon class="st0" points="574,96.5 565.6,110.3 564,110.3 572.4,96.5 	"/>
	<polygon class="st0" points="581.1,96.5 572.7,110.3 571.1,110.3 579.4,96.5 	"/>
	<polygon class="st0" points="588.2,96.5 579.8,110.3 578.2,110.3 586.6,96.5 	"/>
	<polygon class="st0" points="595.3,96.5 586.9,110.3 585.3,110.3 593.7,96.5 	"/>
	<polygon class="st0" points="602.4,96.5 594,110.3 592.4,110.3 600.8,96.5 	"/>
	<polygon class="st0" points="609.5,96.5 601.1,110.3 599.5,110.3 607.9,96.5 	"/>
	<polygon class="st0" points="616.6,96.5 608.3,110.3 606.6,110.3 615,96.5 	"/>
	<polygon class="st0" points="623.7,96.5 615.3,110.3 613.7,110.3 622.1,96.5 	"/>
	<polygon class="st0" points="630.8,96.5 622.5,110.3 620.8,110.3 629.2,96.5 	"/>
	<polygon class="st0" points="642.5,88.7 629,111.3 628.3,110.3 627.9,110.3 639.4,91.2 	"/>
	<polygon class="st0" points="656.1,77.9 632.6,117.1 631.7,115.8 653,80.4 	"/>
	<polygon class="st0" points="669.1,68.1 636.2,123 635.3,121.6 666.6,69.6 668.5,68.1 	"/>
	<polygon class="st0" points="676.2,68.1 639.8,128.8 638.9,127.5 674.6,68.1 	"/>
	<polygon class="st0" points="683.3,68.1 643.4,134.6 642.5,133.3 681.7,68.1 	"/>
	<polygon class="st0" points="667.7,105.9 648,138.7 646.4,138.7 666.9,104.6 	"/>
	<polygon class="st0" points="690.4,68.1 672,98.7 669,101.2 688.8,68.1 	"/>
	<polygon class="st0" points="671.3,111.7 655.1,138.7 653.5,138.7 670.5,110.4 	"/>
	<polygon class="st0" points="697.5,68.1 685.6,88 682.5,90.4 695.9,68.1 	"/>
	<polygon class="st0" points="674.9,117.6 662.2,138.7 660.6,138.7 674.1,116.2 	"/>
	<polygon class="st0" points="704.6,68.1 699.2,77.2 696.1,79.6 703,68.1 	"/>
	<polygon class="st0" points="678.5,123.4 669.3,138.7 667.7,138.7 677.7,122.1 	"/>
	<polygon class="st0" points="682.1,129.2 676.4,138.7 674.8,138.7 681.3,127.9 	"/>
	<polygon class="st0" points="685.7,135 683.5,138.7 681.9,138.7 684.9,133.7 	"/>
	<path class="st0" d="M751.4,73l-17.9,29.7l1.8-5.8l13.2-22C749.5,74.2,750.5,73.6,751.4,73z"/>
	<path class="st0" d="M761,68.9l-33.1,55c0-1,0-2,0.1-2.9l31-51.6C759.7,69.2,760.3,69.1,761,68.9z"/>
	<path class="st0" d="M768.5,68.2l-38.2,63.6c-0.3-0.4-0.5-0.9-0.8-1.4l37.4-62.2H768.5z"/>
	<path class="st0" d="M775.6,68.2l-40.9,68c-0.4-0.2-0.8-0.5-1.1-0.8L774,68.3L775.6,68.2L775.6,68.2z"/>
	<path class="st0" d="M782.7,68.2l-42.2,70.2c-0.5-0.1-0.9-0.2-1.4-0.3l42-69.9L782.7,68.2z"/>
	<path class="st0" d="M789.8,68.2l-11.7,19.5c-2,1.9-3.6,4.2-4.6,6.7l0,0l-0.1,0.2c-0.1,0.3-0.2,0.6-0.3,0.8
		c-0.1,0.3-0.2,0.6-0.2,0.9v0.1l-25.4,42.2h-1.6l42.3-70.4L789.8,68.2L789.8,68.2z"/>
	<path class="st0" d="M767.4,117.3l-12.9,21.4h-1.6l14.4-23.9C767.2,115.6,767.3,116.4,767.4,117.3z"/>
	<path class="st0" d="M796.9,68.2l-8.4,14c-0.6,0.1-1.2,0.2-1.8,0.4l8.7-14.5L796.9,68.2L796.9,68.2z"/>
	<path class="st0" d="M771,123.1l-9.4,15.6H760l9.9-16.5C770.3,122.5,770.7,122.8,771,123.1z"/>
	<polygon class="st0" points="786.2,96.6 787,96.6 785.3,99.4 	"/>
	<polygon class="st0" points="804,68.2 795.7,82.1 794.1,82.1 802.4,68.2 	"/>
	<path class="st0" d="M777.1,124.8l-8.3,13.8h-1.6l8.4-13.9C776.1,124.7,776.6,124.7,777.1,124.8L777.1,124.8L777.1,124.8z"/>
	<polygon class="st0" points="794.1,96.6 785.7,110.4 784.1,110.4 792.4,96.6 	"/>
	<polygon class="st0" points="811.1,68.2 802.8,82.1 801.2,82.1 809.5,68.2 	"/>
	<polygon class="st0" points="784.2,124.8 775.9,138.7 774.3,138.7 782.6,124.8 	"/>
	<polygon class="st0" points="801.2,96.6 792.8,110.4 791.2,110.4 799.6,96.6 	"/>
	<polygon class="st0" points="818.2,68.2 809.9,82.1 808.3,82.1 816.6,68.2 	"/>
	<polygon class="st0" points="791.3,124.8 783,138.7 781.4,138.7 789.7,124.8 	"/>
	<polygon class="st0" points="808.3,96.6 799.9,110.4 798.3,110.4 806.7,96.6 	"/>
	<polygon class="st0" points="825.3,68.2 817,82.1 815.4,82.1 823.7,68.2 	"/>
	<polygon class="st0" points="798.4,124.8 790.1,138.7 788.5,138.7 796.8,124.8 	"/>
	<polygon class="st0" points="815.4,96.6 807,110.4 805.4,110.4 813.8,96.6 	"/>
	<polygon class="st0" points="832.4,68.2 824.1,82.1 822.5,82.1 830.8,68.2 	"/>
	<polygon class="st0" points="805.5,124.8 797.2,138.7 795.6,138.7 803.9,124.8 	"/>
	<polygon class="st0" points="822.5,96.6 814.1,110.4 812.5,110.4 820.9,96.6 	"/>
	<polygon class="st0" points="839.5,68.2 831.2,82.1 829.6,82.1 837.9,68.2 	"/>
	<polygon class="st0" points="812.6,124.8 804.3,138.7 802.7,138.7 811,124.8 	"/>
	<polygon class="st0" points="829.6,96.6 821.3,110.4 819.6,110.4 828,96.6 	"/>
	<polygon class="st0" points="846.6,68.2 838.3,82.1 836.7,82.1 845,68.2 	"/>
	<polygon class="st0" points="819.7,124.8 811.4,138.7 809.8,138.7 818.1,124.8 	"/>
	<polygon class="st0" points="836.7,96.6 828.4,110.4 826.7,110.4 835.1,96.6 	"/>
	<polygon class="st0" points="853.7,68.2 845.4,82.1 843.8,82.1 852.1,68.2 	"/>
	<polygon class="st0" points="826.8,124.8 818.5,138.7 816.9,138.7 825.2,124.8 	"/>
	<polygon class="st0" points="843.8,96.6 835.5,110.4 833.8,110.4 842.2,96.6 	"/>
	<polygon class="st0" points="860.8,68.2 852.5,82.1 850.9,82.1 859.2,68.2 	"/>
	<polygon class="st0" points="833.9,124.8 825.6,138.7 824,138.7 832.3,124.8 	"/>
	<polygon class="st0" points="850.9,96.6 842.6,110.4 840.9,110.4 849.3,96.6 	"/>
	<polygon class="st0" points="867.9,68.2 859.6,82.1 858,82.1 866.3,68.2 	"/>
	<polygon class="st0" points="841,124.8 832.7,138.7 831.1,138.7 839.4,124.8 	"/>
	<polygon class="st0" points="858,96.6 849.7,110.4 848.1,110.4 856.4,96.6 	"/>
	<polygon class="st0" points="875,68.2 866.7,82.1 865.1,82.1 873.4,68.2 	"/>
	<polygon class="st0" points="848.1,124.8 839.8,138.7 838.2,138.7 846.5,124.8 	"/>
	<polygon class="st0" points="865.1,96.6 856.8,110.4 855.2,110.4 863.5,96.6 	"/>
	<polygon class="st0" points="882.1,68.2 873.8,82.1 872.2,82.1 880.5,68.2 	"/>
	<polygon class="st0" points="855.2,124.8 846.9,138.7 845.3,138.7 853.6,124.8 	"/>
	<polygon class="st0" points="872.2,96.6 863.9,110.4 862.3,110.4 870.6,96.6 	"/>
	<polygon class="st0" points="889.2,68.2 880.9,82.1 879.3,82.1 887.6,68.2 	"/>
	<polygon class="st0" points="862.3,124.8 854,138.7 852.4,138.7 860.7,124.8 	"/>
	<polygon class="st0" points="879.3,96.6 871,110.4 869.4,110.4 877.7,96.6 	"/>
	<polygon class="st0" points="896.3,68.2 888,82.1 886.4,82.1 894.7,68.2 	"/>
	<polygon class="st0" points="869.4,124.8 861.1,138.7 859.5,138.7 867.8,124.8 	"/>
	<polygon class="st0" points="886.4,96.6 878.1,110.4 876.5,110.4 884.8,96.6 	"/>
	<polygon class="st0" points="903.4,68.2 895.1,82.1 893.5,82.1 901.8,68.2 	"/>
	<polygon class="st0" points="876.5,124.8 868.2,138.7 866.6,138.7 874.9,124.8 	"/>
	<polygon class="st0" points="893.5,96.6 885.2,110.4 883.6,110.4 891.9,96.6 	"/>
	<polygon class="st0" points="910.5,68.2 902.2,82.1 900.6,82.1 908.9,68.2 	"/>
	<polygon class="st0" points="883.6,124.8 875.3,138.7 873.7,138.7 882,124.8 	"/>
	<polygon class="st0" points="899.6,96.6 898.3,100.4 898.3,100.4 892.3,110.4 890.7,110.4 899,96.6 	"/>
	<polygon class="st0" points="917.7,68.2 909.3,82.1 907.7,82.1 916,68.2 	"/>
	<polygon class="st0" points="890.8,124.8 882.4,138.7 880.8,138.7 889.1,124.8 	"/>
	<polygon class="st0" points="921.9,70.2 920.1,76 916.4,82.1 914.8,82.1 	"/>
	<polygon class="st0" points="897.8,124.8 889.5,138.7 887.9,138.7 896.2,124.8 	"/>
	<polygon class="st0" points="904.4,124.8 903.7,126.8 896.6,138.7 895,138.7 903.3,124.8 	"/>
	<polygon class="st0" points="1031.3,68.2 1021.1,85.3 1022.9,79.5 1029.7,68.2 	"/>
	<polygon class="st0" points="1038.4,68.2 1012.9,110.6 1014.8,104.9 1036.8,68.2 	"/>
	<polygon class="st0" points="1045.5,68.2 1004.7,136.1 1006.6,130.3 1043.9,68.2 	"/>
	<polygon class="st0" points="1052.6,68.2 1010.3,138.7 1008.7,138.7 1051,68.2 	"/>
	<polygon class="st0" points="1059.7,68.2 1017.4,138.7 1015.8,138.7 1058.1,68.2 	"/>
	<polygon class="st0" points="1062.2,73.2 1060.4,78.9 1024.5,138.7 1022.9,138.7 	"/>
	<polygon class="st0" points="1054.1,98.6 1052.2,104.3 1031.6,138.7 1030,138.7 	"/>
	<polygon class="st0" points="1045.9,123.9 1044.1,129.7 1038.7,138.7 1037.1,138.7 	"/>
	<polygon class="st0" points="1095.2,68.2 1093.1,71.8 1094.2,68.2 	"/>
	<polygon class="st0" points="1102.3,68.2 1094,82.1 1092.4,82.1 1100.7,68.2 	"/>
	<polygon class="st0" points="1109.4,68.2 1101.1,82.1 1099.5,82.1 1107.8,68.2 	"/>
	<polygon class="st0" points="1116.5,68.2 1108.2,82.1 1106.6,82.1 1114.9,68.2 	"/>
	<polygon class="st0" points="1123.6,68.2 1115.3,82.1 1113.7,82.1 1122,68.2 	"/>
	<polygon class="st0" points="1130.7,68.2 1122.4,82.1 1120.8,82.1 1129.1,68.2 	"/>
	<polygon class="st0" points="1137.8,68.2 1129.5,82.1 1127.9,82.1 1136.2,68.2 	"/>
	<polygon class="st0" points="1144.9,68.2 1136.6,82.1 1135,82.1 1143.3,68.2 	"/>
	<polygon class="st0" points="1152,68.2 1143.7,82.1 1142.1,82.1 1150.4,68.2 	"/>
	<polygon class="st0" points="1159.1,68.2 1150.8,82.1 1149.2,82.1 1157.5,68.2 	"/>
	<polygon class="st0" points="1166.2,68.2 1157.9,82.1 1156.3,82.1 1164.6,68.2 	"/>
	<polygon class="st0" points="1173.3,68.2 1152.9,102.3 1154.7,96.6 1171.7,68.2 	"/>
	<polygon class="st0" points="1180.4,68.2 1144.7,127.7 1146.6,121.9 1178.8,68.2 	"/>
	<polygon class="st0" points="1187.6,68.2 1145.2,138.7 1143.6,138.7 1185.9,68.2 	"/>
	<polygon class="st0" points="1194.7,68.2 1152.3,138.7 1150.7,138.7 1193,68.2 	"/>
	<polygon class="st0" points="1201.8,68.2 1159.4,138.7 1157.8,138.7 1200.2,68.2 	"/>
	<polygon class="st0" points="1194,90.2 1192.2,96 1166.5,138.7 1164.9,138.7 	"/>
	<polygon class="st0" points="1208.9,68.2 1200.5,82.1 1198.9,82.1 1207.2,68.2 	"/>
	<polygon class="st0" points="1185.9,115.6 1184,121.4 1173.6,138.7 1172,138.7 	"/>
	<polygon class="st0" points="1216,68.2 1207.6,82.1 1206,82.1 1214.4,68.2 	"/>
	<polygon class="st0" points="1223.1,68.2 1214.7,82.1 1213.1,82.1 1221.5,68.2 	"/>
	<polygon class="st0" points="1230.2,68.2 1221.8,82.1 1220.2,82.1 1228.6,68.2 	"/>
	<polygon class="st0" points="1237.3,68.2 1228.9,82.1 1227.3,82.1 1235.7,68.2 	"/>
	<polygon class="st0" points="1244.4,68.2 1236.1,82.1 1234.4,82.1 1242.8,68.2 	"/>
	<polygon class="st0" points="1251.5,68.2 1243.2,82.1 1241.5,82.1 1249.9,68.2 	"/>
	<polygon class="st0" points="1258.6,68.2 1250.3,82.1 1248.6,82.1 1257,68.2 	"/>
	<polygon class="st0" points="1265.7,68.2 1257.4,82.1 1255.7,82.1 1264.1,68.2 	"/>
	<polygon class="st0" points="1272.4,68.2 1272,69.6 1264.5,82.1 1262.9,82.1 1271.2,68.2 	"/>
</g>
<g>
	<path class="st0" d="M223.1,22.5h-1.3V4.3h1.3V22.5z"/>
	<path class="st0" d="M238.8,4.3v1.3H230v7.1h8.8V14H230v8.5h-1.3V4.3H238.8z"/>
	<path class="st0" d="M263.7,4.3v1.3h-6.2v16.9h-1.3V5.6H250V4.3H263.7z"/>
	<path class="st0" d="M280.2,22.5h-1.3V14h-10.5v8.5h-1.3V4.3h1.3v8.5h10.5V4.3h1.3V22.5z"/>
	<path class="st0" d="M295.9,4.3v1.3H287v7.1h8.8V14H287v7.2h8.8v1.3h-10.1V4.3H295.9z"/>
	<path class="st0" d="M306.1,14l5.9,8.5h-1.5l-6.7-9.7h4.5c2,0,3.5-1.6,3.5-3.6s-1.6-3.6-3.6-3.6H302v16.9h-1.3V4.3h7.5
		c2.7,0,4.9,2.2,4.9,4.9c0,2.8-2.1,4.8-4.8,4.8C308.3,14,306.1,14,306.1,14z"/>
	<path class="st0" d="M327.5,4.3v1.3h-8.8v7.1h8.8V14h-8.8v7.2h8.8v1.3h-10.1V4.3H327.5z"/>
	<path class="st0" d="M331.7,9.4l1.5-5.1h1.8l-2.4,5.1H331.7z"/>
	<path class="st0" d="M347.9,8.4c0-1.9-1.3-3.2-3.5-3.2c-2,0-3.4,1.4-3.4,3.1c0,2.3,2,3.2,4,4.2c3,1.4,4.9,2.5,4.9,5.6
		c0,3.2-2.5,4.8-5.5,4.8c-3.1,0-5.4-1.9-5.4-4.8h1.3c0,2.1,1.8,3.6,4.1,3.6c2.2,0,4.1-1.2,4.1-3.6c0-2.2-1.5-3.2-4.1-4.4
		c-2.5-1.1-4.8-2.2-4.8-5.4c0-2.5,1.9-4.4,4.7-4.4c3,0,4.8,1.7,4.8,4.4h-1.2V8.4z"/>
	<path class="st0" d="M364.8,16.2l-2.5,6.3H361l7.4-18.2h1.2l7.5,18.2h-1.4L368.9,6l-3.6,8.9h4.8l0.5,1.3
		C370.6,16.2,364.8,16.2,364.8,16.2z"/>
	<path class="st0" d="M396.3,13.2c1.7,0.8,2.9,2.4,2.9,4.4c0,2.7-2.2,4.9-4.9,4.9h-5.5V4.3h4.9c2.7,0,4.9,2.2,4.9,4.9
		C398.6,10.9,397.7,12.4,396.3,13.2z M390.1,5.6v7.1h3.7c1.8,0,3.5-1.6,3.5-3.6s-1.6-3.6-3.6-3.6L390.1,5.6L390.1,5.6z M390.1,14
		v7.2h4.2c2,0,3.6-1.6,3.6-3.6s-1.6-3.6-3.6-3.6H390.1z"/>
	<path class="st0" d="M413.8,4.3v1.3H405v7.1h8.8V14H405v7.2h8.8v1.3h-10.1V4.3H413.8z"/>
	<path class="st0" d="M430.2,4.3v1.3H424v16.9h-1.3V5.6h-6.2V4.3H430.2z"/>
	<path class="st0" d="M447.4,4.3v1.3h-6.2v16.9h-1.3V5.6h-6.2V4.3H447.4z"/>
	<path class="st0" d="M461,4.3v1.3h-8.8v7.1h8.8V14h-8.8v7.2h8.8v1.3h-10.1V4.3H461z"/>
	<path class="st0" d="M471.3,14l5.9,8.5h-1.5l-6.7-9.7h4.5c2,0,3.5-1.6,3.5-3.6s-1.6-3.6-3.6-3.6h-6.2v16.9h-1.3V4.3h7.5
		c2.7,0,4.9,2.2,4.9,4.9c0,2.8-2.1,4.8-4.8,4.8C473.5,14,471.3,14,471.3,14z"/>
	<path class="st0" d="M512.9,4.3h1.4l-6,18.2H507l-5.3-16.1l-5.3,16.1H495l-6-18.2h1.4l5.4,16.4l5.3-16.4h1.4l5.3,16.4L512.9,4.3z"
		/>
	<path class="st0" d="M517.3,16.2l-2.5,6.3h-1.3l7.4-18.2h1.2l7.5,18.2h-1.4L521.4,6l-3.6,8.9h4.8l0.5,1.3
		C523.1,16.2,517.3,16.2,517.3,16.2z"/>
	<path class="st0" d="M536.4,13.6v8.9h-1.3v-8.9l-7.4-9.3h1.6l6.4,8.1l6.4-8.1h1.6L536.4,13.6z"/>
</g>
</svg>
