<?xml version="1.0" encoding="utf-8"?>
<!-- Generator: Adobe Illustrator 19.2.0, SVG Export Plug-In . SVG Version: 6.00 Build 0)  -->
<svg version="1.1" id="Layer_1" xmlns="http://www.w3.org/2000/svg" xmlns:xlink="http://www.w3.org/1999/xlink" x="0px" y="0px"
	 viewBox="0 0 550 152.8" style="enable-background:new 0 0 550 152.8;" xml:space="preserve">
<style type="text/css">
	.st0{fill:#FFFFFF;}
</style>
<g>
	<polygon class="st0" points="58.9,44.1 54.5,51.3 55.6,48.1 58,44.1 	"/>
	<polygon class="st0" points="62.8,44.1 58.2,51.7 57.3,51.7 62,44.1 	"/>
	<polygon class="st0" points="66.8,44.1 62.2,51.7 61.3,51.7 65.9,44.1 	"/>
	<polygon class="st0" points="70.7,44.1 66.1,51.7 65.2,51.7 69.8,44.1 	"/>
	<polygon class="st0" points="74.7,44.1 70,51.7 69.1,51.7 73.8,44.1 	"/>
	<polygon class="st0" points="78.6,44.1 74,51.7 73.1,51.7 77.7,44.1 	"/>
	<polygon class="st0" points="82.5,44.1 77.9,51.7 77,51.7 81.6,44.1 	"/>
	<polygon class="st0" points="86.5,44.1 81.9,51.7 81,51.7 85.6,44.1 	"/>
	<polygon class="st0" points="90.4,44.1 85.8,51.7 84.9,51.7 89.5,44.1 	"/>
	<polygon class="st0" points="94.3,44.1 89.7,51.7 88.8,51.7 93.5,44.1 	"/>
	<polygon class="st0" points="92.2,54.2 93,51.7 92.8,51.7 97.4,44.1 98.3,44.1 	"/>
	<polygon class="st0" points="102.2,44.1 87.7,68.2 88.7,65 101.3,44.1 	"/>
	<polygon class="st0" points="106.2,44.1 83.2,82.3 84.2,79.1 105.3,44.1 	"/>
	<polygon class="st0" points="110.1,44.1 86.6,83.1 85.7,83.1 109.2,44.1 	"/>
	<polygon class="st0" points="114,44.1 90.6,83.1 89.7,83.1 113.1,44.1 	"/>
	<polygon class="st0" points="118,44.1 94.5,83.1 93.6,83.1 117.1,44.1 	"/>
	<polygon class="st0" points="110.5,61.6 109.5,64.7 98.4,83.1 97.6,83.1 	"/>
	<polygon class="st0" points="121.9,44.1 117.3,51.7 116.4,51.7 121,44.1 	"/>
	<polygon class="st0" points="106,75.6 105,78.8 102.4,83.1 101.5,83.1 	"/>
	<polygon class="st0" points="125.9,44.1 121.2,51.7 120.3,51.7 125,44.1 	"/>
	<polygon class="st0" points="129.8,44.1 125.2,51.7 124.3,51.7 128.9,44.1 	"/>
	<polygon class="st0" points="133.7,44.1 129.1,51.7 128.2,51.7 132.8,44.1 	"/>
	<polygon class="st0" points="137.7,44.1 133.1,51.7 132.2,51.7 136.8,44.1 	"/>
	<polygon class="st0" points="141.6,44.1 137,51.7 136.1,51.7 140.7,44.1 	"/>
	<polygon class="st0" points="145.5,44.1 140.9,51.7 140,51.7 144.7,44.1 	"/>
	<polygon class="st0" points="149.5,44.1 144.9,51.7 144,51.7 148.6,44.1 	"/>
	<polygon class="st0" points="153.4,44.1 148.8,51.7 147.9,51.7 152.5,44.1 	"/>
	<polygon class="st0" points="154.8,46.9 153.7,50.1 152.7,51.7 151.9,51.7 	"/>
	<polygon class="st0" points="151.7,79.8 149.6,83.1 148.8,83.1 150.1,80.9 	"/>
	<polygon class="st0" points="158.6,74.7 153.6,83.1 152.7,83.1 157.1,75.9 	"/>
	<polygon class="st0" points="165.6,69.7 157.5,83.1 156.6,83.1 164,70.8 	"/>
	<polygon class="st0" points="172.6,64.6 161.5,83.1 160.6,83.1 171,65.7 	"/>
	<polygon class="st0" points="179.6,59.5 165.4,83.1 164.5,83.1 178,60.7 	"/>
	<polygon class="st0" points="186.6,54.5 170.6,81 169,82.2 185,55.6 	"/>
	<polygon class="st0" points="193.5,49.4 177.6,76 176,77.1 191.9,50.6 	"/>
	<polygon class="st0" points="200.5,44.3 184.6,70.9 183,72.1 198.9,45.5 	"/>
	<polygon class="st0" points="204.7,44 191.5,65.8 189.9,67 203.8,44 	"/>
	<polygon class="st0" points="208.6,44 198.5,60.8 196.9,61.9 207.7,44 	"/>
	<polygon class="st0" points="212.5,44 205.5,55.7 203.9,56.9 211.7,44 	"/>
	<polygon class="st0" points="216.5,44 209.5,55.5 209,54.9 215.6,44 	"/>
	<polygon class="st0" points="220.4,44 211.7,58.5 211.2,57.8 219.5,44 	"/>
	<polygon class="st0" points="223.2,46 213.9,61.4 213.4,60.8 222.7,45.3 	"/>
	<polygon class="st0" points="225.3,48.9 216,64.4 215.5,63.7 224.8,48.3 	"/>
	<polygon class="st0" points="227.5,51.9 218.2,67.3 217.7,66.7 227,51.2 	"/>
	<polygon class="st0" points="229.7,54.8 220.4,70.3 219.9,69.6 229.2,54.1 	"/>
	<polygon class="st0" points="231.8,57.8 222.5,73.2 222.1,72.6 231.3,57.1 	"/>
	<polygon class="st0" points="234,60.7 224.7,76.2 224.2,75.5 233.5,60 	"/>
	<polygon class="st0" points="236.2,63.7 226.9,79.1 226.4,78.4 235.7,63 	"/>
	<polygon class="st0" points="238.3,66.6 229,82.1 228.6,81.4 237.8,65.9 	"/>
	<polygon class="st0" points="240.5,69.5 232.4,83.1 231.5,83.1 240,68.9 	"/>
	<polygon class="st0" points="242.7,72.5 236.3,83.1 235.4,83.1 242.2,71.8 	"/>
	<polygon class="st0" points="244.8,75.4 240.2,83.1 239.3,83.1 244.4,74.8 	"/>
	<polygon class="st0" points="247,78.4 244.2,83.1 243.3,83.1 246.5,77.7 	"/>
	<polygon class="st0" points="249.2,81.3 248.1,83.1 247.2,83.1 248.7,80.7 	"/>
	<polygon class="st0" points="279.5,44 277.9,46.7 278.7,44 	"/>
	<polygon class="st0" points="283.4,44 273.3,60.8 273.7,59.7 274.4,57.6 282.5,44 	"/>
	<polygon class="st0" points="287.4,44 268.8,74.9 269.8,71.7 286.5,44 	"/>
	<polygon class="st0" points="291.3,44 267.8,83.1 266.9,83.1 290.4,44 	"/>
	<polygon class="st0" points="295.2,44 271.7,83.1 270.8,83.1 294.4,44 	"/>
	<polygon class="st0" points="299.2,44 275.7,83.1 274.8,83.1 298.3,44 	"/>
	<polygon class="st0" points="296.2,54.1 295.1,57.3 279.6,83.1 278.7,83.1 	"/>
	<polygon class="st0" points="282.7,83.1 291.6,68.2 290.6,71.4 283.5,83.1 	"/>
	<polygon class="st0" points="297.6,59.7 293,67.4 292.1,67.4 296.7,59.7 	"/>
	<polygon class="st0" points="286.6,83.1 287.1,82.3 286.8,83.1 	"/>
	<polygon class="st0" points="301.6,59.7 296.9,67.4 296,67.4 300.7,59.7 	"/>
	<polygon class="st0" points="305.5,59.7 300.9,67.4 300,67.4 304.6,59.7 	"/>
	<polygon class="st0" points="309.4,59.7 304.8,67.4 303.9,67.4 308.5,59.7 	"/>
	<polygon class="st0" points="313.4,59.7 308.8,67.4 307.9,67.4 312.5,59.7 	"/>
	<polygon class="st0" points="317.3,59.7 312.7,67.4 311.8,67.4 316.4,59.7 	"/>
	<polygon class="st0" points="321.2,59.7 316.6,67.4 315.7,67.4 320.4,59.7 	"/>
	<polygon class="st0" points="325.2,59.7 320.6,67.4 319.7,67.4 324.3,59.7 	"/>
	<polygon class="st0" points="329.1,59.7 324.5,67.4 323.6,67.4 328.2,59.7 	"/>
	<polygon class="st0" points="333.1,59.7 328.4,67.4 327.5,67.4 332.2,59.7 	"/>
	<polygon class="st0" points="338.5,57.3 332.4,67.4 331.5,67.4 336.8,58.6 	"/>
	<polygon class="st0" points="346,51.3 334.6,70.2 334.2,69.4 344.3,52.6 	"/>
	<polygon class="st0" points="353.5,45.3 336.6,73.4 336.2,72.7 351.8,46.7 	"/>
	<polygon class="st0" points="358.3,44 338.6,76.6 338.2,75.9 357.4,44 	"/>
	<polygon class="st0" points="362.2,44 340.6,79.9 340.2,79.1 361.3,44 	"/>
	<polygon class="st0" points="354.8,62.8 353.9,63.5 354.1,63.9 342.6,83.1 342.2,82.4 365.2,44 366.1,44 	"/>
	<polygon class="st0" points="356.1,67.2 346.6,83.1 345.7,83.1 355.7,66.4 	"/>
	<polygon class="st0" points="370.1,44 362.4,56.8 360.6,58.2 369.2,44 	"/>
	<polygon class="st0" points="358.1,70.4 350.5,83.1 349.6,83.1 357.7,69.7 	"/>
	<polygon class="st0" points="374,44 369.9,50.9 368.2,52.2 373.1,44 	"/>
	<polygon class="st0" points="360.1,73.6 354.4,83.1 353.5,83.1 359.7,72.9 	"/>
	<polygon class="st0" points="378,44 377.4,44.9 375.7,46.2 377.1,44 	"/>
	<polygon class="st0" points="362.1,76.9 358.4,83.1 357.5,83.1 361.7,76.1 	"/>
	<polygon class="st0" points="364.1,80.1 362.3,83.1 361.4,83.1 363.7,79.4 	"/>
	<polygon class="st0" points="366,83.1 365.4,83.1 365.7,82.6 	"/>
	<path class="st0" d="M399,48.3l-6.4,10.6l0.5-1.6c0.1-0.3,0.2-0.6,0.3-0.9c0.1-0.2,0.1-0.4,0.2-0.6l3.2-5.3l0,0
		C397.5,49.6,398.2,48.9,399,48.3z"/>
	<path class="st0" d="M405,44.9l-16.7,27.8c0.1-0.6,0.2-1.2,0.4-1.7c0.1-0.3,0.2-0.6,0.3-0.9l0.1-0.2l14.7-24.4
		C404.2,45.1,404.6,45,405,44.9z"/>
	<path class="st0" d="M409.4,44.1l-20.6,34.2c-0.1-0.3-0.2-0.6-0.3-0.9l20-33.2C408.8,44.1,409.1,44.1,409.4,44.1z"/>
	<path class="st0" d="M413.3,44.1L391,81.2c-0.2-0.2-0.4-0.3-0.6-0.5l22-36.6H413.3L413.3,44.1z"/>
	<path class="st0" d="M417.3,44.1l-23.2,38.7c-0.3-0.1-0.5-0.2-0.7-0.2l23.1-38.4h0.8V44.1z"/>
	<path class="st0" d="M421.2,44.1l-23.5,39.1h-0.9l23.5-39.1H421.2L421.2,44.1z"/>
	<path class="st0" d="M410.9,66.3l-0.4,1.3c-0.1,0.2-0.1,0.3-0.2,0.5c-0.1,0.4-0.2,0.8-0.3,1.2l-8.4,13.9h-0.9L410.9,66.3z"/>
	<path class="st0" d="M425.2,44.1l-4.9,8.2c-0.4,0.1-0.8,0.3-1.2,0.5l5.2-8.6L425.2,44.1L425.2,44.1z"/>
	<path class="st0" d="M411.2,73.8l-5.6,9.3h-0.9l6-10C410.9,73.4,411.1,73.6,411.2,73.8z"/>
	<polygon class="st0" points="429.1,44.1 424.5,51.7 423.6,51.7 428.2,44.1 	"/>
	<path class="st0" d="M414.2,75.3l-4.7,7.8h-0.9l4.8-8C413.7,75.2,414,75.3,414.2,75.3z"/>
	<polygon class="st0" points="423.6,59.8 419,67.5 418.1,67.5 422.7,59.8 	"/>
	<polygon class="st0" points="433,44.1 428.4,51.7 427.5,51.7 432.1,44.1 	"/>
	<polygon class="st0" points="418.1,75.4 413.5,83.1 412.6,83.1 417.2,75.4 	"/>
	<polygon class="st0" points="427.5,59.8 422.9,67.5 422,67.5 426.6,59.8 	"/>
	<polygon class="st0" points="437,44.1 432.4,51.7 431.5,51.7 436.1,44.1 	"/>
	<polygon class="st0" points="422.1,75.4 417.5,83.1 416.6,83.1 421.2,75.4 	"/>
	<polygon class="st0" points="431.5,59.8 426.9,67.5 426,67.5 430.6,59.8 	"/>
	<polygon class="st0" points="440.9,44.1 436.3,51.7 435.4,51.7 440,44.1 	"/>
	<polygon class="st0" points="426,75.4 421.4,83.1 420.5,83.1 425.1,75.4 	"/>
	<polygon class="st0" points="435.4,59.8 430.8,67.5 429.9,67.5 434.5,59.8 	"/>
	<polygon class="st0" points="444.9,44.1 440.2,51.7 439.4,51.7 444,44.1 	"/>
	<polygon class="st0" points="429.9,75.4 425.3,83.1 424.4,83.1 429.1,75.4 	"/>
	<polygon class="st0" points="439.3,59.8 434.7,67.5 433.8,67.5 438.5,59.8 	"/>
	<polygon class="st0" points="448.8,44.1 444.2,51.7 443.3,51.7 447.9,44.1 	"/>
	<polygon class="st0" points="433.9,75.4 429.3,83.1 428.4,83.1 433,75.4 	"/>
	<polygon class="st0" points="443.3,59.8 438.7,67.5 437.8,67.5 442.4,59.8 	"/>
	<polygon class="st0" points="452.7,44.1 448.1,51.7 447.2,51.7 451.8,44.1 	"/>
	<polygon class="st0" points="437.8,75.4 433.2,83.1 432.3,83.1 436.9,75.4 	"/>
	<polygon class="st0" points="447.2,59.8 442.6,67.5 441.7,67.5 446.3,59.8 	"/>
	<polygon class="st0" points="456.7,44.1 452.1,51.7 451.2,51.7 455.8,44.1 	"/>
	<polygon class="st0" points="441.8,75.4 437.1,83.1 436.2,83.1 440.9,75.4 	"/>
	<polygon class="st0" points="451.2,59.8 446.5,67.5 445.7,67.5 450.3,59.8 	"/>
	<polygon class="st0" points="460.6,44.1 456,51.7 455.1,51.7 459.7,44.1 	"/>
	<polygon class="st0" points="445.7,75.4 441.1,83.1 440.2,83.1 444.8,75.4 	"/>
	<polygon class="st0" points="455.1,59.8 450.5,67.5 449.6,67.5 454.2,59.8 	"/>
	<polygon class="st0" points="464.5,44.1 459.9,51.7 459,51.7 463.7,44.1 	"/>
	<polygon class="st0" points="449.6,75.4 445,83.1 444.1,83.1 448.7,75.4 	"/>
	<polygon class="st0" points="459,59.8 454.4,67.5 453.5,67.5 458.1,59.8 	"/>
	<polygon class="st0" points="468.5,44.1 463.9,51.7 463,51.7 467.6,44.1 	"/>
	<polygon class="st0" points="453.6,75.4 449,83.1 448.1,83.1 452.7,75.4 	"/>
	<polygon class="st0" points="463,59.8 458.4,67.5 457.5,67.5 462.1,59.8 	"/>
	<polygon class="st0" points="472.4,44.1 467.8,51.7 466.9,51.7 471.5,44.1 	"/>
	<polygon class="st0" points="457.5,75.4 452.9,83.1 452,83.1 456.6,75.4 	"/>
	<polygon class="st0" points="466.9,59.8 462.3,67.5 461.4,67.5 466,59.8 	"/>
	<polygon class="st0" points="476.4,44.1 471.7,51.7 470.9,51.7 475.5,44.1 	"/>
	<polygon class="st0" points="461.4,75.4 456.8,83.1 455.9,83.1 460.6,75.4 	"/>
	<polygon class="st0" points="470.9,59.8 466.2,67.5 465.3,67.5 470,59.8 	"/>
	<polygon class="st0" points="480.3,44.1 475.7,51.7 474.8,51.7 479.4,44.1 	"/>
	<polygon class="st0" points="465.4,75.4 460.8,83.1 459.9,83.1 464.5,75.4 	"/>
	<polygon class="st0" points="474.8,59.8 470.2,67.5 469.3,67.5 473.9,59.8 	"/>
	<polygon class="st0" points="484.2,44.1 479.6,51.7 478.7,51.7 483.3,44.1 	"/>
	<polygon class="st0" points="469.3,75.4 464.7,83.1 463.8,83.1 468.4,75.4 	"/>
	<polygon class="st0" points="478.7,59.8 474.1,67.5 473.2,67.5 477.8,59.8 	"/>
	<polygon class="st0" points="488.2,44.1 483.6,51.7 482.7,51.7 487.3,44.1 	"/>
	<polygon class="st0" points="473.3,75.4 468.6,83.1 467.8,83.1 472.4,75.4 	"/>
	<polygon class="st0" points="482.7,59.8 478.1,67.5 477.2,67.5 481.8,59.8 	"/>
	<polygon class="st0" points="492.1,44.1 487.5,51.7 486.6,51.7 491.2,44.1 	"/>
	<polygon class="st0" points="477.2,75.4 472.6,83.1 471.7,83.1 476.3,75.4 	"/>
	<polygon class="st0" points="496.1,44.1 491.4,51.7 490.5,51.7 495.2,44.1 	"/>
	<polygon class="st0" points="481.1,75.4 476.5,83.1 475.6,83.1 480.2,75.4 	"/>
	<polygon class="st0" points="485.1,75.4 480.5,83.1 479.6,83.1 484.2,75.4 	"/>
	<polygon class="st0" points="213,113.8 212,115.5 212.5,113.8 	"/>
	<polygon class="st0" points="217,113.8 207.5,129.5 208.5,126.3 216.1,113.8 	"/>
	<polygon class="st0" points="220.9,113.8 202.9,143.6 204,140.4 220,113.8 	"/>
	<polygon class="st0" points="224.8,113.8 201.4,152.8 200.5,152.8 223.9,113.8 	"/>
	<polygon class="st0" points="228.8,113.8 205.3,152.8 204.4,152.8 227.9,113.8 	"/>
	<polygon class="st0" points="232.7,113.8 209.2,152.8 208.3,152.8 231.8,113.8 	"/>
	<polygon class="st0" points="230.3,122.8 229.3,126 213.2,152.8 212.3,152.8 	"/>
	<polygon class="st0" points="225.8,136.9 224.7,140.1 224.7,140.1 217.1,152.8 216.2,152.8 	"/>
	<polygon class="st0" points="221.2,151 220.7,152.8 220.2,152.8 	"/>
	<polygon class="st0" points="256.3,113.8 251.7,121.5 250.8,121.5 255.4,113.8 	"/>
	<polygon class="st0" points="260.3,113.8 255.7,121.5 254.8,121.5 259.4,113.8 	"/>
	<polygon class="st0" points="264.2,113.8 259.6,121.5 258.7,121.5 263.3,113.8 	"/>
	<polygon class="st0" points="268.1,113.8 263.5,121.5 262.6,121.5 267.3,113.8 	"/>
	<polygon class="st0" points="272.1,113.8 267.5,121.5 266.6,121.5 271.2,113.8 	"/>
	<polygon class="st0" points="276,113.8 271.4,121.5 270.5,121.5 275.1,113.8 	"/>
	<polygon class="st0" points="280,113.8 275.4,121.5 274.5,121.5 279.1,113.8 	"/>
	<polygon class="st0" points="283.9,113.8 279.3,121.5 278.4,121.5 283,113.8 	"/>
	<polygon class="st0" points="287.8,113.8 283.2,121.5 282.3,121.5 286.9,113.8 	"/>
	<polygon class="st0" points="291.8,113.8 287.2,121.5 286.3,121.5 290.9,113.8 	"/>
	<polygon class="st0" points="295.7,113.8 284,133.3 285,130.1 294.8,113.8 	"/>
	<polygon class="st0" points="299.7,113.8 279.5,147.4 280.5,144.2 298.8,113.8 	"/>
	<polygon class="st0" points="303.6,113.8 280.1,152.8 279.2,152.8 302.7,113.8 	"/>
	<polygon class="st0" points="307.5,113.8 284.1,152.8 283.2,152.8 306.6,113.8 	"/>
	<polygon class="st0" points="311.5,113.8 288,152.8 287.1,152.8 310.6,113.8 	"/>
	<polygon class="st0" points="291,152.8 306.8,126.6 305.8,129.8 305.8,129.8 291.9,152.8 	"/>
	<polygon class="st0" points="315.4,113.8 310.8,121.5 309.9,121.5 314.5,113.8 	"/>
	<polygon class="st0" points="295,152.8 302.3,140.7 301.3,143.9 301.3,143.9 295.9,152.8 	"/>
	<polygon class="st0" points="319.3,113.8 314.7,121.5 313.8,121.5 318.5,113.8 	"/>
	<polygon class="st0" points="323.3,113.8 318.7,121.5 317.8,121.5 322.4,113.8 	"/>
	<polygon class="st0" points="327.2,113.8 322.6,121.5 321.7,121.5 326.3,113.8 	"/>
	<polygon class="st0" points="331.2,113.8 326.5,121.5 325.7,121.5 330.3,113.8 	"/>
	<polygon class="st0" points="335.1,113.8 330.5,121.5 329.6,121.5 334.2,113.8 	"/>
	<polygon class="st0" points="339,113.8 334.4,121.5 333.5,121.5 338.1,113.8 	"/>
	<polygon class="st0" points="343,113.8 338.4,121.5 337.5,121.5 342.1,113.8 	"/>
	<polygon class="st0" points="346.9,113.8 342.3,121.5 341.4,121.5 346,113.8 	"/>
	<polygon class="st0" points="350.5,113.8 350.1,115.1 350.1,115.1 350,115.1 346.2,121.5 345.3,121.5 350,113.8 	"/>
</g>
<g>
	<path class="st0" d="M165.1,14.3h-0.9V1.7h0.9V14.3z"/>
	<path class="st0" d="M176,1.7v0.9h-6.1v5h6.1v0.9h-6.1v5.9H169V1.7H176z"/>
	<path class="st0" d="M193.2,1.7v0.9h-4.3v11.7H188V2.6h-4.3V1.7H193.2z"/>
	<path class="st0" d="M204.7,14.3h-0.9V8.4h-7.2v5.9h-0.9V1.7h0.9v5.9h7.2V1.7h0.9V14.3z"/>
	<path class="st0" d="M215.5,1.7v0.9h-6.1v5h6.1v0.9h-6.1v5h6.1v0.9h-7V1.7H215.5z"/>
	<path class="st0" d="M222.6,8.4l4.1,5.9h-1.1L221,7.6h3.1c1.4,0,2.4-1.1,2.4-2.5s-1.1-2.5-2.5-2.5h-4.3v11.7h-0.9V1.7h5.2
		c1.9,0,3.4,1.5,3.4,3.4s-1.4,3.3-3.3,3.3C224.1,8.4,222.6,8.4,222.6,8.4z"/>
	<path class="st0" d="M237.4,1.7v0.9h-6.1v5h6.1v0.9h-6.1v5h6.1v0.9h-7V1.7H237.4z"/>
	<path class="st0" d="M240.3,5.2l1-3.5h1.2l-1.7,3.5H240.3z"/>
	<path class="st0" d="M251.5,4.5c0-1.3-0.9-2.2-2.4-2.2c-1.4,0-2.3,0.9-2.3,2.2c0,1.6,1.4,2.2,2.8,2.9c2.1,0.9,3.4,1.7,3.4,3.9
		s-1.7,3.3-3.8,3.3s-3.7-1.3-3.7-3.3h0.9c0,1.5,1.2,2.5,2.9,2.5c1.5,0,2.8-0.8,2.8-2.5c0-1.5-1-2.2-2.8-3c-1.7-0.8-3.3-1.5-3.3-3.7
		c0-1.8,1.3-3,3.2-3c2.1,0,3.3,1.2,3.3,3.1h-1V4.5z"/>
	<path class="st0" d="M263.2,9.9l-1.8,4.4h-0.9l5.1-12.6h0.8l5.2,12.6h-1L266,2.9L263.6,9h3.3l0.3,0.9H263.2z"/>
	<path class="st0" d="M285,7.9c1.2,0.5,2,1.7,2,3c0,1.9-1.5,3.4-3.4,3.4h-3.8V1.7h3.4c1.9,0,3.4,1.5,3.4,3.4
		C286.6,6.3,286,7.3,285,7.9z M280.7,2.6v5h2.6c1.2,0,2.4-1.1,2.4-2.5s-1.1-2.5-2.5-2.5H280.7z M280.7,8.4v5h2.9
		c1.4,0,2.5-1.1,2.5-2.5s-1.1-2.5-2.5-2.5H280.7z"/>
	<path class="st0" d="M297.1,1.7v0.9H291v5h6.1v0.9H291v5h6.1v0.9h-7V1.7H297.1z"/>
	<path class="st0" d="M308.5,1.7v0.9h-4.3v11.7h-0.9V2.6H299V1.7H308.5z"/>
	<path class="st0" d="M320.4,1.7v0.9h-4.3v11.7h-0.9V2.6h-4.3V1.7H320.4z"/>
	<path class="st0" d="M329.8,1.7v0.9h-6.1v5h6.1v0.9h-6.1v5h6.1v0.9h-7V1.7H329.8z"/>
	<path class="st0" d="M336.9,8.4l4.1,5.9h-1.1l-4.6-6.7h3.1c1.4,0,2.4-1.1,2.4-2.5s-1.1-2.5-2.5-2.5H334v11.7h-0.9V1.7h5.2
		c1.9,0,3.4,1.5,3.4,3.4s-1.4,3.3-3.3,3.3C338.4,8.4,336.9,8.4,336.9,8.4z"/>
	<path class="st0" d="M365.7,1.7h0.9l-4.1,12.6h-0.9l-3.7-11.2l-3.7,11.2h-0.9l-4.2-12.6h1l3.7,11.3l3.6-11.3h0.9L362,13L365.7,1.7z
		"/>
	<path class="st0" d="M368.8,9.9l-1.8,4.4h-0.9l5.1-12.6h0.8l5.2,12.6h-1l-4.7-11.4L369.2,9h3.3l0.3,0.9H368.8z"/>
	<path class="st0" d="M382,8.2v6.1h-0.9V8.2L376,1.7h1.1l4.4,5.6l4.5-5.6h1.1L382,8.2z"/>
</g>
</svg>
