<?xml version="1.0" encoding="utf-8"?>
<!-- Generator: Adobe Illustrator 19.2.0, SVG Export Plug-In . SVG Version: 6.00 Build 0)  -->
<svg version="1.1" id="Layer_1" xmlns="http://www.w3.org/2000/svg" xmlns:xlink="http://www.w3.org/1999/xlink" x="0px" y="0px"
	 viewBox="0 0 1024 92.1" style="enable-background:new 0 0 1024 92.1;" xml:space="preserve">
<style type="text/css">
	.st0{fill:#FFFFFF;}
</style>
<g>
	<polygon class="st0" points="136.9,44.2 131.3,53.6 132.4,53.6 138,44.2 	"/>
	<polygon class="st0" points="142.9,44.2 137.2,53.6 136.1,53.6 141.8,44.2 	"/>
	<polygon class="st0" points="147.7,44.2 142,53.6 140.9,53.6 146.6,44.2 	"/>
	<polygon class="st0" points="152.5,44.2 146.9,53.6 145.8,53.6 151.4,44.2 	"/>
	<polygon class="st0" points="157.4,44.2 151.7,53.6 150.6,53.6 156.3,44.2 	"/>
	<polygon class="st0" points="162.2,44.2 156.5,53.6 155.4,53.6 161.1,44.2 	"/>
	<polygon class="st0" points="167,44.2 161.4,53.6 160.3,53.6 165.9,44.2 	"/>
	<polygon class="st0" points="171.9,44.2 166.2,53.6 165.1,53.6 170.8,44.2 	"/>
	<polygon class="st0" points="176.7,44.2 171,53.6 169.9,53.6 175.6,44.2 	"/>
	<polygon class="st0" points="181.5,44.2 175.9,53.6 174.8,53.6 180.4,44.2 	"/>
	<polygon class="st0" points="186.4,44.2 175.7,61.9 177,58 177,57.9 185.3,44.2 	"/>
	<polygon class="st0" points="191.2,44.2 170.2,79.1 171.4,75.2 190.1,44.2 	"/>
	<polygon class="st0" points="196,44.2 167.2,92.1 166.1,92.1 194.9,44.2 	"/>
	<polygon class="st0" points="200.9,44.2 172.1,92.1 171,92.1 199.8,44.2 	"/>
	<polygon class="st0" points="205.7,44.2 176.9,92.1 175.8,92.1 204.6,44.2 	"/>
	<polygon class="st0" points="203.7,53.7 202.5,57.6 202.5,57.6 181.7,92.1 180.6,92.1 	"/>
	<polygon class="st0" points="210.5,44.2 204.9,53.6 203.8,53.6 209.4,44.2 	"/>
	<polygon class="st0" points="198.2,70.9 196.9,74.8 196.9,74.8 186.6,92.1 185.5,92.1 	"/>
	<polygon class="st0" points="215.4,44.2 209.7,53.6 208.6,53.6 214.3,44.2 	"/>
	<polygon class="st0" points="190.3,92.1 192.6,88.2 191.4,92.1 	"/>
	<polygon class="st0" points="220.2,44.2 214.5,53.6 213.4,53.6 219.1,44.2 	"/>
	<polygon class="st0" points="225,44.2 219.4,53.6 218.3,53.6 223.9,44.2 	"/>
	<polygon class="st0" points="229.9,44.2 224.2,53.6 223.1,53.6 228.8,44.2 	"/>
	<polygon class="st0" points="234.7,44.2 229,53.6 227.9,53.6 233.6,44.2 	"/>
	<polygon class="st0" points="239.5,44.2 233.9,53.6 232.8,53.6 238.4,44.2 	"/>
	<polygon class="st0" points="244.4,44.2 238.7,53.6 237.6,53.6 243.3,44.2 	"/>
	<polygon class="st0" points="249.2,44.2 243.5,53.6 242.4,53.6 248.1,44.2 	"/>
	<polygon class="st0" points="254,44.2 248.4,53.6 247.3,53.6 252.9,44.2 	"/>
	<polygon class="st0" points="252.5,53 252.3,53.6 252.1,53.6 	"/>
	<polygon class="st0" points="253,86.1 249.4,92.1 248.3,92.1 251.1,87.5 	"/>
	<polygon class="st0" points="261.6,79.9 254.2,92.1 253.1,92.1 259.6,81.3 	"/>
	<polygon class="st0" points="270.1,73.6 259.1,92.1 258,92.1 268.2,75.1 	"/>
	<polygon class="st0" points="278.7,67.4 263.9,92.1 262.8,92.1 276.8,68.8 	"/>
	<polygon class="st0" points="287.3,61.2 268.7,92.1 267.6,92.1 285.3,62.6 	"/>
	<polygon class="st0" points="295.8,55 276.3,87.6 274.3,89 293.9,56.4 	"/>
	<polygon class="st0" points="304.4,48.8 284.8,81.4 282.9,82.8 302.5,50.2 	"/>
	<polygon class="st0" points="312.1,44.1 293.4,75.2 291.4,76.6 311,44.1 	"/>
	<polygon class="st0" points="316.9,44.1 301.9,69 300,70.4 315.8,44.1 	"/>
	<polygon class="st0" points="321.8,44.1 310.5,62.8 308.6,64.2 320.7,44.1 	"/>
	<polygon class="st0" points="326.6,44.1 319.1,56.6 317.1,58 325.5,44.1 	"/>
	<polygon class="st0" points="331.4,44.1 322.2,59.4 321.6,58.5 330.3,44.1 	"/>
	<polygon class="st0" points="336.2,44.1 324.9,63 324.3,62.2 335.2,44.1 	"/>
	<polygon class="st0" points="338.9,47.6 327.5,66.6 326.9,65.8 338.3,46.8 	"/>
	<polygon class="st0" points="341.6,51.2 330.2,70.2 329.6,69.4 341,50.4 	"/>
	<polygon class="st0" points="344.3,54.9 332.9,73.8 332.3,73 343.7,54 	"/>
	<polygon class="st0" points="346.9,58.5 335.5,77.4 334.9,76.6 346.3,57.6 	"/>
	<polygon class="st0" points="349.6,62.1 338.2,81.1 337.6,80.2 349,61.3 	"/>
	<polygon class="st0" points="352.2,65.7 340.8,84.7 340.2,83.8 351.6,64.9 	"/>
	<polygon class="st0" points="354.9,69.3 343.5,88.3 342.9,87.5 354.3,68.5 	"/>
	<polygon class="st0" points="357.6,72.9 346.2,91.9 345.6,91.1 357,72.1 	"/>
	<polygon class="st0" points="360.2,76.5 350.9,92.1 349.8,92.1 359.6,75.7 	"/>
	<polygon class="st0" points="362.9,80.2 355.7,92.1 354.6,92.1 362.3,79.3 	"/>
	<polygon class="st0" points="365.6,83.8 360.6,92.1 359.5,92.1 365,82.9 	"/>
	<polygon class="st0" points="368.2,87.4 365.4,92.1 364.3,92.1 367.6,86.6 	"/>
	<polygon class="st0" points="370.9,91 370.2,92.1 369.1,92.1 370.3,90.2 	"/>
	<polygon class="st0" points="408.7,44.1 403.5,52.7 404.8,48.8 407.7,44.1 	"/>
	<polygon class="st0" points="413.6,44.1 398,70 399.3,66.1 412.5,44.1 	"/>
	<polygon class="st0" points="418.4,44.1 392.4,87.3 393.7,83.4 417.3,44.1 	"/>
	<polygon class="st0" points="423.2,44.1 394.4,92.1 393.3,92.1 422.2,44.1 	"/>
	<polygon class="st0" points="428.1,44.1 399.2,92.1 398.1,92.1 427,44.1 	"/>
	<polygon class="st0" points="431.5,44.5 430.3,48.4 404,92.1 403,92.1 	"/>
	<polygon class="st0" points="426.1,63.4 408.9,92.1 407.8,92.1 426,61.8 425.5,63.4 	"/>
	<polygon class="st0" points="412.6,92.1 420.4,79.1 419.2,83 413.7,92.1 	"/>
	<polygon class="st0" points="431,63.4 425.3,72.8 424.2,72.8 429.9,63.4 	"/>
	<polygon class="st0" points="435.8,63.4 430.1,72.8 429.1,72.8 434.7,63.4 	"/>
	<polygon class="st0" points="440.6,63.4 435,72.8 433.9,72.8 439.5,63.4 	"/>
	<polygon class="st0" points="445.5,63.4 439.8,72.8 438.7,72.8 444.4,63.4 	"/>
	<polygon class="st0" points="450.3,63.4 444.7,72.8 443.5,72.8 449.2,63.4 	"/>
	<polygon class="st0" points="455.2,63.4 449.5,72.8 448.4,72.8 454,63.4 	"/>
	<polygon class="st0" points="460,63.4 454.3,72.8 453.2,72.8 458.9,63.4 	"/>
	<polygon class="st0" points="464.8,63.4 459.1,72.8 458.1,72.8 463.7,63.4 	"/>
	<polygon class="st0" points="469.6,63.4 464,72.8 462.9,72.8 468.5,63.4 	"/>
	<polygon class="st0" points="474.5,63.4 468.8,72.8 467.7,72.8 473.4,63.4 	"/>
	<polygon class="st0" points="482.5,58.1 473.2,73.5 472.8,72.8 472.5,72.8 480.4,59.8 	"/>
	<polygon class="st0" points="491.7,50.8 475.7,77.4 475.1,76.5 489.6,52.4 	"/>
	<polygon class="st0" points="500.6,44.1 478.1,81.4 477.6,80.5 498.8,45.1 500.2,44.1 	"/>
	<polygon class="st0" points="505.4,44.1 480.6,85.4 480,84.5 504.3,44.1 	"/>
	<polygon class="st0" points="510.2,44.1 483,89.3 482.5,88.4 509.1,44.1 	"/>
	<polygon class="st0" points="499.6,69.8 486.2,92.1 485.1,92.1 499.1,68.9 	"/>
	<polygon class="st0" points="515.1,44.1 502.5,64.9 500.5,66.6 514,44.1 	"/>
	<polygon class="st0" points="502.1,73.7 491,92.1 490,92.1 501.5,72.8 	"/>
	<polygon class="st0" points="519.9,44.1 511.8,57.6 509.7,59.2 518.8,44.1 	"/>
	<polygon class="st0" points="504.5,77.7 495.9,92.1 494.8,92.1 504,76.8 	"/>
	<polygon class="st0" points="524.7,44.1 521,50.2 518.9,51.9 523.6,44.1 	"/>
	<polygon class="st0" points="507,81.7 500.7,92.1 499.6,92.1 506.4,80.8 	"/>
	<polygon class="st0" points="528.8,44.1 528.2,44.6 528.5,44.1 	"/>
	<polygon class="st0" points="509.4,85.7 505.5,92.1 504.4,92.1 508.9,84.7 	"/>
	<polygon class="st0" points="511.9,89.6 510.4,92.1 509.3,92.1 511.3,88.7 	"/>
	<path class="st0" d="M556.6,47.4l-12.1,20.2l1.3-3.9l9-15C555.3,48.2,555.9,47.8,556.6,47.4z"/>
	<path class="st0" d="M563.1,44.6L540.6,82c0-0.7,0-1.3,0.1-2l21.1-35C562.2,44.8,562.6,44.7,563.1,44.6z"/>
	<path class="st0" d="M568.2,44.2l-26,43.3c-0.2-0.3-0.4-0.6-0.5-0.9l25.4-42.4C567.1,44.2,568.2,44.2,568.2,44.2z"/>
	<path class="st0" d="M573,44.2l-27.8,46.3c-0.3-0.2-0.5-0.3-0.8-0.5l27.5-45.7L573,44.2L573,44.2z"/>
	<path class="st0" d="M577.8,44.2l-28.7,47.7c-0.3-0.1-0.6-0.1-1-0.2l28.6-47.5C576.8,44.2,577.8,44.2,577.8,44.2z"/>
	<path class="st0" d="M582.7,44.2l-8,13.2c-1.4,1.3-2.4,2.9-3.1,4.6l0,0v0.1c-0.1,0.2-0.2,0.4-0.2,0.6c-0.1,0.2-0.1,0.4-0.2,0.6v0.1
		l-17.3,28.7h-1.1l28.8-47.9L582.7,44.2L582.7,44.2z"/>
	<path class="st0" d="M567.5,77.5l-8.8,14.6h-1.1l9.8-16.3C567.3,76.4,567.4,76.9,567.5,77.5z"/>
	<path class="st0" d="M587.5,44.2l-5.7,9.6c-0.4,0.1-0.8,0.2-1.3,0.3l5.9-9.8h1.1V44.2z"/>
	<path class="st0" d="M569.9,81.5l-6.4,10.6h-1.1l6.7-11.2C569.4,81.1,569.7,81.3,569.9,81.5z"/>
	<polygon class="st0" points="580.2,63.5 580.7,63.5 579.6,65.4 	"/>
	<polygon class="st0" points="592.3,44.2 586.7,53.6 585.6,53.6 591.3,44.2 	"/>
	<path class="st0" d="M574,82.6l-5.6,9.4h-1.1l5.7-9.5C573.3,82.6,573.7,82.6,574,82.6L574,82.6L574,82.6z"/>
	<polygon class="st0" points="585.6,63.5 579.9,72.9 578.8,72.9 584.5,63.5 	"/>
	<polygon class="st0" points="597.2,44.2 591.5,53.6 590.4,53.6 596.1,44.2 	"/>
	<polygon class="st0" points="578.9,82.7 573.2,92.1 572.1,92.1 577.8,82.7 	"/>
	<polygon class="st0" points="590.4,63.5 584.8,72.9 583.6,72.9 589.3,63.5 	"/>
	<polygon class="st0" points="602,44.2 596.3,53.6 595.2,53.6 600.9,44.2 	"/>
	<polygon class="st0" points="583.7,82.7 578,92.1 576.9,92.1 582.6,82.7 	"/>
	<polygon class="st0" points="595.2,63.5 589.6,72.9 588.5,72.9 594.2,63.5 	"/>
	<polygon class="st0" points="606.8,44.2 601.2,53.6 600.1,53.6 605.7,44.2 	"/>
	<polygon class="st0" points="588.5,82.7 582.9,92.1 581.8,92.1 587.4,82.7 	"/>
	<polygon class="st0" points="600.1,63.5 594.4,72.9 593.3,72.9 599,63.5 	"/>
	<polygon class="st0" points="611.7,44.2 606,53.6 604.9,53.6 610.6,44.2 	"/>
	<polygon class="st0" points="593.4,82.7 587.7,92.1 586.6,92.1 592.3,82.7 	"/>
	<polygon class="st0" points="604.9,63.5 599.2,72.9 598.2,72.9 603.8,63.5 	"/>
	<polygon class="st0" points="616.5,44.2 610.8,53.6 609.8,53.6 615.4,44.2 	"/>
	<polygon class="st0" points="598.2,82.7 592.5,92.1 591.4,92.1 597.1,82.7 	"/>
	<polygon class="st0" points="609.7,63.5 604.1,72.9 603,72.9 608.7,63.5 	"/>
	<polygon class="st0" points="621.3,44.2 615.7,53.6 614.6,53.6 620.3,44.2 	"/>
	<polygon class="st0" points="603,82.7 597.4,92.1 596.3,92.1 601.9,82.7 	"/>
	<polygon class="st0" points="614.6,63.5 608.9,72.9 607.8,72.9 613.5,63.5 	"/>
	<polygon class="st0" points="626.2,44.2 620.5,53.6 619.4,53.6 625.1,44.2 	"/>
	<polygon class="st0" points="607.9,82.7 602.2,92.1 601.1,92.1 606.8,82.7 	"/>
	<polygon class="st0" points="619.4,63.5 613.7,72.9 612.6,72.9 618.3,63.5 	"/>
	<polygon class="st0" points="631,44.2 625.3,53.6 624.2,53.6 629.9,44.2 	"/>
	<polygon class="st0" points="612.7,82.7 607,92.1 605.9,92.1 611.6,82.7 	"/>
	<polygon class="st0" points="624.2,63.5 618.6,72.9 617.5,72.9 623.1,63.5 	"/>
	<polygon class="st0" points="635.8,44.2 630.2,53.6 629.1,53.6 634.7,44.2 	"/>
	<polygon class="st0" points="617.5,82.7 611.9,92.1 610.8,92.1 616.4,82.7 	"/>
	<polygon class="st0" points="629.1,63.5 623.4,72.9 622.3,72.9 628,63.5 	"/>
	<polygon class="st0" points="640.7,44.2 635,53.6 633.9,53.6 639.6,44.2 	"/>
	<polygon class="st0" points="622.4,82.7 616.7,92.1 615.6,92.1 621.3,82.7 	"/>
	<polygon class="st0" points="633.9,63.5 628.2,72.9 627.2,72.9 632.8,63.5 	"/>
	<polygon class="st0" points="645.5,44.2 639.8,53.6 638.7,53.6 644.4,44.2 	"/>
	<polygon class="st0" points="627.2,82.7 621.5,92.1 620.4,92.1 626.1,82.7 	"/>
	<polygon class="st0" points="638.7,63.5 633.1,72.9 632,72.9 637.6,63.5 	"/>
	<polygon class="st0" points="650.3,44.2 644.7,53.6 643.6,53.6 649.2,44.2 	"/>
	<polygon class="st0" points="632,82.7 626.4,92.1 625.3,92.1 630.9,82.7 	"/>
	<polygon class="st0" points="643.6,63.5 637.9,72.9 636.8,72.9 642.5,63.5 	"/>
	<polygon class="st0" points="655.2,44.2 649.5,53.6 648.4,53.6 654.1,44.2 	"/>
	<polygon class="st0" points="636.9,82.7 631.2,92.1 630.1,92.1 635.8,82.7 	"/>
	<polygon class="st0" points="648.4,63.5 642.7,72.9 641.6,72.9 647.3,63.5 	"/>
	<polygon class="st0" points="660,44.2 654.3,53.6 653.3,53.6 658.9,44.2 	"/>
	<polygon class="st0" points="641.7,82.7 636,92.1 634.9,92.1 640.6,82.7 	"/>
	<polygon class="st0" points="653.2,63.5 647.6,72.9 646.5,72.9 652.1,63.5 	"/>
	<polygon class="st0" points="664.8,44.2 659.2,53.6 658.1,53.6 663.7,44.2 	"/>
	<polygon class="st0" points="646.5,82.7 640.9,92.1 639.8,92.1 645.4,82.7 	"/>
	<polygon class="st0" points="657.4,63.5 656.5,66 656.5,66 652.4,72.9 651.3,72.9 657,63.5 	"/>
	<polygon class="st0" points="669.7,44.2 664,53.6 662.9,53.6 668.6,44.2 	"/>
	<polygon class="st0" points="651.4,82.7 645.7,92.1 644.6,92.1 650.3,82.7 	"/>
	<polygon class="st0" points="672.6,45.5 671.3,49.4 668.8,53.6 667.7,53.6 	"/>
	<polygon class="st0" points="656.2,82.7 650.5,92.1 649.4,92.1 655.1,82.7 	"/>
	<polygon class="st0" points="660.7,82.7 660.2,84 655.4,92.1 654.3,92.1 659.9,82.7 	"/>
	<polygon class="st0" points="747,44.2 740,55.7 741.3,51.8 745.9,44.2 	"/>
	<polygon class="st0" points="751.8,44.2 734.5,73 735.8,69.1 750.7,44.2 	"/>
	<polygon class="st0" points="756.7,44.2 728.9,90.3 730.2,86.4 755.6,44.2 	"/>
	<polygon class="st0" points="761.5,44.2 732.7,92.1 731.6,92.1 760.4,44.2 	"/>
	<polygon class="st0" points="766.3,44.2 737.5,92.1 736.4,92.1 765.2,44.2 	"/>
	<polygon class="st0" points="768.1,47.5 766.8,51.4 742.4,92.1 741.3,92.1 	"/>
	<polygon class="st0" points="762.5,64.8 761.2,68.7 747.2,92.1 746.1,92.1 	"/>
	<polygon class="st0" points="757,82.1 755.7,86 752,92.1 750.9,92.1 	"/>
	<polygon class="st0" points="790.5,44.2 789,46.6 789.8,44.2 	"/>
	<polygon class="st0" points="795.3,44.2 789.7,53.6 788.6,53.6 794.2,44.2 	"/>
	<polygon class="st0" points="800.2,44.2 794.5,53.6 793.4,53.6 799.1,44.2 	"/>
	<polygon class="st0" points="805,44.2 799.3,53.6 798.2,53.6 803.9,44.2 	"/>
	<polygon class="st0" points="809.8,44.2 804.2,53.6 803.1,53.6 808.7,44.2 	"/>
	<polygon class="st0" points="814.7,44.2 809,53.6 807.9,53.6 813.6,44.2 	"/>
	<polygon class="st0" points="819.5,44.2 813.8,53.6 812.7,53.6 818.4,44.2 	"/>
	<polygon class="st0" points="824.3,44.2 818.7,53.6 817.6,53.6 823.2,44.2 	"/>
	<polygon class="st0" points="829.2,44.2 823.5,53.6 822.4,53.6 828.1,44.2 	"/>
	<polygon class="st0" points="834,44.2 828.3,53.6 827.2,53.6 832.9,44.2 	"/>
	<polygon class="st0" points="838.8,44.2 833.2,53.6 832.1,53.6 837.7,44.2 	"/>
	<polygon class="st0" points="843.7,44.2 829.7,67.3 831,63.4 842.6,44.2 	"/>
	<polygon class="st0" points="848.5,44.2 824.2,84.6 825.4,80.7 847.4,44.2 	"/>
	<polygon class="st0" points="853.3,44.2 824.5,92.1 823.4,92.1 852.2,44.2 	"/>
	<polygon class="st0" points="858.2,44.2 829.4,92.1 828.3,92.1 857.1,44.2 	"/>
	<polygon class="st0" points="863,44.2 834.2,92.1 833.1,92.1 861.9,44.2 	"/>
	<polygon class="st0" points="857.7,59.1 856.5,63 839,92.1 837.9,92.1 	"/>
	<polygon class="st0" points="867.8,44.2 862.2,53.6 861.1,53.6 866.7,44.2 	"/>
	<polygon class="st0" points="852.2,76.4 850.9,80.3 843.9,92.1 842.8,92.1 	"/>
	<polygon class="st0" points="872.7,44.2 867,53.6 865.9,53.6 871.6,44.2 	"/>
	<polygon class="st0" points="877.5,44.2 871.8,53.6 870.7,53.6 876.4,44.2 	"/>
	<polygon class="st0" points="882.3,44.2 876.7,53.6 875.6,53.6 881.2,44.2 	"/>
	<polygon class="st0" points="887.2,44.2 881.5,53.6 880.4,53.6 886.1,44.2 	"/>
	<polygon class="st0" points="892,44.2 886.3,53.6 885.2,53.6 890.9,44.2 	"/>
	<polygon class="st0" points="896.8,44.2 891.2,53.6 890.1,53.6 895.7,44.2 	"/>
	<polygon class="st0" points="901.7,44.2 896,53.6 894.9,53.6 900.6,44.2 	"/>
	<polygon class="st0" points="906.5,44.2 900.8,53.6 899.7,53.6 905.4,44.2 	"/>
	<polygon class="st0" points="911.1,44.2 910.8,45.1 905.7,53.6 904.6,53.6 910.2,44.2 	"/>
</g>
<g>
	<path class="st0" d="M197.4,15h-1V1h1V15z"/>
	<path class="st0" d="M209.5,1v1h-6.8v5.5h6.8v1h-6.8V15h-1V1H209.5z"/>
	<path class="st0" d="M228.6,1v1h-4.7v13h-1V2h-4.7V1H228.6z"/>
	<path class="st0" d="M241.4,15h-1V8.5h-8V15h-1V1h1v6.5h8V1h1V15z"/>
	<path class="st0" d="M253.4,1v1h-6.8v5.5h6.8v1h-6.8V14h6.8v1h-7.8V1H253.4z"/>
	<path class="st0" d="M261.3,8.5l4.5,6.5h-1.2l-5.1-7.5h3.4c1.5,0,2.7-1.2,2.7-2.7c0-1.6-1.2-2.8-2.8-2.8H258v13h-1V1h5.7
		c2.1,0,3.8,1.7,3.8,3.8s-1.6,3.7-3.7,3.7H261.3z"/>
	<path class="st0" d="M277.7,1v1h-6.8v5.5h6.8v1h-6.8V14h6.8v1h-7.8V1H277.7z"/>
	<path class="st0" d="M280.9,5l1.1-3.9h1.4L281.6,5H280.9z"/>
	<path class="st0" d="M293.4,4.2c0-1.5-1-2.4-2.7-2.4c-1.6,0-2.6,1-2.6,2.4c0,1.8,1.5,2.5,3.1,3.2c2.3,1,3.7,1.9,3.7,4.3
		s-1.9,3.7-4.2,3.7c-2.4,0-4.2-1.4-4.2-3.7h1c0,1.6,1.4,2.8,3.2,2.8c1.7,0,3.2-0.9,3.2-2.7c0-1.7-1.1-2.4-3.2-3.4
		c-1.9-0.9-3.7-1.7-3.7-4.1c0-2,1.4-3.4,3.6-3.4c2.3,0,3.7,1.3,3.7,3.4L293.4,4.2L293.4,4.2z"/>
	<path class="st0" d="M306.4,10.2l-2,4.9h-1l5.7-14h0.9l5.7,14h-1.1l-5.2-12.7l-2.7,6.8h3.7l0.4,1C310.8,10.2,306.4,10.2,306.4,10.2
		z"/>
	<path class="st0" d="M330.6,7.9c1.3,0.6,2.2,1.8,2.2,3.4c0,2.1-1.7,3.7-3.8,3.7h-4.2V1h3.8c2.1,0,3.8,1.7,3.8,3.8
		C332.4,6.1,331.7,7.3,330.6,7.9z M325.8,2v5.5h2.9c1.4,0,2.7-1.2,2.7-2.7S330.2,2,328.6,2C328.6,2,325.8,2,325.8,2z M325.8,8.5V14
		h3.2c1.5,0,2.8-1.2,2.8-2.7s-1.2-2.8-2.8-2.8H325.8z"/>
	<path class="st0" d="M344,1v1h-6.8v5.5h6.8v1h-6.8V14h6.8v1h-7.8V1H344z"/>
	<path class="st0" d="M356.7,1v1H352v13h-1V2h-4.7V1H356.7z"/>
	<path class="st0" d="M369.9,1v1h-4.7v13h-1V2h-4.7V1H369.9z"/>
	<path class="st0" d="M380.4,1v1h-6.8v5.5h6.8v1h-6.8V14h6.8v1h-7.8V1H380.4z"/>
	<path class="st0" d="M388.3,8.5l4.5,6.5h-1.2l-5.1-7.5h3.4c1.5,0,2.7-1.2,2.7-2.7c0-1.6-1.2-2.8-2.8-2.8h-4.7v13h-1V1h5.7
		c2.1,0,3.8,1.7,3.8,3.8s-1.6,3.7-3.7,3.7H388.3z"/>
	<path class="st0" d="M420.3,1h1l-4.6,14h-1l-4.1-12.4L407.5,15h-1l-4.6-14h1.1l4.1,12.6l4-12.6h1l4.1,12.6L420.3,1z"/>
	<path class="st0" d="M423.7,10.2l-2,4.9h-1l5.7-14h0.9l5.7,14h-1l-5.2-12.7l-2.7,6.8h3.7l0.4,1C428.2,10.2,423.7,10.2,423.7,10.2z"
		/>
	<path class="st0" d="M438.4,8.2V15h-1V8.2L431.7,1h1.3l4.9,6.2l5-6.2h1.3L438.4,8.2z"/>
</g>
</svg>
