<svg id="tlx-logo" data-name="tlx-logo" xmlns="http://www.w3.org/2000/svg" viewBox="0 0 2632.32 480.16"><defs><style>.cls-1{fill:#ed1c24;}</style></defs><title>TLX Logo</title><polygon class="cls-1" points="374.3 0 253.33 480.08 278.08 480.08 399.06 0 374.3 0"/><polygon class="cls-1" points="423.93 0 302.96 480.08 327.71 480.08 448.69 0 423.93 0"/><polygon class="cls-1" points="324.68 0 203.71 480.08 228.46 480.08 349.43 0 324.68 0"/><polygon class="cls-1" points="523.19 0 402.21 480.08 426.97 480.08 547.95 0 523.19 0"/><polygon class="cls-1" points="473.56 0 352.59 480.08 377.34 480.08 498.32 0 473.56 0"/><polygon class="cls-1" points="622.44 0 595.52 106.82 620.28 106.82 647.2 0 622.44 0"/><polygon class="cls-1" points="672.07 0 645.16 106.82 669.91 106.82 696.83 0 672.07 0"/><polygon class="cls-1" points="572.82 0 545.9 106.82 570.65 106.82 597.57 0 572.82 0"/><polygon class="cls-1" points="771.33 0 744.41 106.82 769.17 106.82 796.09 0 771.33 0"/><polygon class="cls-1" points="721.7 0 694.78 106.82 719.53 106.82 746.45 0 721.7 0"/><polygon class="cls-1" points="820.96 0 794.04 106.82 818.79 106.82 845.71 0 820.96 0"/><path class="cls-1" d="M235.27,184L208.37,290.76h24.75L260,184H235.27Z" transform="translate(-109.11 -183.97)"/><polygon class="cls-1" points="175.79 0 148.89 106.78 173.64 106.79 200.55 0 175.79 0"/><path class="cls-1" d="M185.65,184l-26.91,106.8h24.75L210.4,184H185.65Z" transform="translate(-109.11 -183.97)"/><polygon class="cls-1" points="275.06 0 248.14 106.81 272.89 106.82 299.81 0 275.06 0"/><polygon class="cls-1" points="225.42 0 198.51 106.8 223.26 106.81 250.18 0 225.42 0"/><path class="cls-1" d="M136,184L109.11,290.78h24.76L160.79,184H136Z" transform="translate(-109.11 -183.97)"/><polygon class="cls-1" points="1357.54 376.82 1331.5 480.16 1356.25 480.16 1382.29 376.82 1357.54 376.82"/><polygon class="cls-1" points="1407.17 376.82 1381.13 480.16 1405.88 480.16 1431.92 376.82 1407.17 376.82"/><polygon class="cls-1" points="1307.92 376.82 1281.88 480.16 1306.63 480.16 1332.66 376.82 1307.92 376.82"/><polygon class="cls-1" points="1506.43 376.82 1480.39 480.16 1505.15 480.16 1531.19 376.82 1506.43 376.82"/><polygon class="cls-1" points="1456.81 376.82 1430.77 480.16 1455.52 480.16 1481.56 376.82 1456.81 376.82"/><polygon class="cls-1" points="1556.06 376.82 1530.02 480.16 1554.77 480.16 1580.81 376.82 1556.06 376.82"/><path class="cls-1" d="M1235,556.05l-1.52-.17c-3.63-.41-8.3-1-13.26-1.86L1192.5,664c10.81,0.08,19.57.11,24.73,0.12l27-107.2C1241.15,556.63,1238.17,556.42,1235,556.05Z" transform="translate(-109.11 -183.97)"/><path class="cls-1" d="M1274,559.09c-1.72-.09-3.6-0.23-5.36-0.33L1242.1,664.13h24.76l26.28-104.28C1286.48,559.64,1280,559.39,1274,559.09Z" transform="translate(-109.11 -183.97)"/><path class="cls-1" d="M1189.81,541.11c-2.89-3-8.39-10.12-10.32-22.42L1143,663.43c8.33,0.15,16.67.26,24.66,0.35l29.55-117.24A32.61,32.61,0,0,1,1189.81,541.11Z" transform="translate(-109.11 -183.97)"/><path class="cls-1" d="M1378.11,560.79s-4.05,0-10.71,0l-26,103.3h24.76l26-103.34h-14Z" transform="translate(-109.11 -183.97)"/><path class="cls-1" d="M1317.86,560.44l-26.13,103.69h24.76l26.05-103.39C1334.79,560.67,1326.44,560.58,1317.86,560.44Z" transform="translate(-109.11 -183.97)"/><path class="cls-1" d="M1065.33,184L954.15,625.18c5.27,5.23,11.61,9.91,21,14.9L1090.09,184h-24.76Z" transform="translate(-109.11 -183.97)"/><path class="cls-1" d="M1115,184L997.62,649.59a181.17,181.17,0,0,0,23.28,5.84L1139.71,184H1115Z" transform="translate(-109.11 -183.97)"/><path class="cls-1" d="M1016.47,184L1001,242.24,933.17,511.5c-2.61,17.27-4.12,32.89-4.16,44-0.07,17.26,2.2,31.06,7,42.85L1040.45,184h-24Z" transform="translate(-109.11 -183.97)"/><path class="cls-1" d="M1214.22,184L1093.75,662c7.32,0.34,15.67.62,24.54,0.86L1239,184h-24.76Z" transform="translate(-109.11 -183.97)"/><path class="cls-1" d="M1164.58,184L1044.94,658.75c8.39,0.82,16.55,1.39,24.29,1.85L1189.34,184h-24.75Z" transform="translate(-109.11 -183.97)"/><polygon class="cls-1" points="2297.16 480.16 2339.33 312.82 2318.98 295.36 2272.41 480.16 2297.16 480.16"/><polygon class="cls-1" points="2345.06 480.16 2378.71 346.61 2358.36 329.14 2320.3 480.16 2345.06 480.16"/><polygon class="cls-1" points="2251.87 469.88 2299.95 279.04 2279.6 261.58 2231.43 452.75 2251.87 469.88"/><polygon class="cls-1" points="2440.84 480.16 2457.48 414.17 2437.12 396.71 2416.09 480.16 2440.84 480.16"/><polygon class="cls-1" points="2392.95 480.16 2418.09 380.39 2397.73 362.93 2368.2 480.16 2392.95 480.16"/><polygon class="cls-1" points="2534.38 480.16 2515.88 464.28 2511.88 480.16 2534.38 480.16"/><polygon class="cls-1" points="2488.73 480.16 2496.85 447.95 2476.5 430.5 2463.99 480.16 2488.73 480.16"/><polygon class="cls-1" points="2128.87 136.03 2116.6 125.22 2057.36 360.31 2086.77 341.84 2140.47 128.73 2128.87 136.03"/><polygon class="cls-1" points="2170.03 110.13 2109.46 350.49 2129.9 367.63 2199.45 91.62 2170.03 110.13"/><polygon class="cls-1" points="2075.99 89.44 1998.41 397.33 2027.81 378.87 2096.25 107.29 2075.99 89.44"/><polygon class="cls-1" points="2287.99 35.92 2191.41 419.19 2211.85 436.33 2260.1 244.85 2252.44 238.27 2263.5 231.36 2317.41 17.41 2287.99 35.92"/><polygon class="cls-1" points="2229.02 73.02 2150.44 384.84 2170.88 401.98 2258.44 54.51 2229.02 73.02"/><polygon class="cls-1" points="1815.4 335.81 1779.02 480.16 1803.78 480.16 1844.81 317.34 1815.4 335.81"/><polygon class="cls-1" points="1883.29 164.65 1924.56 0.88 1899.8 0.88 1863.06 146.68 1883.29 164.65"/><polygon class="cls-1" points="1874.36 298.8 1828.66 480.16 1853.41 480.16 1903.77 280.34 1874.36 298.8"/><polygon class="cls-1" points="1923.84 200.67 1974.19 0.88 1949.43 0.88 1903.61 182.7 1923.84 200.67"/><polygon class="cls-1" points="1842.73 128.63 1874.92 0.88 1850.16 0.88 1822.5 110.66 1842.73 128.63"/><polygon class="cls-1" points="1756.44 372.81 1729.4 480.16 1754.15 480.16 1785.85 354.35 1756.44 372.81"/><polygon class="cls-1" points="2035.38 53.66 1939.45 434.35 1968.87 415.88 2055.65 71.52 2035.38 53.66"/><polygon class="cls-1" points="1933.31 261.8 1880.49 471.38 1909.91 452.91 1962.72 243.34 1933.31 261.8"/><polygon class="cls-1" points="1964.39 236.68 2015.03 35.73 1994.77 17.88 1944.16 218.72 1964.39 236.68"/><polygon class="cls-1" points="1721.08 20.58 1726.05 0.88 1698.9 0.88 1721.08 20.58"/><polygon class="cls-1" points="1585.41 480.16 1605.27 480.16 1608.99 465.35 1585.41 480.16"/><polygon class="cls-1" points="1802.19 92.62 1825.31 0.88 1800.56 0.88 1781.96 74.65 1802.19 92.62"/><polygon class="cls-1" points="1697.51 409.8 1679.78 480.16 1704.54 480.16 1726.92 391.34 1697.51 409.8"/><polygon class="cls-1" points="1761.63 56.59 1775.67 0.88 1750.91 0.88 1741.4 38.63 1761.63 56.59"/><polygon class="cls-1" points="1638.55 446.81 1630.14 480.16 1654.9 480.16 1667.95 428.35 1638.55 446.81"/><polygon class="cls-1" points="2397.8 0.88 2353.98 174.82 2383.36 156.46 2422.56 0.88 2397.8 0.88"/><polygon class="cls-1" points="2448.59 0.88 2414.26 137.15 2443.64 118.78 2473.35 0.88 2448.59 0.88"/><polygon class="cls-1" points="2347.02 0.88 2293.71 212.48 2323.09 194.13 2371.78 0.88 2347.02 0.88"/><polygon class="cls-1" points="2550.16 0.88 2534.8 61.81 2564.19 43.45 2574.92 0.88 2550.16 0.88"/><polygon class="cls-1" points="2499.38 0.88 2474.53 99.48 2503.91 81.13 2524.13 0.88 2499.38 0.88"/><polygon class="cls-1" points="2600.95 0.88 2595.09 24.14 2632.32 0.88 2600.95 0.88"/></svg>