<?xml version="1.0" encoding="utf-8"?>
<!-- Generator: Adobe Illustrator 16.0.0, SVG Export Plug-In . SVG Version: 6.00 Build 0)  -->
<!DOCTYPE svg PUBLIC "-//W3C//DTD SVG 1.0//EN" "http://www.w3.org/TR/2001/REC-SVG-20010904/DTD/svg10.dtd">
<svg version="1.0" id="Layer_1" xmlns="http://www.w3.org/2000/svg" xmlns:xlink="http://www.w3.org/1999/xlink" x="0px" y="0px"
	 width="427.631px" height="69.811px" viewBox="0 0 427.631 69.811" enable-background="new 0 0 427.631 69.811"
	 xml:space="preserve">
<g>
	<g>
		<polygon fill="#FFFFFF" points="427.631,0.999 368.763,0.999 335.391,18.455 311.922,0.999 262.252,0.999 304.668,34.526 
			237.206,69.811 296.074,69.811 328.11,53.055 350.31,70.601 405.498,70.601 359.696,36.534 		"/>
	</g>
	<path fill="#FFFFFF" d="M138.62,0.472l-13,49.256c0,0-1.099,9.338,3.843,13.915c4.944,4.579,10.255,6.958,22.157,6.958
		s78.002,0,78.002,0l3.846-15.197c0,0-56.945,0-58.593,0c-4.63,0-16.112-2.197-13.185-13c2.998-11.062,11.537-41.932,11.537-41.932
		H138.62z"/>
	<polygon fill="#FFFFFF" points="3.562,0 130.396,0 126.561,15.067 81.634,15.067 66.02,70.129 32.873,70.129 48.488,15.067 
		0,15.067 	"/>
</g>
</svg>
